<svg width="80" height="81" viewBox="0 0 80 81" fill="none" xmlns="http://www.w3.org/2000/svg">
<circle cx="40" cy="40.7129" r="40" fill="url(#paint0_radial_752_29038)"/>
<path d="M42.6692 32.6312C40.1136 32.6312 38.1259 35.0732 38.1259 38.0831C38.1259 41.1498 40.1136 43.535 42.6692 43.535C45.168 43.535 47.2124 41.1498 47.2124 38.0831C47.2124 35.0732 45.2248 32.6312 42.6692 32.6312ZM58.1731 31.7225V44.4437C58.1731 46.4881 56.5261 48.0783 54.5385 48.0783H30.9135C28.869 48.0783 27.2788 46.4881 27.2788 44.4437V31.7225C27.2788 29.7348 28.869 28.0879 30.9135 28.0879H54.5385C56.5261 28.0879 58.1731 29.7348 58.1731 31.7225ZM55.4471 41.7745V34.4485C55.2767 34.4485 55.1064 34.4485 54.9928 34.4485C53.2323 34.4485 51.8125 33.0287 51.8125 31.2682C51.8125 31.1546 51.8125 30.9842 51.8125 30.8139H33.5826C33.5826 30.9842 33.6394 31.1546 33.6394 31.2682C33.6394 33.0287 32.1629 34.4485 30.4591 34.4485C30.2888 34.4485 30.1184 34.4485 30.0048 34.4485V41.7745C30.1184 41.7745 30.2888 41.7177 30.4591 41.7177C32.1629 41.7177 33.6394 43.1943 33.6394 44.898C33.6394 45.0684 33.5826 45.2387 33.5826 45.3523H51.8125C51.8125 45.2387 51.8125 45.0684 51.8125 44.898C51.8125 43.1943 53.2323 41.7177 54.9928 41.7177C55.1064 41.7177 55.2767 41.7745 55.4471 41.7745ZM50.9038 53.5302H28.6418C24.8368 53.5302 21.8269 50.5203 21.8269 46.7153V33.0855C21.8269 32.3472 22.3948 31.7225 23.1899 31.7225C23.9282 31.7225 24.5529 32.3472 24.5529 33.0855V46.7153C24.5529 48.9869 26.3702 50.8042 28.6418 50.8042H50.9038C51.6421 50.8042 52.2668 51.4289 52.2668 52.1672C52.2668 52.9623 51.6421 53.5302 50.9038 53.5302Z" fill="black"/>
<defs>
<radialGradient id="paint0_radial_752_29038" cx="0" cy="0" r="1" gradientUnits="userSpaceOnUse" gradientTransform="translate(31.4644 21.6901) rotate(48.475) scale(48.5554 96.5551)">
<stop stop-color="#69EA72"/>
<stop offset="1" stop-color="#A9EF82"/>
</radialGradient>
</defs>
</svg>
