<svg width="66" height="105" viewBox="0 0 66 105" fill="none" xmlns="http://www.w3.org/2000/svg">
<path fill-rule="evenodd" clip-rule="evenodd" d="M59.5523 80.3593C69.4589 70.4527 69.4589 54.391 59.5523 44.4844C49.6457 34.5779 33.584 34.5779 23.6774 44.4844C13.7708 54.391 13.7708 70.4527 23.6774 80.3593C33.584 90.2659 49.6457 90.2659 59.5523 80.3593ZM62.4223 83.2293C73.9139 71.7377 73.9139 53.1061 62.4223 41.6144C50.9307 30.1228 32.2991 30.1228 20.8074 41.6144C9.3158 53.1061 9.3158 71.7377 20.8074 83.2293C32.2991 94.7209 50.9307 94.7209 62.4223 83.2293Z" fill="#69DE7A"/>
<path fill-rule="evenodd" clip-rule="evenodd" d="M79.648 60.2695C89.5546 50.3629 89.5546 34.3012 79.648 24.3946C69.7415 14.488 53.6797 14.488 43.7731 24.3946C33.8666 34.3012 33.8666 50.3629 43.7731 60.2695C53.6797 70.176 69.7415 70.176 79.648 60.2695ZM82.518 63.1394C94.0097 51.6478 94.0097 33.0162 82.518 21.5246C71.0264 10.033 52.3948 10.033 40.9031 21.5246C29.4115 33.0162 29.4115 51.6478 40.9031 63.1394C52.3948 74.6311 71.0264 74.6311 82.518 63.1394Z" fill="#69DE7A"/>
</svg>
