<svg width="1440" height="312" viewBox="0 0 1440 312" fill="none" xmlns="http://www.w3.org/2000/svg">
<rect width="1440" height="312" fill="#EEFDEB"/>
<path d="M111.85 267.219L78.4319 233.832C87.7025 225.294 102.143 225.518 111.143 234.509C120.142 243.5 120.38 257.941 111.85 267.219Z" stroke="#69DE7A" stroke-width="2"/>
<path d="M121.225 257.832L87.8069 224.445C97.0775 215.908 111.518 216.132 120.518 225.122C129.517 234.113 129.755 248.554 121.225 257.832Z" stroke="#69DE7A" stroke-width="2"/>
<circle r="15" transform="matrix(1 0 0 -1 1344 190.199)" stroke="#69DE7A" stroke-width="2"/>
<circle r="15" transform="matrix(1 0 0 -1 1344 167)" stroke="#69DE7A" stroke-width="2"/>
<path d="M1347.73 242.672L1347.73 215.908" stroke="#69DE7A" stroke-width="2"/>
<path fill-rule="evenodd" clip-rule="evenodd" d="M1132.23 59.9888L1125.78 55.2324L1132.02 46.0412L1122 42.6234L1124.31 34.6261L1134.5 38.1995V27H1142.4V38.1273L1152.41 34.6398L1155 42.6142L1144.88 46.042L1151.11 55.1399L1144.75 60L1138.45 51.0399L1132.23 59.9888ZM1138.45 49.248L1144.97 58.5217L1149.7 54.9028L1143.25 45.4783L1153.71 41.9347L1151.78 35.9784L1141.39 39.5974V28.0619H1135.51V39.6728L1124.97 35.9784L1123.25 41.9347L1133.65 45.4783L1127.2 54.9781L1132 58.5217L1138.45 49.248Z" fill="#69DE7A"/>
<path d="M402.404 145V108.52H425.78V113.368H408.164V123.928H423.86V128.776H408.164V140.152H426.5V145H402.404ZM442.11 145.768C439.902 145.768 437.934 145.224 436.206 144.136C434.51 143.016 433.166 141.496 432.174 139.576C431.214 137.624 430.734 135.4 430.734 132.904C430.734 130.472 431.246 128.296 432.27 126.376C433.326 124.424 434.75 122.872 436.542 121.72C438.334 120.568 440.318 119.992 442.494 119.992C444.254 119.992 445.854 120.408 447.294 121.24C448.734 122.072 449.886 123.24 450.75 124.744L450.846 120.76H456.174V145H450.846L450.75 141.016C448.926 144.184 446.046 145.768 442.11 145.768ZM443.646 140.824C445.822 140.824 447.582 140.088 448.926 138.616C450.302 137.112 450.99 135.192 450.99 132.856C450.99 130.52 450.302 128.616 448.926 127.144C447.582 125.672 445.822 124.936 443.646 124.936C441.502 124.936 439.742 125.672 438.366 127.144C437.022 128.616 436.35 130.52 436.35 132.856C436.35 135.192 437.022 137.112 438.366 138.616C439.742 140.088 441.502 140.824 443.646 140.824ZM462.997 145V120.76H468.277L468.325 125.608C468.965 123.944 469.893 122.664 471.109 121.768C472.325 120.84 473.717 120.376 475.285 120.376C475.797 120.376 476.309 120.424 476.821 120.52C477.365 120.616 477.797 120.744 478.117 120.904L477.589 126.088C476.661 125.704 475.669 125.512 474.613 125.512C472.693 125.512 471.189 126.216 470.101 127.624C469.045 129.032 468.517 131.016 468.517 133.576V145H462.997ZM485.435 145V125.368H480.347V120.76H485.435V113.992H490.955V120.76H497.147V125.368H490.955V145H485.435ZM501.671 145V106.12H507.191V124.312C507.863 122.936 508.871 121.88 510.215 121.144C511.559 120.376 513.079 119.992 514.775 119.992C517.623 119.992 519.799 120.888 521.303 122.68C522.807 124.44 523.559 126.984 523.559 130.312V145H518.039V131.32C518.039 127.032 516.375 124.888 513.047 124.888C511.223 124.888 509.783 125.496 508.727 126.712C507.703 127.928 507.191 129.624 507.191 131.8V145H501.671ZM550.387 157.192C548.627 157.192 546.867 156.984 545.107 156.568C543.379 156.184 542.067 155.688 541.171 155.08L541.795 150.328C542.883 150.968 544.163 151.48 545.635 151.864C547.107 152.248 548.563 152.44 550.003 152.44C552.851 152.44 554.963 151.72 556.339 150.28C557.715 148.872 558.403 146.712 558.403 143.8V140.92C557.507 142.424 556.323 143.592 554.851 144.424C553.379 145.224 551.683 145.624 549.763 145.624C547.555 145.624 545.587 145.08 543.859 143.992C542.163 142.904 540.819 141.4 539.827 139.48C538.867 137.528 538.387 135.32 538.387 132.856C538.387 130.456 538.899 128.28 539.923 126.328C540.979 124.376 542.403 122.84 544.195 121.72C545.987 120.568 547.987 119.992 550.195 119.992C551.923 119.992 553.507 120.408 554.947 121.24C556.387 122.072 557.539 123.24 558.403 124.744L558.499 120.76H563.827V143.416C563.827 147.96 562.691 151.384 560.419 153.688C558.179 156.024 554.835 157.192 550.387 157.192ZM551.299 140.776C553.475 140.776 555.235 140.04 556.579 138.568C557.955 137.064 558.643 135.144 558.643 132.808C558.643 131.24 558.323 129.864 557.683 128.68C557.075 127.496 556.211 126.568 555.091 125.896C554.003 125.192 552.739 124.84 551.299 124.84C549.155 124.84 547.395 125.592 546.019 127.096C544.675 128.568 544.003 130.472 544.003 132.808C544.003 135.144 544.675 137.064 546.019 138.568C547.395 140.04 549.155 140.776 551.299 140.776ZM570.651 145V120.76H575.931L575.979 125.608C576.619 123.944 577.547 122.664 578.763 121.768C579.979 120.84 581.371 120.376 582.939 120.376C583.451 120.376 583.963 120.424 584.475 120.52C585.019 120.616 585.451 120.744 585.771 120.904L585.243 126.088C584.315 125.704 583.323 125.512 582.267 125.512C580.347 125.512 578.843 126.216 577.755 127.624C576.699 129.032 576.171 131.016 576.171 133.576V145H570.651ZM600.754 145.768C598.29 145.768 596.082 145.208 594.13 144.088C592.178 142.968 590.642 141.432 589.522 139.48C588.402 137.528 587.842 135.32 587.842 132.856C587.842 130.424 588.418 128.248 589.57 126.328C590.722 124.376 592.274 122.84 594.226 121.72C596.178 120.568 598.354 119.992 600.754 119.992C603.218 119.992 605.426 120.552 607.378 121.672C609.33 122.792 610.866 124.328 611.986 126.28C613.106 128.2 613.666 130.392 613.666 132.856C613.666 135.288 613.09 137.48 611.938 139.432C610.786 141.384 609.234 142.936 607.282 144.088C605.362 145.208 603.186 145.768 600.754 145.768ZM600.754 140.824C602.93 140.824 604.69 140.088 606.034 138.616C607.41 137.112 608.098 135.192 608.098 132.856C608.098 130.52 607.41 128.616 606.034 127.144C604.69 125.672 602.93 124.936 600.754 124.936C598.61 124.936 596.85 125.672 595.474 127.144C594.13 128.616 593.458 130.52 593.458 132.856C593.458 135.192 594.13 137.112 595.474 138.616C596.85 140.088 598.61 140.824 600.754 140.824ZM623.28 145L615.072 120.76H620.784L626.016 139.144L631.584 120.76H636.288L642.192 139.24L647.424 120.76H653.04L644.784 145H639.744L633.84 127.24L628.272 145H623.28ZM657.067 145V120.76H662.395L662.443 124.504C663.147 123.096 664.171 121.992 665.515 121.192C666.859 120.392 668.411 119.992 670.171 119.992C673.019 119.992 675.195 120.888 676.699 122.68C678.203 124.44 678.955 126.984 678.955 130.312V145H673.435V131.32C673.435 127.032 671.771 124.888 668.443 124.888C666.619 124.888 665.179 125.496 664.123 126.712C663.099 127.928 662.587 129.624 662.587 131.8V145H657.067ZM695.319 145V120.76H700.647L700.695 124.504C701.399 123.096 702.423 121.992 703.767 121.192C705.111 120.392 706.663 119.992 708.423 119.992C711.271 119.992 713.447 120.888 714.951 122.68C716.455 124.44 717.207 126.984 717.207 130.312V145H711.687V131.32C711.687 127.032 710.023 124.888 706.695 124.888C704.871 124.888 703.431 125.496 702.375 126.712C701.351 127.928 700.839 129.624 700.839 131.8V145H695.319ZM734.547 145.768C731.091 145.768 728.419 144.856 726.531 143.032C724.643 141.208 723.699 138.632 723.699 135.304V120.76H729.267V135.208C729.267 138.984 731.043 140.872 734.595 140.872C738.115 140.872 739.875 138.984 739.875 135.208V120.76H745.395V135.304C745.395 138.632 744.451 141.208 742.563 143.032C740.675 144.856 738.003 145.768 734.547 145.768ZM754.391 145V125.368H749.303V120.76H754.391V113.992H759.911V120.76H766.103V125.368H759.911V145H754.391ZM770.627 145V120.76H775.907L775.955 125.608C776.595 123.944 777.523 122.664 778.739 121.768C779.955 120.84 781.347 120.376 782.915 120.376C783.427 120.376 783.939 120.424 784.451 120.52C784.995 120.616 785.427 120.744 785.747 120.904L785.219 126.088C784.291 125.704 783.299 125.512 782.243 125.512C780.323 125.512 778.819 126.216 777.731 127.624C776.675 129.032 776.147 131.016 776.147 133.576V145H770.627ZM792.887 115.144C791.895 115.144 791.063 114.824 790.391 114.184C789.751 113.512 789.431 112.68 789.431 111.688C789.431 110.696 789.751 109.88 790.391 109.24C791.063 108.6 791.895 108.28 792.887 108.28C793.911 108.28 794.743 108.6 795.383 109.24C796.023 109.88 796.343 110.696 796.343 111.688C796.343 112.68 796.023 113.512 795.383 114.184C794.743 114.824 793.911 115.144 792.887 115.144ZM790.151 145V120.76H795.671V145H790.151ZM804.808 145V125.368H799.72V120.76H804.808V113.992H810.328V120.76H816.52V125.368H810.328V145H804.808ZM823.78 115.144C822.788 115.144 821.956 114.824 821.284 114.184C820.644 113.512 820.324 112.68 820.324 111.688C820.324 110.696 820.644 109.88 821.284 109.24C821.956 108.6 822.788 108.28 823.78 108.28C824.804 108.28 825.636 108.6 826.276 109.24C826.916 109.88 827.236 110.696 827.236 111.688C827.236 112.68 826.916 113.512 826.276 114.184C825.636 114.824 824.804 115.144 823.78 115.144ZM821.044 145V120.76H826.564V145H821.044ZM844.772 145.768C842.308 145.768 840.1 145.208 838.148 144.088C836.196 142.968 834.66 141.432 833.54 139.48C832.42 137.528 831.86 135.32 831.86 132.856C831.86 130.424 832.436 128.248 833.588 126.328C834.74 124.376 836.292 122.84 838.244 121.72C840.196 120.568 842.372 119.992 844.772 119.992C847.236 119.992 849.444 120.552 851.396 121.672C853.348 122.792 854.884 124.328 856.004 126.28C857.124 128.2 857.684 130.392 857.684 132.856C857.684 135.288 857.108 137.48 855.956 139.432C854.804 141.384 853.252 142.936 851.3 144.088C849.38 145.208 847.204 145.768 844.772 145.768ZM844.772 140.824C846.948 140.824 848.708 140.088 850.052 138.616C851.428 137.112 852.116 135.192 852.116 132.856C852.116 130.52 851.428 128.616 850.052 127.144C848.708 125.672 846.948 124.936 844.772 124.936C842.628 124.936 840.868 125.672 839.492 127.144C838.148 128.616 837.476 130.52 837.476 132.856C837.476 135.192 838.148 137.112 839.492 138.616C840.868 140.088 842.628 140.824 844.772 140.824ZM862.952 145V120.76H868.28L868.328 124.504C869.032 123.096 870.056 121.992 871.4 121.192C872.744 120.392 874.296 119.992 876.056 119.992C878.904 119.992 881.08 120.888 882.584 122.68C884.088 124.44 884.84 126.984 884.84 130.312V145H879.32V131.32C879.32 127.032 877.656 124.888 874.328 124.888C872.504 124.888 871.064 125.496 870.008 126.712C868.984 127.928 868.472 129.624 868.472 131.8V145H862.952ZM903.508 145V125.368H898.42V120.76H903.508V113.992H909.028V120.76H915.22V125.368H909.028V145H903.508ZM930.041 145.768C927.577 145.768 925.369 145.208 923.417 144.088C921.465 142.968 919.929 141.432 918.809 139.48C917.689 137.528 917.129 135.32 917.129 132.856C917.129 130.424 917.705 128.248 918.857 126.328C920.009 124.376 921.561 122.84 923.513 121.72C925.465 120.568 927.641 119.992 930.041 119.992C932.505 119.992 934.713 120.552 936.665 121.672C938.617 122.792 940.153 124.328 941.273 126.28C942.393 128.2 942.953 130.392 942.953 132.856C942.953 135.288 942.377 137.48 941.225 139.432C940.073 141.384 938.521 142.936 936.569 144.088C934.649 145.208 932.473 145.768 930.041 145.768ZM930.041 140.824C932.217 140.824 933.977 140.088 935.321 138.616C936.697 137.112 937.385 135.192 937.385 132.856C937.385 130.52 936.697 128.616 935.321 127.144C933.977 125.672 932.217 124.936 930.041 124.936C927.897 124.936 926.137 125.672 924.761 127.144C923.417 128.616 922.745 130.52 922.745 132.856C922.745 135.192 923.417 137.112 924.761 138.616C926.137 140.088 927.897 140.824 930.041 140.824ZM959.774 145V125.368H955.118V120.76H959.774V117.352C959.774 113.64 960.622 110.808 962.318 108.856C964.046 106.872 966.526 105.88 969.758 105.88C970.75 105.88 971.71 105.976 972.638 106.168C973.598 106.36 974.414 106.616 975.086 106.936L974.558 111.448C973.95 111.224 973.294 111.048 972.59 110.92C971.886 110.792 971.214 110.728 970.574 110.728C968.718 110.728 967.374 111.288 966.542 112.408C965.71 113.528 965.294 115.368 965.294 117.928V120.76H972.302V125.368H965.294V145H959.774ZM987.566 145.768C984.11 145.768 981.438 144.856 979.55 143.032C977.662 141.208 976.718 138.632 976.718 135.304V120.76H982.286V135.208C982.286 138.984 984.062 140.872 987.614 140.872C991.134 140.872 992.894 138.984 992.894 135.208V120.76H998.414V135.304C998.414 138.632 997.47 141.208 995.582 143.032C993.694 144.856 991.022 145.768 987.566 145.768ZM1017.39 145.768C1014.55 145.768 1012.08 145.256 1010 144.232C1007.95 143.176 1006.37 141.688 1005.25 139.768C1004.13 137.848 1003.57 135.576 1003.57 132.952C1003.57 130.392 1004.08 128.152 1005.11 126.232C1006.16 124.28 1007.62 122.76 1009.47 121.672C1011.33 120.552 1013.44 119.992 1015.81 119.992C1018.08 119.992 1020.07 120.488 1021.76 121.48C1023.46 122.472 1024.77 123.864 1025.7 125.656C1026.63 127.448 1027.09 129.56 1027.09 131.992C1027.09 132.76 1027.04 133.56 1026.95 134.392H1009.04C1009.33 136.664 1010.23 138.376 1011.73 139.528C1013.27 140.68 1015.31 141.256 1017.87 141.256C1020.72 141.256 1023.44 140.632 1026.03 139.384L1026.61 143.704C1025.46 144.344 1024.05 144.84 1022.39 145.192C1020.75 145.576 1019.09 145.768 1017.39 145.768ZM1015.62 124.264C1013.83 124.264 1012.34 124.824 1011.15 125.944C1010 127.064 1009.28 128.648 1008.99 130.696H1021.86C1021.86 130.344 1021.83 130.024 1021.76 129.736C1021.51 127.976 1020.85 126.632 1019.79 125.704C1018.74 124.744 1017.35 124.264 1015.62 124.264ZM1032.79 145V106.12H1038.31V145H1032.79ZM577.373 218.76L583.853 205.224L573.581 182.76H579.581L586.733 199.512L593.501 182.76H599.357L582.989 218.76H577.373ZM613.505 207.768C611.041 207.768 608.833 207.208 606.881 206.088C604.929 204.968 603.393 203.432 602.273 201.48C601.153 199.528 600.593 197.32 600.593 194.856C600.593 192.424 601.169 190.248 602.321 188.328C603.473 186.376 605.025 184.84 606.977 183.72C608.929 182.568 611.105 181.992 613.505 181.992C615.969 181.992 618.177 182.552 620.129 183.672C622.081 184.792 623.617 186.328 624.737 188.28C625.857 190.2 626.417 192.392 626.417 194.856C626.417 197.288 625.841 199.48 624.689 201.432C623.537 203.384 621.985 204.936 620.033 206.088C618.113 207.208 615.937 207.768 613.505 207.768ZM613.505 202.824C615.681 202.824 617.441 202.088 618.785 200.616C620.161 199.112 620.849 197.192 620.849 194.856C620.849 192.52 620.161 190.616 618.785 189.144C617.441 187.672 615.681 186.936 613.505 186.936C611.361 186.936 609.601 187.672 608.225 189.144C606.881 190.616 606.209 192.52 606.209 194.856C606.209 197.192 606.881 199.112 608.225 200.616C609.601 202.088 611.361 202.824 613.505 202.824ZM642.341 207.768C638.885 207.768 636.213 206.856 634.325 205.032C632.437 203.208 631.493 200.632 631.493 197.304V182.76H637.061V197.208C637.061 200.984 638.837 202.872 642.389 202.872C645.909 202.872 647.669 200.984 647.669 197.208V182.76H653.189V197.304C653.189 200.632 652.245 203.208 650.357 205.032C648.469 206.856 645.797 207.768 642.341 207.768ZM659.881 207V182.76H665.161L665.209 187.608C665.849 185.944 666.777 184.664 667.993 183.768C669.209 182.84 670.601 182.376 672.169 182.376C672.681 182.376 673.193 182.424 673.705 182.52C674.249 182.616 674.681 182.744 675.001 182.904L674.473 188.088C673.545 187.704 672.553 187.512 671.497 187.512C669.577 187.512 668.073 188.216 666.985 189.624C665.929 191.032 665.401 193.016 665.401 195.576V207H659.881ZM702.718 207.768C700.926 207.768 699.31 207.368 697.87 206.568C696.462 205.736 695.342 204.568 694.51 203.064L694.366 207H689.086V168.12H694.606V186.6C696.462 183.528 699.31 181.992 703.15 181.992C705.358 181.992 707.31 182.552 709.006 183.672C710.702 184.76 712.03 186.264 712.99 188.184C713.982 190.104 714.478 192.328 714.478 194.856C714.478 197.256 713.95 199.432 712.894 201.384C711.87 203.336 710.462 204.888 708.67 206.04C706.91 207.192 704.926 207.768 702.718 207.768ZM701.566 202.824C703.742 202.824 705.502 202.088 706.846 200.616C708.222 199.112 708.91 197.192 708.91 194.856C708.91 192.52 708.222 190.616 706.846 189.144C705.502 187.672 703.742 186.936 701.566 186.936C699.422 186.936 697.662 187.672 696.286 189.144C694.942 190.616 694.27 192.52 694.27 194.856C694.27 197.192 694.942 199.112 696.286 200.616C697.662 202.088 699.422 202.824 701.566 202.824ZM732.289 207.768C729.441 207.768 726.977 207.256 724.897 206.232C722.849 205.176 721.265 203.688 720.145 201.768C719.025 199.848 718.465 197.576 718.465 194.952C718.465 192.392 718.977 190.152 720.001 188.232C721.057 186.28 722.513 184.76 724.369 183.672C726.225 182.552 728.337 181.992 730.705 181.992C732.977 181.992 734.961 182.488 736.657 183.48C738.353 184.472 739.665 185.864 740.593 187.656C741.521 189.448 741.985 191.56 741.985 193.992C741.985 194.76 741.937 195.56 741.841 196.392H723.937C724.225 198.664 725.121 200.376 726.625 201.528C728.161 202.68 730.209 203.256 732.769 203.256C735.617 203.256 738.337 202.632 740.929 201.384L741.505 205.704C740.353 206.344 738.945 206.84 737.281 207.192C735.649 207.576 733.985 207.768 732.289 207.768ZM730.513 186.264C728.721 186.264 727.233 186.824 726.049 187.944C724.897 189.064 724.177 190.648 723.889 192.696H736.753C736.753 192.344 736.721 192.024 736.657 191.736C736.401 189.976 735.745 188.632 734.689 187.704C733.633 186.744 732.241 186.264 730.513 186.264ZM755.153 207.768C753.521 207.768 751.905 207.56 750.305 207.144C748.705 206.728 747.441 206.168 746.513 205.464L747.233 201.048C748.321 201.816 749.569 202.424 750.977 202.872C752.385 203.288 753.729 203.496 755.009 203.496C756.577 203.496 757.777 203.24 758.609 202.728C759.473 202.216 759.905 201.496 759.905 200.568C759.905 199.96 759.761 199.464 759.473 199.08C759.217 198.664 758.705 198.296 757.937 197.976C757.201 197.624 756.129 197.256 754.721 196.872C751.905 196.04 749.905 195.048 748.721 193.896C747.537 192.744 746.945 191.224 746.945 189.336C746.945 187.064 747.793 185.272 749.489 183.96C751.185 182.648 753.505 181.992 756.449 181.992C757.857 181.992 759.281 182.184 760.721 182.568C762.193 182.92 763.377 183.368 764.273 183.912L763.505 188.184C761.297 186.904 758.993 186.264 756.593 186.264C753.713 186.264 752.273 187.16 752.273 188.952C752.273 189.784 752.593 190.456 753.233 190.968C753.905 191.448 755.169 191.96 757.025 192.504C760.097 193.4 762.257 194.44 763.505 195.624C764.785 196.808 765.425 198.392 765.425 200.376C765.425 202.648 764.497 204.456 762.641 205.8C760.785 207.112 758.289 207.768 755.153 207.768ZM772.697 207V187.368H767.609V182.76H772.697V175.992H778.217V182.76H784.409V187.368H778.217V207H772.697ZM798.614 207V168.12H804.134V207H798.614ZM813.702 177.144C812.71 177.144 811.878 176.824 811.206 176.184C810.566 175.512 810.246 174.68 810.246 173.688C810.246 172.696 810.566 171.88 811.206 171.24C811.878 170.6 812.71 170.28 813.702 170.28C814.726 170.28 815.558 170.6 816.198 171.24C816.838 171.88 817.158 172.696 817.158 173.688C817.158 174.68 816.838 175.512 816.198 176.184C815.558 176.824 814.726 177.144 813.702 177.144ZM810.966 207V182.76H816.486V207H810.966ZM825.191 207V187.368H820.535V182.76H825.191V179.352C825.191 175.64 826.039 172.808 827.735 170.856C829.463 168.872 831.943 167.88 835.175 167.88C836.167 167.88 837.127 167.976 838.055 168.168C839.015 168.36 839.831 168.616 840.503 168.936L839.975 173.448C839.367 173.224 838.711 173.048 838.007 172.92C837.303 172.792 836.631 172.728 835.991 172.728C834.135 172.728 832.791 173.288 831.959 174.408C831.127 175.528 830.711 177.368 830.711 179.928V182.76H837.719V187.368H830.711V207H825.191ZM853.819 207.768C850.971 207.768 848.507 207.256 846.427 206.232C844.379 205.176 842.795 203.688 841.675 201.768C840.555 199.848 839.995 197.576 839.995 194.952C839.995 192.392 840.507 190.152 841.531 188.232C842.587 186.28 844.043 184.76 845.899 183.672C847.755 182.552 849.867 181.992 852.235 181.992C854.507 181.992 856.491 182.488 858.187 183.48C859.883 184.472 861.195 185.864 862.123 187.656C863.051 189.448 863.515 191.56 863.515 193.992C863.515 194.76 863.467 195.56 863.371 196.392H845.467C845.755 198.664 846.651 200.376 848.155 201.528C849.691 202.68 851.739 203.256 854.299 203.256C857.147 203.256 859.867 202.632 862.459 201.384L863.035 205.704C861.883 206.344 860.475 206.84 858.811 207.192C857.179 207.576 855.515 207.768 853.819 207.768ZM852.043 186.264C850.251 186.264 848.763 186.824 847.579 187.944C846.427 189.064 845.707 190.648 845.419 192.696H858.283C858.283 192.344 858.251 192.024 858.187 191.736C857.931 189.976 857.275 188.632 856.219 187.704C855.163 186.744 853.771 186.264 852.043 186.264Z" fill="black"/>
<path fill-rule="evenodd" clip-rule="evenodd" d="M230.406 93.0222L224.302 82.5761L225.53 81.8991C229.065 79.9502 234.074 78.4057 239.479 78.0686C244.931 77.7284 251.225 78.595 256.969 81.9913C260.445 84.0467 263.078 83.9609 265.179 83.3102C267.578 82.5674 269.796 80.9025 271.691 79.0624L272.623 78.157L281.346 86.6299L280.33 87.6163C277.869 90.0069 273.991 93.2065 268.877 94.7901C263.465 96.466 257.17 96.1687 250.629 92.301C247.534 90.4708 243.882 89.8571 240.258 90.0832C236.586 90.3122 233.383 91.3808 231.547 92.3932L230.406 93.0222ZM278.408 87.5597C276.031 89.7132 272.684 92.1828 268.483 93.4836C263.423 95.0507 257.517 94.7925 251.308 91.1209C247.926 89.1214 243.993 88.4816 240.175 88.7197C236.319 88.9602 232.924 90.0792 230.903 91.1931L226.174 83.0992C226.557 82.888 226.959 82.6815 227.378 82.4808C230.631 80.9256 234.937 79.7206 239.561 79.4321C244.822 79.1039 250.833 79.9447 256.29 83.1713C260.098 85.4227 263.12 85.3762 265.573 84.6167C268.264 83.7833 270.664 81.9517 272.623 80.0489L279.398 86.6298C279.09 86.9297 278.759 87.2412 278.408 87.5597Z" fill="#69DE7A"/>
<path fill-rule="evenodd" clip-rule="evenodd" d="M219.104 111.319L213 100.873L214.228 100.196C217.763 98.2471 222.772 96.7026 228.177 96.3654C233.63 96.0253 239.923 96.8919 245.667 100.288C249.143 102.344 251.776 102.258 253.877 101.607C256.276 100.864 258.495 99.1994 260.389 97.3593L261.321 96.4539L270.044 104.927L269.029 105.913C266.567 108.304 262.689 111.503 257.575 113.087C252.164 114.763 245.868 114.466 239.327 110.598C236.232 108.768 232.58 108.154 228.956 108.38C225.284 108.609 222.082 109.678 220.245 110.69L219.104 111.319ZM267.106 105.857C264.729 108.01 261.382 110.48 257.181 111.781C252.121 113.348 246.216 113.089 240.006 109.418C236.624 107.418 232.691 106.778 228.874 107.017C225.018 107.257 221.622 108.376 219.601 109.49L214.872 101.396C215.255 101.185 215.657 100.978 216.077 100.778C219.329 99.2225 223.635 98.0174 228.26 97.729C233.52 97.4008 239.531 98.2416 244.988 101.468C248.796 103.72 251.818 103.673 254.271 102.914C256.962 102.08 259.362 100.249 261.321 98.3458L268.096 104.927C267.788 105.227 267.458 105.538 267.106 105.857Z" fill="#69DE7A"/>
</svg>
