<svg width="17" height="15" viewBox="0 0 17 15" fill="none" xmlns="http://www.w3.org/2000/svg">
<path d="M16.6437 2.44229H3.36125L3.2527 1.80557C3.07731 0.761803 2.17276 -0.00183405 1.11443 3.30847e-06H0.36182C0.161971 3.30847e-06 0 0.162116 0 0.361823C0 0.561672 0.161971 0.723643 0.36182 0.723643H1.11076C1.81687 0.722088 2.42024 1.23203 2.53641 1.92853L4.2405 11.8931C4.16616 12.0983 4.12814 12.3152 4.12842 12.5335C4.128 13.522 4.87934 14.3487 5.86332 14.4424C6.84744 14.5361 7.74125 13.8662 7.92753 12.8953H11.1874C11.3749 13.8648 12.2682 14.533 13.2511 14.4389C14.2339 14.3447 14.9843 13.5191 14.9843 12.5317C14.9843 11.5443 14.2339 10.7188 13.2511 10.6246C12.2682 10.5305 11.3749 11.1987 11.1874 12.168H7.92753C7.79891 11.5053 7.33123 10.959 6.69635 10.7298C6.06133 10.5005 5.35253 10.6222 4.83029 11.0501L4.60953 9.7656H13.4235C14.397 9.76221 15.2504 9.11404 15.5149 8.17713L16.9874 2.89456C17.0168 2.78587 16.9941 2.66955 16.926 2.57981C16.8592 2.49161 16.7544 2.44045 16.6437 2.44229ZM13.0689 11.3431C13.7284 11.3431 14.2629 11.8777 14.2629 12.5371C14.2629 13.1965 13.7284 13.7311 13.0689 13.7311C12.4094 13.7311 11.8749 13.1965 11.8749 12.5371C11.8756 11.878 12.4097 11.3438 13.0689 11.3431ZM6.0496 11.3431C6.70907 11.3431 7.2436 11.8777 7.2436 12.5371C7.2436 13.1965 6.70907 13.7311 6.0496 13.7311C5.39013 13.7311 4.85559 13.1965 4.85559 12.5371C4.85588 12.3923 4.88287 12.2487 4.93517 12.1138C4.94633 12.0916 4.95608 12.0685 4.96414 12.0451C5.15565 11.6172 5.58093 11.3422 6.0496 11.3431ZM14.8237 7.98901C14.6485 8.614 14.0797 9.04677 13.4307 9.04917H4.49024L3.48435 3.16593H16.1661L14.8237 7.98901Z" fill="#E2395D"/>
</svg>
