<svg width="20" height="20" viewBox="0 0 20 20" fill="none" xmlns="http://www.w3.org/2000/svg">
<path fill-rule="evenodd" clip-rule="evenodd" d="M1.99999 4C1.82318 4 1.65361 4.07024 1.52859 4.19526C1.40357 4.32029 1.33333 4.48986 1.33333 4.66667C1.33333 4.84348 1.40357 5.01305 1.52859 5.13807C1.65361 5.2631 1.82318 5.33333 1.99999 5.33333H18C18.1768 5.33333 18.3464 5.2631 18.4714 5.13807C18.5964 5.01305 18.6667 4.84348 18.6667 4.66667C18.6667 4.48986 18.5964 4.32029 18.4714 4.19526C18.3464 4.07024 18.1768 4 18 4H1.99999ZM1.33333 10C1.33333 9.82319 1.40357 9.65362 1.52859 9.5286C1.65361 9.40357 1.82318 9.33333 1.99999 9.33333H18C18.1768 9.33333 18.3464 9.40357 18.4714 9.5286C18.5964 9.65362 18.6667 9.82319 18.6667 10C18.6667 10.1768 18.5964 10.3464 18.4714 10.4714C18.3464 10.5964 18.1768 10.6667 18 10.6667H1.99999C1.82318 10.6667 1.65361 10.5964 1.52859 10.4714C1.40357 10.3464 1.33333 10.1768 1.33333 10ZM1.33333 15.3333C1.33333 15.1565 1.40357 14.987 1.52859 14.8619C1.65361 14.7369 1.82318 14.6667 1.99999 14.6667H18C18.1768 14.6667 18.3464 14.7369 18.4714 14.8619C18.5964 14.987 18.6667 15.1565 18.6667 15.3333C18.6667 15.5101 18.5964 15.6797 18.4714 15.8047C18.3464 15.9298 18.1768 16 18 16H1.99999C1.82318 16 1.65361 15.9298 1.52859 15.8047C1.40357 15.6797 1.33333 15.5101 1.33333 15.3333Z" fill="#E2395D"/>
</svg>
