<svg width="15" height="15" viewBox="0 0 15 15" fill="none" xmlns="http://www.w3.org/2000/svg">
<path d="M10.6464 9.30251L10.4992 9.50922L10.6786 9.68867L14.495 13.505C14.7683 13.7784 14.7683 14.2216 14.495 14.495C14.2216 14.7683 13.7784 14.7683 13.505 14.495L9.68867 10.6786L9.50922 10.4992L9.30251 10.6464C8.37083 11.3098 7.23142 11.7 6 11.7C2.85198 11.7 0.3 9.14802 0.3 6C0.3 2.85198 2.85198 0.3 6 0.3C9.14802 0.3 11.7 2.85198 11.7 6C11.7 7.23142 11.3098 8.37083 10.6464 9.30251ZM6 10.3C8.37482 10.3 10.3 8.37482 10.3 6C10.3 3.62518 8.37482 1.7 6 1.7C3.62518 1.7 1.7 3.62518 1.7 6C1.7 8.37482 3.62518 10.3 6 10.3Z" fill="#E2395D" stroke="white" stroke-width="0.6"/>
</svg>
