<svg width="80" height="81" viewBox="0 0 80 81" fill="none" xmlns="http://www.w3.org/2000/svg">
<circle cx="40" cy="40.7129" r="40" fill="url(#paint0_radial_752_29031)"/>
<path d="M57.3438 48.4063H56.875V41.6094C56.875 40.4961 56.4063 39.4414 55.5859 38.6797L50.7227 33.7578C49.9023 32.9375 48.8477 32.4688 47.6758 32.4688H45.625V30.125C45.625 28.3672 44.1016 26.8438 42.3438 26.8438H24.5313C22.7148 26.8438 21.25 28.3672 21.25 30.125V47.9375C21.25 49.7539 22.7148 51.2188 24.5313 51.2188H25C25 54.3242 27.5195 56.8438 30.625 56.8438C33.7305 56.8438 36.25 54.3242 36.25 51.2188H43.75C43.75 54.3242 46.2695 56.8438 49.375 56.8438C52.4805 56.8438 55 54.3242 55 51.2188H57.3438C58.1055 51.2188 58.75 50.6328 58.75 49.8711C58.75 49.168 58.1055 48.4063 57.3438 48.4063ZM30.625 54.0313C29.043 54.0313 27.8125 52.8008 27.8125 51.2188C27.8125 49.6953 29.043 48.4063 30.625 48.4063C32.1484 48.4063 33.4375 49.6953 33.4375 51.2188C33.4375 52.8008 32.1484 54.0313 30.625 54.0313ZM42.8125 48.4063H35.4297C34.4922 46.7656 32.6758 45.5938 30.625 45.5938C28.5156 45.5938 26.6992 46.7656 25.7617 48.4063H24.5313C24.2383 48.4063 24.0625 48.2305 24.0625 47.9375V30.125C24.0625 29.8906 24.2383 29.6563 24.5313 29.6563H42.3438C42.5781 29.6563 42.8125 29.8906 42.8125 30.125V48.4063ZM45.625 35.2813H47.7344C48.0859 35.2813 48.4375 35.457 48.7305 35.6914L53.0078 39.9688H45.625V35.2813ZM49.375 54.0313C47.793 54.0313 46.5625 52.8008 46.5625 51.2188C46.5625 49.6953 47.793 48.4063 49.375 48.4063C50.8984 48.4063 52.1875 49.6953 52.1875 51.2188C52.1875 52.8008 50.8984 54.0313 49.375 54.0313ZM54.0625 48.1719C53.0078 46.6484 51.3086 45.5938 49.375 45.5938C47.9102 45.5938 46.6211 46.1797 45.625 47.0586V42.7813H54.0625V48.1719Z" fill="black"/>
<defs>
<radialGradient id="paint0_radial_752_29031" cx="0" cy="0" r="1" gradientUnits="userSpaceOnUse" gradientTransform="translate(31.4644 21.6901) rotate(48.475) scale(48.5554 96.5551)">
<stop stop-color="#69EA72"/>
<stop offset="1" stop-color="#A9EF82"/>
</radialGradient>
</defs>
</svg>
