<svg width="85" height="64" viewBox="0 0 85 64" fill="none" xmlns="http://www.w3.org/2000/svg">
<path fill-rule="evenodd" clip-rule="evenodd" d="M-6.13205 26.6408L-16.957 8.11535L-14.7791 6.91467C-8.50992 3.45859 0.372484 0.719519 9.95794 0.121611C19.6281 -0.481582 30.789 1.05516 40.9754 7.07824C47.1401 10.7233 51.8096 10.5711 55.5356 9.41722C59.7892 8.09996 63.7243 5.1474 67.0841 1.88414L68.7372 0.278447L84.2064 15.3044L82.4053 17.0537C78.0404 21.2933 71.1624 26.9675 62.0934 29.776C52.4965 32.748 41.3323 32.2207 29.7321 25.3617C24.2427 22.1159 17.7673 21.0277 11.3404 21.4285C4.82739 21.8348 -0.851648 23.7298 -4.10855 25.5252L-6.13205 26.6408ZM78.9957 16.9533C74.7804 20.7724 68.8448 25.152 61.3953 27.459C52.4213 30.2381 41.9481 29.7803 30.936 23.2689C24.9389 19.7229 17.9631 18.5882 11.1937 19.0105C4.35532 19.437 -1.66669 21.4214 -5.25009 23.3969L-13.6375 9.04301C-12.9583 8.66856 -12.2451 8.30229 -11.5009 7.94637C-5.73348 5.18834 1.90286 3.05129 10.1047 2.53969C19.4339 1.95777 30.0939 3.44877 39.7715 9.17098C46.5239 13.1635 51.8843 13.0811 56.2337 11.7342C61.0061 10.2563 65.263 7.00794 68.7372 3.63353L80.7522 15.3043C80.2048 15.8361 79.619 16.3885 78.9957 16.9533Z" fill="black"/>
<path fill-rule="evenodd" clip-rule="evenodd" d="M-26.175 59.09L-37 40.5646L-34.822 39.3639C-28.5529 35.9078 -19.6705 33.1687 -10.085 32.5708C-0.414825 31.9676 10.746 33.5044 20.9324 39.5275C27.0971 43.1725 31.7666 43.0203 35.4927 41.8664C39.7463 40.5492 43.6813 37.5966 47.0411 34.3334L48.6943 32.7277L64.1634 47.7536L62.3624 49.503C57.9974 53.7425 51.1195 59.4167 42.0504 62.2252C32.4535 65.1972 21.2894 64.6699 9.68911 57.8109C4.19978 54.5651 -2.27571 53.4769 -8.70256 53.8778C-15.2156 54.284 -20.8946 56.179 -24.1515 57.9745L-26.175 59.09ZM58.9527 49.4025C54.7374 53.2216 48.8018 57.6012 41.3524 59.9082C32.3784 62.6873 21.9052 62.2295 10.893 55.7182C4.89588 52.1722 -2.07986 51.0374 -8.84931 51.4597C-15.6876 51.8862 -21.7097 53.8707 -25.2931 55.8461L-33.6805 41.4922C-33.0013 41.1178 -32.2881 40.7515 -31.5438 40.3956C-25.7764 37.6376 -18.1401 35.5005 -9.93828 34.9889C-0.609097 34.407 10.051 35.898 19.7286 41.6202C26.4809 45.6128 31.8413 45.5303 36.1908 44.1834C40.9631 42.7055 45.22 39.4572 48.6942 36.0827L60.7093 47.7536C60.1618 48.2853 59.5761 48.8378 58.9527 49.4025Z" fill="black"/>
</svg>
