<svg width="36" height="64" viewBox="0 0 36 64" fill="none" xmlns="http://www.w3.org/2000/svg">
<path fill-rule="evenodd" clip-rule="evenodd" d="M4.76164 63.8104L-9.12418 58.9358L-3.12537 39.4266L-22.5719 38.8338L-22.8323 23.5427L-3.00819 24.3186L-9.05261 4.65042L4.81324 0.389166L10.8187 19.9305L26.5231 8.40122L35.3765 21.0074L19.4518 32.4896L35.2969 45.1065L26.7645 57.0699L10.8626 44.7353L4.76164 63.8104ZM9.88767 41.591L26.3459 54.3572L32.6994 45.4491L16.2857 32.3791L32.7487 20.5089L26.1359 11.0931L9.83944 23.0571L3.61368 2.79883L-6.70682 5.97052L-0.440367 26.3612L-20.9356 25.5591L-20.7416 36.9475L-0.579497 37.5622L-6.77977 57.7266L3.56532 61.3582L9.88767 41.591Z" fill="#69DE7A"/>
</svg>
