<svg width="108" height="108" viewBox="0 0 108 108" fill="none" xmlns="http://www.w3.org/2000/svg">
<path d="M52.61 107.19C51.94 107.19 51.26 107.19 50.61 107.11L50.72 105.11C51.37 105.11 52.03 105.17 52.72 105.18L52.61 107.19ZM54.61 107.19V105.19C55.25 105.19 55.91 105.19 56.56 105.11L56.67 107.11C56 107.15 55.31 107.17 54.64 107.18L54.61 107.19ZM48.56 107C47.9 106.94 47.22 106.86 46.56 106.78L46.82 104.78C47.46 104.87 48.11 104.94 48.76 105L48.56 107ZM58.69 107L58.5 105C59.14 104.94 59.79 104.86 60.44 104.78L60.7 106.78C60 106.82 59.35 106.89 58.69 107ZM44.54 106.47C43.88 106.36 43.21 106.23 42.54 106.09L42.95 104.15C43.58 104.28 44.23 104.4 44.86 104.51L44.54 106.47ZM62.71 106.47L62.37 104.47C63 104.37 63.65 104.24 64.29 104.11L64.7 106C64 106.18 63.37 106.31 62.71 106.42V106.47ZM40.57 105.65C39.92 105.49 39.26 105.31 38.57 105.12L39.13 103.21C39.75 103.4 40.39 103.57 41.01 103.72L40.57 105.65ZM66.68 105.65L66.19 103.72C66.82 103.56 67.46 103.39 68.08 103.21L68.63 105.12L66.68 105.65ZM36.68 104.53C36.04 104.32 35.39 104.09 34.76 103.85L35.46 101.99C36.07 102.22 36.69 102.44 37.3 102.64L36.68 104.53ZM70.57 104.53L69.94 102.65C70.55 102.44 71.17 102.22 71.78 101.99L72.48 103.85C71.85 104 71.2 104.24 70.57 104.45V104.53ZM32.87 103C32.25 102.74 31.62 102.46 31.01 102.18L31.85 100.37C32.44 100.65 33.04 100.91 33.64 101.17L32.87 103ZM74.36 103L73.59 101.17C74.18 100.92 74.78 100.66 75.37 100.38L76.21 102.18C75.6 102.49 75 102.77 74.36 103ZM29.18 101.3C28.59 101 27.98 100.67 27.39 100.3L28.39 98.57C28.95 98.89 29.53 99.2 30.11 99.5L29.18 101.3ZM78.03 101.3L77.12 99.53C77.7 99.23 78.27 98.92 78.84 98.6L79.84 100.34C79.23 100.69 78.63 101 78 101.32L78.03 101.3ZM25.64 99.3C25.07 98.94 24.49 98.58 23.93 98.2L25 96.59C25.54 96.95 26.1 97.3 26.65 97.59L25.64 99.3ZM81.56 99.3L80.56 97.61C81.11 97.27 81.66 96.92 82.2 96.61L83.3 98.26C82.7 98.62 82.13 99 81.56 99.33V99.3ZM84.93 97.06L83.76 95.45C84.29 95.06 84.82 94.67 85.32 94.27L86.55 95.84C86 96.28 85.48 96.69 84.93 97.09V97.06ZM22.26 97.06C21.72 96.66 21.17 96.25 20.64 95.84L21.86 94.27C22.37 94.67 22.86 95.06 23.43 95.44L22.26 97.06ZM88.12 94.56L86.84 93.05C87.33 92.63 87.84 92.2 88.31 91.76L89.65 93.23C89.14 93.72 88.63 94.16 88.12 94.59V94.56ZM19.06 94.56C18.55 94.13 18.06 93.68 17.54 93.22L18.88 91.75C19.36 92.19 19.85 92.62 20.35 93.04L19.06 94.56ZM91.12 91.84L89.73 90.42C90.19 89.97 90.65 89.5 91.1 89.03L92.54 90.39C92.08 90.91 91.6 91.4 91.12 91.87V91.84ZM16.06 91.84C15.59 91.37 15.11 90.84 14.64 90.39L16.09 89.03C16.54 89.5 17 89.97 17.46 90.42L16.06 91.84ZM93.91 88.9L92.41 87.59C92.84 87.11 93.26 86.59 93.67 86.1L95.22 87.35C94.79 87.9 94.35 88.42 93.91 88.92V88.9ZM13.28 88.9C12.84 88.4 12.4 87.9 11.97 87.35L13.52 86.1C13.92 86.6 14.35 87.1 14.77 87.59L13.28 88.9ZM96.47 85.76L94.88 84.57C95.2733 84.0567 95.6467 83.5333 96 83L97.63 84.14C97.27 84.68 96.87 85.23 96.47 85.77V85.76ZM10.72 85.76C10.32 85.22 9.92 84.67 9.54 84.12L11.17 83C11.54 83.53 11.92 84.07 12.31 84.58L10.72 85.76ZM8.41 82.44C8.05 81.88 7.7 81.3 7.41 80.71L9.12 79.71C9.45 80.27 9.79 80.83 10.12 81.37L8.41 82.44ZM98.78 82.44L97.11 81.37C97.46 80.82 97.8 80.26 98.11 79.7L99.82 80.7C99.5 81.29 99.14 81.87 98.78 82.44ZM6.36 79C6.05 78.41 5.74 77.81 5.44 77.2L7.22 76.32C7.51 76.91 7.81 77.49 8.11 78.06L6.36 79ZM100.84 79L99.09 78C99.39 77.42 99.7 76.84 99.98 76.25L101.77 77.13C101.47 77.73 101.16 78.34 100.84 78.94V79ZM4.58 75.31C4.31 74.7 4.05 74.07 3.8 73.45L5.64 72.71C5.88 73.31 6.14 73.92 6.4 74.51L4.58 75.31ZM102.58 75.31L100.77 74.5C101.03 73.91 101.29 73.3 101.53 72.7L103.37 73.43C103.16 74 102.9 74.67 102.62 75.29L102.58 75.31ZM3.08 71.55C2.86 70.92 2.64 70.27 2.44 69.63L4.34 69C4.53 69.61 4.74 70.24 4.95 70.85L3.08 71.55ZM104.13 71.55L102.25 70.88C102.47 70.27 102.68 69.65 102.87 69.03L104.77 69.62C104.57 70.22 104.35 70.87 104.13 71.51V71.55ZM1.87 67.68C1.69 67.03 1.53 66.37 1.38 65.68L3.31 65.24C3.46333 65.8733 3.62333 66.5033 3.79 67.13L1.87 67.68ZM105.34 67.63L103.42 67.11C103.59 66.49 103.75 65.85 103.89 65.22L105.83 65.66C105.68 66.32 105.51 67 105.34 67.63ZM1 63.73C0.87 63.07 0.76 62.4 0.65 61.73L2.65 61.43C2.75 62.08 2.86 62.73 2.98 63.36L1 63.73ZM106.29 63.73L104.29 63.36C104.42 62.72 104.53 62.07 104.62 61.43L106.62 61.73C106.49 62.34 106.37 63 106.25 63.68L106.29 63.73ZM0.39 59.73C0.31 59.06 0.25 58.39 0.19 57.73L2.19 57.58C2.19 58.23 2.3 58.89 2.37 59.58L0.39 59.73ZM106.89 59.73L104.89 59.5C104.96 58.86 105.02 58.2 105.07 57.56L107.07 57.71C107 58.32 106.93 59 106.85 59.67L106.89 59.73ZM0 55.68C0 55 0 54.32 0 53.68H2C2 54.32 2 54.98 2 55.68H0ZM107.12 55.62L105.12 55.55C105.12 54.9 105.12 54.25 105.12 53.6V53.49H107.12V53.59C107.19 54.27 107.18 55 107.16 55.62H107.12ZM2 51.7L0 51.62C0 50.95 0.06 50.27 0.11 49.62L2.11 49.77C2.08 50.39 2.05 51.05 2 51.7ZM105.15 51.54C105.15 50.9 105.08 50.24 105.03 49.59L107.03 49.44C107.03 50.11 107.12 50.79 107.14 51.44L105.15 51.54ZM2.31 47.8L0.31 47.58C0.39 46.91 0.48 46.23 0.58 45.58L2.58 45.87C2.47 46.51 2.38 47.16 2.31 47.8ZM104.87 47.65C104.79 47.01 104.71 46.35 104.61 45.71L106.61 45.41C106.71 46.0767 106.8 46.7433 106.88 47.41L104.87 47.65ZM2.87 43.94L0.94 43.57C1.06 42.91 1.2 42.25 1.35 41.57L3.29 42C3.14 42.66 3 43.31 2.89 43.94H2.87ZM104.26 43.79C104.13 43.16 104 42.51 103.85 41.88L105.79 41.43C105.94 42.09 106.08 42.76 106.21 43.43L104.26 43.79ZM3.76 40.13L1.84 39.62C2.02 38.9533 2.21 38.3033 2.41 37.67L4.31 38.26C4.11 38.88 3.93 39.51 3.76 40.13ZM103.39 40C103.22 39.37 103.04 38.74 102.84 38.12L104.74 37.53C104.94 38.17 105.13 38.82 105.31 39.47L103.39 40ZM4.92 36.4L3.05 35.74C3.27 35.1 3.51 34.46 3.76 33.83L5.61 34.57C5.37 35.17 5.14 35.79 4.92 36.4ZM102.22 36.26C102.01 35.65 101.77 35.04 101.53 34.43L103.38 33.7C103.63 34.32 103.87 34.96 104.09 35.59L102.22 36.26ZM6.37 32.76L4.55 32C4.82 31.38 5.11 30.76 5.4 30.15L7.19 31C6.91 31.57 6.63 32.17 6.37 32.76ZM100.77 32.64C100.51 32.05 100.24 31.46 99.95 30.88L101.73 30C102.03 30.61 102.32 31.22 102.59 31.83L100.77 32.64ZM8.08 29.25L6.33 28.31C6.65 27.72 6.98 27.12 7.33 26.53L9.05 27.53C8.71667 28.11 8.39333 28.6833 8.08 29.25ZM99.08 29.14C98.77 28.57 98.45 28 98.08 27.45L99.79 26.45C100.13 27.03 100.47 27.62 100.79 28.21L99.08 29.14ZM10.08 25.87L8.38 24.8C8.74 24.24 9.12 23.67 9.51 23.11L11.14 24.24C10.77 24.78 10.41 25.33 10.06 25.87H10.08ZM97.08 25.78C96.73 25.24 96.36 24.69 95.99 24.16L97.63 23C98.01 23.55 98.39 24.12 98.75 24.68L97.08 25.78ZM12.29 22.66L10.7 21.47C11.1 20.93 11.52 20.39 11.94 19.87L13.49 21.12C13.08 21.62 12.67 22.14 12.29 22.66ZM94.85 22.58C94.4567 22.06 94.0567 21.55 93.65 21.05L95.19 19.79C95.61 20.31 96.03 20.85 96.44 21.39L94.85 22.58ZM14.75 19.58L13.25 18.27C13.69 17.77 14.15 17.27 14.62 16.77L16.06 18.14C15.61 18.65 15.17 19.14 14.75 19.62V19.58ZM92.39 19.51C91.96 19.03 91.52 18.51 91.07 18.07L92.51 16.7C92.98 17.2 93.44 17.7 93.88 18.2L92.39 19.51ZM17.39 16.74L16 15.36C16.48 14.89 17 14.42 17.47 13.97L18.81 15.44C18.37 15.88 17.89 16.33 17.43 16.78L17.39 16.74ZM89.66 16.68C89.2 16.23 88.72 15.78 88.24 15.34L89.58 13.87C90.08 14.32 90.58 14.79 91.05 15.26L89.66 16.68ZM20.31 14.15L19 12.63C19.51 12.2 20 11.77 20.57 11.36L21.8 12.92C21.31 13.32 20.8 13.74 20.31 14.15ZM86.81 14.09C86.31 13.68 85.81 13.26 85.29 12.86L86.51 11.3C87.04 11.71 87.57 12.14 88.09 12.57L86.81 14.09ZM23.39 11.75L22.22 10.14C22.77 9.74 23.33 9.35 23.89 8.98L25 10.63C24.45 11 23.92 11.37 23.39 11.75ZM83.73 11.69C83.2 11.31 82.66 10.94 82.12 10.58L83.22 8.92L84.89 10.08L83.73 11.69ZM26.63 9.58L25.63 7.89C26.2 7.54 26.79 7.19 27.38 6.89L28.38 8.62L26.63 9.58ZM80.47 9.53C79.91 9.19 79.35 8.86 78.78 8.53L79.78 6.8C80.37 7.12 80.96 7.47 81.54 7.8L80.47 9.53ZM30 7.67L29.12 5.9L30.94 5L31.78 6.8L30 7.67ZM77 7.67C76.42 7.37 75.83 7.08 75.24 6.81L76.14 5C76.75 5.28 77.36 5.58 77.96 5.89L77 7.67ZM33.56 6L32.79 4.17C33.4 3.91 34.04 3.66 34.66 3.42L35.37 5.28C34.76 5.53 34.15 5.77 33.56 6ZM73.56 6C72.96 5.75 72.35 5.51 71.74 5.28L72.44 3.42C73.07 3.65 73.7 3.91 74.33 4.17L73.56 6ZM37.21 4.65L36.58 2.76C37.21 2.55 37.86 2.34 38.51 2.15L39.07 4.06C38.45 4.24 37.82 4.44 37.21 4.65ZM69.84 4.6C69.23 4.39 68.6 4.2 68 4L68.55 2.09C69.2 2.28 69.85 2.48 70.49 2.69L69.84 4.6ZM41 3.55L40.52 1.62C41.17 1.46 41.84 1.3 42.52 1.16L42.94 3.16C42.22 3.24 41.58 3.39 41 3.55ZM66.14 3.55C65.51 3.39 64.87 3.25 64.24 3.12L64.64 1.17C65.3 1.31 65.97 1.46 66.64 1.62L66.14 3.55ZM44.77 2.74L44.44 0.74C45.1 0.63 45.78 0.52 46.44 0.43L46.7 2.43C46.06 2.53 45.41 2.63 44.77 2.74ZM62.27 2.74L60.34 2.45L60.6 0.45C61.26 0.54 61.94 0.64 62.6 0.75L62.27 2.74ZM48.64 2.22L48.46 0.22C49.12 0.16 49.8 0.11 50.46 0.07L50.57 2.07C49.93 2.11 49.2867 2.16 48.64 2.22ZM58.4 2.22C57.75 2.16 57.1 2.11 56.45 2.08L56.56 0.08C57.23 0.08 57.91 0.17 58.56 0.23L58.4 2.22ZM52.54 2V0H54.54V2C53.85 2 53.19 2 52.54 2Z" fill="#778D6F"/>
<path d="M53.6 86.55C47.069 86.5599 40.6819 84.6316 35.2474 81.0093C29.8129 77.3871 25.5755 72.2337 23.0716 66.2017C20.5677 60.1697 19.91 53.5303 21.1817 47.1243C22.4534 40.7183 25.5974 34.8337 30.2155 30.2155C34.8337 25.5974 40.7183 22.4534 47.1243 21.1817C53.5304 19.91 60.1697 20.5677 66.2017 23.0716C72.2337 25.5755 77.3871 29.8129 81.0094 35.2474C84.6316 40.6819 86.5599 47.069 86.55 53.6C86.5368 62.3348 83.061 70.7081 76.8846 76.8846C70.7081 83.061 62.3348 86.5368 53.6 86.55ZM53.6 21.84C47.3185 21.84 41.178 23.7027 35.9551 27.1925C30.7322 30.6824 26.6615 35.6426 24.2576 41.446C21.8538 47.2493 21.2248 53.6352 22.4503 59.7961C23.6758 65.9569 26.7006 71.616 31.1423 76.0577C35.584 80.4994 41.2431 83.5243 47.404 84.7497C53.5648 85.9752 59.9507 85.3463 65.7541 82.9424C71.5574 80.5386 76.5177 76.4678 80.0075 71.2449C83.4973 66.022 85.36 59.8815 85.36 53.6C85.3521 45.1792 82.0034 37.1055 76.049 31.1511C70.0945 25.1966 62.0209 21.8479 53.6 21.84Z" fill="#778D6F"/>
<path d="M29.34 24.28L24.81 28.76L17.55 21.43L22.09 17L23.09 18L19.57 21.48L21.66 23.59L24.51 20.77L25.51 21.77L22.66 24.59L24.82 26.76L28.34 23.28L29.34 24.28Z" fill="#778D6F"/>
<path d="M29.37 17.86C29.6242 18.3027 29.9642 18.6903 30.37 19C31.1695 19.6062 32.1745 19.8754 33.17 19.75C33.6789 19.6887 34.1694 19.5218 34.61 19.26C34.9557 19.0663 35.2667 18.8162 35.53 18.52C35.7873 18.2374 35.9998 17.917 36.16 17.57C36.257 17.3817 36.4063 17.2255 36.59 17.12C36.7164 17.0509 36.8563 17.01 37 17C37.1452 16.9709 37.2948 16.9709 37.44 17L37.8 17.09C37.7208 17.434 37.6069 17.769 37.46 18.09C37.3403 18.4092 37.186 18.7143 37 19C36.7873 19.2931 36.5461 19.5644 36.28 19.81C35.9993 20.0522 35.6982 20.2696 35.38 20.46C34.7672 20.82 34.086 21.0482 33.38 21.13C32.7106 21.2133 32.0313 21.1657 31.38 20.99C30.7232 20.8143 30.1056 20.5157 29.56 20.11C28.9967 19.6874 28.5269 19.1528 28.18 18.54C27.9443 18.132 27.7627 17.695 27.64 17.24C27.5245 16.796 27.4673 16.3388 27.47 15.88C27.47 15.4306 27.5305 14.9832 27.65 14.55C27.7677 14.1139 27.939 13.694 28.16 13.3C28.3834 12.9017 28.6592 12.5351 28.98 12.21C29.3155 11.8744 29.6918 11.5821 30.1 11.34C30.4183 11.1585 30.7531 11.0079 31.1 10.89C31.4453 10.7823 31.8003 10.7086 32.16 10.67C32.5125 10.635 32.8675 10.635 33.22 10.67C33.5587 10.7114 33.8932 10.7817 34.22 10.88L34.12 11.24C34.0846 11.3862 34.0236 11.525 33.94 11.65C33.8483 11.7721 33.7326 11.8742 33.6 11.95C33.4157 12.0573 33.202 12.1028 32.99 12.08C32.6081 12.0568 32.2249 12.0837 31.85 12.16C31.4624 12.2427 31.0909 12.3879 30.75 12.59C30.303 12.8381 29.9142 13.1791 29.61 13.59C29.3212 13.9963 29.114 14.4548 29 14.94C28.8726 15.419 28.8353 15.9174 28.89 16.41C28.9465 16.9217 29.1101 17.4157 29.37 17.86Z" fill="#778D6F"/>
<path d="M38.51 12.91C38.3948 12.4528 38.3477 11.981 38.37 11.51C38.3812 11.0521 38.4552 10.5978 38.59 10.16C38.7271 9.72919 38.9151 9.31627 39.15 8.93001C39.3908 8.56275 39.6764 8.22684 40 7.93001C40.325 7.60755 40.6956 7.33464 41.1 7.12001C41.5157 6.89285 41.9596 6.72138 42.42 6.61001C42.8789 6.50457 43.3493 6.45753 43.82 6.47001C44.2779 6.48961 44.7315 6.56689 45.17 6.70001C46.0329 6.96717 46.8139 7.44886 47.44 8.10001C47.7604 8.43047 48.0331 8.80408 48.25 9.21001C48.4847 9.62221 48.6566 10.0671 48.76 10.53C48.8704 10.9881 48.9175 11.4591 48.9 11.93C48.8804 12.3879 48.8031 12.8415 48.67 13.28C48.3963 14.1399 47.9155 14.9194 47.27 15.55C46.9396 15.8704 46.5659 16.143 46.16 16.36C45.7482 16.5856 45.3074 16.7538 44.85 16.86C44.1629 17.0318 43.4471 17.0557 42.75 16.93C42.0829 16.8188 41.4441 16.5776 40.87 16.22C40.289 15.8645 39.7829 15.3992 39.38 14.85C38.9543 14.2732 38.6576 13.6116 38.51 12.91ZM39.89 12.58C40.0044 13.092 40.2222 13.5752 40.53 14C41.1277 14.7996 42.014 15.3342 43 15.49C43.5081 15.5782 44.0288 15.5611 44.53 15.44C45.0299 15.326 45.5001 15.1079 45.91 14.8C46.3106 14.5086 46.6503 14.1417 46.91 13.72C47.1693 13.2972 47.3458 12.8288 47.43 12.34C47.5182 11.832 47.5011 11.3112 47.38 10.81C47.264 10.3108 47.0461 9.84102 46.74 9.43001C46.4486 9.02948 46.0818 8.68977 45.66 8.43001C45.2372 8.17072 44.7688 7.99424 44.28 7.91001C43.7788 7.8054 43.2613 7.8054 42.76 7.91001C42.2577 8.02581 41.7846 8.24365 41.37 8.55001C40.9695 8.8414 40.6298 9.20828 40.37 9.63001C40.1107 10.0529 39.9343 10.5212 39.85 11.01C39.7515 11.5302 39.7651 12.0655 39.89 12.58Z" fill="#778D6F"/>
<path d="M53.28 10.43C53.242 10.9425 53.3136 11.4573 53.49 11.94C53.7975 12.8406 54.4309 13.5934 55.2655 14.0506C56.1001 14.5077 57.0756 14.6359 58 14.41C58.3814 14.3272 58.7486 14.1891 59.09 14C59.2731 13.8893 59.4869 13.8402 59.7 13.86C59.851 13.8619 59.9997 13.8979 60.1348 13.9655C60.2699 14.033 60.3879 14.1303 60.48 14.25L60.73 14.53C60.4702 14.7715 60.189 14.9891 59.89 15.18C59.5738 15.3708 59.2387 15.5283 58.89 15.65C58.5663 15.7702 58.2313 15.8573 57.89 15.91C57.5178 15.9501 57.1423 15.9501 56.77 15.91C56.0727 15.8656 55.392 15.6784 54.77 15.36C54.1649 15.0533 53.6249 14.6322 53.18 14.12C52.7219 13.6026 52.3711 12.9994 52.148 12.3454C51.9248 11.6913 51.8337 10.9995 51.88 10.31C51.9066 9.86353 51.9941 9.42278 52.14 9C52.2906 8.56901 52.4956 8.15903 52.75 7.78C53.0064 7.41286 53.3051 7.07721 53.64 6.78C53.9803 6.47546 54.3564 6.21353 54.76 6C55.1708 5.7997 55.6038 5.64865 56.05 5.55C56.5142 5.45972 56.9881 5.42947 57.46 5.46C57.8326 5.48265 58.2015 5.54637 58.56 5.65C58.9071 5.74587 59.2425 5.88002 59.56 6.05C59.8793 6.21014 60.1782 6.40824 60.45 6.64C60.7267 6.86176 60.9782 7.11327 61.2 7.39L60.92 7.64C60.8066 7.73668 60.6783 7.81435 60.54 7.87C60.396 7.92195 60.2426 7.94241 60.09 7.93C59.8771 7.91715 59.6739 7.83656 59.51 7.7C59.2003 7.47129 58.8646 7.27996 58.51 7.13C58.1411 6.99042 57.7536 6.90617 57.36 6.88C56.8449 6.83951 56.3271 6.90765 55.84 7.08C55.3746 7.2461 54.944 7.497 54.57 7.82C54.2026 8.15463 53.9008 8.55479 53.68 9C53.4544 9.44591 53.3185 9.93175 53.28 10.43Z" fill="#778D6F"/>
<path d="M68.88 18.75L62.88 16.75L66.1 7L72.15 9L71.69 10.35L67 8.75L66.06 11.57L69.86 12.84L69.41 14.19L65.61 12.92L64.61 15.83L69.3 17.4L68.88 18.75Z" fill="#778D6F"/>
<path d="M72.44 20.67L71.24 19.9L76.8 11.21L79.91 13.21C80.2556 13.426 80.552 13.7122 80.78 14.05C80.994 14.3702 81.1497 14.7256 81.24 15.1C81.3155 15.483 81.3155 15.877 81.24 16.26C81.1775 16.6595 81.0309 17.0413 80.81 17.38C80.4595 17.9194 79.949 18.3355 79.35 18.57C79.0578 18.6781 78.7511 18.7422 78.44 18.76C78.1233 18.7765 77.8061 18.7428 77.5 18.66L77.88 24.16L77.06 23.64C76.8378 23.5078 76.6521 23.3222 76.52 23.1C76.3973 22.8911 76.335 22.6522 76.34 22.41L76.03 17.89L74.73 17.06L72.44 20.67ZM77.23 13.18L75.52 15.85L77.44 17.08C77.6164 17.194 77.8134 17.2721 78.02 17.31C78.2213 17.3501 78.4286 17.3501 78.63 17.31C79.0415 17.2214 79.4011 16.9733 79.63 16.62C79.744 16.44 79.8221 16.2397 79.86 16.03C79.8951 15.8282 79.8951 15.6218 79.86 15.42C79.8183 15.2191 79.7367 15.0287 79.62 14.86C79.4985 14.6867 79.3459 14.5376 79.17 14.42L77.23 13.18Z" fill="#778D6F"/>
<path d="M84.59 18.33L85.59 17.33L91 23L90 24L87.8 21.67L81.38 27.83L80.38 26.83L86.8 20.67L84.59 18.33Z" fill="#778D6F"/>
<path d="M21.78 90L17.29 85.47L24.61 78.21L29.1 82.74L28.1 83.74L24.6 80.2L22.49 82.29L25.31 85.13L24.31 86.13L21.49 83.28L19.3 85.45L22.79 89L21.78 90Z" fill="#778D6F"/>
<path d="M29.08 89.12C28.8152 89.5601 28.6449 90.0505 28.58 90.56C28.5225 91.0415 28.553 91.5294 28.67 92C28.7908 92.4803 29.0049 92.9322 29.3 93.33C29.6077 93.7377 29.9957 94.078 30.44 94.33C30.779 94.5309 31.1465 94.6792 31.53 94.77C31.9042 94.8511 32.2881 94.878 32.67 94.85C32.8804 94.8399 33.0891 94.892 33.27 95C33.4054 95.0758 33.5244 95.1778 33.62 95.3C33.7019 95.4224 33.7627 95.5576 33.8 95.7L33.89 96.06C33.5644 96.1628 33.2294 96.2331 32.89 96.27C32.5375 96.3051 32.1825 96.3051 31.83 96.27C31.47 96.228 31.115 96.151 30.77 96.04C30.4229 95.9187 30.088 95.7646 29.77 95.58C29.1641 95.2228 28.6369 94.7465 28.22 94.18C27.8154 93.6314 27.5201 93.0101 27.35 92.35C27.181 91.6974 27.1402 91.0182 27.23 90.35C27.3116 89.6425 27.5435 88.9606 27.91 88.35C28.1547 87.9467 28.4468 87.574 28.78 87.24C29.1127 86.9267 29.482 86.6547 29.88 86.43C30.2739 86.2114 30.6939 86.0434 31.13 85.93C31.568 85.8188 32.0181 85.7617 32.47 85.76C32.9259 85.7608 33.3798 85.8213 33.82 85.94C34.276 86.0644 34.7132 86.2494 35.12 86.49C35.4442 86.6789 35.7461 86.9036 36.02 87.16C36.2861 87.4056 36.5273 87.6769 36.74 87.97C36.9421 88.2595 37.1162 88.5676 37.26 88.89C37.4066 89.2101 37.5172 89.5455 37.59 89.89L37.23 89.99C37.0843 90.0144 36.9356 90.0144 36.79 89.99C36.6364 89.9764 36.4887 89.9249 36.36 89.84C36.1746 89.7353 36.0274 89.5741 35.94 89.38C35.7796 89.0179 35.5674 88.681 35.31 88.38C34.6965 87.7037 33.8646 87.2647 32.96 87.14C32.4686 87.0788 31.9702 87.1093 31.49 87.23C30.9773 87.3853 30.5035 87.6478 30.1 88C29.6872 88.2999 29.34 88.681 29.08 89.12Z" fill="#778D6F"/>
<path d="M38.16 94.14C38.2748 93.6791 38.4496 93.2353 38.68 92.82C38.9009 92.42 39.1769 92.0531 39.5 91.73C39.798 91.4104 40.1338 91.1284 40.5 90.89C40.8869 90.6614 41.2999 90.4801 41.73 90.35C42.1687 90.2202 42.6227 90.1496 43.08 90.14C43.5548 90.1205 44.0299 90.1711 44.49 90.29C44.9483 90.403 45.389 90.5779 45.8 90.81C46.1995 91.0316 46.5664 91.3076 46.89 91.63C47.214 91.9425 47.4963 92.2954 47.73 92.68C48.2109 93.4596 48.4734 94.3541 48.49 95.27C48.5006 95.7418 48.4468 96.2128 48.33 96.67C48.2424 97.1334 48.0875 97.5815 47.87 98C47.646 98.401 47.3703 98.7708 47.05 99.1C46.7333 99.4204 46.3771 99.6993 45.99 99.93C45.2133 100.409 44.3225 100.672 43.41 100.69C42.9389 100.7 42.4684 100.649 42.01 100.54C41.3229 100.37 40.6768 100.064 40.11 99.64C39.5691 99.23 39.111 98.721 38.76 98.14C38.4087 97.5612 38.1743 96.919 38.07 96.25C37.9476 95.5484 37.9783 94.8286 38.16 94.14ZM39.54 94.48C39.4139 94.9767 39.3901 95.4938 39.47 96C39.5602 96.4918 39.7399 96.963 40 97.39C40.2616 97.8132 40.6009 98.1831 41 98.48C41.407 98.7949 41.878 99.0168 42.38 99.13C42.8765 99.2575 43.3939 99.2814 43.9 99.2C44.3922 99.1223 44.8644 98.949 45.29 98.69C45.7138 98.4293 46.0838 98.0898 46.38 97.69C46.686 97.2764 46.9072 96.8064 47.0308 96.3069C47.1544 95.8075 47.1779 95.2886 47.1 94.78C47.0148 94.293 46.842 93.8254 46.59 93.4C46.0592 92.5292 45.2084 91.901 44.22 91.65C43.7229 91.5255 43.2054 91.5051 42.7 91.59C42.2123 91.6671 41.7439 91.8368 41.32 92.09C40.896 92.3542 40.5234 92.693 40.22 93.09C39.9009 93.5021 39.6695 93.9751 39.54 94.48Z" fill="#778D6F"/>
<path d="M52.91 96.76C52.9351 97.2752 53.068 97.7794 53.3 98.24C53.5241 98.6802 53.8256 99.0765 54.19 99.41C54.5599 99.741 54.9915 99.9958 55.46 100.16C55.942 100.34 56.4567 100.414 56.97 100.38C57.3645 100.361 57.7531 100.276 58.12 100.13C58.4784 99.9923 58.8152 99.8037 59.12 99.57C59.2891 99.4386 59.4959 99.365 59.71 99.36C59.8625 99.3476 60.016 99.368 60.16 99.42C60.2963 99.4735 60.4217 99.5514 60.53 99.65L60.81 99.9C60.5856 100.174 60.3343 100.426 60.06 100.65C59.7813 100.87 59.4834 101.064 59.17 101.23C58.85 101.392 58.5151 101.523 58.17 101.62C57.8111 101.721 57.4422 101.781 57.07 101.8C56.3675 101.842 55.6637 101.744 55 101.51C54.3633 101.287 53.7735 100.948 53.26 100.51C52.7375 100.05 52.3095 99.4933 52 98.87C51.6893 98.2463 51.509 97.5658 51.47 96.87C51.4406 96.4005 51.4776 95.9292 51.58 95.47C51.6742 95.0212 51.829 94.5872 52.04 94.18C52.2396 93.7499 52.5025 93.3522 52.82 93C53.1172 92.6651 53.4528 92.3664 53.82 92.11C54.2029 91.8587 54.6162 91.657 55.05 91.51C55.499 91.3579 55.9666 91.2671 56.44 91.24C56.811 91.2195 57.1833 91.2396 57.55 91.3C57.8905 91.361 58.225 91.4513 58.55 91.57C58.8983 91.6968 59.2332 91.8575 59.55 92.05C59.849 92.2409 60.1301 92.4585 60.39 92.7L60.14 92.99C60.0374 93.0969 59.9194 93.1879 59.79 93.26C59.6364 93.3432 59.4646 93.3867 59.29 93.3867C59.1154 93.3867 58.9435 93.3432 58.79 93.26C58.4762 93.0725 58.1402 92.9247 57.79 92.82C57.409 92.7173 57.0134 92.6801 56.62 92.71C56.1064 92.7378 55.6034 92.867 55.14 93.09C54.6975 93.3148 54.3008 93.62 53.97 93.99C53.6292 94.3632 53.3655 94.8 53.1939 95.2753C53.0223 95.7507 52.9462 96.2552 52.97 96.76H52.91Z" fill="#778D6F"/>
<path d="M71.77 98.4L65.7 100.4L62.53 90.59L68.59 88.59L69 90L64.29 91.52L65.21 94.35L69.02 93.11L69.46 94.47L65.65 95.7L66.59 98.62L71.3 97.1L71.77 98.4Z" fill="#778D6F"/>
<path d="M77.65 95.44L76.45 96.19L71 87.46L74.14 85.46C74.4747 85.2503 74.8476 85.1088 75.2371 85.0436C75.6267 84.9784 76.0252 84.9908 76.41 85.08C76.7981 85.1669 77.1651 85.3301 77.4896 85.5602C77.814 85.7902 78.0895 86.0825 78.3 86.42C78.6363 86.9685 78.7935 87.608 78.75 88.25C78.7219 88.5592 78.6477 88.8626 78.53 89.15C78.4073 89.4636 78.2276 89.7517 78 90L83.14 92L82.31 92.52C82.0951 92.6556 81.8525 92.7411 81.6 92.77C81.3559 92.7914 81.1106 92.7465 80.89 92.64L76.67 91L75.37 91.81L77.65 95.44ZM72.93 87.91L74.62 90.6L76.54 89.39C76.717 89.2907 76.8731 89.1583 77 89C77.1174 88.8304 77.2022 88.6405 77.25 88.44C77.2851 88.2381 77.2851 88.0318 77.25 87.83C77.2187 87.6201 77.1437 87.4191 77.03 87.24C76.918 87.0596 76.7678 86.9059 76.59 86.79C76.4231 86.6745 76.2368 86.5898 76.04 86.54C75.8382 86.5051 75.6318 86.5051 75.43 86.54C75.2193 86.5679 75.0176 86.6431 74.84 86.76L72.93 87.91Z" fill="#778D6F"/>
<path d="M79 83.92L78 82.92L83.48 77.32L84.48 78.32L82.24 80.61L88.6 86.83L87.6 87.83L81.24 81.61L79 83.92Z" fill="#778D6F"/>
<path d="M74.19 65C73.6012 65 73.0365 65.2339 72.6202 65.6502C72.2039 66.0666 71.97 66.6312 71.97 67.22C71.97 67.8088 72.2039 68.3734 72.6202 68.7898C73.0365 69.2061 73.6012 69.44 74.19 69.44C74.4814 69.4427 74.7705 69.3874 75.0403 69.2774C75.3102 69.1674 75.5556 69.0048 75.7621 68.7992C75.9687 68.5936 76.1323 68.349 76.2435 68.0796C76.3547 67.8102 76.4113 67.5214 76.41 67.23C76.41 66.6403 76.1764 66.0746 75.7604 65.6567C75.3443 65.2388 74.7797 65.0026 74.19 65ZM74.81 68.75L73.94 67.48C73.94 67.42 73.87 67.33 73.74 67.35C73.74 67.6 73.74 67.85 73.74 68.1V68.85H73.55V65.63C73.84 65.63 74.1 65.63 74.35 65.68C74.5201 65.7029 74.677 65.7843 74.7938 65.9102C74.9106 66.036 74.9799 66.1986 74.99 66.37C74.9999 66.4731 74.9999 66.5769 74.99 66.68C74.9666 66.8398 74.8929 66.9879 74.7796 67.103C74.6663 67.2181 74.5194 67.2941 74.36 67.32H74.09L75.09 68.81C75.0449 68.8362 74.9921 68.8455 74.9408 68.8363C74.8895 68.8272 74.8432 68.8001 74.81 68.76V68.75Z" fill="#778D6F"/>
<path d="M63.3401 55C63.0483 54.7928 62.6979 54.6842 62.3401 54.69H59.3001C58.9001 56.01 58.5001 57.31 58.0901 58.69H58.2501C59.1701 58.69 60.0901 58.69 61.0101 58.69C61.1497 58.7048 61.2905 58.7048 61.4301 58.69C61.8792 58.5449 62.2943 58.3102 62.6501 58C62.9631 57.8042 63.2298 57.5427 63.4318 57.2336C63.6338 56.9246 63.7663 56.5753 63.8201 56.21C63.8676 55.9835 63.8474 55.748 63.762 55.5329C63.6767 55.3177 63.5299 55.1324 63.3401 55Z" fill="#778D6F"/>
<path d="M74.79 66.55C74.8049 66.4126 74.775 66.2741 74.7047 66.1551C74.6344 66.0362 74.5275 65.9432 74.4 65.89C74.1828 65.84 73.9571 65.84 73.74 65.89V67.21C73.95 67.21 74.13 67.21 74.31 67.21C74.4574 67.1787 74.588 67.094 74.6766 66.9721C74.7652 66.8502 74.8056 66.6999 74.79 66.55Z" fill="#778D6F"/>
<path d="M53.6 25.06C47.9549 25.058 42.436 26.7302 37.7413 29.865C33.0466 32.9998 29.387 37.4565 27.2253 42.6713C25.0637 47.8861 24.4971 53.6249 25.5972 59.1617C26.6973 64.6986 29.4146 69.7849 33.4056 73.7773C37.3966 77.7697 42.482 80.4888 48.0184 81.5909C53.5549 82.6929 59.2939 82.1283 64.5095 79.9685C69.7251 77.8086 74.183 74.1506 77.3195 69.457C80.4559 64.7634 82.13 59.2451 82.13 53.6C82.13 46.0325 79.1245 38.7747 73.7744 33.4227C68.4242 28.0707 61.1675 25.0627 53.6 25.06ZM74.16 69.67C73.6794 69.672 73.209 69.5314 72.8083 69.266C72.4076 69.0007 72.0946 68.6224 71.9088 68.1792C71.7231 67.7359 71.673 67.2475 71.7648 66.7758C71.8566 66.304 72.0863 65.8701 72.4247 65.5288C72.7631 65.1876 73.1952 64.9544 73.6661 64.8587C74.1371 64.763 74.6259 64.8091 75.0707 64.9912C75.5155 65.1733 75.8963 65.4832 76.1649 65.8817C76.4336 66.2802 76.578 66.7494 76.58 67.23C76.5774 67.8729 76.3223 68.489 75.8695 68.9454C75.4168 69.4019 74.8028 69.6621 74.16 69.67ZM75.57 59.47C74.876 60.7569 74.0116 61.9443 73 63C70.9596 65.1782 68.4683 66.8846 65.7 68C64.123 68.637 62.489 69.1225 60.82 69.45C59.88 69.64 58.94 69.8 57.99 69.91C55.9694 70.15 53.9339 70.2403 51.9 70.18C50.3229 70.1338 48.7516 69.9667 47.2 69.68C44.5855 69.2234 42.0498 68.395 39.67 67.22C37.3806 66.1201 35.3156 64.6044 33.58 62.75C32.2776 61.3791 31.2582 59.7651 30.58 58C30.2127 56.9947 29.9774 55.9459 29.88 54.88C29.6497 52.1107 30.3347 49.3423 31.83 47C32.8047 45.427 34.0388 44.0306 35.48 42.87C36.7979 41.802 38.23 40.8831 39.75 40.13C41.8932 39.0541 44.16 38.2448 46.5 37.72C47.6879 37.4603 48.89 37.27 50.1 37.15C51.16 37.05 52.21 37 53.27 37C54.33 37 55.56 37.06 56.7 37.17C58.9336 37.3602 61.1419 37.779 63.29 38.42C65.526 39.0694 67.6601 40.0287 69.63 41.27C71.5731 42.4767 73.2698 44.041 74.63 45.88C75.691 47.3239 76.493 48.9414 77 50.66C77.3035 51.7458 77.3918 52.8804 77.26 54C77.0609 55.9165 76.4866 57.7752 75.57 59.47Z" fill="#778D6F"/>
<path d="M76 50.57C75.4954 48.9245 74.6428 47.4069 73.5 46.12C72.3624 44.8335 71.0416 43.7216 69.58 42.82C67.3355 41.4463 64.8889 40.4339 62.33 39.82C60.6477 39.3854 58.9315 39.0944 57.2 38.95C56.38 38.89 55.56 38.83 54.74 38.81C53.4824 38.7732 52.2238 38.8066 50.97 38.91C49.91 38.99 48.86 39.11 47.81 39.28C46.0747 39.5672 44.3607 39.9714 42.68 40.49C41.4076 40.8737 40.1752 41.3794 39 42C36.5975 43.2326 34.5365 45.0394 33 47.26C32.0267 48.6777 31.3467 50.2757 31 51.96C31 52.03 31 52.1 31 52.19H37.25C37.45 52.19 37.65 52.19 37.88 52.19L37.56 53.19H30.86C30.86 53.28 30.86 53.35 30.86 53.43C30.7987 54.4368 30.8829 55.4472 31.11 56.43C31.4985 58.0354 32.2322 59.5369 33.26 60.83C34.2028 62.0332 35.3143 63.0941 36.56 63.98C38.4993 65.3514 40.6375 66.4171 42.9 67.14C44.82 67.763 46.7959 68.1984 48.8 68.44C49.91 68.58 51.02 68.67 52.13 68.7C54.2757 68.7619 56.4228 68.6482 58.55 68.36C59.7116 68.1753 60.8631 67.9317 62 67.63C64.5192 67.0099 66.9252 65.9975 69.13 64.63C70.7361 63.6491 72.18 62.4245 73.41 61C74.765 59.4563 75.7166 57.6011 76.18 55.6C76.25 55.27 76.3 54.93 76.36 54.6H74.87C74.63 54.6 74.38 54.6 74.13 54.6C74.24 54.2 74.34 53.81 74.45 53.42H76.45V53.14C76.4081 52.2679 76.257 51.4044 76 50.57ZM60.16 41.94C61.3277 41.2176 62.7078 40.9176 64.07 41.09C64.67 41.1875 65.2367 41.4314 65.72 41.8C66.1118 42.0629 66.4465 42.402 66.7042 42.7972C66.962 43.1924 67.1374 43.6355 67.22 44.1C67.28 44.47 67.3 44.86 67.34 45.24C67.3265 46.6759 66.9626 48.0867 66.28 49.35C65.971 49.9681 65.5918 50.5486 65.15 51.08C64.2859 52.0844 63.1034 52.7621 61.8 53C60.9639 53.1602 60.1025 53.1294 59.28 52.91C58.7199 52.772 58.2068 52.487 57.7937 52.0845C57.3805 51.6819 57.0824 51.1763 56.93 50.62C56.6456 49.736 56.5703 48.798 56.71 47.88C56.8354 47.0632 57.0363 46.2597 57.31 45.48C57.6616 44.4368 58.2785 43.5029 59.1 42.77C59.4329 42.4682 59.7872 42.1909 60.16 41.94ZM52 41.7C52.7654 41.382 53.5921 41.2385 54.42 41.28C55.0864 41.3033 55.7377 41.485 56.32 41.81C56.646 41.9981 56.9223 42.2614 57.1258 42.578C57.3294 42.8946 57.4542 43.2553 57.49 43.63C57.535 43.935 57.535 44.245 57.49 44.55H56.23C56.2348 44.4534 56.2348 44.3566 56.23 44.26C56.2725 43.9234 56.2383 43.5815 56.13 43.26C56.041 43.0151 55.8933 42.7959 55.6998 42.6215C55.5062 42.4471 55.2728 42.323 55.02 42.26C54.8087 42.1951 54.5906 42.1548 54.37 42.14C53.9261 42.07 53.4739 42.07 53.03 42.14C52.4717 42.2896 51.9573 42.5708 51.53 42.96C51.0143 43.3922 50.5807 43.9139 50.25 44.5C50.17 44.64 50.05 44.77 49.96 44.91C49.7376 45.2714 49.5501 45.6531 49.4 46.05C48.8793 47.3884 48.6806 48.8306 48.82 50.26C48.842 50.4542 48.8856 50.6454 48.95 50.83C49.045 51.1219 49.2152 51.3837 49.4433 51.589C49.6715 51.7944 49.9497 51.9361 50.25 52C51.0104 52.2247 51.8196 52.2247 52.58 52C52.9847 51.886 53.359 51.6832 53.6755 51.4065C53.9921 51.1297 54.243 50.7859 54.41 50.4L54.46 50.29H55.91C55.91 50.37 55.91 50.44 55.83 50.51C55.6147 51.0516 55.2867 51.5412 54.8678 51.9464C54.4488 52.3515 53.9485 52.663 53.4 52.86C52.165 53.34 50.795 53.34 49.56 52.86C48.9559 52.6505 48.4387 52.2459 48.09 51.71C47.8688 51.334 47.7323 50.9142 47.69 50.48C47.4647 48.9545 47.6547 47.3966 48.24 45.97C48.6894 44.8624 49.3366 43.8458 50.15 42.97C50.6599 42.409 51.2932 41.9742 52 41.7ZM42.46 41.49H49.11L48.75 42.49H43.41C42.99 43.9 42.58 45.3 42.16 46.72C42.75 46.72 43.32 46.72 43.89 46.72H47.38C47.3 47 47.24 47.25 47.17 47.52H41.87L40.42 51.92H46.26C46.26 52.29 46.11 52.67 46.04 53.05H38.89C40.09 49.25 41.27 45.37 42.47 41.49H42.46ZM43.83 65.4C42.8025 65.6167 41.7338 65.5227 40.76 65.13C40.174 64.9125 39.6705 64.5175 39.32 64C39.1119 63.6405 38.9792 63.2424 38.93 62.83C38.6893 61.2621 38.8794 59.6582 39.48 58.19C39.9296 57.0825 40.5767 56.066 41.39 55.19C41.8438 54.7197 42.3927 54.3515 43 54.11C43.7495 53.7664 44.5655 53.5923 45.39 53.6C45.9645 53.6065 46.5333 53.7149 47.07 53.92C47.5481 54.0859 47.9628 54.3964 48.2567 54.8085C48.5505 55.2206 48.7089 55.7139 48.71 56.22C48.71 56.41 48.71 56.6 48.71 56.79C48.71 56.79 48.71 56.84 48.71 56.87H47.46C47.5177 56.5392 47.5177 56.2008 47.46 55.87C47.4129 55.5513 47.27 55.2544 47.0503 55.0186C46.8307 54.7829 46.5446 54.6195 46.23 54.55C45.419 54.3195 44.5547 54.3617 43.77 54.67C43.4312 54.8257 43.1178 55.0313 42.84 55.28C42.3844 55.6504 41.9926 56.0929 41.68 56.59L41.23 57.25C40.9426 57.7229 40.7079 58.2259 40.53 58.75C40.1949 59.7318 40.0259 60.7626 40.03 61.8C40.0335 62.1654 40.067 62.53 40.13 62.89C40.1864 63.2343 40.344 63.5541 40.5825 63.8087C40.8211 64.0634 41.13 64.2413 41.47 64.32C42.2418 64.5594 43.0681 64.5594 43.84 64.32C44.2329 64.2063 44.596 64.0077 44.9036 63.7381C45.2112 63.4685 45.4558 63.1346 45.62 62.76L45.68 62.63H47.13C47.0572 62.8885 46.9459 63.1346 46.8 63.36C46.4841 63.8964 46.0544 64.357 45.5413 64.7094C45.0282 65.0619 44.444 65.2976 43.83 65.4ZM54.3 65.28H47L50.57 53.63H57.19C57.09 53.98 56.96 54.3 56.84 54.63H51.6C51.16 55.95 50.73 57.27 50.29 58.63C50.89 58.63 51.46 58.63 52.04 58.63H55.54L55.24 59.63H50L48.7 64.04H54.7C54.55 64.5 54.43 64.89 54.3 65.28ZM64.3 57.72C63.7484 58.2804 63.0836 58.7168 62.35 59L62.22 59.06H62.28C62.4262 59.1273 62.5569 59.2242 62.6636 59.3447C62.7704 59.4653 62.8509 59.6067 62.9 59.76C63.089 60.2674 63.1608 60.8109 63.11 61.35C63.11 62.02 63.02 62.69 62.99 63.35C62.96 64.01 62.99 64.35 62.99 64.9V65.09C62.5509 65.1305 62.1091 65.1305 61.67 65.09C61.665 64.9967 61.665 64.9033 61.67 64.81C61.74 63.75 61.82 62.69 61.9 61.63C61.9 61.34 61.97 61.06 61.98 60.77C62.0044 60.5908 62.0044 60.4092 61.98 60.23C61.9441 60.0666 61.8585 59.9183 61.735 59.8055C61.6114 59.6927 61.456 59.6209 61.29 59.6H60.94H57.77C57.5 60.54 57.22 61.47 56.95 62.41C56.68 63.35 56.4 64.27 56.12 65.21H55C56.18 61.32 57.36 57.45 58.54 53.55H62.54C63.1254 53.5351 63.6945 53.744 64.1312 54.1342C64.5679 54.5245 64.8393 55.0666 64.89 55.65C64.9547 56.0211 64.9305 56.4022 64.8192 56.762C64.7079 57.1219 64.5129 57.4502 64.25 57.72H64.3ZM72.92 54L72.74 54.58H69.68C68.63 58.15 67.57 61.7 66.52 65.27H65.27C66.35 61.71 67.42 58.16 68.5 54.57H64.91C65.03 54.17 65.17 53.8 65.3 53.42H73.11L72.92 54Z" fill="#778D6F"/>
<path d="M59.75 52C60.517 52.182 61.3206 52.1333 62.06 51.86C63.189 51.4586 64.1294 50.6536 64.7 49.6C65.1004 48.913 65.4097 48.1768 65.62 47.41C65.9359 46.4191 66.0647 45.378 66 44.34C65.9643 43.9232 65.8269 43.5215 65.6 43.17C65.4078 42.8995 65.1623 42.6712 64.8785 42.4992C64.5947 42.3272 64.2787 42.2152 63.95 42.17C63.4465 42.0899 62.9335 42.0899 62.43 42.17C61.6832 42.2445 60.981 42.5604 60.43 43.07C59.7893 43.6658 59.2786 44.3875 58.93 45.19C58.77 45.55 58.63 45.92 58.5 46.3C58.1863 47.2424 58.0177 48.227 58 49.22C58 49.5 58 49.78 58.06 50.05C58.0943 50.5136 58.2773 50.9538 58.5818 51.3051C58.8863 51.6564 59.296 51.9001 59.75 52Z" fill="#778D6F"/>
</svg>
