<svg width="108" height="108" viewBox="0 0 108 108" fill="none" xmlns="http://www.w3.org/2000/svg">
<path d="M52.75 107.19C52.07 107.19 51.39 107.19 50.75 107.11L50.86 105.11C51.5 105.11 52.16 105.17 52.81 105.18L52.75 107.19ZM54.75 107.19V105.19C55.4 105.19 56.06 105.19 56.75 105.11L56.86 107.11C56.13 107.14 55.45 107.17 54.77 107.18L54.75 107.19ZM48.7 107C48.03 106.93 47.35 106.86 46.7 106.77L46.96 104.77C47.6 104.85 48.25 104.93 48.9 104.99L48.7 107ZM58.82 107L58.63 105C59.28 104.94 59.93 104.86 60.57 104.78L60.84 106.78C60.17 106.81 59.49 106.89 58.82 107ZM44.68 106.49C44.01 106.38 43.34 106.25 42.68 106.12L43.09 104.17C43.72 104.3 44.37 104.42 45.01 104.53L44.68 106.49ZM62.84 106.49L62.5 104.49C63.14 104.38 63.79 104.26 64.42 104.13L64.83 106.07C64.18 106.17 63.51 106.3 62.84 106.41V106.49ZM40.71 105.69C40.05 105.53 39.39 105.35 38.71 105.17L39.26 103.26C39.88 103.44 40.52 103.61 41.15 103.76L40.71 105.69ZM66.81 105.69L66.32 103.77C66.95 103.61 67.59 103.43 68.21 103.25L68.77 105.16C68.12 105.23 67.46 105.41 66.81 105.57V105.69ZM36.81 104.61C36.17 104.39 35.52 104.17 34.89 103.93L35.59 102.07C36.2 102.3 36.82 102.51 37.43 102.72L36.81 104.61ZM70.7 104.55L70.07 102.67C70.68 102.46 71.3 102.24 71.91 102.01L72.61 103.87C72 104 71.34 104.22 70.7 104.43V104.55ZM33 103.06C32.38 102.8 31.75 102.52 31.14 102.24L31.98 100.44C32.57 100.71 33.17 100.98 33.77 101.23L33 103.06ZM74.49 103L73.72 101.17C74.31 100.92 74.91 100.65 75.5 100.38L76.34 102.18C75.73 102.47 75.11 102.74 74.49 103ZM29.31 101.35C28.71 101.04 28.11 100.72 27.52 100.35L28.52 98.62L30.25 99.54L29.31 101.35ZM78.16 101.29L77.25 99.52C77.82 99.23 78.4 98.92 78.96 98.6L79.96 100.33C79.35 100.66 78.75 101 78.16 101.29ZM25.77 99.36C25.2 99.01 24.62 98.65 24.06 98.27L25.16 96.62C25.7 96.98 26.25 97.3133 26.81 97.62L25.77 99.36ZM81.68 99.3L80.68 97.61C81.23 97.27 81.79 96.92 82.33 96.61L83.43 98.26C82.83 98.58 82.26 99 81.68 99.3ZM22.39 97.12C21.84 96.72 21.3 96.32 20.76 95.9L22 94.33C22.51 94.73 23 95.13 23.56 95.5L22.39 97.12ZM85.05 97.06L83.89 95.44C84.41 95.06 84.94 94.67 85.45 94.27L86.67 95.84C86.14 96.25 85.6 96.66 85.05 97.06ZM19.19 94.62C18.67 94.19 18.19 93.74 17.66 93.29L19 91.82C19.48 92.25 20 92.69 20.47 93.1L19.19 94.62ZM88.24 94.56L87 93C87.5 92.58 87.99 92.15 88.47 91.71L89.81 93.18C89.27 93.67 88.76 94.12 88.24 94.56ZM16.18 91.9C15.71 91.43 15.18 90.9 14.76 90.45L16.21 89.08C16.65 89.56 17.11 90.02 17.58 90.48L16.18 91.9ZM91.24 91.83L89.85 90.41C90.31 89.96 90.77 89.49 91.21 89.02L92.66 90.38C92.2 90.87 91.72 91.36 91.24 91.83ZM13.4 89C12.95 88.5 12.51 88 12.09 87.46L13.63 86.2C14.04 86.71 14.46 87.2 14.89 87.69L13.4 89ZM94 88.88L92.51 87.57C92.94 87.08 93.36 86.57 93.77 86.08L95.31 87.33C94.91 87.85 94.47 88.37 94 88.88ZM10.82 85.81C10.41 85.27 10.01 84.72 9.62997 84.17L11.28 83C11.65 83.54 12.04 84.07 12.43 84.59L10.82 85.81ZM96.56 85.73L95 84.53C95.39 84.02 95.77 83.53 96.14 82.95L97.78 84.08C97.38 84.64 97 85.19 96.58 85.73H96.56ZM8.49997 82.49C8.13997 81.92 7.78997 81.34 7.43997 80.76L9.15997 79.76C9.48997 80.32 9.82997 80.88 10.16 81.42L8.49997 82.49ZM98.87 82.39L97.2 81.32C97.55 80.77 97.89 80.21 98.2 79.65L99.91 80.65C99.61 81.24 99.25 81.82 98.89 82.39H98.87ZM6.46997 79C6.14997 78.41 5.83996 77.8 5.53996 77.2L7.32997 76.32C7.60997 76.9 7.90997 77.49 8.21997 78.05L6.46997 79ZM100.94 78.89L99.19 78C99.5 77.42 99.8 76.84 100.08 76.26L101.87 77.13C101.58 77.68 101.26 78.29 100.94 78.89ZM4.68997 75.36C4.40997 74.75 4.14996 74.13 3.89996 73.5L5.73997 72.76C5.97997 73.36 6.23997 73.97 6.49997 74.56L4.68997 75.36ZM102.69 75.23L100.87 74.43C101.13 73.84 101.39 73.23 101.63 72.63L103.47 73.36C103.26 74 103 74.62 102.73 75.23H102.69ZM3.17996 71.6C2.95996 70.97 2.73996 70.32 2.53996 69.68L4.42996 69.09C4.62996 69.7 4.83997 70.33 5.04997 70.94L3.17996 71.6ZM104.23 71.46L102.35 70.79C102.57 70.18 102.78 69.56 102.97 68.93L104.87 69.52C104.67 70.17 104.45 70.82 104.23 71.46ZM1.99997 67.73C1.81997 67.09 1.64997 66.42 1.49997 65.73L3.42996 65.28C3.57996 65.91 3.73997 66.55 3.90997 67.17L1.99997 67.73ZM105.46 67.58L103.54 67.06C103.71 66.43 103.87 65.8 104.02 65.16L105.95 65.61C105.77 66.26 105.61 66.93 105.43 67.58H105.46ZM1.07997 63.78C0.949971 63.13 0.829965 62.45 0.729965 61.78L2.72997 61.47C2.82997 62.12 2.93997 62.76 3.05997 63.4L1.07997 63.78ZM106.37 63.62L104.42 63.25C104.54 62.62 104.65 61.97 104.74 61.33L106.74 61.62C106.58 62.29 106.46 63 106.34 63.62H106.37ZM0.429962 59.78C0.359962 59.11 0.289975 58.43 0.239975 57.78L2.23997 57.62C2.28997 58.27 2.34996 58.93 2.42996 59.57L0.429962 59.78ZM106.94 59.61L104.94 59.39C105.01 58.75 105.07 58.09 105.12 57.45L107.12 57.59C107.08 58.27 107 58.94 106.94 59.61ZM0.119965 55.73C0.119965 55.06 0.119965 54.38 0.119965 53.73H2.11996C2.11996 54.38 2.11996 55.04 2.11996 55.68L0.119965 55.73ZM107.24 55.57L105.24 55.5C105.24 54.87 105.24 54.23 105.24 53.6V53.44H107.24V53.61C107.27 54.25 107.26 54.92 107.24 55.57ZM2.09998 51.75L0.0999756 51.68C0.0999756 51 0.159976 50.32 0.209976 49.68L2.20998 49.83C2.15998 50.44 2.11998 51.1 2.09998 51.75ZM105.24 51.49C105.24 50.84 105.18 50.18 105.13 49.49L107.13 49.33C107.18 50 107.22 50.68 107.25 51.33L105.24 51.49ZM2.37997 47.85L0.379974 47.63C0.449974 46.97 0.539969 46.29 0.639969 45.63L2.63997 45.93C2.53997 46.56 2.45997 47.21 2.37997 47.85ZM104.94 47.59C104.87 46.95 104.78 46.3 104.68 45.66L106.68 45.36C106.79 46.02 106.88 46.7 106.96 47.36L104.94 47.59ZM2.99997 44L0.999969 43.63C1.11997 42.97 1.25997 42.3 1.40997 41.63L3.34998 42.07C3.20998 42.71 3.07997 43.35 2.99997 44ZM104.39 43.75C104.26 43.11 104.13 42.47 103.98 41.84L105.91 41.38C106.07 42.04 106.21 42.71 106.34 43.38L104.39 43.75ZM3.82997 40.18L1.90997 39.67C2.07997 39.02 2.26997 38.36 2.46997 37.67L4.36996 38.26C4.17996 38.93 3.99997 39.56 3.82997 40.18ZM103.46 39.93C103.29 39.31 103.1 38.68 102.91 38.06L104.8 37.46C105.01 38.1 105.2 38.76 105.38 39.41L103.46 39.93ZM4.99997 36.45L3.11996 35.79C3.34996 35.15 3.57997 34.51 3.82997 33.88L5.67996 34.62C5.42996 35.22 5.19997 35.83 4.99997 36.45ZM102.29 36.21C102.08 35.6 101.84 34.99 101.6 34.38L103.45 33.64C103.7 34.27 103.94 34.91 104.17 35.54L102.29 36.21ZM6.43997 32.81L4.61996 32.01C4.88996 31.39 5.17997 30.77 5.46997 30.16L7.25996 31.03C6.99996 31.62 6.68996 32.21 6.42996 32.81H6.43997ZM100.84 32.59C100.58 32 100.3 31.41 100.02 30.83L101.8 29.95C102.1 30.55 102.39 31.17 102.66 31.78L100.84 32.59ZM8.14996 29.29L6.39996 28.35C6.70996 27.76 7.04996 27.16 7.39996 26.58L9.10997 27.58C8.76997 28.14 8.43997 28.72 8.13997 29.29H8.14996ZM99.15 29.1C98.84 28.52 98.52 27.95 98.15 27.4L99.86 26.4C100.2 26.97 100.54 27.57 100.86 28.16L99.15 29.1ZM10.15 25.92L8.47997 24.85C8.83996 24.28 9.21998 23.71 9.59998 23.16L11.23 24.29C10.83 24.82 10.46 25.37 10.11 25.92H10.15ZM97.15 25.74C96.8 25.19 96.43 24.65 96.06 24.12L97.68 23C98.06 23.55 98.44 24.12 98.8 24.68L97.15 25.74ZM12.35 22.74L10.76 21.55C11.17 21.01 11.59 20.47 12.01 19.95L13.56 21.2C13.13 21.66 12.72 22.18 12.33 22.7L12.35 22.74ZM94.92 22.58C94.53 22.06 94.12 21.58 93.71 21.04L95.25 19.79C95.6766 20.31 96.0966 20.84 96.51 21.38L94.92 22.58ZM14.81 19.7L13.32 18.39C13.76 17.89 14.22 17.39 14.68 16.89L16.13 18.26C15.67 18.7067 15.2233 19.1733 14.79 19.66L14.81 19.7ZM92.45 19.55C92.02 19.07 91.58 18.55 91.13 18.11L92.58 16.74C93.04 17.23 93.5 17.74 93.94 18.24L92.45 19.55ZM17.45 16.86L16.06 15.44C16.54 14.97 17.06 14.5 17.53 14.05L18.87 15.52C18.41 15.91 17.93 16.36 17.47 16.82L17.45 16.86ZM89.72 16.72C89.26 16.27 88.78 15.82 88.3 15.38L89.64 13.91C90.13 14.36 90.64 14.83 91.11 15.3L89.72 16.72ZM20.33 14.23L19.05 12.71C19.56 12.27 20.05 11.84 20.62 11.43L21.87 13C21.36 13.35 20.85 13.77 20.35 14.19L20.33 14.23ZM86.83 14.1C86.33 13.68 85.83 13.27 85.31 12.87L86.53 11.3C87.06 11.71 87.59 12.14 88.11 12.58L86.83 14.1ZM23.41 11.82L22.24 10.21C22.78 9.81 23.34 9.42 23.9 9.05L25 10.66C24.49 11 24 11.4 23.43 11.78L23.41 11.82ZM83.74 11.7C83.22 11.32 82.68 10.95 82.13 10.59L83.23 8.93C83.79 9.3 84.36 9.69 84.9 10.09L83.74 11.7ZM26.67 9.61L25.67 7.92C26.24 7.57 26.83 7.22 27.41 6.92L28.41 8.65C27.7966 8.95 27.2167 9.27 26.67 9.61ZM80.51 9.5C79.95 9.16 79.38 8.83 78.82 8.5L79.82 6.77C80.4 7.1 80.99 7.44 81.57 7.77L80.51 9.5ZM30.06 7.69L29.15 5.93C29.75 5.62 30.36 5.32 30.97 5.03L31.81 6.84C31.23 7.11 30.64 7.4 30.06 7.69ZM77.06 7.59C76.48 7.3 75.89 7.01 75.3 6.74L76.14 4.93C76.75 5.22 77.36 5.51 77.96 5.82L77.06 7.59ZM33.59 6L32.82 4.17C33.43 3.91 34.07 3.66 34.69 3.42L35.4 5.28C34.79 5.55 34.19 5.79 33.59 6ZM73.59 5.91C72.99 5.66 72.38 5.42 71.77 5.19L72.46 3.33C73.1 3.56 73.73 3.81 74.36 4.07L73.59 5.91ZM37.29 4.62L36.65 2.74C37.29 2.52 37.94 2.32 38.59 2.13L39.15 4.04C38.48 4.26 37.85 4.46 37.24 4.66L37.29 4.62ZM69.92 4.54C69.31 4.34 68.68 4.14 68.06 3.96L68.61 2.05C69.25 2.24 69.91 2.44 70.55 2.65L69.92 4.54ZM41 3.56L40.51 1.63C41.17 1.47 41.83 1.31 42.51 1.17L42.92 3.17C42.25 3.25 41.61 3.4 41 3.56ZM66.14 3.5C65.51 3.34 64.87 3.2 64.24 3.06L64.64 1.12C65.3 1.25 65.96 1.41 66.64 1.57L66.14 3.5ZM44.8 2.75L44.46 0.75C45.12 0.63 45.8 0.53 46.46 0.44L46.72 2.44C46.09 2.54 45.44 2.64 44.8 2.75ZM62.3 2.75C61.66 2.65 61.01 2.55 60.37 2.47L60.62 0.47C61.29 0.55 61.96 0.65 62.62 0.76L62.3 2.75ZM48.67 2.28L48.48 0.28C49.15 0.21 49.83 0.16 50.48 0.12L50.6 2.12C50 2.11 49.32 2.17 48.67 2.23V2.28ZM58.42 2.28C57.78 2.22 57.13 2.18 56.48 2.14L56.58 0.14C57.26 0.14 57.94 0.22 58.58 0.28L58.42 2.28ZM52.57 2V0H54.57V2H53.73L53.67 1V2H52.57Z" fill="#778D6F"/>
<path d="M53.6801 86.55C45.2377 86.1087 37.2867 82.4441 31.467 76.3123C25.6473 70.1804 22.4028 62.0489 22.4028 53.595C22.4028 45.1411 25.6473 37.0096 31.467 30.8778C37.2867 24.7459 45.2377 21.0814 53.6801 20.64C62.1224 21.0814 70.0735 24.7459 75.8932 30.8778C81.7128 37.0096 84.9573 45.1411 84.9573 53.595C84.9573 62.0489 81.7128 70.1804 75.8932 76.3123C70.0735 82.4441 62.1224 86.1087 53.6801 86.55ZM53.6801 21.83C45.3531 21.9778 37.417 25.3894 31.5805 31.3304C25.744 37.2714 22.4737 45.2667 22.4737 53.595C22.4737 61.9233 25.744 69.9186 31.5805 75.8596C37.417 81.8006 45.3531 85.2123 53.6801 85.36C62.0071 85.2123 69.9431 81.8006 75.7796 75.8596C81.6161 69.9186 84.8864 61.9233 84.8864 53.595C84.8864 45.2667 81.6161 37.2714 75.7796 31.3304C69.9431 25.3894 62.0071 21.9778 53.6801 21.83Z" fill="#778D6F"/>
<path d="M29.72 12.51L30.89 11.96C30.9973 11.9032 31.1199 11.8822 31.24 11.9C31.349 11.927 31.449 11.9821 31.53 12.06L35.61 16C35.74 16.13 35.88 16.27 36.02 16.43L36.46 16.94C36.3472 16.535 36.2768 16.1195 36.25 15.7L35.84 9.99999C35.8314 9.89313 35.8522 9.78596 35.9 9.68999C35.9552 9.58153 36.0474 9.4964 36.16 9.44999L37.33 8.89999L37.85 18.18L36.54 18.8L29.72 12.51Z" fill="#778D6F"/>
<path d="M45.77 6.79999L46.06 7.99999L42.34 8.85999L42.88 11.19L45.81 10.51L46.09 11.72L43.16 12.39L43.71 14.77L47.43 13.91L47.72 15.16L42.42 16.38L40.48 7.99999L45.77 6.79999Z" fill="#778D6F"/>
<path d="M53.56 13.67C53.8765 13.6684 54.1917 13.6315 54.5 13.56C54.7629 13.4904 55.0177 13.3932 55.26 13.27V11.71H54.18C54.0896 11.7157 54.0003 11.6872 53.93 11.63C53.9016 11.6029 53.8789 11.5703 53.8635 11.5342C53.848 11.4981 53.84 11.4593 53.84 11.42V10.51H56.71L56.76 14C56.5455 14.1587 56.318 14.2992 56.08 14.42C55.8403 14.5439 55.5891 14.6444 55.33 14.72C55.0477 14.8018 54.7605 14.8653 54.47 14.91C54.1381 14.9504 53.8043 14.9737 53.47 14.98C52.8759 14.9961 52.2845 14.8942 51.73 14.68C51.2126 14.479 50.7426 14.1725 50.35 13.78C49.9511 13.3866 49.6349 12.9174 49.42 12.4C49.1928 11.8408 49.0741 11.2435 49.07 10.64C49.0547 10.0305 49.153 9.42348 49.36 8.84999C49.5529 8.32243 49.8547 7.8414 50.2458 7.43823C50.6369 7.03506 51.1086 6.71878 51.63 6.50999C52.2233 6.28009 52.8538 6.16144 53.49 6.15999C54.1129 6.13915 54.7341 6.23759 55.32 6.44999C55.8059 6.62768 56.2538 6.89573 56.64 7.23999L56.19 7.97999C56.1565 8.04657 56.105 8.10244 56.0414 8.14131C55.9778 8.18019 55.9046 8.20051 55.83 8.19999C55.7236 8.19807 55.6199 8.16693 55.53 8.10999L55.14 7.88999C54.9997 7.81288 54.8524 7.74926 54.7 7.69999L54.15 7.56999C53.9203 7.55326 53.6897 7.55326 53.46 7.56999C53.0653 7.57025 52.6745 7.64841 52.31 7.79999C51.9734 7.94177 51.6727 8.15702 51.43 8.42999C51.1828 8.72242 50.999 9.06292 50.89 9.42999C50.7554 9.83245 50.6944 10.2559 50.71 10.68C50.7088 11.1333 50.7866 11.5834 50.94 12.01C51.0633 12.3837 51.2683 12.7253 51.54 13.01C51.7935 13.2723 52.1004 13.4769 52.44 13.61C52.8063 13.7002 53.1862 13.7206 53.56 13.67Z" fill="#778D6F"/>
<path d="M66.09 16.66L64.88 16.39C64.7615 16.367 64.6531 16.3076 64.57 16.22C64.4988 16.1345 64.4537 16.0304 64.44 15.92L64.18 14.07L60.69 13.3L59.69 14.88C59.6293 14.9694 59.5467 15.0417 59.45 15.09C59.3334 15.1304 59.2066 15.1304 59.09 15.09L57.87 14.83L63 7.16L64.6 7.51L66.09 16.66ZM61.34 12.28L64.02 12.87L63.61 9.87C63.61 9.74 63.61 9.58 63.55 9.4C63.49 9.22 63.55 9.02 63.55 8.81L63.27 9.33C63.18 9.49 63.09 9.63 63.01 9.75L61.34 12.28Z" fill="#778D6F"/>
<path d="M72 9.84999C72.0376 9.87481 72.0713 9.90515 72.1 9.93999C72.1311 9.97491 72.1549 10.0157 72.17 10.06C72.1907 10.1154 72.2074 10.1722 72.22 10.23L73.77 17.39L73.92 17.01L74.07 16.67L76.37 12L77.64 12.61L73.88 20.37L73.13 20.01C73.0319 19.9688 72.9459 19.9034 72.88 19.82C72.8136 19.7317 72.769 19.6289 72.75 19.52L71.2 12.38C71.2 12.5 71.11 12.62 71.06 12.74L70.92 13.05L68.61 17.81L67.34 17.2L71.1 9.39999L71.86 9.76999L72 9.84999Z" fill="#778D6F"/>
<path d="M36 88.32L37.21 88.78C37.3259 88.8189 37.4248 88.8966 37.49 89C37.5498 89.0923 37.5811 89.2001 37.58 89.31V94.95C37.5945 95.1464 37.5945 95.3436 37.58 95.54C37.58 95.76 37.58 95.98 37.52 96.21C37.7435 95.8576 37.9943 95.5233 38.27 95.21L42 91C42.072 90.9188 42.1656 90.8598 42.27 90.83C42.3833 90.7904 42.5067 90.7904 42.62 90.83L43.83 91.29L37.53 98.12L36.17 97.61L36 88.32Z" fill="#778D6F"/>
<path d="M50.66 92.32L50.47 93.58L46.69 93L46.33 95.36L49.33 95.81L49.12 97L46.12 96.55L45.78 99L49.55 99.58L49.36 100.85L44 100L45.31 91.48L50.66 92.32Z" fill="#778D6F"/>
<path d="M57 99.66C57.3149 99.6475 57.6271 99.5971 57.93 99.51C58.1897 99.4278 58.4409 99.3206 58.68 99.19L58.59 97.62L57.51 97.69C57.4211 97.6959 57.3329 97.6712 57.26 97.62C57.2302 97.5934 57.206 97.5612 57.1888 97.5251C57.1716 97.489 57.1618 97.4499 57.16 97.41L57.1 96.51L59.97 96.33L60.18 99.82C59.9728 99.9881 59.7521 100.139 59.52 100.27C59.2837 100.402 59.0361 100.512 58.78 100.6C58.504 100.702 58.2195 100.779 57.93 100.83C57.5989 100.885 57.2651 100.922 56.93 100.94C56.3346 100.981 55.7371 100.906 55.17 100.72C54.6457 100.542 54.1627 100.259 53.75 99.89C53.326 99.5188 52.9852 99.0621 52.75 98.55C52.4917 98.0011 52.3455 97.4062 52.32 96.8C52.2779 96.1929 52.3456 95.5831 52.52 95C52.6898 94.468 52.9691 93.9775 53.34 93.56C53.7088 93.1291 54.1703 92.7873 54.69 92.56C55.2716 92.3029 55.895 92.1538 56.53 92.12C57.1511 92.0707 57.7759 92.142 58.37 92.33C58.8636 92.4895 59.3243 92.7368 59.73 93.06L59.31 93.82C59.2774 93.8869 59.228 93.9441 59.1666 93.9862C59.1053 94.0283 59.0341 94.0537 58.96 94.06C58.8544 94.0622 58.7505 94.0344 58.66 93.98L58.25 93.78C58.1081 93.7038 57.9568 93.6466 57.8 93.61C57.6198 93.5589 57.4359 93.5222 57.25 93.5C57.0203 93.4845 56.7897 93.4845 56.56 93.5C56.1656 93.5194 55.7785 93.6145 55.42 93.78C55.0933 93.9376 54.8062 94.1666 54.58 94.45C54.3428 94.7446 54.1692 95.0851 54.07 95.45C53.975 95.8596 53.9514 96.2824 54 96.7C54.0211 97.1533 54.1192 97.5997 54.29 98.02C54.4392 98.3725 54.6567 98.692 54.93 98.96C55.1971 99.21 55.514 99.4009 55.86 99.52C56.228 99.6371 56.6146 99.6845 57 99.66Z" fill="#778D6F"/>
<path d="M71.3701 97.74L70.1801 98.09C70.0699 98.1281 69.9505 98.1302 69.8391 98.0961C69.7276 98.0619 69.6299 97.9933 69.5601 97.9L68.4401 96.4L65.0201 97.4L64.9101 99.27C64.8973 99.3741 64.8596 99.4736 64.8 99.56C64.727 99.6622 64.6211 99.7363 64.5001 99.77L63.3101 100.13L64.0701 90.9L65.6401 90.43L71.3701 97.74ZM65.08 96.23L67.7201 95.44L65.8801 93L65.6001 92.62L65.2801 92.12V92.71C65.2911 92.8731 65.2911 93.0368 65.2801 93.2L65.08 96.23Z" fill="#778D6F"/>
<path d="M71 88.38C71.0429 88.3714 71.0871 88.3714 71.13 88.38H71.26L71.43 88.44L78.26 91.12C78.1735 91.0148 78.0933 90.9046 78.02 90.79L77.82 90.47L75.17 85.95L76.39 85.23L80.75 92.67L80.04 93.09C79.95 93.1496 79.8472 93.1873 79.74 93.2C79.6299 93.2074 79.5198 93.1868 79.42 93.14L72.62 90.46L72.84 90.78C72.8963 90.8511 72.9497 90.9245 73 91L75.68 95.57L74.46 96.28L70.1 88.84L70.82 88.42L71 88.38Z" fill="#778D6F"/>
<path d="M53.61 44.1C52.7749 47.3445 52.2361 50.6581 52 54C51.7254 57.3549 51.8361 60.7303 52.33 64.06C52.1051 63.9845 51.9048 63.8497 51.75 63.67C48.8481 61.1418 46.8271 57.7548 45.9801 54.0003C45.1332 50.2458 45.5045 46.3192 47.04 42.79C47.8643 40.8721 49.026 39.1176 50.47 37.61C51.3252 36.7247 52.2553 35.915 53.25 35.19C53.3058 35.1341 53.372 35.0897 53.4449 35.0594C53.5179 35.0291 53.596 35.0135 53.675 35.0135C53.754 35.0135 53.8322 35.0291 53.9051 35.0594C53.978 35.0897 54.0443 35.1341 54.1 35.19C57.9328 37.8771 60.5605 41.9587 61.42 46.56C62.1714 50.3322 61.6729 54.2465 60 57.71C58.7812 60.2989 56.9605 62.5585 54.69 64.3C54.28 64.62 54.28 64.62 54.16 64.1C53.4595 60.8647 53.071 57.5695 53 54.26C52.9331 51.8771 53.0166 49.4924 53.25 47.12C53.29 46.1 53.53 45.11 53.61 44.1Z" fill="#778D6F"/>
<path d="M69.65 59.73C65.3068 60.3064 61.0796 61.5546 57.12 63.43C57.04 63.25 57.19 63.22 57.26 63.15C58.9791 61.3823 60.3377 59.2968 61.26 57.01C61.3231 56.8337 61.4211 56.6719 61.5483 56.5345C61.6755 56.397 61.8291 56.2866 62 56.21C64.0548 55.1413 66.3471 54.6111 68.6625 54.6688C70.9779 54.7265 73.2409 55.3703 75.24 56.54C75.56 56.72 75.97 56.85 76.14 57.15C76.31 57.45 76.06 57.81 75.96 58.15C75.4875 59.8797 74.6756 61.498 73.5717 62.911C72.4678 64.3239 71.0939 65.5031 69.53 66.38C67.3949 67.603 64.9728 68.2355 62.5124 68.2127C60.0519 68.1898 57.642 67.5124 55.53 66.25C55.4591 66.2058 55.3922 66.1556 55.33 66.1C59.6554 63.0453 64.548 60.8863 69.72 59.75L69.65 59.73Z" fill="#778D6F"/>
<path d="M37.69 59.73C42.0207 60.6752 46.1618 62.3418 49.94 64.66C50.66 65.1 51.36 65.58 52.11 66.08C51.389 66.5452 50.6216 66.934 49.82 67.24C47.0724 68.3216 44.0517 68.4995 41.1961 67.7479C38.3406 66.9962 35.7989 65.3542 33.94 63.06C32.687 61.4592 31.7688 59.6228 31.24 57.66C31.09 57.15 31.3 57.04 31.6 56.85C33.6788 55.5329 36.0694 54.79 38.5285 54.6969C40.9877 54.6038 43.4276 55.1638 45.6 56.32C45.7836 56.3947 45.9307 56.5383 46.01 56.72C46.9083 59.0582 48.2649 61.1933 50 63C50.0462 63.0408 50.0821 63.092 50.1046 63.1493C50.1272 63.2067 50.1359 63.2686 50.13 63.33C46.1917 61.5012 41.9963 60.2871 37.69 59.73Z" fill="#778D6F"/>
</svg>
