<svg width="108" height="108" viewBox="0 0 108 108" fill="none" xmlns="http://www.w3.org/2000/svg">
<path d="M52.9301 107.19C52.2601 107.19 51.5801 107.19 50.9301 107.11L51.04 105.11C51.68 105.11 52.34 105.17 53.04 105.18L52.9301 107.19ZM54.9301 107.19V105.19C55.5801 105.19 56.2301 105.19 56.9301 105.11L57.05 107.11C56.31 107.15 55.6301 107.17 55.0001 107.18L54.9301 107.19ZM48.85 106.97C48.19 106.91 47.51 106.83 46.85 106.74L47.11 104.74C47.76 104.83 48.41 104.9 49.05 104.96L48.85 106.97ZM58.98 106.97L58.79 104.97C59.43 104.91 60.09 104.83 60.73 104.75L60.9901 106.75C60.3501 106.82 59.6801 106.89 59.0001 107L58.98 106.97ZM44.8301 106.44C44.1701 106.33 43.5001 106.2 42.8301 106.06L43.2401 104.12C43.8701 104.25 44.52 104.37 45.16 104.48L44.8301 106.44ZM63.0001 106.44L62.66 104.44C63.3 104.34 63.9401 104.21 64.5801 104.08L65.0001 106C64.3601 106.18 63.6901 106.31 63.0001 106.42V106.44ZM40.86 105.62C40.22 105.46 39.56 105.28 38.91 105.09L39.4601 103.18C40.0901 103.36 40.72 103.54 41.35 103.69L40.86 105.62ZM66.97 105.62L66.48 103.69C67.1467 103.53 67.7767 103.36 68.3701 103.18L68.9201 105.09L66.97 105.62ZM36.97 104.5C36.33 104.29 35.69 104.06 35.05 103.82L35.7501 101.96C36.3601 102.19 36.98 102.41 37.6 102.61L36.97 104.5ZM70.86 104.5L70.23 102.62C70.84 102.41 71.46 102.19 72.07 101.96L72.7701 103.82C72.1701 104 71.5301 104.24 70.8901 104.45L70.86 104.5ZM33.1901 103C32.5701 102.74 31.9401 102.46 31.3301 102.18L32.17 100.37C32.76 100.65 33.3601 100.91 33.9601 101.17L33.1901 103ZM74.6801 103L73.9101 101.17C74.5001 100.92 75.1 100.66 75.69 100.38L76.5301 102.18C75.9201 102.49 75.3001 102.77 74.6801 103ZM29.5101 101.3C28.9101 101 28.31 100.67 27.72 100.3L28.72 98.57C29.29 98.89 29.8701 99.2 30.4401 99.5L29.5101 101.3ZM78.35 101.3L77.44 99.53C78.02 99.23 78.6001 98.92 79.1601 98.6L80.1601 100.34C79.5501 100.69 79 101 78.35 101.32V101.3ZM25.97 99.3C25.39 98.94 24.8101 98.57 24.2501 98.2L25.36 96.55C25.89 96.91 26.4501 97.26 27.0001 97.55L25.97 99.3ZM81.8801 99.3L80.8801 97.61C81.4301 97.27 81.9801 96.92 82.5201 96.61L83.6301 98.26C83.0001 98.62 82.4501 99 81.8801 99.33V99.3ZM85.2501 97.06L84.09 95.45C84.62 95.06 85.1401 94.67 85.6501 94.27L86.8701 95.84C86.3401 96.28 85.8001 96.69 85.2501 97.09V97.06ZM22.5901 97.06C22.0401 96.66 21.4901 96.25 20.9601 95.84L22.1901 94.27C22.6967 94.67 23.2167 95.06 23.7501 95.44L22.5901 97.06ZM88.44 94.56L87.1601 93.05C87.6501 92.63 88.1601 92.2 88.6301 91.76L89.97 93.23C89.47 93.72 89 94.16 88.44 94.59V94.56ZM19.3901 94.56C18.8801 94.13 18.39 93.68 17.86 93.22L19.2001 91.75C19.6801 92.19 20.2 92.62 20.67 93.04L19.3901 94.56ZM91.44 91.84L90.0501 90.42C90.5101 89.97 90.9701 89.5 91.4201 89.02L92.86 90.39C92.4 90.91 91.92 91.4 91.44 91.87V91.84ZM16.3901 91.84C15.9101 91.37 15.39 90.84 14.97 90.39L16.41 89.03C16.86 89.5 17.3201 89.97 17.7801 90.42L16.3901 91.84ZM94.23 88.9L92.7401 87.59C93.16 87.11 93.5801 86.59 94.0001 86.1L95.5401 87.35C95.1101 87.9 94.67 88.42 94.23 88.92V88.9ZM13.6 88.9C13.16 88.4 12.72 87.9 12.3 87.35L13.8401 86.1C14.2501 86.6 14.67 87.1 15.1 87.59L13.6 88.9ZM96.7901 85.76L95.2 84.57C95.5867 84.05 95.9667 83.52 96.34 82.98L97.98 84.12C97.59 84.68 97.1901 85.23 96.7901 85.77V85.76ZM11.05 85.76C10.64 85.22 10.24 84.67 9.86005 84.11L11.4901 83C11.8601 83.53 12.2501 84.07 12.6401 84.58L11.05 85.76ZM8.74005 82.43C8.38005 81.87 8.02005 81.29 7.68005 80.7L9.39008 79.7C9.72008 80.26 10.0701 80.82 10.3901 81.36L8.74005 82.43ZM99.1 82.43L97.4301 81.36C97.7801 80.81 98.1201 80.25 98.4301 79.69L100.14 80.69C99.8201 81.29 99.47 81.87 99.1 82.44V82.43ZM6.69006 79C6.37006 78.41 6.06007 77.8 5.76007 77.2L7.55005 76.32C7.83005 76.91 8.13006 77.49 8.44006 78.06L6.69006 79ZM101.16 79L99.4101 78C99.7201 77.43 100.02 76.85 100.3 76.26L102.09 77.14C101.79 77.73 101.48 78.34 101.16 78.94V79ZM4.91003 75.37C4.63003 74.76 4.37006 74.13 4.12006 73.51L5.97003 72.77C6.21003 73.37 6.46003 73.98 6.72003 74.57L4.91003 75.37ZM102.91 75.37L101.09 74.56C101.35 73.96 101.61 73.36 101.85 72.76L103.69 73.49C103.49 74 103.22 74.67 103 75.29L102.91 75.37ZM3.40009 71.55C3.18009 70.92 2.96007 70.27 2.76007 69.63L4.66003 69.03C4.85003 69.65 5.06009 70.28 5.28009 70.89L3.40009 71.55ZM104.45 71.55L102.58 70.88C102.79 70.27 103 69.65 103.2 69.03L105.09 69.62C104.89 70.22 104.68 70.87 104.45 71.51V71.55ZM2.19006 67.68C2.02006 67.03 1.85007 66.37 1.70007 65.68L3.64008 65.24C3.78008 65.87 3.94005 66.5 4.11005 67.13L2.19006 67.68ZM105.66 67.63L103.74 67.11C103.91 66.49 104.07 65.85 104.22 65.22L106.15 65.66C106 66.32 105.84 67 105.66 67.63ZM1.28009 63.73C1.15009 63.07 1.04006 62.4 0.940063 61.73L2.94006 61.43C3.04006 62.08 3.15008 62.72 3.27008 63.36L1.28009 63.73ZM106.57 63.73L104.57 63.36C104.69 62.72 104.8 62.07 104.9 61.43L106.9 61.73C106.81 62.34 106.7 63 106.57 63.68V63.73ZM0.670044 59.73C0.590044 59.06 0.530042 58.38 0.480042 57.73L2.48004 57.58C2.52671 58.2467 2.5867 58.9133 2.66003 59.58L0.670044 59.73ZM107.18 59.73L105.18 59.5C105.25 58.86 105.32 58.2 105.36 57.56L107.36 57.71C107.32 58.32 107.25 59 107.18 59.67V59.73ZM0.360046 55.73C0.360046 55.05 0.360046 54.37 0.360046 53.73H2.36005C2.36005 54.37 2.36005 55.03 2.36005 55.73H0.360046ZM107.48 55.67L105.48 55.6C105.48 54.95 105.48 54.29 105.48 53.65V53.54H107.48V53.64C107.52 54.27 107.5 55 107.48 55.62V55.67ZM2.34009 51.7L0.340088 51.62C0.340088 50.95 0.400073 50.27 0.450073 49.62L2.45007 49.76C2.40007 50.39 2.37009 51.05 2.34009 51.7ZM105.49 51.54C105.49 50.9 105.43 50.24 105.38 49.59L107.38 49.44C107.43 50.11 107.47 50.79 107.5 51.44L105.49 51.54ZM2.63007 47.8L0.630066 47.58C0.700066 46.91 0.790076 46.23 0.890076 45.58L2.89008 45.87C2.79008 46.51 2.70007 47.16 2.63007 47.8ZM105.19 47.65C105.12 47 105.03 46.35 104.93 45.71L106.93 45.41C107.03 46.08 107.12 46.75 107.19 47.41L105.19 47.65ZM3.19006 43.94L1.19006 43.57C1.31006 42.91 1.45004 42.24 1.60004 41.57L3.54004 42.02C3.47004 42.66 3.33008 43.31 3.21008 43.94H3.19006ZM104.58 43.79C104.46 43.16 104.32 42.51 104.17 41.88L106.11 41.43C106.26 42.09 106.4 42.76 106.53 43.43L104.58 43.79ZM4.08008 40.13L2.17004 39.62C2.34004 38.96 2.53004 38.31 2.73004 37.67L4.63007 38.26C4.44007 38.87 4.25008 39.5 4.08008 40.13ZM103.72 39.99C103.55 39.36 103.36 38.73 103.17 38.11L105.06 37.52C105.26 38.16 105.46 38.82 105.63 39.46L103.72 39.99ZM5.25006 36.4L3.37006 35.74C3.60006 35.1 3.84009 34.46 4.09009 33.83L5.93005 34.57C5.69005 35.17 5.46006 35.79 5.25006 36.4ZM102.54 36.26C102.327 35.6533 102.097 35.0433 101.85 34.43L103.7 33.7C103.95 34.32 104.19 34.96 104.42 35.59L102.54 36.26ZM6.69006 32.76L4.87006 31.96C5.14006 31.34 5.43004 30.72 5.73004 30.11L7.51007 30.99C7.23007 31.57 7.00006 32.17 6.69006 32.76ZM101.1 32.64C100.84 32.05 100.56 31.46 100.27 30.88L102.06 30C102.35 30.61 102.64 31.22 102.91 31.83L101.1 32.64ZM8.41003 29.24L6.65009 28.31C6.97009 27.72 7.30009 27.12 7.65009 26.53L9.36005 27.53C9.00005 28.11 8.71003 28.68 8.41003 29.24ZM99.4101 29.14C99.1001 28.58 98.7801 28 98.4101 27.44L100.12 26.44C100.47 27.02 100.8 27.61 101.12 28.2L99.4101 29.14ZM10.41 25.87L8.74005 24.8C9.10005 24.24 9.48005 23.67 9.86005 23.11L11.5001 24.24C11.1001 24.78 10.7301 25.33 10.3801 25.87H10.41ZM97.4101 25.78C97.0601 25.24 96.69 24.69 96.33 24.16L98.0001 23C98.3801 23.54 98.7601 24.11 99.1201 24.68L97.4101 25.78ZM12.6201 22.66L11.0001 21.46C11.4001 20.92 11.8201 20.39 12.2501 19.86L13.79 21.12C13.4 21.62 13 22.14 12.61 22.66H12.6201ZM95.1801 22.58C94.7901 22.06 94.39 21.58 93.98 21.04L95.5201 19.79C95.9401 20.31 96.3701 20.85 96.7701 21.38L95.1801 22.58ZM15.0801 19.58L13.5801 18.27C14.0301 17.77 14.4801 17.27 14.9501 16.77L16.3901 18.14C15.9401 18.65 15.5001 19.14 15.0701 19.62L15.0801 19.58ZM92.72 19.51C92.3 19.03 91.8501 18.51 91.4001 18.07L92.85 16.7C93.31 17.2 93.77 17.7 94.21 18.2L92.72 19.51ZM17.72 16.74L16.3301 15.32C16.8101 14.85 17.33 14.38 17.8 13.93L19.1401 15.4C18.6901 15.87 18.2201 16.32 17.7501 16.78L17.72 16.74ZM89.9901 16.68C89.5301 16.23 89.05 15.78 88.57 15.34L89.9101 13.87C90.4101 14.32 90.9101 14.79 91.3801 15.26L89.9901 16.68ZM20.61 14.11L19.3201 12.59C19.8401 12.16 20.3201 11.73 20.9001 11.32L22.1201 12.88C21.6401 13.32 21.1301 13.73 20.6401 14.15L20.61 14.11ZM87.1 14.05C86.61 13.64 86.1 13.22 85.58 12.82L86.8001 11.26C87.3401 11.67 87.8701 12.1 88.3801 12.53L87.1 14.05ZM23.6801 11.71L22.5201 10.1C23.0601 9.7 23.6201 9.31 24.1801 8.94L25.2801 10.59C24.7801 11 24.2401 11.37 23.7101 11.75L23.6801 11.71ZM84.0201 11.65C83.4901 11.27 82.9501 10.9 82.4101 10.54L83.5101 8.88C84.0701 9.25 84.6301 9.64 85.1801 10.04L84.0201 11.65ZM27.0001 9.58L26.0001 7.89C26.5601 7.54 27.1501 7.19 27.7401 6.89L28.7401 8.62C28.0701 8.91 27.5001 9.25 27.0001 9.58ZM80.83 9.53C80.28 9.19 79.7101 8.86 79.1501 8.53L80.1501 6.8C80.7301 7.12 81.3201 7.47 81.9001 7.8L80.83 9.53ZM30.35 7.67L29.4401 5.9C30.0401 5.59 30.6501 5.29 31.2601 5.01L32.1 6.81C31.52 7.09 30.93 7.37 30.35 7.67ZM77.35 7.67C76.77 7.37 76.18 7.08 75.59 6.81L76.4301 5.01C77.0401 5.29 77.6501 5.59 78.2601 5.9L77.35 7.67ZM33.8801 6L33.11 4.17C33.73 3.91 34.3601 3.66 34.9901 3.42L35.6901 5.28C35.0801 5.53 34.4701 5.77 33.8801 6ZM73.83 6C73.23 5.75 72.6201 5.51 72.0101 5.28L72.71 3.42C73.34 3.65 73.98 3.91 74.6 4.17L73.83 6ZM37.5301 4.68L36.9001 2.79C37.5401 2.58 38.1901 2.37 38.8301 2.18L39.3901 4.09C38.7701 4.24 38.1501 4.44 37.5301 4.65V4.68ZM70.1601 4.63C69.5401 4.42 68.9201 4.23 68.3001 4.05L68.85 2.14C69.49 2.32 70.1501 2.53 70.7901 2.74L70.1601 4.63ZM41.2801 3.63L40.79 1.7C41.44 1.54 42.11 1.38 42.79 1.24L43.2001 3.24C42.5501 3.24 41.9101 3.39 41.2801 3.55V3.63ZM66.41 3.63C65.78 3.47 65.1401 3.33 64.5101 3.2L64.92 1.25C65.57 1.39 66.24 1.54 66.92 1.7L66.41 3.63ZM45.1 2.86L44.7601 0.86C45.4201 0.75 46.1001 0.64 46.7601 0.55L47.0301 2.55C46.3801 2.53 45.73 2.63 45.1 2.74V2.86ZM62.5901 2.86L60.66 2.57L60.92 0.57C61.59 0.66 62.26 0.76 62.92 0.87L62.5901 2.86ZM49.0001 2.22L48.8101 0.22C49.4801 0.16 50.1601 0.11 50.8101 0.07L50.92 2.07C50.27 2.11 49.6101 2.16 49.0001 2.22ZM58.7501 2.22C58.1001 2.16 57.4501 2.11 56.7501 2.08L56.86 0.08C57.53 0.08 58.21 0.17 58.86 0.23L58.7501 2.22ZM52.8701 2V0H54.8701V2C54.1701 2 53.5201 2 52.8701 2Z" fill="#778D6F"/>
<path d="M53.9201 86.55C47.389 86.5599 41.0019 84.6316 35.5675 81.0093C30.133 77.3871 25.8956 72.2337 23.3917 66.2017C20.8878 60.1697 20.2301 53.5303 21.5018 47.1243C22.7735 40.7183 25.9175 34.8337 30.5356 30.2155C35.1537 25.5974 41.0384 22.4534 47.4444 21.1817C53.8504 19.91 60.4897 20.5677 66.5217 23.0716C72.5537 25.5755 77.7071 29.8129 81.3294 35.2474C84.9517 40.6819 86.88 47.069 86.8701 53.6C86.8568 62.3348 83.3811 70.7081 77.2047 76.8846C71.0282 83.061 62.6549 86.5368 53.9201 86.55ZM53.9201 21.83C47.6361 21.828 41.4927 23.6896 36.2669 27.1793C31.041 30.6691 26.9674 35.6302 24.5613 41.4352C22.1552 47.2402 21.5246 53.6284 22.7493 59.7919C23.974 65.9553 26.9991 71.6171 31.4418 76.0612C35.8845 80.5054 41.5453 83.5322 47.7084 84.7588C53.8714 85.9855 60.2598 85.3569 66.0656 82.9526C71.8714 80.5483 76.8338 76.4763 80.3251 71.2515C83.8165 66.0267 85.6801 59.8839 85.6801 53.6C85.6722 45.1782 82.3237 37.1035 76.3696 31.1475C70.4154 25.1915 62.3418 21.8406 53.9201 21.83Z" fill="#778D6F"/>
<path d="M23.51 23C24.0009 23.5727 24.6497 23.9882 25.3753 24.1945C26.1009 24.4008 26.8712 24.3888 27.59 24.16C28.084 24.0059 28.5403 23.7505 28.93 23.41C29.2337 23.1576 29.4939 22.8569 29.7 22.52C29.8917 22.2084 30.0398 21.8719 30.14 21.52C30.1983 21.3163 30.3168 21.1351 30.48 21C30.5935 20.8932 30.7305 20.8144 30.88 20.77C31.0222 20.7443 31.1678 20.7443 31.31 20.77H31.69C31.6744 21.1241 31.6242 21.4757 31.54 21.82C31.4606 22.1666 31.3398 22.5024 31.18 22.82C31.0239 23.1474 30.8363 23.4589 30.62 23.75C30.3932 24.0437 30.1387 24.315 29.86 24.56C29.3213 25.0099 28.6996 25.3497 28.03 25.56C27.3831 25.7588 26.7051 25.8368 26.03 25.79C25.3542 25.7389 24.695 25.5554 24.09 25.25C23.4531 24.9445 22.8901 24.5043 22.44 23.96C22.1289 23.605 21.8696 23.2077 21.67 22.78C21.4733 22.3671 21.3321 21.9299 21.25 21.48C21.1702 21.0347 21.15 20.5807 21.19 20.13C21.22 19.6798 21.3109 19.2358 21.46 18.81C21.6106 18.379 21.8155 17.969 22.07 17.59C22.3313 17.1967 22.6479 16.8431 23.01 16.54C23.2905 16.2942 23.5993 16.0827 23.93 15.91C24.2465 15.7329 24.5819 15.592 24.93 15.49C25.6097 15.2838 26.3251 15.2225 27.03 15.31V15.68C27.0159 15.8282 26.9788 15.9733 26.92 16.11C26.841 16.276 26.7202 16.4186 26.5694 16.5238C26.4186 16.629 26.2431 16.6932 26.06 16.71C25.6817 16.7557 25.3116 16.8533 24.96 17C24.5951 17.1508 24.2573 17.3602 23.96 17.62C23.5668 17.9504 23.2466 18.3591 23.02 18.82C22.8032 19.2651 22.671 19.7466 22.63 20.24C22.5919 20.7331 22.6496 21.2289 22.8 21.7C22.9463 22.1769 23.1879 22.6191 23.51 23Z" fill="#778D6F"/>
<path d="M36.09 20.1L34.8 20.7L30.39 11.38L33.74 9.8C34.1033 9.62648 34.4978 9.52785 34.9 9.51C35.2879 9.49811 35.6746 9.55917 36.04 9.69C36.4086 9.81967 36.7482 10.0201 37.04 10.28C37.3491 10.5577 37.5947 10.8988 37.76 11.28C37.8982 11.5739 37.9893 11.8878 38.03 12.21C38.0854 12.5209 38.0854 12.8391 38.03 13.15C37.9702 13.4551 37.8622 13.7488 37.71 14.02C37.5598 14.2976 37.3637 14.5478 37.13 14.76L41.99 17.37L41.11 17.79C40.8794 17.9021 40.6264 17.9602 40.37 17.96C40.1244 17.9499 39.8861 17.8739 39.68 17.74L35.68 15.6L34.29 16.26L36.09 20.1ZM32.29 12.1L33.64 14.97L35.7 13.97C35.8935 13.8783 36.0668 13.7491 36.21 13.59C36.347 13.439 36.4524 13.2623 36.52 13.07C36.5903 12.8781 36.6209 12.674 36.61 12.47C36.609 12.2577 36.5576 12.0486 36.46 11.86C36.3718 11.6645 36.2421 11.4905 36.08 11.35C35.9291 11.2131 35.7522 11.1077 35.56 11.04C35.3681 10.9697 35.1641 10.9391 34.96 10.95C34.7475 10.9498 34.5381 11.0013 34.35 11.1L32.29 12.1Z" fill="#778D6F"/>
<path d="M43.83 12.8C43.8969 13.1562 44.0327 13.4959 44.23 13.8C44.4221 14.0919 44.6662 14.3461 44.95 14.55C45.2523 14.7548 45.5922 14.8975 45.95 14.97C46.3061 15.0453 46.674 15.0453 47.03 14.97C47.3872 14.9062 47.7275 14.7701 48.03 14.57C48.3242 14.3806 48.5788 14.1362 48.78 13.85C48.9831 13.5457 49.1289 13.2068 49.21 12.85C49.2801 12.4934 49.2801 12.1266 49.21 11.77L48.1 5.59L49.5 5.34L50.61 11.52C50.6646 11.8913 50.6646 12.2687 50.61 12.64C50.5774 12.983 50.4967 13.3196 50.37 13.64C50.2531 13.9754 50.0881 14.2921 49.88 14.58C49.6813 14.8751 49.4423 15.141 49.17 15.37C48.896 15.6009 48.5935 15.7959 48.27 15.95C47.935 16.114 47.5779 16.2285 47.21 16.29C46.8445 16.3612 46.4704 16.3781 46.1 16.34C45.757 16.3075 45.4204 16.2267 45.1 16.1C44.7449 15.9855 44.4081 15.8204 44.1 15.61C43.8098 15.4088 43.5475 15.1701 43.32 14.9C43.0826 14.6288 42.884 14.3259 42.73 14C42.5691 13.6637 42.4548 13.3071 42.39 12.94L41.28 6.76L42.69 6.51L43.83 12.8Z" fill="#778D6F"/>
<path d="M60.4001 16.11L54.04 15.59L54.8801 5.31L61.23 5.83L61.1201 7.25L56.1801 6.85L55.9401 9.85L59.9401 10.17L59.8201 11.59L55.8201 11.27L55.5701 14.27L60.5001 14.68L60.4001 16.11Z" fill="#778D6F"/>
<path d="M62.9299 16.71L65.9999 6.87L67.3499 7.3L64.7 15.77L68.9499 17.11L68.52 18.47L62.9299 16.71Z" fill="#778D6F"/>
<path d="M72.5699 10.5L73.25 9.25L80.15 12.95L79.48 14.21L76.66 12.69L72.46 20.53L71.2 19.86L75.4 12.02L72.5699 10.5Z" fill="#778D6F"/>
<path d="M80 26.09L79 25.09L81.9399 21.87C82.0035 21.8022 82.0604 21.7286 82.11 21.65C82.1836 21.4949 82.2342 21.3298 82.26 21.16C82.26 21.07 82.26 20.96 82.26 20.85L82.9 14.72L83.62 15.38C83.8118 15.5506 83.9624 15.7626 84.0601 16C84.1409 16.231 84.1615 16.4788 84.12 16.72L83.7 20.79C83.681 20.8549 83.6577 20.9184 83.63 20.98L83.54 21.13C83.582 21.0905 83.6291 21.0569 83.6801 21.03C83.7365 20.9893 83.8014 20.962 83.87 20.95L87.87 20.16C88.1062 20.0999 88.3537 20.0999 88.59 20.16C88.8336 20.2335 89.0564 20.3637 89.24 20.54L89.96 21.2L83.96 22.39L83.66 22.45L83.41 22.53C83.3317 22.56 83.2576 22.6004 83.1899 22.65C83.1128 22.7011 83.0423 22.7616 82.98 22.83L80 26.09Z" fill="#778D6F"/>
<path d="M37.91 93L37.07 94.66L32.22 92.18L29.67 97.18L28 96.27L34.13 84.27L41.54 88.06L40.69 89.72L35 86.79L33.11 90.47L37.91 93Z" fill="#778D6F"/>
<path d="M43.9001 102.43L42.0601 102.15L44.1301 88.85L48.9001 89.59C49.4213 89.6698 49.9211 89.8534 50.3701 90.13C50.7979 90.3891 51.1714 90.7287 51.47 91.13C51.772 91.536 51.9896 91.9985 52.11 92.49C52.2386 92.9999 52.2624 93.5306 52.1801 94.05C52.1154 94.4715 51.9837 94.88 51.79 95.26C51.5971 95.6273 51.3511 95.9643 51.0601 96.26C50.766 96.5449 50.4284 96.7812 50.0601 96.96C49.6951 97.1452 49.3039 97.2734 48.9001 97.34L52.2401 103.71L50.98 103.52C50.6498 103.472 50.335 103.349 50.0601 103.16C49.8013 102.974 49.5974 102.722 49.47 102.43L46.72 97.19L44.72 96.88L43.9001 102.43ZM45.6801 91L45.04 95.1L47.98 95.55C48.2506 95.6049 48.5295 95.6049 48.8 95.55C49.3226 95.4165 49.7738 95.0871 50.0601 94.63C50.2055 94.3954 50.3009 94.1332 50.3401 93.86C50.3953 93.5861 50.3953 93.3039 50.3401 93.03C50.27 92.7749 50.1548 92.5345 50.0001 92.32C49.8418 92.1021 49.6411 91.9184 49.41 91.78C49.1785 91.6264 48.9153 91.5273 48.6401 91.49L45.6801 91Z" fill="#778D6F"/>
<path d="M66.56 102L58.35 103.36L56.14 90.09L64.35 88.72L64.65 90.56L58.28 91.62L58.92 95.44L64.08 94.58L64.38 96.42L59.22 97.28L59.88 101.22L66.25 100.16L66.56 102Z" fill="#778D6F"/>
<path d="M80.5601 95.91L73.15 99.69L67.03 87.69L74.45 83.91L75.29 85.56L69.54 88.5L71.3 92L76 89.6L76.84 91.25L72.1899 93.63L74 97.19L79.76 94.25L80.5601 95.91Z" fill="#778D6F"/>
<path d="M66.07 52.94C61.23 49.41 54.55 50.19 49.84 52.94C49.84 52.94 48.2699 48.1 45.6599 47.05C43.0499 46 38.7199 45.74 36.0999 48.49C33.4799 51.24 31 54.12 32.57 58C34.4 61.8 38.98 60.88 38.98 60.88C40.7558 64.5004 41.9054 68.3955 42.38 72.4C42.38 72.4 40.0299 72.4 40.1599 73.97C40.1388 74.2802 40.2351 74.5871 40.4295 74.8297C40.624 75.0724 40.9026 75.2331 41.21 75.28L50.3 75.35C50.3 75.35 46.64 71.94 46.9 68.02C47.0258 66.6562 47.5178 65.3517 48.324 64.2445C49.1302 63.1372 50.2206 62.2685 51.4799 61.73C52.4799 61.34 52.48 62.52 52.13 62.73C51.78 62.94 47.49 65.02 48.53 69.99C49.97 74.99 56.13 75.99 56.65 75.99C57.17 75.99 67.51 76.78 70.78 69.84C74.05 62.9 70.91 56.47 66.07 52.94ZM40 54.38C39.6499 54.38 39.3077 54.2762 39.0166 54.0817C38.7256 53.8872 38.4987 53.6108 38.3647 53.2874C38.2307 52.9639 38.1957 52.608 38.264 52.2647C38.3323 51.9214 38.5008 51.606 38.7484 51.3584C38.9959 51.1109 39.3113 50.9423 39.6546 50.874C39.998 50.8057 40.3539 50.8408 40.6773 50.9747C41.0008 51.1087 41.2772 51.3356 41.4716 51.6266C41.6661 51.9177 41.77 52.2599 41.77 52.61C41.7713 52.8428 41.7264 53.0736 41.6379 53.2889C41.5494 53.5043 41.4191 53.6999 41.2545 53.8645C41.0899 54.0292 40.8942 54.1595 40.6789 54.248C40.4635 54.3365 40.2328 54.3813 40 54.38Z" fill="#778D6F"/>
<path d="M45.79 45.48C46.9202 43.0964 48.1857 40.7793 49.5801 38.54C50.8833 36.5508 52.6331 34.8934 54.6901 33.7C57.4301 32.26 56.5201 36.97 56.3901 37.23C56.2601 37.49 55.4701 42.23 49.3201 47.97L45.79 45.48Z" fill="#778D6F"/>
<path d="M45.13 45.35L42.38 45.22C42.38 45.22 42.51 37.76 44.22 34.62C45.93 31.48 46.83 31.21 47.36 31.08C47.89 30.95 48.36 31.48 48.8 32.39C48.8 33.18 49.06 38.15 49.06 38.15C49.06 38.15 47.09 39.72 45.13 45.35Z" fill="#778D6F"/>
<path d="M73.14 60.79C73.8928 60.9873 74.5589 61.4285 75.0343 62.0446C75.5097 62.6606 75.7676 63.4169 75.7676 64.195C75.7676 64.9732 75.5097 65.7295 75.0343 66.3455C74.5589 66.9616 73.8928 67.4028 73.14 67.6V60.79Z" fill="#778D6F"/>
</svg>
