<svg width="108" height="108" viewBox="0 0 108 108" fill="none" xmlns="http://www.w3.org/2000/svg">
<path d="M3.52997 42L1.58997 41.55C1.43997 42.21 1.29993 42.88 1.17993 43.55L3.17993 43.92C3.24993 43.3 3.38997 42.66 3.52997 42Z" fill="#778D6F"/>
<path d="M4.55005 38.26L2.65009 37.67C2.45009 38.31 2.26008 38.97 2.08008 39.62L4.00006 40.13C4.17006 39.51 4.35005 38.88 4.55005 38.26Z" fill="#778D6F"/>
<path d="M5.85004 34.57L4.00006 33.83C3.75006 34.46 3.51004 35.1 3.29004 35.74L5.16003 36.4C5.38003 35.79 5.61004 35.17 5.85004 34.57Z" fill="#778D6F"/>
<path d="M101.05 74.48L102.87 75.29C103.14 74.67 103.4 74.04 103.65 73.41L101.81 72.68C101.57 73.28 101.31 73.89 101.05 74.48Z" fill="#778D6F"/>
<path d="M2.22998 53.65H0.22998C0.22998 54.33 0.22998 55.01 0.22998 55.65L2.22998 55.57C2.23998 55 2.22998 54.3 2.22998 53.65Z" fill="#778D6F"/>
<path d="M3.54999 65.27L1.62 65.72C1.77 66.37 1.93999 67.04 2.10999 67.72L4.03003 67.2C3.86003 66.54 3.69999 65.9 3.54999 65.27Z" fill="#778D6F"/>
<path d="M4.57996 69L2.67993 69.59C2.87993 70.23 3.09995 70.88 3.31995 71.51L5.19995 70.85C4.99995 70.28 4.76996 69.65 4.57996 69Z" fill="#778D6F"/>
<path d="M2.81006 45.87L0.810059 45.57C0.710059 46.23 0.620049 46.91 0.550049 47.57L2.55005 47.79C2.62005 47.16 2.71006 46.5 2.81006 45.87Z" fill="#778D6F"/>
<path d="M2.37 49.75L0.369995 49.6C0.369995 50.27 0.28001 50.95 0.26001 51.6L2.26001 51.68C2.29001 51.05 2.32 50.39 2.37 49.75Z" fill="#778D6F"/>
<path d="M2.82007 61.43L0.820068 61.73C0.920068 62.4 1.03003 63.07 1.16003 63.73L3.11005 63.36C3.00005 62.72 2.92007 62.07 2.82007 61.43Z" fill="#778D6F"/>
<path d="M2.38 57.55L0.380005 57.7C0.430005 58.37 0.490007 59.05 0.570007 59.7L2.57001 59.48C2.49667 58.8467 2.43334 58.2033 2.38 57.55Z" fill="#778D6F"/>
<path d="M104.54 63.31L106.54 63.68C106.67 63.01 106.78 62.34 106.88 61.68L104.88 61.38C104.77 62 104.66 62.67 104.54 63.31Z" fill="#778D6F"/>
<path d="M103.66 67.11L105.58 67.63C105.76 66.98 105.92 66.32 106.07 65.63L104.14 65.19C104 65.85 103.83 66.49 103.66 67.11Z" fill="#778D6F"/>
<path d="M104.52 43.79L106.52 43.41C106.39 42.75 106.25 42.08 106.1 41.41L104.16 41.86C104.26 42.51 104.39 43.15 104.52 43.79Z" fill="#778D6F"/>
<path d="M105.11 47.65L107.11 47.42C107.04 46.75 106.95 46.07 106.84 45.42L104.84 45.72C105 46.35 105 47 105.11 47.65Z" fill="#778D6F"/>
<path d="M105.12 59.45L107.12 59.67C107.19 59 107.25 58.32 107.31 57.67L105.31 57.52C105.257 58.1534 105.193 58.7967 105.12 59.45Z" fill="#778D6F"/>
<path d="M97.35 81.37L99 82.44C99.37 81.87 99.72 81.29 100.06 80.71L98.35 79.71C98 80.26 97.7 80.82 97.35 81.37Z" fill="#778D6F"/>
<path d="M99.3301 78L101.08 79C101.4 78.4 101.71 77.79 102.01 77.19L100.22 76.31C99.94 76.84 99.6401 77.42 99.3301 78Z" fill="#778D6F"/>
<path d="M105.41 51.54L107.41 51.46C107.41 50.79 107.35 50.11 107.3 49.46L105.3 49.61C105.34 50.24 105.38 50.89 105.41 51.54Z" fill="#778D6F"/>
<path d="M102.5 70.84L104.37 71.51C104.6 70.87 104.81 70.22 105.01 69.58L103.12 69C102.92 69.61 102.71 70.23 102.5 70.84Z" fill="#778D6F"/>
<path d="M103.63 40L105.55 39.47C105.37 38.82 105.18 38.17 104.98 37.53L103.08 38.12C103.28 38.73 103.46 39.36 103.63 40Z" fill="#778D6F"/>
<path d="M99.3 29.14L101.05 28.2C100.73 27.61 100.39 27.01 100.05 26.44L98.3401 27.44C98.6701 28 99 28.57 99.3 29.14Z" fill="#778D6F"/>
<path d="M102.46 36.26L104.34 35.59C104.11 34.96 103.87 34.32 103.62 33.7L101.77 34.43C102.023 35.0433 102.253 35.6533 102.46 36.26Z" fill="#778D6F"/>
<path d="M101 32.64L102.81 31.83C102.54 31.22 102.25 30.6 101.95 30L100.17 30.88C100.47 31.45 100.75 32.05 101 32.64Z" fill="#778D6F"/>
<path d="M107.44 53.49H105.44V53.6C105.44 54.24 105.44 54.9 105.44 55.55L107.44 55.62C107.44 54.95 107.44 54.27 107.44 53.62V53.49Z" fill="#778D6F"/>
<path d="M7.43005 31L5.65009 30.12C5.35009 30.73 5.06004 31.35 4.79004 31.97L6.61005 32.77C6.87005 32.17 7.15005 31.57 7.43005 31Z" fill="#778D6F"/>
<path d="M9.28009 27.54L7.57007 26.54C7.23007 27.13 6.89007 27.72 6.57007 28.32L8.32007 29.26C8.6334 28.6733 8.95342 28.1 9.28009 27.54Z" fill="#778D6F"/>
<path d="M19.09 15.44L17.75 14C17.25 14.46 16.75 14.93 16.28 15.39L17.67 16.81C18.13 16.33 18.61 15.88 19.09 15.44Z" fill="#778D6F"/>
<path d="M22.07 12.92L20.85 11.36C20.32 11.77 19.79 12.2 19.27 12.63L20.56 14.15C21.05 13.74 21.56 13.32 22.07 12.92Z" fill="#778D6F"/>
<path d="M11.38 24.24L9.75 23.11C9.37 23.66 8.99 24.23 8.63 24.8L10.3 25.87C10.65 25.32 11 24.78 11.38 24.24Z" fill="#778D6F"/>
<path d="M13.7299 21.12L12.1899 19.87C11.7599 20.39 11.3399 20.93 10.9399 21.47L12.53 22.66C12.92 22.14 13.3199 21.62 13.7299 21.12Z" fill="#778D6F"/>
<path d="M5.89008 72.71L4.04004 73.45C4.29004 74.07 4.55007 74.7 4.82007 75.31L6.64008 74.51C6.38008 73.92 6.12008 73.31 5.89008 72.71Z" fill="#778D6F"/>
<path d="M7.46991 76.27L5.67993 77.15C5.96993 77.75 6.28992 78.35 6.60992 78.95L8.35992 78.01C8.04992 77.44 7.74991 76.85 7.46991 76.27Z" fill="#778D6F"/>
<path d="M25.23 10.64L24.13 9C23.57 9.37 23.01 9.76 22.47 10.16L23.63 11.77C24.16 11.37 24.7 11 25.23 10.64Z" fill="#778D6F"/>
<path d="M81.75 7.82999C81.17 7.47999 80.58 7.12999 80 6.82999L79 8.55999C79.57 8.87999 80.14 9.20999 80.69 9.55999L81.75 7.82999Z" fill="#778D6F"/>
<path d="M88.33 12.57C87.82 12.14 87.33 11.71 86.75 11.3L85.53 12.86C86.04 13.26 86.53 13.68 87.05 14.09L88.33 12.57Z" fill="#778D6F"/>
<path d="M62.8401 0.750012C62.1801 0.640012 61.5001 0.540012 60.8401 0.450012L60.5801 2.45001L62.5101 2.74001L62.8401 0.750012Z" fill="#778D6F"/>
<path d="M66.81 1.58C66.16 1.42 65.49 1.27 64.81 1.13L64.4 3.13C65.03 3.26 65.67 3.4 66.3 3.56L66.81 1.58Z" fill="#778D6F"/>
<path d="M53.79 2H54.79V0H52.79V2H53.79Z" fill="#778D6F"/>
<path d="M58.8199 0.229987C58.1499 0.169987 57.4699 0.119987 56.8199 0.0799866L56.71 2.07999C57.36 2.07999 58.0199 2.15999 58.6599 2.21999L58.8199 0.229987Z" fill="#778D6F"/>
<path d="M50.83 2.07001L50.72 0.0700073C50.04 0.0700073 49.36 0.160007 48.72 0.220007L48.91 2.22001C49.53 2.16001 50.18 2.11001 50.83 2.07001Z" fill="#778D6F"/>
<path d="M9.31 79.71L7.59998 80.71C7.93998 81.29 8.28997 81.87 8.65997 82.44L10.33 81.37C10 80.82 9.64 80.26 9.31 79.71Z" fill="#778D6F"/>
<path d="M70.71 2.70999C70.07 2.49999 69.42 2.29999 68.77 2.10999L68.22 3.99999C68.84 4.17999 69.47 4.36999 70.08 4.57999L70.71 2.70999Z" fill="#778D6F"/>
<path d="M78.2001 5.84999C77.6101 5.53999 76.9901 5.23999 76.3801 4.95999L75.54 6.75999C76.13 7.02999 76.72 7.31999 77.3 7.61999L78.2001 5.84999Z" fill="#778D6F"/>
<path d="M74.52 4.14001C73.9 3.88001 73.2599 3.62001 72.6299 3.39001L71.9299 5.25001C72.5399 5.48001 73.1499 5.72001 73.7499 5.97001L74.52 4.14001Z" fill="#778D6F"/>
<path d="M92.6301 19.55L94.1201 18.24C93.6801 17.74 93.2201 17.24 92.7601 16.74L91.3101 18.11C91.7601 18.58 92.2001 19.07 92.6301 19.55Z" fill="#778D6F"/>
<path d="M28.5601 8.59999L27.5601 6.85999C26.9801 7.18999 26.3901 7.53999 25.8201 7.85999L26.8201 9.54999C27.4301 9.23999 28.0001 8.90999 28.5601 8.59999Z" fill="#778D6F"/>
<path d="M32 6.81L31.18 5L29.36 5.89L30.27 7.66L32 6.81Z" fill="#778D6F"/>
<path d="M47 2.44L46.73 0.440002C46.07 0.530002 45.39 0.640002 44.73 0.750002L45.07 2.75C45.65 2.63 46.3 2.53 47 2.44Z" fill="#778D6F"/>
<path d="M95.09 22.58L96.68 21.39C96.27 20.85 95.85 20.31 95.43 19.79L93.89 21C94.3 21.55 94.7 22.06 95.09 22.58Z" fill="#778D6F"/>
<path d="M35.61 5.3L34.91 3.44C34.28 3.68 33.65 3.93 33.03 4.19L33.8 6C34.4 5.77 35 5.53 35.61 5.3Z" fill="#778D6F"/>
<path d="M91.33 15.3C90.85 14.83 90.33 14.36 89.86 13.91L88.52 15.38C89 15.81 89.52 16.27 89.94 16.72L91.33 15.3Z" fill="#778D6F"/>
<path d="M97.32 25.78L99 24.71C98.64 24.15 98.26 23.58 97.88 23.03L96.25 24.16C96.61 24.69 97 25.24 97.32 25.78Z" fill="#778D6F"/>
<path d="M43.0999 3.11L42.6899 1.16C42.0299 1.3 41.3599 1.46 40.6899 1.62L41.1799 3.55C41.8199 3.39 42.4599 3.24 43.0999 3.11Z" fill="#778D6F"/>
<path d="M39.3101 4.05999L38.7501 2.14999C38.1101 2.33999 37.4501 2.54999 36.8201 2.75999L37.4501 4.64999C38.0601 4.43999 38.6901 4.23999 39.3101 4.05999Z" fill="#778D6F"/>
<path d="M16.3 18.18L14.86 16.81C14.4 17.3 13.94 17.81 13.49 18.31L14.99 19.62C15.42 19.14 15.86 18.65 16.3 18.18Z" fill="#778D6F"/>
<path d="M11.41 83L9.78003 84.13C10.16 84.69 10.56 85.24 10.97 85.78L12.56 84.58C12.17 84.05 11.78 83.52 11.41 83Z" fill="#778D6F"/>
<path d="M70.1799 102.57L70.8099 104.45C71.4499 104.24 72.0899 104.01 72.7199 103.77L72.02 101.91C71.41 102.14 70.7899 102.36 70.1799 102.57Z" fill="#778D6F"/>
<path d="M80.76 97.64L81.76 99.33C82.33 98.98 82.9 98.62 83.46 98.24L82.36 96.59C81.86 97 81.31 97.3 80.76 97.64Z" fill="#778D6F"/>
<path d="M73.8301 101.19L74.6 103.02C75.21 102.77 75.8401 102.49 76.4501 102.21L75.61 100.4C75 100.68 74.4201 100.94 73.8301 101.19Z" fill="#778D6F"/>
<path d="M77.36 99.55L78.27 101.32C78.87 101.01 79.47 100.69 80.05 100.32L79.05 98.58C78.52 98.94 77.94 99.25 77.36 99.55Z" fill="#778D6F"/>
<path d="M87.0801 93.07L88.36 94.6C88.88 94.16 89.3601 93.71 89.8901 93.26L88.55 91.79C88.07 92.23 87.5801 92.66 87.0801 93.07Z" fill="#778D6F"/>
<path d="M95.12 84.58L96.71 85.77C97.11 85.23 97.51 84.68 97.9 84.13L96.26 83C95.8933 83.5333 95.5133 84.06 95.12 84.58Z" fill="#778D6F"/>
<path d="M92.6599 87.61L94.15 88.92C94.59 88.42 95.03 87.92 95.46 87.37L93.9199 86.12C93.5099 86.62 93.0799 87.12 92.6599 87.61Z" fill="#778D6F"/>
<path d="M85.13 10.08C84.59 9.69001 84.02 9.30001 83.46 8.92001L82.36 10.58C82.9 10.94 83.44 11.31 83.97 11.69L85.13 10.08Z" fill="#778D6F"/>
<path d="M90 90.45L91.39 91.87C91.88 91.39 92.39 90.87 92.81 90.42L91.37 89.05C90.9 89.52 90.44 90 90 90.45Z" fill="#778D6F"/>
<path d="M84 95.48L85.16 97.09C85.71 96.69 86.25 96.28 86.78 95.87L85.56 94.3C85.06 94.7 84.53 95.1 84 95.48Z" fill="#778D6F"/>
<path d="M27.64 100.36C28.23 100.7 28.83 101.02 29.43 101.36L30.33 99.6C29.76 99.3 29.18 98.99 28.61 98.67L27.64 100.36Z" fill="#778D6F"/>
<path d="M31.25 102.22C31.87 102.5 32.49 102.78 33.11 103.04L33.88 101.21C33.28 100.96 32.68 100.69 32.09 100.41L31.25 102.22Z" fill="#778D6F"/>
<path d="M35 103.79C35.64 104.03 36.28 104.26 36.92 104.47L37.55 102.58C36.93 102.38 36.31 102.16 35.7 101.93L35 103.79Z" fill="#778D6F"/>
<path d="M24.1699 98.24C24.7299 98.62 25.3099 98.98 25.8799 99.34L26.8799 97.64C26.3299 97.3 25.7699 96.95 25.2399 96.64L24.1699 98.24Z" fill="#778D6F"/>
<path d="M13.7599 86.11L12.21 87.36C12.64 87.89 13.08 88.36 13.52 88.91L14.9999 87.6C14.5899 87.12 14.1599 86.61 13.7599 86.11Z" fill="#778D6F"/>
<path d="M20.88 95.87C21.41 96.28 21.96 96.69 22.51 97.09L23.67 95.47C23.14 95.1 22.67 94.7 22.11 94.3L20.88 95.87Z" fill="#778D6F"/>
<path d="M16.33 89.05L14.89 90.41C15.35 90.9 15.82 91.41 16.31 91.86L17.7 90.44C17.23 90 16.77 89.52 16.33 89.05Z" fill="#778D6F"/>
<path d="M38.86 105.07C39.51 105.26 40.17 105.44 40.81 105.6L41.29 103.67C40.67 103.52 40.04 103.35 39.41 103.16L38.86 105.07Z" fill="#778D6F"/>
<path d="M17.78 93.25C18.28 93.71 18.78 94.16 19.31 94.59L20.59 93.07C20.09 92.65 19.6 92.22 19.12 91.78L17.78 93.25Z" fill="#778D6F"/>
<path d="M42.79 106.05C43.45 106.19 44.12 106.32 44.79 106.43L45.1301 104.43C44.4901 104.32 43.8401 104.2 43.2101 104.07L42.79 106.05Z" fill="#778D6F"/>
<path d="M50.8301 107.11C51.5001 107.11 52.1801 107.17 52.8301 107.19V105.19C52.1801 105.19 51.5201 105.19 50.8801 105.12L50.8301 107.11Z" fill="#778D6F"/>
<path d="M54.8401 105.2V107.2C55.5101 107.2 56.1901 107.2 56.8401 107.13L56.72 105.13C56.14 105.16 55.4901 105.18 54.8401 105.2Z" fill="#778D6F"/>
<path d="M62.61 104.46L62.95 106.46C63.61 106.35 64.28 106.22 64.95 106.08L64.54 104.14C63.89 104.23 63.25 104.36 62.61 104.46Z" fill="#778D6F"/>
<path d="M58.74 105L58.93 107C59.59 106.93 60.27 106.86 60.93 106.77L60.67 104.77C60 104.84 59.38 104.92 58.74 105Z" fill="#778D6F"/>
<path d="M46.79 106.74C47.46 106.82 48.14 106.9 48.79 106.96L48.98 104.96C48.34 104.9 47.68 104.83 47.04 104.74L46.79 106.74Z" fill="#778D6F"/>
<path d="M66.4299 103.66L66.9199 105.59L68.9199 105.06L68.3699 103.15C67.6999 103.33 67.0599 103.5 66.4299 103.66Z" fill="#778D6F"/>
<path d="M53.8401 20.64C47.3112 20.6301 40.926 22.5571 35.4926 26.1772C30.0592 29.7972 25.8217 34.9477 23.3164 40.9768C20.811 47.0058 20.1504 53.6426 21.4181 60.0473C22.6857 66.4519 25.8247 72.3366 30.4378 76.9568C35.051 81.5769 40.9309 84.7248 47.3337 86.0022C53.7364 87.2796 60.3741 86.629 66.407 84.1328C72.4399 81.6366 77.5967 77.4069 81.225 71.979C84.8533 66.5511 86.79 60.1689 86.79 53.64C86.79 44.8965 83.3201 36.5104 77.1422 30.3231C70.9644 24.1359 62.5835 20.6532 53.8401 20.64ZM53.8401 85.36C47.5585 85.36 41.418 83.4973 36.1951 80.0075C30.9722 76.5176 26.9014 71.5574 24.4976 65.754C22.0938 59.9506 21.4648 53.5648 22.6903 47.4039C23.9157 41.2431 26.9406 35.584 31.3823 31.1423C35.824 26.7006 41.4831 23.6757 47.644 22.4503C53.8048 21.2248 60.1907 21.8537 65.9941 24.2576C71.7974 26.6614 76.7577 30.7322 80.2475 35.9551C83.7374 41.178 85.6 47.3185 85.6 53.6C85.5894 62.02 82.2399 70.0922 76.286 76.046C70.3322 81.9999 62.2601 85.3494 53.8401 85.36Z" fill="#778D6F"/>
<path d="M59.91 48.61V36.23C60.91 35.28 61.67 34.23 61.19 33.13C60.9885 32.767 60.6791 32.4757 60.3046 32.2965C59.9301 32.1173 59.5091 32.0591 59.1 32.13H47.77H47.66C47.3059 32.1695 46.9716 32.3131 46.6992 32.5428C46.4269 32.7724 46.2288 33.0777 46.13 33.42C45.87 34.42 46.71 35.54 47.45 36.25V48.37L36.14 67.81C35.93 68.15 34.67 70.29 35.4 72.27C35.6356 72.8512 36.0075 73.3672 36.4844 73.7744C36.9613 74.1817 37.5291 74.4683 38.14 74.61H38.31H68.31H68.4C68.69 74.61 71.19 74.09 72.04 72.08C72.58 70.78 72.27 69.27 71.11 67.59L59.91 48.61ZM69.85 71.18C69.58 71.83 68.55 72.18 68.1 72.27H38.67C37.84 71.98 37.67 71.58 37.67 71.45C37.5444 70.6183 37.7334 69.7698 38.2 69.07L49.84 49V35.16L49.41 34.8C49.3 34.71 49.18 34.61 49.07 34.5H58.27C58.17 34.6 58.05 34.72 57.91 34.84L57.53 35.2V49.26L69.09 68.87V68.94C69.8 69.89 70.05 70.69 69.85 71.18Z" fill="#778D6F"/>
<path d="M53.78 59.11C53.675 59.2157 53.5918 59.3411 53.5352 59.479C53.4786 59.6169 53.4496 59.7645 53.4501 59.9136C53.4505 60.0626 53.4804 60.2101 53.5378 60.3476C53.5953 60.4851 53.6793 60.61 53.785 60.715C53.8907 60.8201 54.0161 60.9033 54.1539 60.9599C54.2918 61.0165 54.4395 61.0454 54.5886 61.0449C54.7376 61.0445 54.8851 61.0147 55.0226 60.9572C55.1601 60.8997 55.285 60.8157 55.39 60.71C55.4965 60.6057 55.581 60.4813 55.6387 60.3439C55.6965 60.2065 55.7261 60.059 55.7261 59.91C55.7261 59.761 55.6965 59.6135 55.6387 59.4761C55.581 59.3388 55.4965 59.2143 55.39 59.11C55.2868 59.002 55.1626 58.9161 55.025 58.8577C54.8875 58.7992 54.7395 58.7694 54.59 58.77C54.4392 58.7703 54.29 58.8005 54.1509 58.8589C54.0119 58.9172 53.8859 59.0026 53.78 59.11Z" fill="#778D6F"/>
<path d="M61.3799 57.22C59.7765 57.8376 58.0926 58.2215 56.3799 58.36C56.631 58.6419 56.8098 58.9805 56.9009 59.3468C56.9921 59.7131 56.9929 60.096 56.9033 60.4627C56.8137 60.8294 56.6364 61.1688 56.3866 61.4517C56.1368 61.7347 55.8219 61.9527 55.4692 62.0871C55.1164 62.2214 54.7363 62.268 54.3616 62.2229C53.9868 62.1778 53.6286 62.0424 53.3178 61.8282C53.007 61.614 52.7529 61.3275 52.5773 60.9934C52.4017 60.6592 52.31 60.2875 52.3099 59.91C52.3108 59.6692 52.3478 59.4298 52.4199 59.2C52.794 59.098 53.1374 58.9057 53.4199 58.64C53.7763 58.2799 54.0038 57.8121 54.0671 57.3094C54.1304 56.8068 54.026 56.2972 53.7699 55.86C54.233 56.1348 54.7615 56.2798 55.2999 56.28C55.9657 56.2533 56.6036 56.0057 57.113 55.5763C57.6225 55.1468 57.9745 54.56 58.1136 53.9084C58.2526 53.2568 58.1707 52.5774 57.8809 51.9775C57.5911 51.3775 57.1097 50.8911 56.5129 50.595C55.916 50.2989 55.2375 50.2099 54.5845 50.342C53.9314 50.4742 53.341 50.82 52.9062 51.3249C52.4715 51.8298 52.2171 52.4651 52.1834 53.1305C52.1497 53.796 52.3384 54.4537 52.7199 55C52.2886 54.7816 51.7995 54.7046 51.322 54.78C50.8445 54.8554 50.4029 55.0793 50.0599 55.42C49.8464 55.6321 49.6773 55.8846 49.5622 56.1627C49.4472 56.4408 49.3887 56.739 49.3899 57.04C46.6499 55.9 47.5199 56.12 46.2399 56.35L39.3499 67.91C39.3499 67.91 37.1999 71.49 40.5199 72.14H66.5699C66.5699 72.14 70.9899 71.81 67.2899 66.68L61.3799 57.22ZM55.1999 51.08C55.6375 51.078 56.0657 51.2059 56.4305 51.4476C56.7952 51.6892 57.08 52.0337 57.2488 52.4373C57.4176 52.841 57.4628 53.2856 57.3786 53.715C57.2945 54.1443 57.0848 54.5391 56.7762 54.8491C56.4675 55.1592 56.0737 55.3707 55.6448 55.4568C55.2158 55.5429 54.7709 55.4997 54.3665 55.3327C53.9621 55.1657 53.6164 54.8825 53.3731 54.5188C53.1298 54.1552 52.9999 53.7275 52.9999 53.29C52.9986 53.0003 53.0546 52.7131 53.1645 52.445C53.2745 52.177 53.4363 51.9332 53.6407 51.7279C53.8452 51.5225 54.0881 51.3596 54.3557 51.2484C54.6233 51.1372 54.9102 51.08 55.1999 51.08ZM50.6199 55.94C50.9037 55.6562 51.2886 55.4968 51.6899 55.4968C52.0913 55.4968 52.4762 55.6562 52.7599 55.94C53.0437 56.2238 53.2031 56.6087 53.2031 57.01C53.2031 57.4113 53.0437 57.7962 52.7599 58.08L52.6599 58.15C52.1073 58.0363 51.5653 57.8757 51.0399 57.67L50.2199 57.34C50.1622 57.0919 50.1687 56.8331 50.2387 56.5882C50.3087 56.3433 50.4399 56.1202 50.6199 55.94Z" fill="#778D6F"/>
<path d="M6.76007 60.24C6.74861 60.1974 6.74861 60.1526 6.76007 60.11C6.77562 60.0659 6.79938 60.0252 6.83008 59.99L6.95007 59.86L12.4001 54.96L12.0001 55H11.6201L6.39008 55.35L6.33008 54L14.9301 53.42L14.9901 54.25C15.0122 54.3555 15.0122 54.4645 14.9901 54.57C14.944 54.6707 14.8756 54.7596 14.79 54.83L9.37006 59.71L9.74005 59.66H10.0801L15.3701 59.3L15.4601 60.71L6.86005 61.29L6.80005 60.45L6.76007 60.24Z" fill="#778D6F"/>
<path d="M12.26 42.37C12.8506 42.47 13.4172 42.6803 13.93 42.99C14.4069 43.2829 14.8215 43.6668 15.15 44.12C15.4755 44.574 15.7005 45.0922 15.81 45.64C16.0299 46.8489 15.8024 48.0965 15.17 49.15C14.8722 49.6262 14.4798 50.0361 14.0171 50.3543C13.5543 50.6725 13.0311 50.8923 12.48 51C11.2884 51.2159 10.059 50.9921 9.02 50.37C8.54646 50.0805 8.13515 49.6998 7.80997 49.25C7.48501 48.792 7.26016 48.2707 7.15 47.72C7.02959 47.1193 7.02959 46.5007 7.15 45.9C7.2523 45.2991 7.47323 44.7246 7.79996 44.21C8.09103 43.7313 8.47943 43.319 8.93998 43C9.40226 42.6889 9.92267 42.4746 10.4699 42.37C11.0611 42.2551 11.6689 42.2551 12.26 42.37ZM12 44C11.5788 43.9147 11.1465 43.8978 10.7199 43.95C10.367 44.0062 10.0278 44.1284 9.71995 44.31C9.41843 44.4983 9.16231 44.751 8.96995 45.05C8.76551 45.3795 8.62951 45.7468 8.56998 46.13C8.48983 46.5091 8.48983 46.9009 8.56998 47.28C8.63106 47.6448 8.78231 47.9885 9.00999 48.28C9.23524 48.5747 9.52182 48.817 9.84995 48.99C10.231 49.1935 10.6434 49.332 11.07 49.4C11.4934 49.474 11.9265 49.474 12.35 49.4C12.7044 49.3496 13.0447 49.2271 13.35 49.04C13.6493 48.8489 13.9049 48.5968 14.1 48.3C14.303 47.9662 14.4389 47.5959 14.5 47.21C14.5801 46.8309 14.5801 46.4391 14.5 46.06C14.4316 45.7145 14.2845 45.3894 14.07 45.11C13.8382 44.8204 13.5487 44.582 13.2199 44.41C12.8395 44.2051 12.427 44.0665 12 44Z" fill="#778D6F"/>
<path d="M13.72 29L14.88 29.62L13.65 31.91L20.08 35.36L19.32 36.78L12.89 33.32L11.66 35.61L10.49 35L13.72 29Z" fill="#778D6F"/>
<path d="M24 23C24.4606 23.3844 24.8441 23.8526 25.13 24.38C25.3948 24.8726 25.558 25.4132 25.61 25.97C25.6582 26.5246 25.5901 27.0832 25.41 27.61C25.2125 28.1879 24.9033 28.7214 24.5 29.18C24.1022 29.6456 23.6206 30.0323 23.08 30.32C22.5847 30.5796 22.0403 30.7324 21.4823 30.7685C20.9242 30.8047 20.3648 30.7235 19.8401 30.53C19.2745 30.33 18.7519 30.0246 18.3 29.63C17.8442 29.2396 17.4645 28.7684 17.18 28.24C16.9105 27.7494 16.747 27.2078 16.7 26.65C16.6539 26.0921 16.722 25.5307 16.9001 25C17.0999 24.4232 17.4088 23.8901 17.81 23.43C18.2053 22.9645 18.6876 22.5806 19.23 22.3C19.7254 22.0459 20.2677 21.8962 20.8233 21.8601C21.3788 21.824 21.9359 21.9022 22.46 22.09C23.0279 22.2899 23.551 22.599 24 23ZM22.93 24.24C22.604 23.9584 22.2363 23.729 21.8401 23.56C21.4977 23.4173 21.1309 23.3426 20.76 23.34C20.4111 23.3483 20.0688 23.4373 19.76 23.6C19.4125 23.7737 19.1058 24.0191 18.86 24.32C18.6006 24.6104 18.4033 24.9507 18.2801 25.32C18.1646 25.6572 18.1269 26.0162 18.17 26.37C18.2246 26.7249 18.3504 27.0651 18.54 27.37C18.7621 27.748 19.0461 28.086 19.38 28.37C19.7036 28.6575 20.0717 28.8905 20.47 29.06C20.8114 29.2045 21.1793 29.276 21.55 29.27C21.8993 29.2555 22.2409 29.1633 22.55 29C22.8937 28.8204 23.1994 28.5759 23.45 28.28C23.7064 27.9874 23.9034 27.6478 24.0301 27.28C24.1364 26.9581 24.1705 26.6166 24.13 26.28C24.0765 25.9248 23.9506 25.5845 23.76 25.28C23.5397 24.9037 23.2593 24.5659 22.93 24.28V24.24Z" fill="#778D6F"/>
<path d="M27.56 20.1L22.88 18.34L24.17 17.39C24.2331 17.3377 24.3091 17.3031 24.39 17.29C24.4555 17.2722 24.5246 17.2722 24.59 17.29L28.04 18.69C28.0343 18.6368 28.0343 18.5832 28.04 18.53C28.0345 18.4735 28.0345 18.4165 28.04 18.36L27.82 15.01C27.8094 14.9405 27.8177 14.8695 27.8441 14.8044C27.8705 14.7392 27.914 14.6824 27.97 14.64L29.21 13.73L29.39 18.73L34.39 20.73L33.09 21.67C33.0172 21.7306 32.9247 21.7626 32.83 21.76C32.7477 21.7507 32.667 21.7305 32.59 21.7L29.03 20.2V20.34C29.0341 20.3832 29.0341 20.4268 29.03 20.47L29.28 24.07C29.2949 24.1493 29.2949 24.2307 29.28 24.31C29.2727 24.3529 29.2565 24.3937 29.2324 24.4299C29.2082 24.4661 29.1768 24.4968 29.14 24.52L27.92 25.41L27.56 20.1Z" fill="#778D6F"/>
<path d="M37.45 19.26L35.9999 20L32.1799 12.26L33.6299 11.55L37.45 19.26Z" fill="#778D6F"/>
<path d="M44.94 14.49C44.9788 14.4706 45.0216 14.4605 45.065 14.4605C45.1083 14.4605 45.1511 14.4706 45.19 14.49L45.99 14.97C45.7735 15.4874 45.4294 15.9415 44.99 16.29C44.0176 17.0365 42.8015 17.3931 41.58 17.29C41.0429 17.2297 40.5247 17.0559 40.06 16.78C39.5924 16.4984 39.1874 16.124 38.87 15.68C38.5157 15.1907 38.2516 14.6421 38.09 14.06C37.9112 13.4813 37.8466 12.8733 37.9 12.27C37.9462 11.7103 38.1061 11.1658 38.37 10.67C38.6425 10.1793 39.0137 9.75034 39.46 9.40999C39.9412 9.0275 40.4961 8.74835 41.09 8.58999C41.6338 8.40924 42.2096 8.34451 42.78 8.39999C43.276 8.45978 43.7571 8.60885 44.2 8.83999L43.89 9.69999C43.8776 9.75936 43.85 9.81449 43.81 9.85999C43.7609 9.91211 43.6987 9.95009 43.63 9.96999C43.5328 10.0035 43.4272 10.0035 43.33 9.96999L43 9.87999C42.8023 9.84103 42.6014 9.82094 42.4 9.81999C42.1109 9.82034 41.8238 9.86763 41.5499 9.95999C41.1853 10.065 40.8453 10.2418 40.5499 10.48C40.2679 10.7036 40.0391 10.9871 39.88 11.31C39.7169 11.6482 39.6217 12.0151 39.5999 12.39C39.5806 12.8201 39.6382 13.2501 39.77 13.66C39.8809 14.085 40.0709 14.4853 40.33 14.84C40.5448 15.1429 40.8165 15.401 41.13 15.6C41.4345 15.7833 41.7762 15.896 42.13 15.93C42.4659 15.9733 42.8072 15.9426 43.13 15.84C43.3209 15.7858 43.5079 15.719 43.69 15.64C43.8422 15.5731 43.9865 15.4892 44.12 15.39C44.2501 15.303 44.3678 15.1987 44.4699 15.08C44.5833 14.9572 44.6838 14.8232 44.77 14.68L44.8599 14.56C44.8827 14.5325 44.9097 14.5089 44.94 14.49Z" fill="#778D6F"/>
<path d="M57.36 13.68C57.4034 13.6784 57.4466 13.6865 57.4864 13.7038C57.5262 13.7211 57.5616 13.7472 57.59 13.78L58.21 14.48C57.8568 14.9104 57.4083 15.2527 56.9 15.48C56.3117 15.711 55.6815 15.8166 55.05 15.79C54.458 15.79 53.8724 15.6674 53.33 15.43C52.8345 15.2096 52.3916 14.886 52.0312 14.4807C51.6708 14.0754 51.401 13.5979 51.24 13.08C51.0489 12.5101 50.9608 11.9107 50.98 11.31C50.9841 10.7 51.1029 10.0962 51.33 9.52999C51.5473 9.01436 51.8671 8.54826 52.27 8.15999C52.6717 7.76924 53.1525 7.46916 53.68 7.27999C54.2585 7.06478 54.873 6.96293 55.49 6.97999C56.0633 6.98517 56.6303 7.1006 57.16 7.31999C57.6109 7.52426 58.021 7.8089 58.37 8.15999L57.82 8.88999C57.7882 8.94024 57.7476 8.98429 57.7 9.01999C57.6312 9.03822 57.5588 9.03822 57.49 9.01999C57.3855 9.01376 57.2866 8.97132 57.21 8.89999C57.0967 8.81331 56.9763 8.73637 56.85 8.66999C56.676 8.56754 56.4916 8.48374 56.3 8.41999C56.0233 8.34211 55.7374 8.30175 55.45 8.29999C55.0678 8.28886 54.6872 8.35344 54.33 8.48999C53.994 8.6197 53.6903 8.82103 53.44 9.07999C53.1729 9.3664 52.9715 9.70768 52.85 10.08C52.6973 10.4825 52.6194 10.9095 52.62 11.34C52.6039 11.7805 52.6649 12.2204 52.8 12.64C52.9095 13.0068 53.0933 13.3472 53.34 13.64C53.5653 13.901 53.8452 14.1093 54.16 14.25C54.4741 14.3929 54.8149 14.4679 55.16 14.47C55.3563 14.4859 55.5537 14.4859 55.75 14.47C55.9157 14.4492 56.0795 14.4158 56.24 14.37C56.3904 14.3197 56.5346 14.2526 56.67 14.17C56.8141 14.0892 56.9484 13.9918 57.07 13.88C57.1086 13.8463 57.1525 13.8192 57.2 13.8C57.2106 13.7656 57.2318 13.7355 57.2605 13.714C57.2892 13.6924 57.3241 13.6805 57.36 13.68Z" fill="#778D6F"/>
<path d="M66.9001 17.73L65.3301 17.34L66.2501 13.68L62.3401 12.68L61.41 16.34L59.8401 15.94L62.0001 7.59L63.5701 7.99L62.66 11.58L66.5801 12.58L67.4501 9L69.0101 9.4L66.9001 17.73Z" fill="#778D6F"/>
<path d="M77.7 13.37L77.13 14.51L73.71 12.79L72.64 14.93L75.33 16.28L74.78 17.39L72.09 16L71 18.21L74.42 19.93L73.84 21.07L69 18.63L72.87 10.93L77.7 13.37Z" fill="#778D6F"/>
<path d="M80.9999 22.42C80.9499 22.56 80.8999 22.71 80.8599 22.85C80.989 22.7722 81.1226 22.7021 81.2599 22.64C81.3928 22.5717 81.5297 22.5116 81.6699 22.46L86.6699 20.46C86.7264 20.4529 86.7835 20.4529 86.84 20.46C86.8861 20.4497 86.9338 20.4497 86.9799 20.46L87.0999 20.53L87.2499 20.65L88.1699 21.44L82.5599 28L81.4799 27.08L85.1099 22.85L85.34 22.6L85.5999 22.33L80.4399 24.33C80.3294 24.3759 80.209 24.3931 80.09 24.38C79.9756 24.357 79.869 24.3054 79.78 24.23L79.6099 24.09C79.5222 24.0117 79.4567 23.9117 79.4199 23.8C79.3898 23.6853 79.3898 23.5647 79.4199 23.45L80.5999 18L80.3799 18.32L80.15 18.59L76.53 22.82L75.46 21.9L81.0699 15.35L81.9899 16.14L82.1199 16.26C82.1562 16.2949 82.1866 16.3354 82.21 16.38C82.2202 16.4227 82.2202 16.4673 82.21 16.51C82.2187 16.5697 82.2187 16.6303 82.21 16.69L81.0699 22C80.9999 22.14 80.9999 22.28 80.9999 22.42Z" fill="#778D6F"/>
<path d="M85 31.35L84 30.07L90.83 24.8L91.83 26.07L85 31.35Z" fill="#778D6F"/>
<path d="M91.16 37.73C91.1773 37.7694 91.1864 37.8119 91.1864 37.855C91.1864 37.898 91.1773 37.9406 91.16 37.98L90.85 38.86C90.3084 38.7541 89.7986 38.5249 89.36 38.19C88.8726 37.79 88.4742 37.2928 88.19 36.73C87.9069 36.2101 87.7301 35.639 87.67 35.05C87.6168 34.5125 87.6817 33.9698 87.86 33.46C88.042 32.9441 88.3279 32.471 88.7 32.07C89.1183 31.6327 89.6089 31.2708 90.15 31C90.6823 30.7051 91.2661 30.515 91.87 30.44C92.4245 30.3777 92.9859 30.4288 93.52 30.59C94.0583 30.7543 94.5557 31.0303 94.98 31.4C95.4503 31.7971 95.8377 32.283 96.12 32.83C96.3998 33.3327 96.5734 33.8875 96.63 34.46C96.6782 34.9538 96.6341 35.4523 96.5 35.93L95.59 35.8C95.5343 35.8144 95.4757 35.8144 95.42 35.8C95.3539 35.7692 95.3008 35.7161 95.27 35.65C95.238 35.5526 95.238 35.4474 95.27 35.35C95.27 35.23 95.27 35.09 95.27 34.92C95.272 34.7184 95.2519 34.5172 95.21 34.32C95.1507 34.0366 95.0496 33.7636 94.91 33.51C94.732 33.1681 94.4871 32.8655 94.19 32.62C93.9149 32.3941 93.5943 32.2304 93.25 32.14C92.8854 32.0391 92.5033 32.0186 92.13 32.08C91.7063 32.1468 91.2971 32.2855 90.92 32.49C90.5466 32.6982 90.209 32.9649 89.92 33.28C89.6701 33.5547 89.4735 33.8735 89.34 34.22C89.2252 34.5401 89.1808 34.8812 89.21 35.22C89.2435 35.5698 89.3454 35.9095 89.51 36.22C89.602 36.3934 89.7056 36.5605 89.82 36.72C89.9136 36.8601 90.0245 36.9877 90.15 37.1C90.2637 37.2098 90.3915 37.3039 90.53 37.38C90.6722 37.4657 90.823 37.5361 90.98 37.59L91.11 37.66C91.1286 37.6819 91.1453 37.7053 91.16 37.73Z" fill="#778D6F"/>
<path d="M92.33 48.35L92.0099 47.15C91.9695 47.0369 91.9695 46.9132 92.0099 46.8C92.0533 46.6977 92.1222 46.6082 92.21 46.54L93.7399 45.46L92.8199 42L90.9999 41.85C90.8938 41.8385 90.7932 41.7968 90.71 41.73C90.6076 41.6591 90.5361 41.5518 90.5099 41.43L90.1799 40.23L99.39 41.23L99.8199 42.82L92.33 48.35ZM93.9999 42.11L94.7199 44.77L97.2199 43.01L97.6099 42.74C97.7599 42.64 97.9299 42.53 98.1099 42.43H97.52H97.03L93.9999 42.11Z" fill="#778D6F"/>
<path d="M93.78 51.35L93.99 54.79L92.67 54.87L92.37 49.87L100.97 49.35L101.07 50.95L93.78 51.35Z" fill="#778D6F"/>
<path d="M99 62.08C98.9292 62.0394 98.8706 61.9807 98.83 61.91C98.8091 61.8416 98.8091 61.7684 98.83 61.7C98.8483 61.6029 98.8933 61.5129 98.96 61.44L99.2 61.12C99.3011 60.9788 99.3882 60.8281 99.46 60.67C99.5532 60.4751 99.6108 60.2652 99.63 60.05C99.6605 59.8545 99.6605 59.6555 99.63 59.46C99.604 59.3032 99.5462 59.1535 99.46 59.02C99.3786 58.9023 99.2729 58.8034 99.15 58.73C99.0167 58.6567 98.8708 58.6092 98.7199 58.59C98.539 58.562 98.3541 58.6011 98.2 58.7C98.0404 58.8083 97.9043 58.9478 97.8 59.11C97.6699 59.2983 97.5593 59.4993 97.4699 59.71C97.3699 59.94 97.26 60.17 97.14 60.41C97.0249 60.6462 96.8981 60.8765 96.76 61.1C96.6208 61.3154 96.4525 61.5106 96.26 61.68C96.0628 61.8512 95.8308 61.9774 95.58 62.05C95.279 62.143 94.9604 62.1635 94.65 62.11C94.2791 62.0737 93.919 61.9649 93.59 61.79C93.2658 61.6167 92.9822 61.3764 92.758 61.085C92.5339 60.7936 92.3743 60.4578 92.29 60.1C92.1882 59.6777 92.1679 59.2399 92.23 58.81C92.2616 58.5386 92.3185 58.2708 92.4 58.01C92.486 57.7581 92.593 57.5139 92.7199 57.28C92.8455 57.0529 92.9929 56.8386 93.16 56.64C93.3189 56.4525 93.4965 56.2817 93.69 56.13L94.4 56.68C94.4511 56.7318 94.4919 56.7929 94.52 56.86C94.5409 56.9284 94.5409 57.0016 94.52 57.07C94.499 57.1842 94.4431 57.289 94.36 57.37L94.04 57.75C93.9074 57.908 93.7965 58.0828 93.71 58.27C93.5926 58.5014 93.5181 58.7521 93.49 59.01C93.4256 59.3856 93.4964 59.7718 93.69 60.1C93.7909 60.2421 93.9223 60.3598 94.0746 60.4445C94.2268 60.5293 94.3961 60.579 94.57 60.59C94.7658 60.6181 94.9655 60.5831 95.14 60.49C95.3058 60.3825 95.4485 60.2432 95.56 60.08C95.6829 59.8891 95.7899 59.6884 95.88 59.48C95.97 59.25 96.07 59.02 96.18 58.78C96.2895 58.5428 96.413 58.3124 96.55 58.09C96.687 57.87 96.8593 57.674 97.06 57.51C97.2704 57.3361 97.5161 57.2099 97.78 57.14C98.11 57.0732 98.45 57.0732 98.78 57.14C99.0903 57.1807 99.3894 57.2826 99.66 57.44C99.9467 57.5937 100.196 57.8088 100.39 58.07C100.6 58.3536 100.749 58.6768 100.83 59.02C100.93 59.4152 100.954 59.8259 100.9 60.23C100.852 60.7073 100.716 61.1717 100.5 61.6C100.305 61.9851 100.033 62.3256 99.7 62.6L99 62.08Z" fill="#778D6F"/>
<path d="M82.4511 37.1733L81.3933 35.4877L26.5058 69.9319L27.5636 71.6175L82.4511 37.1733Z" fill="#778D6F"/>
</svg>
