<svg width="108" height="108" viewBox="0 0 108 108" fill="none" xmlns="http://www.w3.org/2000/svg">
<path d="M3.44998 42L1.50998 41.55C1.35998 42.21 1.21998 42.88 1.09998 43.55L3.04996 43.92C3.16996 43.3 3.30998 42.66 3.44998 42Z" fill="#778D6F"/>
<path d="M4.47 38.26L2.57001 37.67C2.37001 38.31 2.18 38.97 2 39.62L3.92001 40.13C4.09001 39.51 4.27 38.88 4.47 38.26Z" fill="#778D6F"/>
<path d="M5.76996 34.57L3.91998 33.83C3.66998 34.46 3.42996 35.1 3.20996 35.74L5.07996 36.4C5.29996 35.79 5.52996 35.17 5.76996 34.57Z" fill="#778D6F"/>
<path d="M101 74.48L102.82 75.29C103.09 74.67 103.35 74.04 103.6 73.41L101.76 72.68C101.49 73.28 101.23 73.89 101 74.48Z" fill="#778D6F"/>
<path d="M2.15002 53.65H0.150024C0.150024 54.33 0.150024 55.01 0.150024 55.65L2.15002 55.57C2.16002 55 2.15002 54.3 2.15002 53.65Z" fill="#778D6F"/>
<path d="M3.47003 65.27L1.54004 65.72C1.69004 66.37 1.86003 67.04 2.03003 67.72L3.95004 67.2C3.78004 66.54 3.62003 65.9 3.47003 65.27Z" fill="#778D6F"/>
<path d="M4.49997 69L2.59998 69.59C2.79998 70.23 3.01996 70.88 3.23996 71.51L5.11996 70.85C4.89996 70.28 4.68997 69.65 4.49997 69Z" fill="#778D6F"/>
<path d="M2.71997 45.87L0.719971 45.57C0.619971 46.23 0.529961 46.91 0.459961 47.57L2.45996 47.79C2.53996 47.16 2.62997 46.5 2.71997 45.87Z" fill="#778D6F"/>
<path d="M2.28995 49.75L0.289948 49.6C0.239948 50.27 0.199932 50.95 0.179932 51.6L2.17993 51.68C2.20993 51.05 2.23995 50.39 2.28995 49.75Z" fill="#778D6F"/>
<path d="M2.73999 61.43L0.73999 61.73C0.84999 62.4 0.959996 63.07 1.09 63.73L3.04001 63.36C3.00001 62.72 2.83999 62.07 2.73999 61.43Z" fill="#778D6F"/>
<path d="M2.30005 57.55L0.300049 57.7C0.350049 58.37 0.410051 59.05 0.490051 59.7L2.49005 59.48C2.41672 58.8467 2.35338 58.2033 2.30005 57.55Z" fill="#778D6F"/>
<path d="M104.46 63.31L106.41 63.68C106.53 63.01 106.65 62.34 106.75 61.68L104.75 61.38C104.69 62 104.58 62.67 104.46 63.31Z" fill="#778D6F"/>
<path d="M103.58 67.11L105.5 67.63C105.68 66.98 105.84 66.32 105.99 65.63L104.05 65.19C103.91 65.85 103.75 66.49 103.58 67.11Z" fill="#778D6F"/>
<path d="M104.44 43.79L106.39 43.41C106.26 42.75 106.12 42.08 105.97 41.41L104.03 41.86C104.18 42.51 104.31 43.15 104.44 43.79Z" fill="#778D6F"/>
<path d="M105 47.65L107 47.42C106.93 46.75 106.84 46.07 106.73 45.42L104.73 45.72C104.87 46.35 105 47 105 47.65Z" fill="#778D6F"/>
<path d="M105 59.45L107 59.67C107.07 59 107.13 58.32 107.18 57.67L105.18 57.52C105.16 58.1534 105.1 58.7967 105 59.45Z" fill="#778D6F"/>
<path d="M97.27 81.37L98.94 82.44C99.31 81.87 99.66 81.29 100 80.71L98.29 79.71C98 80.26 97.62 80.82 97.27 81.37Z" fill="#778D6F"/>
<path d="M99.25 78L101 79C101.32 78.4 101.63 77.79 101.93 77.19L100.14 76.31C99.86 76.84 99.56 77.42 99.25 78Z" fill="#778D6F"/>
<path d="M105.33 51.54L107.33 51.46C107.33 50.79 107.27 50.11 107.22 49.46L105.22 49.61C105.267 50.25 105.303 50.8933 105.33 51.54Z" fill="#778D6F"/>
<path d="M102.42 70.84L104.29 71.51C104.52 70.87 104.73 70.22 104.93 69.58L103 69C102.84 69.61 102.63 70.23 102.42 70.84Z" fill="#778D6F"/>
<path d="M103.55 40L105.47 39.47C105.29 38.82 105.1 38.17 104.9 37.53L103 38.12C103.2 38.73 103.38 39.36 103.55 40Z" fill="#778D6F"/>
<path d="M99.22 29.14L101 28.2C100.68 27.61 100.34 27.01 100 26.44L98.29 27.44C98.59 28 98.91 28.57 99.22 29.14Z" fill="#778D6F"/>
<path d="M102.38 36.26L104.26 35.59C104.03 34.96 103.79 34.32 103.54 33.7L101.69 34.43C101.93 35 102.17 35.65 102.38 36.26Z" fill="#778D6F"/>
<path d="M100.94 32.64L102.75 31.83C102.48 31.22 102.19 30.6 101.89 30L100.11 30.88C100.39 31.45 100.67 32.05 100.94 32.64Z" fill="#778D6F"/>
<path d="M107.36 53.49H105.36V53.6C105.36 54.24 105.36 54.9 105.36 55.55L107.36 55.62C107.36 54.95 107.36 54.27 107.36 53.62V53.49Z" fill="#778D6F"/>
<path d="M7.34998 31L5.56998 30.12C5.26998 30.73 4.97996 31.35 4.70996 31.97L6.52997 32.77C6.78997 32.17 7.06998 31.57 7.34998 31Z" fill="#778D6F"/>
<path d="M9.20001 27.54L7.48999 26.54C7.14999 27.13 6.80999 27.72 6.48999 28.32L8.23999 29.26C8.55332 28.6733 8.87335 28.1 9.20001 27.54Z" fill="#778D6F"/>
<path d="M18.9999 15.44L17.67 14C17.17 14.46 16.67 14.93 16.2 15.39L17.5899 16.81C18.0499 16.33 18.5299 15.88 18.9999 15.44Z" fill="#778D6F"/>
<path d="M21.9999 12.92L20.7799 11.36C20.2499 11.77 19.72 12.2 19.2 12.63L20.4899 14.15C20.9999 13.74 21.4799 13.32 21.9999 12.92Z" fill="#778D6F"/>
<path d="M11.3 24.24L9.67007 23.11C9.29007 23.66 8.91005 24.23 8.55005 24.8L10.2201 25.87C10.5701 25.32 10.94 24.78 11.3 24.24Z" fill="#778D6F"/>
<path d="M13.65 21.12L12.11 19.87C11.68 20.39 11.26 20.93 10.86 21.47L12.45 22.66C12.84 22.14 13.24 21.62 13.65 21.12Z" fill="#778D6F"/>
<path d="M5.80997 72.71L3.95996 73.45C4.20996 74.07 4.46996 74.7 4.73996 75.31L6.55997 74.51C6.29997 73.92 5.99997 73.31 5.80997 72.71Z" fill="#778D6F"/>
<path d="M7.37997 76.27L5.59998 77.15C5.88998 77.75 6.19996 78.35 6.51996 78.95L8.27997 78.01C7.99997 77.44 7.66997 76.85 7.37997 76.27Z" fill="#778D6F"/>
<path d="M25.15 10.64L24.05 9C23.49 9.37 22.93 9.76 22.38 10.16L23.55 11.77C24.08 11.37 24.62 11 25.15 10.64Z" fill="#778D6F"/>
<path d="M81.6699 7.82999C81.0899 7.47999 80.4999 7.12999 79.9099 6.82999L78.9099 8.55999C79.4799 8.87999 80.0499 9.20999 80.5999 9.55999L81.6699 7.82999Z" fill="#778D6F"/>
<path d="M88.2499 12.57C87.7399 12.14 87.2499 11.71 86.6699 11.3L85.45 12.86C85.96 13.26 86.4499 13.68 86.9699 14.09L88.2499 12.57Z" fill="#778D6F"/>
<path d="M62.76 0.750012C62.1 0.640012 61.42 0.540012 60.76 0.450012L60.5 2.45001L62.43 2.74001L62.76 0.750012Z" fill="#778D6F"/>
<path d="M66.73 1.58C66.08 1.42 65.41 1.27 64.73 1.13L64.3201 3.13C64.9501 3.26 65.59 3.4 66.22 3.56L66.73 1.58Z" fill="#778D6F"/>
<path d="M53.71 2H54.6599V0H52.6599V2H53.71Z" fill="#778D6F"/>
<path d="M58.74 0.229987C58.07 0.169987 57.39 0.119987 56.74 0.0799866L56.63 2.07999C57.28 2.07999 57.94 2.15999 58.58 2.21999L58.74 0.229987Z" fill="#778D6F"/>
<path d="M50.75 2.07001L50.64 0.0700073C49.96 0.0700073 49.28 0.160007 48.64 0.220007L48.83 2.22001C49.45 2.16001 50.1 2.11001 50.75 2.07001Z" fill="#778D6F"/>
<path d="M9.23004 79.71L7.52002 80.71C7.86002 81.29 8.21002 81.87 8.58002 82.44L10.25 81.37C9.90003 80.82 9.56004 80.26 9.23004 79.71Z" fill="#778D6F"/>
<path d="M70.63 2.70999C69.99 2.49999 69.34 2.29999 68.69 2.10999L68.14 3.99999C68.76 4.17999 69.39 4.36999 70 4.57999L70.63 2.70999Z" fill="#778D6F"/>
<path d="M78.1199 5.84999C77.5199 5.53999 76.9099 5.23999 76.2999 4.95999L75.46 6.75999C76.05 7.02999 76.6399 7.31999 77.2199 7.61999L78.1199 5.84999Z" fill="#778D6F"/>
<path d="M74.44 4.14001C73.81 3.88001 73.18 3.62001 72.55 3.39001L71.85 5.25001C72.46 5.48001 73.07 5.72001 73.67 5.97001L74.44 4.14001Z" fill="#778D6F"/>
<path d="M92.5499 19.55L93.9999 18.24C93.5599 17.74 93.0999 17.24 92.6299 16.74L91.1899 18.11C91.6799 18.58 92.1199 19.07 92.5499 19.55Z" fill="#778D6F"/>
<path d="M28.48 8.59999L27.48 6.85999C26.9 7.18999 26.31 7.53999 25.73 7.85999L26.73 9.54999C27.35 9.23999 27.91 8.90999 28.48 8.59999Z" fill="#778D6F"/>
<path d="M31.94 6.81L31.1 5L29.28 5.89L30.19 7.66L31.94 6.81Z" fill="#778D6F"/>
<path d="M46.86 2.44L46.6 0.440002C45.94 0.530002 45.26 0.640002 44.6 0.750002L44.93 2.75C45.57 2.63 46.22 2.53 46.86 2.44Z" fill="#778D6F"/>
<path d="M95.0001 22.58L96.5901 21.39C96.1801 20.85 95.7601 20.31 95.3401 19.79L93.8101 21C94.2201 21.55 94.6201 22.06 95.0001 22.58Z" fill="#778D6F"/>
<path d="M35.53 5.3L34.83 3.44C34.2 3.68 33.57 3.93 32.95 4.19L33.7199 6C34.3199 5.77 34.92 5.53 35.53 5.3Z" fill="#778D6F"/>
<path d="M91.2499 15.3C90.7699 14.83 90.25 14.36 89.78 13.91L88.4399 15.38C88.9199 15.81 89.4399 16.27 89.8599 16.72L91.2499 15.3Z" fill="#778D6F"/>
<path d="M97.2399 25.78L98.9099 24.71C98.5499 24.15 98.1699 23.58 97.7899 23.03L96.1599 24.16C96.5299 24.69 96.8899 25.24 97.2399 25.78Z" fill="#778D6F"/>
<path d="M43.0001 3.11L42.5901 1.16C41.9301 1.3 41.2601 1.46 40.5901 1.62L41.0701 3.55C41.7401 3.39 42.3801 3.24 43.0001 3.11Z" fill="#778D6F"/>
<path d="M39.23 4.05999L38.67 2.14999C38.02 2.33999 37.37 2.54999 36.74 2.75999L37.37 4.64999C38 4.43999 38.61 4.23999 39.23 4.05999Z" fill="#778D6F"/>
<path d="M16.22 18.18L14.78 16.81C14.32 17.3 13.86 17.81 13.41 18.31L14.91 19.62C15.34 19.14 15.78 18.65 16.22 18.18Z" fill="#778D6F"/>
<path d="M11.3299 83L9.69995 84.13C10.08 84.69 10.48 85.24 10.89 85.78L12.4699 84.58C12.0899 84.05 11.6999 83.52 11.3299 83Z" fill="#778D6F"/>
<path d="M70.1 102.57L70.73 104.45C71.36 104.24 72.01 104.01 72.64 103.77L71.94 101.91C71.33 102.14 70.71 102.36 70.1 102.57Z" fill="#778D6F"/>
<path d="M80.6799 97.64L81.6799 99.33C82.2499 98.98 82.8199 98.62 83.3799 98.24L82.28 96.59C81.78 97 81.2299 97.3 80.6799 97.64Z" fill="#778D6F"/>
<path d="M73.75 101.19L74.52 103.02C75.13 102.77 75.76 102.49 76.37 102.21L75.53 100.4C74.94 100.68 74.34 100.94 73.75 101.19Z" fill="#778D6F"/>
<path d="M77.28 99.55L78.19 101.32C78.79 101.01 79.39 100.69 79.97 100.32L78.97 98.58C78.44 98.94 77.86 99.25 77.28 99.55Z" fill="#778D6F"/>
<path d="M87 93.07L88.28 94.6C88.79 94.16 89.28 93.71 89.81 93.26L88.47 91.79C88 92.23 87.49 92.66 87 93.07Z" fill="#778D6F"/>
<path d="M95 84.58L96.59 85.77C96.99 85.23 97.39 84.68 97.78 84.13L96.18 83C95.8133 83.5333 95.42 84.06 95 84.58Z" fill="#778D6F"/>
<path d="M92.5701 87.61L94.0701 88.92C94.5101 88.42 94.9501 87.92 95.3801 87.37L93.8301 86.12C93.4301 86.62 93.0001 87.12 92.5701 87.61Z" fill="#778D6F"/>
<path d="M85.05 10.08L83.38 8.92001L82.28 10.58C82.82 10.94 83.36 11.31 83.89 11.69L85.05 10.08Z" fill="#778D6F"/>
<path d="M89.89 90.45L91.28 91.87C91.77 91.39 92.28 90.87 92.7 90.42L91.26 89.05C90.82 89.52 90.36 90 89.89 90.45Z" fill="#778D6F"/>
<path d="M83.9299 95.48L85.09 97.09C85.64 96.69 86.18 96.28 86.71 95.87L85.4899 94.3C84.9999 94.7 84.4499 95.1 83.9299 95.48Z" fill="#778D6F"/>
<path d="M27.5601 100.36C28.1501 100.7 28.7501 101.02 29.3501 101.36L30.2501 99.6C29.6801 99.3 29.1001 98.99 28.5301 98.67L27.5601 100.36Z" fill="#778D6F"/>
<path d="M31.17 102.22C31.78 102.5 32.41 102.78 33.03 103.04L33.8 101.21C33.2 100.96 32.6 100.69 32.01 100.41L31.17 102.22Z" fill="#778D6F"/>
<path d="M34.9199 103.79C35.5599 104.03 36.2 104.26 36.84 104.47L37.4699 102.58C36.8499 102.38 36.2299 102.16 35.6199 101.93L34.9199 103.79Z" fill="#778D6F"/>
<path d="M24.09 98.24C24.65 98.62 25.23 98.98 25.8 99.34L26.8 97.64C26.25 97.3 25.69 96.95 25.15 96.64L24.09 98.24Z" fill="#778D6F"/>
<path d="M13.68 86.11L12.13 87.36C12.56 87.89 13 88.36 13.44 88.91L14.94 87.6C14.51 87.12 14.08 86.61 13.68 86.11Z" fill="#778D6F"/>
<path d="M20.8 95.87C21.33 96.28 21.8801 96.69 22.4201 97.09L23.5901 95.47C23.0601 95.1 22.59 94.7 22.0201 94.3L20.8 95.87Z" fill="#778D6F"/>
<path d="M16.2501 89.05L14.8101 90.41C15.2701 90.9 15.7401 91.41 16.2301 91.86L17.6201 90.44C17.1501 90 16.6901 89.52 16.2501 89.05Z" fill="#778D6F"/>
<path d="M38.77 105.07C39.43 105.26 40.08 105.44 40.77 105.6L41.25 103.67C40.63 103.52 40 103.35 39.37 103.16L38.77 105.07Z" fill="#778D6F"/>
<path d="M17.7 93.25C18.2 93.71 18.6999 94.16 19.2299 94.59L20.5099 93.07C20.0099 92.65 19.5199 92.22 19.0399 91.78L17.7 93.25Z" fill="#778D6F"/>
<path d="M42.71 106.05C43.37 106.19 44.04 106.32 44.71 106.43L45.0499 104.43C44.4099 104.32 43.7599 104.2 43.1299 104.07L42.71 106.05Z" fill="#778D6F"/>
<path d="M50.75 107.11C51.42 107.11 52.1 107.17 52.75 107.19V105.19C52.1 105.19 51.44 105.19 50.8 105.12L50.75 107.11Z" fill="#778D6F"/>
<path d="M54.76 105.2V107.2C55.43 107.2 56.11 107.2 56.76 107.13L56.64 105.13C56.06 105.16 55.41 105.18 54.76 105.2Z" fill="#778D6F"/>
<path d="M62.53 104.46L62.87 106.46C63.53 106.35 64.2 106.22 64.87 106.08L64.46 104.14C63.81 104.23 63.17 104.36 62.53 104.46Z" fill="#778D6F"/>
<path d="M58.6599 105L58.8499 107C59.5099 106.93 60.1899 106.86 60.8499 106.77L60.59 104.77C60 104.84 59.2999 104.92 58.6599 105Z" fill="#778D6F"/>
<path d="M46.71 106.74C47.38 106.82 48.06 106.9 48.71 106.96L48.9 104.96C48.26 104.9 47.6 104.83 46.96 104.74L46.71 106.74Z" fill="#778D6F"/>
<path d="M66.35 103.66L66.84 105.59L68.79 105.06L68.24 103.15C67.62 103.33 67 103.5 66.35 103.66Z" fill="#778D6F"/>
<path d="M53.76 20.64C47.2333 20.64 40.8531 22.5754 35.4262 26.2015C29.9994 29.8276 25.7697 34.9815 23.272 41.0115C20.7743 47.0414 20.1208 53.6766 21.3941 60.078C22.6674 66.4794 25.8104 72.3594 30.4255 76.9745C35.0406 81.5897 40.9207 84.7326 47.3221 86.0059C53.7234 87.2792 60.3586 86.6257 66.3886 84.128C72.4185 81.6303 77.5724 77.4007 81.1985 71.9738C84.8246 66.547 86.76 60.1668 86.76 53.64C86.76 44.8879 83.2833 36.4942 77.0946 30.3055C70.9059 24.1168 62.5122 20.64 53.76 20.64ZM53.76 85.36C47.4785 85.36 41.3381 83.4973 36.1151 80.0075C30.8922 76.5177 26.8214 71.5574 24.4176 65.754C22.0138 59.9507 21.3848 53.5648 22.6103 47.4039C23.8358 41.2431 26.8606 35.584 31.3023 31.1423C35.744 26.7006 41.4031 23.6757 47.5639 22.4503C53.7248 21.2248 60.1107 21.8538 65.914 24.2576C71.7174 26.6614 76.6777 30.7322 80.1675 35.9551C83.6573 41.178 85.5201 47.3185 85.5201 53.6C85.5121 62.0209 82.1634 70.0945 76.209 76.049C70.2545 82.0034 62.1809 85.3521 53.76 85.36Z" fill="#778D6F"/>
<path d="M6.49997 50.36C6.50851 50.3171 6.5255 50.2763 6.54996 50.24C6.57138 50.1998 6.6023 50.1655 6.63998 50.14L6.78998 50.04L13.13 46.36H12.72L12.35 46.31L7.15997 45.58L7.35995 44.18L15.9 45.39L15.78 46.21C15.7727 46.3169 15.7383 46.4201 15.68 46.51C15.6176 46.6018 15.5311 46.6744 15.43 46.72L9.11996 50.39H9.49997H9.83997L15.08 51.13L14.88 52.53L6.33997 51.33L6.45996 50.49C6.46841 50.4453 6.48183 50.4017 6.49997 50.36Z" fill="#778D6F"/>
<path d="M15.57 34C16.1285 34.236 16.6374 34.5753 17.07 35C17.4913 35.3777 17.8315 35.837 18.07 36.35C18.2917 36.8611 18.404 37.4129 18.4 37.97C18.35 39.1948 17.8518 40.3585 17 41.24C16.611 41.6397 16.1439 41.9551 15.6278 42.1666C15.1117 42.3782 14.5577 42.4815 14 42.47C13.4013 42.4542 12.8109 42.3253 12.2601 42.09C11.6992 41.853 11.1872 41.5139 10.75 41.09C10.3285 40.7087 9.98838 40.2461 9.75004 39.73C9.53049 39.2151 9.42147 38.6598 9.43003 38.1C9.45922 36.8715 9.9398 35.6967 10.78 34.8C11.1716 34.4036 11.6371 34.0876 12.15 33.87C12.6688 33.6664 13.2229 33.5678 13.78 33.58C14.3981 33.6039 15.0059 33.7465 15.57 34ZM14.94 35.52C14.5423 35.3533 14.1202 35.252 13.69 35.22C13.3217 35.191 12.9512 35.2352 12.6 35.35C12.268 35.4722 11.9674 35.667 11.72 35.92C11.4504 36.2099 11.2399 36.5496 11.1 36.92C10.9476 37.2776 10.8661 37.6614 10.86 38.05C10.8634 38.3961 10.9419 38.7373 11.09 39.05C11.2565 39.3824 11.4877 39.6782 11.77 39.92C12.0997 40.1992 12.4753 40.4191 12.88 40.57C13.2762 40.7433 13.6988 40.8482 14.13 40.88C14.4991 40.9066 14.8697 40.859 15.22 40.74C15.5521 40.6178 15.8527 40.4231 16.1 40.17C16.372 39.8819 16.5829 39.5417 16.72 39.17C16.8725 38.8124 16.954 38.4287 16.96 38.04C16.957 37.6939 16.8785 37.3527 16.7301 37.04C16.5641 36.7102 16.3327 36.4176 16.05 36.18C15.7182 35.9013 15.3433 35.6784 14.94 35.52Z" fill="#778D6F"/>
<path d="M21.1799 28.18L23.4899 30.18L22.4899 31.4L15.9299 25.79L17.7599 23.66C18.0803 23.268 18.4619 22.9303 18.89 22.66C19.2231 22.4444 19.5979 22.3013 19.9899 22.24C20.346 22.1822 20.711 22.2166 21.0499 22.34C21.4169 22.4637 21.7565 22.6572 22.0499 22.91C22.3564 23.1594 22.6083 23.4691 22.7899 23.82C22.9631 24.1432 23.0557 24.5034 23.0599 24.87C23.068 25.2752 22.9896 25.6775 22.8299 26.05C22.6332 26.5052 22.3667 26.9269 22.0399 27.3L21.1799 28.18ZM20.2299 27.37L21.0099 26.45C21.1857 26.2586 21.3276 26.0388 21.4299 25.8C21.5129 25.6043 21.5505 25.3923 21.5399 25.18C21.5281 24.9794 21.4699 24.7843 21.3699 24.61C21.2562 24.4171 21.1108 24.2447 20.9399 24.1C20.7785 23.957 20.5921 23.8452 20.39 23.77C20.2064 23.7097 20.0121 23.6893 19.8199 23.71C19.6118 23.7358 19.4129 23.8113 19.2399 23.93C19.0227 24.0708 18.8273 24.2426 18.6599 24.44L17.8799 25.36L20.2299 27.37Z" fill="#778D6F"/>
<path d="M27 21.81L29 24.48L27.72 25.48L22.48 18.64L24.56 17.04C24.9582 16.7202 25.3991 16.4577 25.87 16.26C26.2278 16.1108 26.6123 16.036 27 16.04C27.3503 16.0376 27.6952 16.1272 28 16.3C28.2923 16.479 28.5498 16.7093 28.76 16.98C28.9276 17.2029 29.0623 17.4488 29.16 17.71C29.2476 17.9641 29.2916 18.2312 29.29 18.5C29.2899 18.7719 29.246 19.0421 29.16 19.3C29.0576 19.5829 28.9198 19.8517 28.75 20.1C28.9888 20.0638 29.2328 20.0879 29.46 20.17L33.12 21.38L31.97 22.26C31.8727 22.3343 31.7599 22.3856 31.64 22.41C31.528 22.4344 31.412 22.4344 31.3 22.41L28.18 21.32C28.0779 21.2975 27.9721 21.2975 27.87 21.32C27.7503 21.3556 27.6384 21.4132 27.54 21.49L27 21.81ZM26.3 20.9L27.09 20.29C27.3038 20.1287 27.4925 19.9366 27.65 19.72C27.7691 19.5405 27.8539 19.3405 27.9 19.13C27.9399 18.9421 27.9399 18.7479 27.9 18.56C27.8375 18.3606 27.7392 18.1742 27.61 18.01C27.5034 17.8542 27.3622 17.7252 27.1973 17.6333C27.0325 17.5413 26.8485 17.4888 26.66 17.48C26.1931 17.5053 25.7488 17.6887 25.4 18L24.58 18.63L26.3 20.9Z" fill="#778D6F"/>
<path d="M35.72 10.48L36.2801 11.63L32.84 13.3L33.84 15.45L36.55 14.14L37.0901 15.25L34.38 16.56L35.44 18.76L38.88 17.09L39.44 18.24L34.55 20.62L30.79 12.86L35.72 10.48Z" fill="#778D6F"/>
<path d="M43.9999 9.56999C43.9851 9.6504 43.9508 9.72594 43.9 9.78999C43.8481 9.84366 43.7823 9.88177 43.71 9.89999C43.6181 9.9237 43.5218 9.9237 43.4299 9.89999L43.0399 9.78999C42.8695 9.74863 42.6953 9.72517 42.52 9.71999C42.3042 9.70615 42.0876 9.72984 41.8799 9.78999C41.6907 9.84275 41.5092 9.92008 41.34 10.02C41.2079 10.1089 41.0928 10.2207 40.9999 10.35C40.9139 10.4641 40.8589 10.5984 40.84 10.74C40.8101 10.8885 40.8101 11.0415 40.84 11.19C40.8889 11.3656 40.9943 11.5203 41.14 11.63C41.2997 11.7389 41.48 11.8138 41.6699 11.85C41.8942 11.8944 42.1215 11.9211 42.3499 11.93L43.1199 11.98C43.3814 11.9952 43.6419 12.0252 43.9 12.07C44.1543 12.117 44.4002 12.2012 44.6299 12.32C44.8609 12.4456 45.0647 12.6155 45.2299 12.82C45.4198 13.0656 45.5561 13.3484 45.6299 13.65C45.729 14.0111 45.7595 14.3876 45.7199 14.76C45.6819 15.1129 45.5694 15.4537 45.39 15.76C45.201 16.0834 44.9453 16.363 44.64 16.58C44.2888 16.8345 43.8914 17.0179 43.4699 17.12C43.2057 17.1957 42.9342 17.2426 42.6599 17.26C42.3938 17.2849 42.126 17.2849 41.8599 17.26C41.6051 17.2328 41.3537 17.1792 41.1099 17.1C40.8765 17.0244 40.6518 16.9238 40.4399 16.8L40.6899 15.93C40.7132 15.8657 40.7508 15.8076 40.7999 15.76C40.8489 15.7027 40.9159 15.6639 40.9899 15.65C41.1001 15.6119 41.2198 15.6119 41.33 15.65L41.7899 15.81C41.9902 15.8644 42.1941 15.9045 42.4 15.93C42.6599 15.9462 42.9207 15.9158 43.1699 15.84C43.5472 15.7707 43.8835 15.5596 44.1099 15.25C44.2066 15.1043 44.2679 14.9379 44.2887 14.7642C44.3095 14.5906 44.2894 14.4145 44.2299 14.25C44.187 14.0527 44.0776 13.8762 43.9199 13.75C43.7596 13.6401 43.5797 13.5621 43.39 13.52C43.1661 13.4743 42.9384 13.4509 42.71 13.45H41.95C41.6918 13.4342 41.4347 13.4042 41.1799 13.36C40.9252 13.3146 40.679 13.2303 40.45 13.11C40.2129 12.9722 40.0055 12.7886 39.84 12.57C39.6377 12.2994 39.4946 11.9894 39.4199 11.66C39.3294 11.3552 39.3088 11.0338 39.3599 10.72C39.4013 10.4006 39.5104 10.0938 39.6799 9.81999C39.8643 9.5196 40.1055 9.25805 40.39 9.04999C40.7181 8.8069 41.0924 8.63335 41.4899 8.53999C41.9784 8.39074 42.491 8.33643 42.9999 8.37999C43.4303 8.41416 43.849 8.53671 44.2299 8.73999L43.9999 9.56999Z" fill="#778D6F"/>
<path d="M53.0001 6.94L53.1 8.22L49.29 8.51L49.47 10.89L52.47 10.66L52.5601 11.89L49.5601 12.12L49.7501 14.55L53.5601 14.26L53.66 15.54L48.23 15.96L47.5801 7.36L53.0001 6.94Z" fill="#778D6F"/>
<path d="M57.6799 12.44L57.2499 15.79L55.6599 15.58L56.7399 7L59.3499 7.33C59.8582 7.38281 60.3566 7.50738 60.83 7.7C61.2062 7.83739 61.5476 8.05589 61.83 8.34C62.0613 8.57825 62.2297 8.87038 62.3199 9.19C62.3986 9.51721 62.4189 9.85573 62.3799 10.19C62.3408 10.4661 62.2634 10.7353 62.15 10.99C61.9123 11.5029 61.5066 11.9192 60.9999 12.17C60.7309 12.3 60.4447 12.3909 60.15 12.44C60.3444 12.5888 60.5017 12.7804 60.6099 13L62.3499 16.43L60.9199 16.25C60.797 16.2379 60.6796 16.193 60.58 16.12C60.4886 16.0464 60.4136 15.9544 60.3599 15.85L58.9099 12.85C58.8687 12.752 58.8033 12.666 58.7199 12.6C58.612 12.5397 58.4929 12.5022 58.3699 12.49L57.6799 12.44ZM57.8199 11.3L58.8199 11.43C59.085 11.471 59.3548 11.471 59.6199 11.43C59.8328 11.3978 60.0351 11.3156 60.21 11.19C60.3715 11.0818 60.5024 10.9336 60.59 10.76C60.6916 10.5814 60.7562 10.3841 60.78 10.18C60.8137 9.99293 60.8032 9.80058 60.7493 9.61827C60.6955 9.43597 60.5998 9.26877 60.4699 9.13C60.1238 8.81447 59.6779 8.63045 59.21 8.61L58.21 8.48L57.8199 11.3Z" fill="#778D6F"/>
<path d="M66 8.42999L67.22 8.86999C67.3333 8.90828 67.4315 8.98187 67.5 9.07999C67.5584 9.17715 67.5927 9.28687 67.6 9.39999L67.71 15.03C67.71 15.22 67.71 15.42 67.71 15.63C67.71 15.84 67.71 16.07 67.71 16.3C67.9221 15.9449 68.1664 15.6102 68.44 15.3L72 11C72.0747 10.9221 72.1675 10.8637 72.27 10.83C72.3823 10.7849 72.5077 10.7849 72.62 10.83L73.84 11.27L67.63 18.19L66.27 17.7L66 8.42999Z" fill="#778D6F"/>
<path d="M77.7501 23.67L76.6901 23C76.6358 22.9725 76.5875 22.9344 76.548 22.8881C76.5085 22.8417 76.4786 22.788 76.4601 22.73C76.4301 22.6255 76.4301 22.5146 76.4601 22.41L76.8401 20.57L73.8401 18.69L72.3701 19.85C72.2688 19.943 72.1374 19.9963 72.0001 20C71.8744 20.0173 71.7466 19.9889 71.6401 19.92L70.5801 19.26L78.0001 13.7L79.3901 14.56L77.7501 23.67ZM74.7501 17.97L77.0801 19.41L77.7001 16.41C77.7001 16.28 77.7601 16.13 77.8101 15.95C77.8601 15.77 77.9001 15.58 77.9601 15.38L77.5201 15.77C77.3993 15.8804 77.2725 15.9839 77.1401 16.08L74.7501 17.97Z" fill="#778D6F"/>
<path d="M88.48 22L87.58 23L85.68 21.23L80.68 26.58L79.51 25.49L84.51 20.14L82.6 18.37L83.5 17.37L88.48 22Z" fill="#778D6F"/>
<path d="M84.78 31.18L83.78 29.92L90.57 24.61L91.57 25.87L84.78 31.18Z" fill="#778D6F"/>
<path d="M93.61 28.46L94.22 29.6C94.2795 29.7064 94.304 29.8289 94.29 29.95C94.2683 30.0599 94.2203 30.1628 94.15 30.25L90.46 34.51C90.34 34.65 90.2 34.79 90.05 34.95C89.9 35.11 89.74 35.25 89.56 35.4C89.9618 35.2784 90.3733 35.1914 90.79 35.14L96.38 34.45C96.4814 34.4219 96.5886 34.4219 96.69 34.45C96.8032 34.5004 96.8952 34.5888 96.95 34.7L97.56 35.84L88.31 36.84L87.63 35.56L93.61 28.46Z" fill="#778D6F"/>
<path d="M100.1 44.21L98.8701 44.56L97.8701 40.88L95.5701 41.54L96.3901 44.43L95.2101 44.77L94.3801 41.87L92.04 42.54L93.04 46.22L91.8101 46.57L90.3201 41.34L98.6201 38.98L100.1 44.21Z" fill="#778D6F"/>
<path d="M99.56 52.55C99.4843 52.523 99.4183 52.4743 99.37 52.41C99.3217 52.3542 99.2935 52.2837 99.29 52.21C99.2918 52.1157 99.3158 52.0232 99.36 51.94L99.5301 51.57C99.6018 51.4123 99.6586 51.2482 99.7 51.08C99.7315 50.8645 99.7315 50.6455 99.7 50.43C99.6874 50.2343 99.6435 50.0419 99.57 49.86C99.5096 49.7113 99.4214 49.5756 99.31 49.46C99.2091 49.3592 99.0858 49.2838 98.95 49.24C98.8016 49.2096 98.6485 49.2096 98.5 49.24C98.3167 49.2485 98.1427 49.3231 98.01 49.45C97.8828 49.5913 97.7813 49.7537 97.71 49.93C97.6228 50.1432 97.5558 50.3642 97.51 50.59C97.4634 50.83 97.4034 51.08 97.33 51.34C97.2671 51.594 97.1903 51.8444 97.1 52.09C97.0129 52.3346 96.888 52.564 96.73 52.77C96.5717 52.9772 96.3704 53.1478 96.14 53.27C95.8654 53.4178 95.5615 53.5031 95.25 53.52C94.877 53.5582 94.5002 53.5243 94.14 53.42C93.7955 53.3202 93.4754 53.15 93.2 52.92C92.9183 52.6736 92.6874 52.3747 92.52 52.04C92.3411 51.6447 92.2295 51.2222 92.19 50.79C92.165 50.5172 92.165 50.2428 92.19 49.97C92.2173 49.7053 92.2709 49.444 92.35 49.19C92.4274 48.9444 92.5279 48.7067 92.65 48.48C92.7612 48.2606 92.8989 48.0558 93.06 47.87L93.87 48.26C93.9294 48.2996 93.9804 48.3506 94.02 48.41C94.0645 48.4681 94.0921 48.5373 94.1 48.61C94.097 48.727 94.0625 48.841 94 48.94C93.93 49.06 93.85 49.2 93.77 49.37C93.6738 49.5539 93.5999 49.7486 93.55 49.95C93.4871 50.2015 93.4668 50.4618 93.49 50.72C93.505 51.093 93.6541 51.4481 93.91 51.72C94.043 51.8422 94.2025 51.932 94.376 51.9824C94.5495 52.0327 94.7322 52.0421 94.91 52.01C95.1072 52.002 95.2951 51.924 95.44 51.79C95.5821 51.6567 95.6916 51.4924 95.76 51.31C95.8496 51.0984 95.9134 50.8768 95.95 50.65C95.95 50.41 96.05 50.16 96.11 49.91C96.1648 49.6549 96.2384 49.4042 96.33 49.16C96.4172 48.9154 96.542 48.686 96.7 48.48C96.8711 48.2694 97.0861 48.0987 97.33 47.98C97.6408 47.8223 97.9819 47.7337 98.33 47.72C98.6469 47.6882 98.967 47.7222 99.27 47.82C99.5782 47.9247 99.8633 48.0877 100.11 48.3C100.372 48.5328 100.586 48.8148 100.74 49.13C100.898 49.5005 100.987 49.8972 101 50.3C101.051 50.7761 101.013 51.2574 100.89 51.72C100.782 52.1389 100.588 52.5306 100.32 52.87L99.56 52.55Z" fill="#778D6F"/>
<path d="M82.3788 37.1655L81.321 35.4799L26.4336 69.9241L27.4913 71.6097L82.3788 37.1655Z" fill="#778D6F"/>
<path d="M53.76 31.45H59C59.86 31.45 60.21 31.78 60.21 32.64C60.21 34.14 60.21 35.64 60.21 37.13C60.21 37.86 59.97 38.13 59.27 38.31C59.01 38.37 58.9699 38.46 58.9699 38.69C58.9699 40.03 58.9699 41.37 58.9699 42.69C58.9699 43.04 59.19 43.08 59.43 43.17C61.9116 44.0287 64.1516 45.469 65.9626 47.3705C67.7737 49.2721 69.1032 51.5795 69.84 54.1C70.7943 57.2287 70.8117 60.5683 69.89 63.7067C68.9683 66.8451 67.1479 69.645 64.6534 71.7608C62.1588 73.8766 59.0994 75.2157 55.8526 75.6129C52.6059 76.0101 49.3139 75.448 46.3829 73.9959C43.4519 72.5438 41.0102 70.2654 39.3592 67.4417C37.7081 64.618 36.9199 61.3727 37.0919 58.1063C37.2639 54.8398 38.3884 51.6952 40.3269 49.0605C42.2653 46.4258 44.9327 44.4163 48 43.28C48.1008 43.2631 48.1974 43.2263 48.2839 43.1718C48.3703 43.1172 48.4451 43.0459 48.5037 42.9621C48.5623 42.8784 48.6037 42.7837 48.6254 42.6838C48.6471 42.5838 48.6487 42.4806 48.63 42.38C48.63 41.18 48.63 39.97 48.63 38.77C48.63 38.51 48.63 38.37 48.28 38.31C48.018 38.2822 47.7775 38.1522 47.6108 37.948C47.4442 37.7439 47.3648 37.4823 47.39 37.22C47.39 35.66 47.39 34.1 47.39 32.55C47.39 31.81 47.77 31.46 48.53 31.46L53.76 31.45ZM53.76 33.45H49.76C49.56 33.45 49.33 33.45 49.34 33.75C49.34 34.53 49.34 35.31 49.34 36.08C49.34 36.23 49.34 36.32 49.54 36.37C50.54 36.66 50.54 36.81 50.54 37.8C50.54 39.61 50.54 41.42 50.54 43.23C50.54 44.43 50.43 44.56 49.29 44.91C45.9049 45.9675 43.0126 48.2061 41.1401 51.2178C39.2676 54.2295 38.5396 57.8138 39.0887 61.3174C39.6379 64.8209 41.4276 68.0106 44.1318 70.3049C46.836 72.5993 50.2746 73.8455 53.8208 73.8166C57.3671 73.7877 60.7849 72.4856 63.4513 70.1475C66.1178 67.8094 67.8553 64.591 68.3473 61.0789C68.8393 57.5669 68.0529 53.9949 66.1316 51.0142C64.2102 48.0334 61.2818 45.8422 57.88 44.84C57.07 44.59 56.88 44.34 56.88 43.51C56.88 41.89 56.88 40.28 56.88 38.66C56.88 38.25 56.77 38.09 56.36 38.15C56.2435 38.1602 56.1264 38.1602 56.01 38.15C55.32 38.15 54.89 37.76 54.89 37.15C54.8894 37.0108 54.9179 36.8729 54.9737 36.7453C55.0295 36.6177 55.1114 36.5032 55.214 36.4091C55.3166 36.3149 55.4377 36.2433 55.5696 36.1987C55.7015 36.154 55.8413 36.1375 55.98 36.15C56.55 36.15 57.11 36.15 57.67 36.15C58.04 36.15 58.14 36.02 58.13 35.67C58.13 35.07 58.13 34.47 58.13 33.87C58.13 33.49 58.05 33.36 57.65 33.37C56.41 33.46 55.1 33.44 53.8 33.44L53.76 33.45Z" fill="#778D6F"/>
<path d="M40.4699 58.9C40.0899 57.62 40.86 56.96 42.03 56.37C44.6127 54.9482 47.5339 54.2568 50.4799 54.37C52.6089 54.5818 54.6804 55.1852 56.59 56.15C58.2758 56.9907 60.1183 57.4709 62 57.56C63.4773 57.6072 64.9501 57.373 66.34 56.87C66.73 56.73 66.9099 56.66 66.9799 57.22C67.4143 60.6749 66.4818 64.1627 64.381 66.9397C62.2802 69.7166 59.1776 71.5629 55.7349 72.0847C52.2922 72.6066 48.7818 71.7626 45.9525 69.7329C43.1232 67.7032 41.1989 64.6484 40.59 61.22C40.4479 60.4554 40.4075 59.6753 40.4699 58.9Z" fill="#778D6F"/>
</svg>
