<svg width="16" height="14" viewBox="0 0 16 14" fill="none" xmlns="http://www.w3.org/2000/svg">
<path d="M15.6129 2.7324C15.3646 2.1977 15.0067 1.71316 14.5591 1.30591C14.1111 0.897438 13.583 0.572833 13.0033 0.349744C12.4023 0.117496 11.7577 -0.00138133 11.1068 1.21095e-05C10.1938 1.21095e-05 9.30292 0.232593 8.52875 0.671911C8.34355 0.777003 8.1676 0.892432 8.00092 1.0182C7.83423 0.892432 7.65828 0.777003 7.47308 0.671911C6.69892 0.232593 5.80807 1.21095e-05 4.895 1.21095e-05C4.23752 1.21095e-05 3.60041 0.117164 2.99849 0.349744C2.41694 0.573711 1.89281 0.895878 1.44276 1.30591C0.994552 1.7127 0.636513 2.19736 0.388933 2.7324C0.131497 3.28887 0 3.8798 0 4.48795C0 5.06165 0.12594 5.65947 0.375969 6.26762C0.585252 6.77585 0.885287 7.30304 1.26866 7.83539C1.87614 8.67785 2.71142 9.55648 3.74858 10.4472C5.46729 11.9236 7.16934 12.9435 7.24157 12.9849L7.68051 13.2468C7.87498 13.3622 8.125 13.3622 8.31947 13.2468L8.75841 12.9849C8.83064 12.9418 10.5308 11.9236 12.2514 10.4472C13.2886 9.55648 14.1238 8.67785 14.7313 7.83539C15.1147 7.30304 15.4166 6.77585 15.624 6.26762C15.874 5.65947 16 5.06165 16 4.48795C16.0018 3.8798 15.8703 3.28887 15.6129 2.7324Z" fill="#E95F5F"/>
</svg>
