<svg width="295" height="27" viewBox="0 0 295 27" fill="none" xmlns="http://www.w3.org/2000/svg">
<path d="M2.81247 0H42.1875C43.74 0 45 1.05173 45 2.34885V24.6523C45 25.9484 43.74 27 42.1875 27H2.81247C1.25855 27.0002 0 25.9484 0 24.6524V2.34885C0 1.05173 1.25994 0 2.81247 0Z" fill="#006FCF"/>
<path d="M8.91527 10.2857L5.14258 17.99H9.65902L10.2189 16.7617H11.4988L12.0587 17.99H17.03V17.0526L17.473 17.99H20.0446L20.4874 17.0327V17.99H30.8266L32.0837 16.7936L33.2609 17.99L38.5711 18L34.7866 14.1594L38.5711 10.2857H33.3432L32.1195 11.4601L30.9794 10.2857H19.7318L18.766 12.2743L17.7775 10.2857H13.2705V11.1914L12.7691 10.2857H8.91527ZM9.78917 11.3797H11.9907L14.4931 16.6041V11.3797H16.9048L18.8376 15.1256L20.619 11.3797H23.0186V16.9081H21.5585L21.5465 12.5761L19.4178 16.9081H18.1117L15.9711 12.5761V16.9081H12.9673L12.3978 15.6687H9.32119L8.75289 16.907H7.1435L9.78917 11.3797ZM24.3545 11.3797H30.2916L32.1075 13.1898L33.9819 11.3797H35.7979L33.0389 14.1583L35.7979 16.9049H33.8996L32.0837 15.0737L30.1997 16.9049H24.3545V11.3797ZM10.8601 12.3151L9.84653 14.523H11.8726L10.8601 12.3151ZM25.8206 12.5244V13.5336H29.0596V14.6585H25.8206V15.7602H29.4535L31.1417 14.1374L29.5252 12.5234H25.8206V12.5244Z" fill="#F5F5F5"/>
<path d="M52.8125 0H92.1875C93.74 0 95 1.05173 95 2.34885V24.6523C95 25.9484 93.74 27 92.1875 27H52.8125C51.2586 27.0002 50 25.9484 50 24.6524V2.34885C50 1.05173 51.2599 0 52.8125 0Z" fill="#F5F5F5"/>
<g clip-path="url(#clip0)">
<path d="M66.4758 23.1429C71.3148 23.1429 75.2377 19.1134 75.2377 14.1429C75.2377 9.17229 71.3148 5.14285 66.4758 5.14285C61.6367 5.14285 57.7139 9.17229 57.7139 14.1429C57.7139 19.1134 61.6367 23.1429 66.4758 23.1429Z" fill="#EB001B"/>
<path d="M78.5236 23.1429C83.3627 23.1429 87.2855 19.1134 87.2855 14.1429C87.2855 9.17229 83.3627 5.14285 78.5236 5.14285C73.6846 5.14285 69.7617 9.17229 69.7617 14.1429C69.7617 19.1134 73.6846 23.1429 78.5236 23.1429Z" fill="#F79E1B"/>
<path fill-rule="evenodd" clip-rule="evenodd" d="M72.4998 20.6786C74.1862 19.0384 75.2379 16.7169 75.2379 14.1428C75.2379 11.5687 74.1862 9.24732 72.4998 7.60706C70.8135 9.24732 69.7617 11.5687 69.7617 14.1428C69.7617 16.7169 70.8135 19.0384 72.4998 20.6786Z" fill="#FF5F00"/>
</g>
<path d="M102.812 0H142.188C143.74 0 145 1.05173 145 2.34885V24.6523C145 25.9484 143.74 27 142.188 27H102.812C101.259 27.0002 100 25.9484 100 24.6524V2.34885C100 1.05173 101.26 0 102.812 0Z" fill="#F5F5F5"/>
<path d="M120.192 18.3343H117.359L119.129 7.90073H121.962L120.192 18.3343ZM114.976 7.90073L112.275 15.077L111.956 13.5317L111.956 13.5322L111.003 8.84015C111.003 8.84015 110.888 7.90073 109.659 7.90073H105.195L105.143 8.07739C105.143 8.07739 106.508 8.34979 108.106 9.26995L110.567 18.3345H113.518L118.025 7.90073H114.976ZM137.256 18.3343H139.857L137.589 7.90045H135.312C134.261 7.90045 134.005 8.678 134.005 8.678L129.78 18.3343H132.733L133.323 16.7845H136.924L137.256 18.3343ZM134.139 14.6436L135.627 10.7391L136.465 14.6436H134.139ZM130.001 10.4098L130.406 8.16921C130.406 8.16921 129.158 7.71429 127.858 7.71429C126.452 7.71429 123.114 8.30346 123.114 11.1683C123.114 13.8638 127.032 13.8973 127.032 15.3131C127.032 16.7289 123.518 16.4752 122.358 15.5824L121.937 17.9251C121.937 17.9251 123.202 18.5143 125.134 18.5143C127.067 18.5143 129.983 17.5545 129.983 14.9422C129.983 12.2294 126.03 11.9769 126.03 10.7974C126.031 9.6177 128.789 9.76924 130.001 10.4098Z" fill="#2566AF"/>
<path d="M202.812 6.10352e-05H242.188C243.74 6.10352e-05 245 1.0518 245 2.34891V24.6523C245 25.9484 243.74 27.0001 242.188 27.0001H202.812C201.259 27.0002 200 25.9484 200 24.6525V2.34891C200 1.0518 201.26 6.10352e-05 202.812 6.10352e-05Z" fill="#F5F5F5"/>
<g clip-path="url(#clip1)">
<path d="M237.901 9.71368L239.857 13.8473L235.743 17.9871L237.901 9.71368Z" fill="#018C45"/>
<path d="M236.542 9.71368L238.497 13.8473L234.384 17.9871L236.542 9.71368Z" fill="#F47920"/>
<path d="M208.325 12.2171H209.274C209.609 12.2171 209.852 12.1679 210.003 12.0634C210.153 11.9588 210.269 11.7804 210.332 11.5221C210.402 11.2576 210.384 11.0792 210.286 10.9746C210.188 10.87 209.95 10.8208 209.58 10.8208H208.683L208.325 12.2171ZM205.143 16.4799L207.098 9.00006H210.222C211.2 9.00006 211.848 9.16614 212.184 9.50446C212.514 9.84278 212.577 10.3902 212.38 11.1591C212.259 11.6143 212.08 11.9957 211.825 12.2971C211.576 12.5985 211.246 12.8384 210.847 13.0106C211.189 13.0968 211.408 13.269 211.507 13.5335C211.605 13.7918 211.594 14.1732 211.472 14.6715L211.235 15.7172V15.7479C211.165 16.0432 211.189 16.197 211.299 16.2093L211.229 16.4861H209.117C209.123 16.3077 209.14 16.1539 209.152 16.0185C209.169 15.8833 209.187 15.7786 209.204 15.7048L209.401 14.9606C209.499 14.573 209.505 14.3024 209.412 14.1425C209.32 13.9825 209.112 13.9026 208.782 13.9026H207.897L207.208 16.4799H205.143ZM218.166 10.9623L216.725 16.4799H214.978L215.192 15.6741C214.886 15.994 214.567 16.24 214.249 16.3938C213.937 16.5537 213.601 16.6337 213.254 16.6337C212.965 16.6337 212.716 16.5783 212.519 16.4676C212.317 16.3569 212.166 16.1908 212.062 15.9694C211.97 15.7786 211.935 15.5388 211.947 15.2497C211.964 14.9667 212.056 14.4931 212.23 13.8288L212.976 10.9623H214.891L214.145 13.8103C214.035 14.2286 214.012 14.5238 214.064 14.6776C214.122 14.8375 214.267 14.9237 214.504 14.9237C214.747 14.9237 214.949 14.8314 215.117 14.6407C215.285 14.45 215.418 14.1732 215.516 13.798L216.257 10.9561H218.166V10.9623ZM220.637 12.3648H221.313C221.747 12.3648 222.054 12.3094 222.233 12.1987C222.407 12.088 222.528 11.885 222.604 11.602C222.679 11.3129 222.662 11.1161 222.546 11.0054C222.436 10.8946 222.158 10.8393 221.707 10.8393H221.036L220.637 12.3648ZM217.472 16.4799L219.422 9.00006H222.106C222.696 9.00006 223.159 9.03697 223.483 9.11693C223.807 9.1969 224.067 9.31992 224.253 9.49831C224.49 9.73205 224.634 10.0212 224.698 10.3718C224.756 10.7162 224.721 11.1222 224.6 11.602C224.38 12.4386 223.998 13.0783 223.454 13.5273C222.905 13.9702 222.228 14.1917 221.423 14.1917H220.168L219.566 16.4799H217.472ZM227.313 14.0133C227.111 14.0994 226.845 14.1855 226.521 14.2716C226.006 14.4193 225.716 14.6161 225.653 14.856C225.606 15.0098 225.63 15.1328 225.699 15.2251C225.768 15.3112 225.89 15.3543 226.064 15.3543C226.382 15.3543 226.636 15.2681 226.827 15.102C227.018 14.9298 227.163 14.6653 227.261 14.2962C227.278 14.2163 227.296 14.1609 227.302 14.1179L227.313 14.0133ZM226.85 16.4799L226.868 15.9571C226.561 16.2031 226.249 16.3876 225.93 16.5045C225.618 16.6214 225.282 16.6829 224.929 16.6829C224.386 16.6829 224.01 16.5291 223.79 16.2215C223.576 15.9202 223.541 15.4834 223.686 14.9237C223.824 14.3762 224.079 13.9702 224.438 13.7119C224.796 13.4535 225.398 13.2628 226.243 13.146C226.347 13.1275 226.492 13.1152 226.671 13.0906C227.296 13.0168 227.643 12.8384 227.718 12.5493C227.759 12.3894 227.736 12.2725 227.643 12.2048C227.556 12.131 227.388 12.0941 227.151 12.0941C226.954 12.0941 226.792 12.1372 226.659 12.2294C226.526 12.3217 226.428 12.457 226.364 12.6477H224.501C224.669 12.0265 225.016 11.559 225.531 11.2452C226.046 10.9254 226.723 10.7716 227.568 10.7716C227.961 10.7716 228.32 10.8085 228.632 10.8946C228.945 10.9746 229.176 11.0915 229.321 11.2329C229.506 11.4113 229.61 11.6082 229.645 11.8296C229.68 12.0511 229.639 12.3709 229.535 12.783L228.731 15.8586C228.708 15.9571 228.702 16.0493 228.713 16.1293C228.731 16.2093 228.76 16.2769 228.817 16.32L228.777 16.4738H226.85V16.4799ZM228.789 18.6574L229.211 17.0212H229.761C229.946 17.0212 230.085 16.9843 230.189 16.9105C230.293 16.8367 230.362 16.7137 230.403 16.5476C230.426 16.4738 230.437 16.4 230.443 16.3138C230.449 16.2215 230.449 16.1232 230.443 16.0124L230.148 10.9561H232.086L232.057 14.3024L233.747 10.9561H235.546L232.555 16.4492C232.214 17.0643 231.971 17.4826 231.814 17.7163C231.658 17.9439 231.514 18.1223 231.369 18.2392C231.184 18.4053 230.981 18.5221 230.756 18.5898C230.53 18.6574 230.194 18.6943 229.737 18.6943C229.604 18.6943 229.454 18.6943 229.292 18.6821C229.136 18.6821 228.962 18.6697 228.789 18.6574Z" fill="#29387E"/>
</g>
<path d="M152.812 6.10352e-05H192.188C193.74 6.10352e-05 195 1.0518 195 2.34891V24.6523C195 25.9484 193.74 27.0001 192.188 27.0001H152.812C151.259 27.0002 150 25.9484 150 24.6525V2.34891C150 1.0518 151.26 6.10352e-05 152.812 6.10352e-05Z" fill="#F5F5F5"/>
<g clip-path="url(#clip2)">
<path d="M171.602 13.9656V17.7193H170.323V8.45333H173.715C174.533 8.43855 175.32 8.72673 175.916 9.25875C176.511 9.75382 176.845 10.4706 176.829 11.2095C176.845 11.9558 176.511 12.6725 175.916 13.175C175.32 13.6996 174.589 13.9656 173.723 13.9656H171.602ZM171.602 9.59126V12.8277H173.747C174.224 12.8425 174.684 12.6652 175.01 12.3474C175.685 11.7415 175.693 10.744 175.042 10.1159L175.01 10.0863C174.684 9.76121 174.224 9.58387 173.747 9.59865L171.602 9.59126ZM179.776 11.1725C180.722 11.1725 181.468 11.409 182.016 11.8745C182.565 12.3474 182.835 12.9903 182.835 13.8105V17.712H181.611V16.8326H181.556C181.023 17.5568 180.324 17.9188 179.443 17.9188C178.696 17.9188 178.06 17.712 177.56 17.2982C177.067 16.9139 176.789 16.345 176.805 15.7464C176.805 15.0888 177.075 14.5716 177.608 14.1799C178.14 13.7883 178.855 13.5962 179.745 13.5962C180.507 13.5962 181.127 13.7292 181.619 13.9804V13.707C181.619 13.3006 181.429 12.9164 181.095 12.6578C180.753 12.377 180.316 12.2218 179.864 12.2218C179.149 12.2218 178.585 12.5026 178.164 13.0642L177.036 12.4065C177.647 11.5863 178.561 11.1725 179.776 11.1725ZM178.124 15.776C178.124 16.0863 178.283 16.3745 178.545 16.5519C178.831 16.7587 179.181 16.8696 179.538 16.8622C180.078 16.8622 180.595 16.6627 180.976 16.308C181.397 15.9386 181.611 15.5026 181.611 15.0001C181.214 14.7046 180.658 14.5568 179.943 14.5568C179.427 14.5568 178.99 14.675 178.64 14.9041C178.299 15.1405 178.124 15.4287 178.124 15.776ZM189.857 11.3794L185.583 20.5124H184.265L185.853 17.3203L183.041 11.3868H184.431L186.457 15.9386H186.489L188.467 11.3868L189.857 11.3794Z" fill="#5F6368"/>
<path d="M166.431 13.1528C166.431 12.7908 166.399 12.4287 166.335 12.074H160.941V14.1208H164.032C163.904 14.7784 163.491 15.3696 162.888 15.739V17.0691H164.731C165.811 16.1454 166.431 14.7784 166.431 13.1528Z" fill="#4285F4"/>
<path d="M160.941 18.3548C162.482 18.3548 163.785 17.8819 164.73 17.0691L162.887 15.739C162.371 16.0641 161.711 16.2489 160.941 16.2489C159.447 16.2489 158.184 15.3104 157.732 14.0543H155.833V15.4287C156.802 17.2169 158.78 18.3548 160.941 18.3548Z" fill="#34A853"/>
<path d="M157.732 14.0543C157.494 13.3967 157.494 12.6799 157.732 12.0149V10.6479H155.833C155.43 11.3875 155.22 12.2052 155.22 13.0346C155.22 13.864 155.43 14.6817 155.833 15.4213L157.732 14.0543Z" fill="#FBBC04"/>
<path d="M160.941 9.82031C161.759 9.80554 162.545 10.0937 163.133 10.6183L164.762 9.10356C163.729 8.1947 162.363 7.69962 160.941 7.7144C158.78 7.7144 156.802 8.85233 155.833 10.6479L157.732 12.0223C158.184 10.7587 159.447 9.82031 160.941 9.82031Z" fill="#EA4335"/>
</g>
<path d="M252.812 6.10352e-05H292.188C293.74 6.10352e-05 295 1.0518 295 2.34891V24.6523C295 25.9484 293.74 27.0001 292.188 27.0001H252.812C251.259 27.0002 250 25.9484 250 24.6525V2.34891C250 1.0518 251.26 6.10352e-05 252.812 6.10352e-05Z" fill="#F5F5F5"/>
<path d="M289.445 11.9434C289.156 11.1171 288.368 10.5238 287.443 10.5238H287.424C286.822 10.5238 286.281 10.7741 285.895 11.1759C285.508 10.7741 284.966 10.5238 284.366 10.5238H284.346C283.818 10.5238 283.334 10.7173 282.963 11.0377V10.8749C282.951 10.7127 282.817 10.5852 282.652 10.5852H281.233C281.06 10.5852 280.92 10.7254 280.92 10.8995V18.6052C280.92 18.7794 281.06 18.9196 281.233 18.9196H282.652C282.81 18.9196 282.941 18.8015 282.961 18.6486L282.961 13.1168C282.96 13.0983 282.961 13.0798 282.963 13.0614C282.986 12.8145 283.167 12.6116 283.453 12.5862H283.714C283.834 12.5969 283.934 12.6389 284.014 12.7023C284.137 12.8004 284.206 12.9513 284.206 13.1168L284.211 18.6212C284.211 18.7954 284.352 18.9363 284.525 18.9363H285.944C286.112 18.9363 286.248 18.8028 286.256 18.6366L286.255 13.1095C286.254 12.9279 286.339 12.7637 286.486 12.6663C286.559 12.6195 286.646 12.5882 286.747 12.5788H287.009C287.316 12.6055 287.501 12.8385 287.501 13.1095L287.506 18.6066C287.506 18.7808 287.647 18.9209 287.82 18.9209H289.239C289.411 18.9209 289.552 18.7808 289.552 18.6066V12.6943C289.552 12.2912 289.507 12.1196 289.445 11.9434H289.445ZM279.839 10.6053H279.027V9.28639C279.027 9.1282 278.899 9.00006 278.741 9.00006C278.722 9.00006 278.704 9.00271 278.687 9.00606C277.787 9.25302 277.967 10.4991 276.324 10.6053H276.165C276.141 10.6053 276.118 10.6086 276.096 10.6133H276.095L276.096 10.6139C275.956 10.6453 275.851 10.7695 275.851 10.919V12.338C275.851 12.5108 275.991 12.6516 276.165 12.6516H277.021L277.02 18.6687C277.02 18.8402 277.159 18.9791 277.33 18.9791H278.733C278.904 18.9791 279.043 18.8402 279.043 18.6687L279.044 12.6516H279.839C280.011 12.6516 280.152 12.5108 280.152 12.338V10.919C280.152 10.7461 280.011 10.6053 279.839 10.6053" fill="#00BAF2"/>
<path d="M274.733 10.6052H273.314C273.141 10.6052 273.001 10.7461 273.001 10.9189V13.853C272.998 14.0346 272.851 14.1801 272.669 14.1801H272.075C271.891 14.1801 271.742 14.0319 271.742 13.8477L271.736 10.9189C271.736 10.7461 271.596 10.6052 271.423 10.6052H270.004C269.83 10.6052 269.69 10.7461 269.69 10.9189V14.1347C269.69 15.3561 270.561 16.2271 271.783 16.2271C271.783 16.2271 272.7 16.2271 272.728 16.2325C272.894 16.2512 273.023 16.39 273.023 16.5608C273.023 16.7297 272.896 16.8679 272.733 16.8886C272.725 16.8899 272.718 16.8919 272.709 16.8932L270.634 16.9006C270.46 16.9006 270.32 17.0414 270.32 17.2143V18.6326C270.32 18.8062 270.46 18.9463 270.634 18.9463H272.954C274.177 18.9463 275.047 18.076 275.047 16.8539V10.9189C275.047 10.7461 274.907 10.6052 274.733 10.6052V10.6052ZM260.998 13.2053V14.081C260.998 14.2645 260.85 14.414 260.666 14.414L259.766 14.4147V12.66H260.666C260.85 12.66 260.998 12.8081 260.998 12.9924V13.2053ZM261.123 10.6049H258.022C257.851 10.6049 257.714 10.7431 257.714 10.9126V12.3029C257.714 12.3055 257.715 12.3082 257.715 12.3109C257.715 12.3176 257.714 12.3242 257.714 12.3302V18.6229C257.714 18.7938 257.842 18.9333 258.001 18.9373H259.447C259.619 18.9373 259.76 18.7971 259.76 18.6236L259.766 16.4671H261.123C262.259 16.4671 263.051 15.6788 263.051 14.5382V12.5365C263.051 11.3958 262.259 10.6049 261.123 10.6049L261.123 10.6049ZM266.886 16.5366V16.7582C266.886 16.7763 266.883 16.7936 266.881 16.8103C266.877 16.8259 266.873 16.8413 266.867 16.8563C266.823 16.9805 266.699 17.0706 266.552 17.0706H265.961C265.777 17.0706 265.627 16.9304 265.627 16.7582V16.4906C265.627 16.4873 265.626 16.4839 265.626 16.4806L265.627 15.7684V15.5455L265.627 15.5435C265.628 15.3719 265.777 15.2331 265.961 15.2331H266.552C266.736 15.2331 266.886 15.3726 266.886 15.5455L266.886 16.5366ZM266.66 10.613H264.691C264.517 10.613 264.376 10.7452 264.376 10.9074V11.4594C264.376 11.4627 264.377 11.4667 264.377 11.47C264.377 11.474 264.376 11.478 264.376 11.482V12.2383C264.376 12.4098 264.526 12.55 264.71 12.55H266.585C266.733 12.5733 266.851 12.6815 266.867 12.8503V13.0332C266.851 13.1941 266.735 13.3115 266.593 13.3249H265.665C264.43 13.3249 263.55 14.1452 263.55 15.2972V16.9471C263.55 18.0925 264.306 18.9074 265.532 18.9074H268.105C268.567 18.9074 268.942 18.5577 268.942 18.1272V12.7429C268.942 11.4373 268.269 10.613 266.66 10.613H266.66Z" fill="#1F336B"/>
<defs>
<clipPath id="clip0">
<rect width="29.5714" height="18" fill="white" transform="translate(57.7139 5.14285)"/>
</clipPath>
<clipPath id="clip1">
<rect width="34.7143" height="10.2857" fill="white" transform="translate(205.143 9.00006)"/>
</clipPath>
<clipPath id="clip2">
<rect width="34.7143" height="12.8571" fill="white" transform="translate(155.143 7.71436)"/>
</clipPath>
</defs>
</svg>
