<svg width="55" height="46" viewBox="0 0 55 46" fill="none" xmlns="http://www.w3.org/2000/svg">
<circle cx="32" cy="23" r="23" fill="#C4ECD5"/>
<path d="M13.9998 31.0011H9.99975C9.44775 31.0011 8.99975 30.5531 8.99975 30.0011C8.99975 29.4491 9.44775 29.0011 9.99975 29.0011H13.9998C14.5518 29.0011 14.9998 29.4491 14.9998 30.0011C14.9998 30.5531 14.5518 31.0011 13.9998 31.0011Z" fill="#56774D"/>
<path d="M46.5 31H44C43.448 31 43 30.552 43 30C43 29.448 43.448 29 44 29H45.67L47.018 21.816C47 18.14 43.86 15 40 15H33.434L30.2519 29H36C36.552 29 37 29.448 37 30C37 30.552 36.552 31 36 31H28.9999C28.6959 31 28.4079 30.862 28.2179 30.624C28.0279 30.388 27.9559 30.076 28.0239 29.78L31.6599 13.78C31.7639 13.322 32.1679 13 32.6359 13H40C44.962 13 49 17.038 49 22L47.482 30.184C47.394 30.658 46.982 31 46.5 31Z" fill="#56774D"/>
<path d="M40.0004 35C37.2444 35 35.0004 32.758 35.0004 30C35.0004 27.242 37.2444 25 40.0004 25C42.7564 25 45.0004 27.242 45.0004 30C45.0004 32.758 42.7564 35 40.0004 35ZM40.0004 27C38.3464 27 37 28.346 37 30C37 31.654 38.3464 33 40.0004 33C41.6544 33 43 31.654 43 30C43 28.346 41.6544 27 40.0004 27Z" fill="#56774D"/>
<path d="M18.0001 35C15.2441 35 13 32.758 13 30C13 27.242 15.2441 25 18.0001 25C20.7561 25 23.0001 27.242 23.0001 30C23.0001 32.758 20.7561 35 18.0001 35ZM18.0001 27C16.3461 27 14.9998 28.3471 14.9998 30.0011C14.9998 31.6551 16.3461 33 18.0001 33C19.6541 33 21.0001 31.654 21.0001 30C21.0001 28.346 19.6541 27 18.0001 27Z" fill="#56774D"/>
<path d="M14.0003 13.0011H6.0003C5.44829 13.0011 5.00029 12.5531 5.00029 12.0011C5.00029 11.4491 5.44829 11.0011 6.0003 11.0011H14.0003C14.5523 11.0011 15.0003 11.4491 15.0003 12.0011C15.0003 12.5531 14.5523 13.0011 14.0003 13.0011Z" fill="#56774D"/>
<path d="M13.9998 19.0011H3.99973C3.44773 19.0011 2.99973 18.5531 2.99973 18.0011C2.99973 17.4491 3.44773 17.0011 3.99973 17.0011H13.9998C14.5518 17.0011 14.9998 17.4491 14.9998 18.0011C14.9998 18.5531 14.5518 19.0011 13.9998 19.0011Z" fill="#56774D"/>
<path d="M14 25.0011H2C1.448 25.0011 1 24.5531 1 24.0011C1 23.4491 1.448 23.0011 2 23.0011H14C14.552 23.0011 15 23.4491 15 24.0011C15 24.5531 14.552 25.0011 14 25.0011Z" fill="#56774D"/>
<path d="M28.9999 31L21.9998 31C21.4478 31 21.0001 30.552 21.0001 30C21.0001 29.448 21.4478 29 21.9998 29H28.2018L32.7458 9H9.99975C9.44775 9 8.99975 8.552 8.99975 8C8.99975 7.448 9.44775 7 9.99975 7H33.9998C34.3038 7 34.5918 7.138 34.7818 7.376C34.9718 7.612 35.0438 7.924 34.9758 8.22L29.9758 30.22C29.8718 30.678 29.4659 31 28.9999 31Z" fill="#56774D"/>
<path d="M14.9998 30.0011C14.9998 29.4491 14.5518 29.0011 13.9998 29.0011H9.99975C9.44775 29.0011 8.99975 29.4491 8.99975 30.0011C8.99975 30.5531 9.44775 31.0011 9.99975 31.0011H13.9998C14.5518 31.0011 14.9998 30.5531 14.9998 30.0011ZM14.9998 30.0011C14.9998 28.3471 16.3461 27 18.0001 27C19.6541 27 21.0001 28.346 21.0001 30M14.9998 30.0011C14.9998 31.6551 16.3461 33 18.0001 33C19.6541 33 21.0001 31.654 21.0001 30M43 30C43 30.552 43.448 31 44 31H46.5C46.982 31 47.394 30.658 47.482 30.184L49 22C49 17.038 44.962 13 40 13H32.6359C32.1679 13 31.7639 13.322 31.6599 13.78L28.0239 29.78C27.9559 30.076 28.0279 30.388 28.2179 30.624C28.4079 30.862 28.6959 31 28.9999 31M43 30C43 29.448 43.448 29 44 29H45.67L47.018 21.816C47 18.14 43.86 15 40 15H33.434L30.2519 29H36C36.552 29 37 29.448 37 30M43 30C43 31.654 41.6544 33 40.0004 33C38.3464 33 37 31.654 37 30M43 30C43 28.346 41.6544 27 40.0004 27C38.3464 27 37 28.346 37 30M37 30C37 30.552 36.552 31 36 31H28.9999M28.9999 31L21.9998 31C21.4478 31 21.0001 30.552 21.0001 30M28.9999 31C29.4659 31 29.8718 30.678 29.9758 30.22L34.9758 8.22C35.0438 7.924 34.9718 7.612 34.7818 7.376C34.5918 7.138 34.3038 7 33.9998 7H9.99975C9.44775 7 8.99975 7.448 8.99975 8C8.99975 8.552 9.44775 9 9.99975 9H32.7458L28.2018 29H21.9998C21.4478 29 21.0001 29.448 21.0001 30M40.0004 35C37.2444 35 35.0004 32.758 35.0004 30C35.0004 27.242 37.2444 25 40.0004 25C42.7564 25 45.0004 27.242 45.0004 30C45.0004 32.758 42.7564 35 40.0004 35ZM18.0001 35C15.244 35 13 32.758 13 30C13 27.242 15.244 25 18.0001 25C20.7561 25 23.0001 27.242 23.0001 30C23.0001 32.758 20.7561 35 18.0001 35ZM14.0003 13.0011H6.0003C5.44829 13.0011 5.00029 12.5531 5.00029 12.0011C5.00029 11.4491 5.44829 11.0011 6.0003 11.0011H14.0003C14.5523 11.0011 15.0003 11.4491 15.0003 12.0011C15.0003 12.5531 14.5523 13.0011 14.0003 13.0011ZM13.9998 19.0011H3.99973C3.44773 19.0011 2.99973 18.5531 2.99973 18.0011C2.99973 17.4491 3.44773 17.0011 3.99973 17.0011H13.9998C14.5518 17.0011 14.9998 17.4491 14.9998 18.0011C14.9998 18.5531 14.5518 19.0011 13.9998 19.0011ZM14 25.0011H2C1.448 25.0011 1 24.5531 1 24.0011C1 23.4491 1.448 23.0011 2 23.0011H14C14.552 23.0011 15 23.4491 15 24.0011C15 24.5531 14.552 25.0011 14 25.0011Z" stroke="#56774D" stroke-width="0.3"/>
</svg>
