<svg width="221" height="18" viewBox="0 0 221 18" fill="none" xmlns="http://www.w3.org/2000/svg">
<path d="M1.47693 0H22.1542C22.9695 0 23.6311 0.634071 23.6311 1.41608V14.8624C23.6311 15.6438 22.9695 16.2778 22.1542 16.2778H1.47693C0.660911 16.2779 0 15.6438 0 14.8625V1.41608C0 0.634071 0.661639 0 1.47693 0Z" fill="#006FCF"/>
<path d="M3.81064 5.66113L1.47705 10.6101H4.27069L4.61702 9.82105H5.40866L5.75499 10.6101H8.83V10.0079L9.104 10.6101H10.6947L10.9686 9.99515V10.6101H17.3639L18.1415 9.84155L18.8696 10.6101L22.1543 10.6165L19.8133 8.14945L22.1543 5.66113H18.9205L18.1636 6.41551L17.4584 5.66113H10.5012L9.90382 6.93851L9.2924 5.66113H6.50458V6.24289L6.19446 5.66113H3.81064ZM4.3512 6.3639H5.71295L7.26082 9.71984V6.3639H8.75257L9.94812 8.77009L11.05 6.3639H12.5342V9.91513H11.6311L11.6237 7.1324L10.307 9.91513H9.49909L8.175 7.1324V9.91513H6.31701L5.96476 9.11899H4.06173L3.71021 9.91443H2.71472L4.3512 6.3639ZM13.3606 6.3639H17.033L18.1562 7.52663L19.3156 6.3639H20.4389L18.7323 8.14875L20.4389 9.91303H19.2647L18.1415 8.73679L16.9761 9.91303H13.3606V6.3639ZM5.01365 6.96475L4.38668 8.383H5.63989L5.01365 6.96475ZM14.2675 7.09918V7.74746H16.2709V8.47002H14.2675V9.17775H16.5146L17.5588 8.13532L16.5589 7.09856H14.2675V7.09918Z" fill="white"/>
<g clip-path="url(#clip0)">
<path d="M217.564 2.17944L221 9.01137L213.772 15.8535L217.564 2.17944Z" fill="#018C45"/>
<path d="M215.174 2.17944L218.611 9.01137L211.382 15.8535L215.174 2.17944Z" fill="#F47920"/>
<path d="M165.592 6.31711H167.259C167.849 6.31711 168.276 6.23578 168.54 6.06295C168.804 5.89011 169.008 5.59528 169.119 5.16829C169.241 4.73113 169.211 4.4363 169.038 4.26347C168.865 4.09063 168.448 4.0093 167.798 4.0093H166.222L165.592 6.31711ZM160 13.3625L163.436 1H168.926C170.644 1 171.783 1.2745 172.373 1.83366C172.952 2.39282 173.064 3.29764 172.718 4.56846C172.505 5.32079 172.19 5.95111 171.742 6.44927C171.305 6.94744 170.726 7.34393 170.024 7.6286C170.624 7.77093 171.01 8.05559 171.183 8.49275C171.356 8.91975 171.336 9.55008 171.122 10.3736L170.705 12.1019V12.1527C170.583 12.6407 170.624 12.8949 170.817 12.9152L170.695 13.3727H166.984C166.995 13.0779 167.025 12.8237 167.045 12.6C167.076 12.3764 167.106 12.2035 167.137 12.0815L167.483 10.8514C167.655 10.2109 167.666 9.76357 167.503 9.49924C167.34 9.23491 166.974 9.10275 166.395 9.10275H164.839L163.629 13.3625H160ZM182.885 4.24313L180.353 13.3625H177.283L177.659 12.0307C177.121 12.5594 176.561 12.966 176.002 13.2202C175.453 13.4845 174.863 13.6167 174.253 13.6167C173.745 13.6167 173.308 13.5252 172.962 13.3422C172.607 13.1592 172.342 12.8847 172.159 12.5187C171.997 12.2035 171.936 11.8071 171.956 11.3292C171.986 10.8616 172.149 10.0787 172.454 8.98075L173.766 4.24313H177.131L175.819 8.95025C175.626 9.64157 175.585 10.1296 175.677 10.3837C175.778 10.6481 176.033 10.7904 176.449 10.7904C176.876 10.7904 177.232 10.6379 177.527 10.3227C177.822 10.0076 178.056 9.55007 178.229 8.92991L179.53 4.23297H182.885V4.24313ZM187.226 6.56111H188.416C189.178 6.56111 189.717 6.46961 190.032 6.28661C190.337 6.10361 190.55 5.76812 190.683 5.30045C190.815 4.82263 190.784 4.4973 190.581 4.3143C190.388 4.1313 189.9 4.0398 189.107 4.0398H187.927L187.226 6.56111ZM181.665 13.3625L185.091 1H189.808C190.845 1 191.659 1.061 192.228 1.19317C192.797 1.32533 193.255 1.52866 193.58 1.82349C193.997 2.20982 194.251 2.68765 194.363 3.26714C194.465 3.83647 194.404 4.50746 194.19 5.30045C193.804 6.68311 193.133 7.74043 192.177 8.48259C191.211 9.21458 190.022 9.58057 188.609 9.58057H186.403L185.345 13.3625H181.665ZM198.958 9.28574C198.602 9.42808 198.135 9.57041 197.565 9.71274C196.661 9.95674 196.152 10.2821 196.04 10.6786C195.959 10.9327 196 11.1361 196.122 11.2886C196.244 11.4309 196.457 11.5021 196.762 11.5021C197.321 11.5021 197.769 11.3597 198.104 11.0852C198.44 10.8006 198.694 10.3634 198.867 9.75341C198.897 9.62124 198.928 9.52974 198.938 9.45858L198.958 9.28574ZM198.145 13.3625L198.175 12.4984C197.637 12.905 197.088 13.21 196.528 13.4032C195.979 13.5964 195.39 13.698 194.77 13.698C193.814 13.698 193.153 13.4439 192.767 12.9355C192.391 12.4374 192.33 11.7156 192.584 10.7904C192.828 9.88557 193.275 9.21458 193.905 8.78758C194.536 8.36059 195.593 8.04542 197.077 7.85226C197.26 7.82176 197.515 7.80143 197.83 7.76076C198.928 7.63876 199.538 7.34393 199.67 6.8661C199.741 6.60177 199.7 6.40861 199.538 6.29678C199.385 6.17478 199.09 6.11378 198.674 6.11378C198.328 6.11378 198.043 6.18494 197.809 6.33744C197.576 6.48994 197.403 6.71361 197.291 7.02877H194.017C194.312 6.00195 194.922 5.22929 195.827 4.71079C196.732 4.18213 197.921 3.92797 199.406 3.92797C200.097 3.92797 200.727 3.98897 201.276 4.1313C201.825 4.26346 202.232 4.45663 202.486 4.69046C202.811 4.98529 202.994 5.31062 203.055 5.67662C203.116 6.04261 203.045 6.57127 202.862 7.25243L201.449 12.3357C201.408 12.4984 201.398 12.6509 201.418 12.783C201.449 12.9152 201.5 13.027 201.602 13.0982L201.53 13.3524H198.145V13.3625ZM201.551 16.9615L202.293 14.2572H203.259C203.584 14.2572 203.828 14.1962 204.011 14.0742C204.194 13.9522 204.316 13.7489 204.387 13.4744C204.428 13.3524 204.448 13.2304 204.458 13.088C204.469 12.9355 204.469 12.7729 204.458 12.5899L203.94 4.23297H207.346L207.295 9.76357L210.263 4.23297H213.425L208.169 13.3117C207.569 14.3284 207.142 15.0197 206.868 15.406C206.593 15.7822 206.339 16.077 206.085 16.2702C205.76 16.5447 205.404 16.7378 205.007 16.8497C204.611 16.9615 204.021 17.0225 203.218 17.0225C202.984 17.0225 202.72 17.0225 202.435 17.0022C202.161 17.0022 201.856 16.9818 201.551 16.9615Z" fill="#29387E"/>
</g>
<path d="M83.8113 13.5846H81.1004L82.7947 1.22092H85.5057L83.8113 13.5846ZM78.82 1.22092L76.2356 9.72476L75.9298 7.89354L75.9301 7.89421L75.0179 2.33413C75.0179 2.33413 74.9076 1.22092 73.732 1.22092H69.4596L69.4094 1.43027C69.4094 1.43027 70.7159 1.75305 72.245 2.84344L74.6001 13.5849H77.4246L81.7374 1.22092H78.82ZM100.142 13.5846H102.631L100.461 1.22059H98.2816C97.2753 1.22059 97.0302 2.14198 97.0302 2.14198L92.9873 13.5846H95.8131L96.3782 11.7481H99.8243L100.142 13.5846ZM97.1589 9.21113L98.5833 4.58435L99.3845 9.21113H97.1589ZM93.1992 4.1941L93.5861 1.53907C93.5861 1.53907 92.3924 1 91.148 1C89.8027 1 86.6081 1.69815 86.6081 5.093C86.6081 8.28711 90.3575 8.32679 90.3575 10.0045C90.3575 11.6823 86.9944 11.3816 85.8845 10.3237L85.4815 13.0997C85.4815 13.0997 86.692 13.7979 88.5413 13.7979C90.3913 13.7979 93.182 12.6606 93.182 9.56505C93.182 6.3504 89.3988 6.0511 89.3988 4.65348C89.3991 3.25551 92.0392 3.43509 93.1992 4.1941Z" fill="#2566AF"/>
<path d="M76 8.20257L75 2C75 2 75 1 72.6483 1H66.0771L66 1.22595C66 1.22595 69.1584 1.77138 72.1878 3.81492C75.0844 5.76816 76 8.20257 76 8.20257Z" fill="#E6A540"/>
<path d="M40.5926 17C45.3382 17 49.1852 13.1944 49.1852 8.5C49.1852 3.80558 45.3382 0 40.5926 0C35.847 0 32 3.80558 32 8.5C32 13.1944 35.847 17 40.5926 17Z" fill="#EB001B"/>
<path d="M52.4073 17C57.1528 17 60.9999 13.1944 60.9999 8.5C60.9999 3.80558 57.1528 0 52.4073 0C47.6617 0 43.8147 3.80558 43.8147 8.5C43.8147 13.1944 47.6617 17 52.4073 17Z" fill="#F79E1B"/>
<path fill-rule="evenodd" clip-rule="evenodd" d="M46.4999 14.6728C48.1536 13.1236 49.1851 10.9312 49.1851 8.50006C49.1851 6.06897 48.1536 3.87653 46.4999 2.32739C44.8461 3.87653 43.8147 6.06897 43.8147 8.50006C43.8147 10.9312 44.8461 13.1236 46.4999 14.6728Z" fill="#FF5F00"/>
<g clip-path="url(#clip1)">
<path d="M130.44 7.77939V12.4507H128.929V0.919619H132.936C133.902 0.901228 134.831 1.25985 135.534 1.92192C136.238 2.53801 136.632 3.42996 136.613 4.3495C136.632 5.27824 136.238 6.17019 135.534 6.79548C134.831 7.44836 133.968 7.77939 132.945 7.77939H130.44ZM130.44 2.33571V6.3633H132.973C133.536 6.38169 134.08 6.161 134.465 5.7656C135.262 5.01157 135.272 3.77019 134.502 2.98858L134.465 2.9518C134.08 2.54721 133.536 2.32652 132.973 2.34491L130.44 2.33571ZM140.094 4.30353C141.211 4.30353 142.093 4.59778 142.74 5.17709C143.387 5.7656 143.706 6.5656 143.706 7.58629V12.4415H142.261V11.3472H142.196C141.567 12.2484 140.742 12.6989 139.7 12.6989C138.818 12.6989 138.068 12.4415 137.477 11.9265C136.895 11.4484 136.567 10.7403 136.585 9.99548C136.585 9.17709 136.904 8.53341 137.533 8.04606C138.161 7.5587 139.006 7.31962 140.057 7.31962C140.957 7.31962 141.689 7.48514 142.271 7.79778V7.45755C142.271 6.9518 142.046 6.47364 141.652 6.1518C141.248 5.80238 140.732 5.60927 140.197 5.60927C139.353 5.60927 138.687 5.9587 138.19 6.65755L136.857 5.83916C137.58 4.81847 138.659 4.30353 140.094 4.30353ZM138.143 10.0323C138.143 10.4185 138.33 10.7771 138.64 10.9978C138.978 11.2553 139.391 11.3932 139.813 11.384C140.451 11.384 141.061 11.1357 141.511 10.6943C142.008 10.2346 142.261 9.69203 142.261 9.06675C141.792 8.69893 141.136 8.51502 140.291 8.51502C139.681 8.51502 139.165 8.66215 138.753 8.94721C138.349 9.24146 138.143 9.60008 138.143 10.0323ZM152 4.561L146.953 15.9265H145.395L147.272 11.9541L143.95 4.57019H145.592L147.985 10.2346H148.022L150.358 4.57019L152 4.561Z" fill="#5F6368"/>
<path d="M124.332 6.76807C124.332 6.31749 124.295 5.86692 124.22 5.42554H117.849V7.97266H121.499C121.349 8.79105 120.861 9.52669 120.148 9.98646V11.6416H122.324C123.6 10.4922 124.332 8.79105 124.332 6.76807Z" fill="#4285F4"/>
<path d="M117.849 13.2416C119.669 13.2416 121.208 12.6531 122.324 11.6416L120.148 9.98644C119.538 10.391 118.759 10.6209 117.849 10.6209C116.085 10.6209 114.594 9.45311 114.059 7.88989H111.816V9.60024C112.961 11.8255 115.297 13.2416 117.849 13.2416Z" fill="#34A853"/>
<path d="M114.059 7.88972C113.777 7.07133 113.777 6.17937 114.059 5.35179V3.65063H111.816C111.34 4.57107 111.092 5.58864 111.092 6.62075C111.092 7.65287 111.34 8.67044 111.816 9.59087L114.059 7.88972Z" fill="#FBBC04"/>
<path d="M117.849 2.62085C118.815 2.60245 119.744 2.96108 120.439 3.61395L122.362 1.72889C121.142 0.597857 119.529 -0.0182348 117.849 0.000156024C115.297 0.000156024 112.961 1.41625 111.816 3.65073L114.059 5.36108C114.594 3.78866 116.085 2.62085 117.849 2.62085Z" fill="#EA4335"/>
</g>
<defs>
<clipPath id="clip0">
<rect width="61" height="17" fill="white" transform="translate(160 1)"/>
</clipPath>
<clipPath id="clip1">
<rect width="41" height="16" fill="white" transform="translate(111)"/>
</clipPath>
</defs>
</svg>
