<svg width="1em" height="1em" viewBox="0 0 24 24" fill="none" xmlns="http://www.w3.org/2000/svg">
<rect width="24.0003" height="24" fill="white"/>
<path d="M12.0013 1.04487e-06C9.90471 -0.000866201 7.84448 0.538146 6.0261 1.56329C4.20771 2.58843 2.6947 4.06388 1.63795 5.84251L0.705811 5.37887L1.30369 8.60225L4.20639 7.11987L3.11811 6.57855C4.03529 5.06802 5.33619 3.81738 6.89341 2.94914C8.45062 2.0809 10.2107 1.62482 12.0013 1.62559C17.7141 1.62559 22.3452 6.17434 22.3452 11.7855C22.3452 12.2545 22.3124 12.723 22.247 13.1876L23.8862 13.412C23.9621 12.873 24.0002 12.3296 24.0003 11.7855C24.0003 5.27655 18.6282 1.04487e-06 12.0013 1.04487e-06Z" fill="#E95F5F"/>
<path d="M22.3334 15.1761L19.6493 16.9596L20.7031 17.3501C19.8009 18.88 18.5109 20.1487 16.9615 21.0302C15.4121 21.9116 13.6572 22.375 11.8715 22.3743C6.21938 22.3743 1.63745 17.8256 1.63745 12.2145C1.63758 11.7455 1.67015 11.2771 1.73492 10.8125L0.113086 10.5879C0.037915 11.1269 0.000130785 11.6704 0 12.2145C0 18.7234 5.31504 23.9998 11.8715 23.9998C13.9913 24.0005 16.0726 23.4376 17.899 22.3694C19.7255 21.3013 21.2304 19.767 22.2573 17.926L23.2945 18.3104L22.3334 15.1761Z" fill="#E95F5F"/>
<path d="M11.9972 17.4547C11.9613 17.4547 11.925 17.4461 11.8922 17.4288L6.66842 14.7014C6.59342 14.6623 6.54614 14.5846 6.54614 14.5V9.38623C6.54614 9.30759 6.58705 9.23441 6.65387 9.19305C6.72069 9.15168 6.80479 9.14804 6.87479 9.18305L12.0986 11.7968C12.1754 11.8354 12.2241 11.914 12.2241 12V17.2274C12.2241 17.307 12.1827 17.3806 12.1145 17.422C12.0791 17.4438 12.0382 17.4547 11.9972 17.4547ZM7.0007 14.3623L11.77 16.8524V12.1404L7.0007 9.75397V14.3623Z" fill="#455C6B" stroke="#E95F5F" stroke-width="0.6"/>
<path d="M12.0046 17.4545C11.9637 17.4545 11.9228 17.4436 11.8869 17.4218C11.8192 17.3805 11.7773 17.3068 11.7773 17.2273V11.9998C11.7773 11.9139 11.826 11.8353 11.9028 11.7966L17.1266 9.1829C17.1962 9.14744 17.2807 9.15108 17.3475 9.1929C17.4148 9.23426 17.4557 9.30744 17.4557 9.38608V14.4999C17.4557 14.5844 17.4084 14.6622 17.3334 14.7013L12.1096 17.4286C12.0769 17.4459 12.0405 17.4545 12.0046 17.4545ZM12.2319 12.1403V16.8523L17.0012 14.3622V9.75382L12.2319 12.1403ZM17.2284 14.4999H17.233H17.2284Z" fill="#455C6B" stroke="#E95F5F" stroke-width="0.6"/>
<path d="M6.77341 9.61347C6.68977 9.61347 6.60977 9.56756 6.56976 9.48801C6.5134 9.37573 6.55931 9.23937 6.67159 9.183L11.9027 6.56927C11.9668 6.53746 12.0422 6.53746 12.1059 6.56927L17.3297 9.183C17.442 9.23937 17.4874 9.37573 17.4315 9.48801C17.3751 9.60029 17.2392 9.64529 17.1265 9.58983L12.0045 7.02656L6.87523 9.58938C6.8425 9.60574 6.80795 9.61347 6.77341 9.61347Z" fill="#455C6B" stroke="#E95F5F" stroke-width="0.6"/>
<path d="M14.7283 13.3634C14.6028 13.3634 14.501 13.2615 14.501 13.1361V10.7765L9.40267 8.22546C9.29039 8.16955 9.24494 8.03273 9.3013 7.92045C9.35767 7.80818 9.49404 7.76318 9.60631 7.81863L14.8301 10.4324C14.907 10.4715 14.9556 10.5501 14.9556 10.636V13.1361C14.9556 13.2615 14.8538 13.3634 14.7283 13.3634Z" fill="#455C6B" stroke="#E95F5F" stroke-width="0.6"/>
</svg>

