<svg width="1em" height="1em" viewBox="0 0 22 24" fill="none" xmlns="http://www.w3.org/2000/svg">
<rect width="20" height="21.3362" transform="translate(1 1.26709)" fill="white"/>
<path d="M13.5612 10.2657L13.5612 10.2657L11.5125 11.2547V21.4741L20.1749 17.2924V7.07294L17.6925 8.27135V11.9169C17.6925 12.1137 17.5799 12.293 17.4028 12.3785L15.0645 13.5073C14.9939 13.5415 14.9176 13.5583 14.8416 13.5583C14.7468 13.5583 14.6522 13.5321 14.5691 13.4799L14.5691 13.4799C14.4198 13.3861 14.3291 13.2222 14.3291 13.0458V9.41747L5.13622 4.97954L2.49146 6.25632L8.8847 9.34273L8.88471 9.34273C9.1396 9.4658 9.24649 9.77221 9.12343 10.0271C9.12342 10.0271 9.12342 10.0271 9.12341 10.0271L8.94331 9.94018C8.88943 10.0518 8.77783 10.1169 8.66165 10.1169C8.6161 10.1169 8.5698 10.1069 8.526 10.0857L13.5612 10.2657ZM13.5612 10.2657C13.8161 10.1426 13.9229 9.83627 13.7999 9.58133L13.7999 9.58129C13.6768 9.32653 13.3705 9.21945 13.1155 9.3426C13.1155 9.34261 13.1154 9.34261 13.1154 9.34262L11 10.3639L10.2204 9.98751C9.96534 9.86425 9.65897 9.97137 9.53593 10.2262C9.41285 10.4811 9.51974 10.7875 9.77464 10.9106L9.77465 10.9106L10.4875 11.2547V21.4741L1.82508 17.2923V7.0729L8.43897 10.2658L13.5612 10.2657ZM20.9104 5.79479L20.9103 5.79475L11.2228 1.11805L11.2228 1.11801C11.082 1.05012 10.918 1.0501 10.7772 1.11803L10.7772 1.11805L1.08972 5.79475C1.08971 5.79475 1.0897 5.79475 1.0897 5.79475C0.912529 5.88027 0.8 6.05967 0.8 6.25632V17.614C0.8 17.8107 0.912526 17.9901 1.0897 18.0756C1.0897 18.0756 1.08971 18.0756 1.08972 18.0756L10.7772 22.7523L10.7772 22.7523C10.8475 22.7863 10.9238 22.8033 11 22.8033C11.0763 22.8033 11.1524 22.7863 11.2227 22.7524L11.2228 22.7523L20.9103 18.0756C20.9103 18.0756 20.9103 18.0756 20.9103 18.0756C21.0875 17.9901 21.2 17.8107 21.2 17.614V6.25636C21.2 6.05954 21.0874 5.88031 20.9104 5.79479ZM17.3768 7.28542L8.86824 3.17791L11 2.14878L19.5085 6.25632L17.3768 7.28542ZM14.8237 8.51802L6.33114 4.41817L7.70253 3.75346L16.1978 7.85462L14.8237 8.51802ZM15.3541 9.40017L16.6674 8.76617V11.5952L15.3541 12.2292V9.40017Z" fill="#E95F5F" stroke="#E95F5F" stroke-width="0.4"/>
</svg>

