<svg width="1em" height="1em" viewBox="0 0 30 18" fill="none" xmlns="http://www.w3.org/2000/svg">
<rect width="27.9999" height="16.3333" transform="translate(1 1)" fill="white"/>
<path d="M8.58317 15.0007H6.24984C5.92784 15.0007 5.6665 14.7393 5.6665 14.4173C5.6665 14.0953 5.92784 13.834 6.24984 13.834H8.58317C8.90517 13.834 9.16651 14.0953 9.16651 14.4173C9.16651 14.7393 8.90517 15.0007 8.58317 15.0007Z" fill="#E95F5F" stroke="#E95F5F" stroke-width="0.3"/>
<path d="M27.5416 15H26.0832C25.7612 15 25.4999 14.7387 25.4999 14.4167C25.4999 14.0947 25.7612 13.8333 26.0832 13.8333H27.0574L27.8437 9.64267C27.8332 7.49833 26.0016 5.66667 23.7499 5.66667H19.9197L18.0636 13.8333H21.4166C21.7386 13.8333 21.9999 14.0947 21.9999 14.4167C21.9999 14.7387 21.7386 15 21.4166 15H17.3332C17.1559 15 16.9879 14.9195 16.8771 14.7807C16.7662 14.643 16.7242 14.461 16.7639 14.2883L18.8849 4.955C18.9456 4.68783 19.1812 4.5 19.4542 4.5H23.7499C26.6444 4.5 28.9999 6.8555 28.9999 9.75L28.1144 14.524C28.0631 14.8005 27.8227 15 27.5416 15Z" fill="#E95F5F" stroke="#E95F5F" stroke-width="0.3"/>
<path d="M23.7502 17.3333C22.1425 17.3333 20.8335 16.0255 20.8335 14.4167C20.8335 12.8078 22.1425 11.5 23.7502 11.5C25.3578 11.5 26.6668 12.8078 26.6668 14.4167C26.6668 16.0255 25.3578 17.3333 23.7502 17.3333ZM23.7502 12.6667C22.7853 12.6667 22.0002 13.4518 22.0002 14.4167C22.0002 15.3815 22.7853 16.1667 23.7502 16.1667C24.715 16.1667 25.5002 15.3815 25.5002 14.4167C25.5002 13.4518 24.715 12.6667 23.7502 12.6667Z" fill="#E95F5F" stroke="#E95F5F" stroke-width="0.3"/>
<path d="M10.9167 17.3333C9.309 17.3333 8 16.0255 8 14.4167C8 12.8078 9.309 11.5 10.9167 11.5C12.5243 11.5 13.8333 12.8078 13.8333 14.4167C13.8333 16.0255 12.5243 17.3333 10.9167 17.3333ZM10.9167 12.6667C9.95183 12.6667 9.16667 13.4518 9.16667 14.4167C9.16667 15.3815 9.95183 16.1667 10.9167 16.1667C11.8815 16.1667 12.6667 15.3815 12.6667 14.4167C12.6667 13.4518 11.8815 12.6667 10.9167 12.6667Z" fill="#E95F5F" stroke="#E95F5F" stroke-width="0.3"/>
<path d="M8.5835 4.50065H3.91683C3.59483 4.50065 3.3335 4.23932 3.3335 3.91732C3.3335 3.59532 3.59483 3.33398 3.91683 3.33398H8.5835C8.9055 3.33398 9.16683 3.59532 9.16683 3.91732C9.16683 4.23932 8.9055 4.50065 8.5835 4.50065Z" fill="#E95F5F" stroke="#E95F5F" stroke-width="0.3"/>
<path d="M8.58317 8.00065H2.74984C2.42784 8.00065 2.1665 7.73932 2.1665 7.41732C2.1665 7.09532 2.42784 6.83398 2.74984 6.83398H8.58317C8.90517 6.83398 9.1665 7.09532 9.1665 7.41732C9.1665 7.73932 8.90517 8.00065 8.58317 8.00065Z" fill="#E95F5F" stroke="#E95F5F" stroke-width="0.3"/>
<path d="M8.58333 11.5007H1.58333C1.26133 11.5007 1 11.2393 1 10.9173C1 10.5953 1.26133 10.334 1.58333 10.334H8.58333C8.90533 10.334 9.16667 10.5953 9.16667 10.9173C9.16667 11.2393 8.90533 11.5007 8.58333 11.5007Z" fill="#E95F5F" stroke="#E95F5F" stroke-width="0.3"/>
<path d="M17.3332 15H13.2498C12.9278 15 12.6665 14.7387 12.6665 14.4167C12.6665 14.0947 12.9278 13.8333 13.2498 13.8333H16.8677L19.5183 2.16667H6.24984C5.92784 2.16667 5.6665 1.90533 5.6665 1.58333C5.6665 1.26133 5.92784 1 6.24984 1H20.2498C20.4272 1 20.5952 1.0805 20.706 1.21933C20.8168 1.357 20.8588 1.539 20.8192 1.71167L17.9025 14.545C17.8418 14.8122 17.605 15 17.3332 15Z" fill="#E95F5F" stroke="#E95F5F" stroke-width="0.3"/>
</svg>

