<svg width="1em" height="1em" viewBox="0 0 24 21" fill="none" xmlns="http://www.w3.org/2000/svg">
<rect width="24" height="21" fill="white"/>
<path d="M23.25 13.5C22.836 13.5 22.5 13.836 22.5 14.25V19.5H1.5V10.5H9.75C10.164 10.5 10.5 10.164 10.5 9.75C10.5 9.336 10.164 9 9.75 9H1.5V6H9.75C10.164 6 10.5 5.664 10.5 5.25C10.5 4.836 10.164 4.5 9.75 4.5H1.5C0.672 4.5 0 5.172 0 6V19.5C0 20.328 0.672 21 1.5 21H22.5C23.328 21 24 20.328 24 19.5V14.25C24 13.836 23.664 13.5 23.25 13.5Z" fill="#E95F5F"/>
<path d="M6.75 13.5H3.75C3.336 13.5 3 13.836 3 14.25C3 14.664 3.336 15 3.75 15H6.75C7.164 15 7.5 14.664 7.5 14.25C7.5 13.836 7.164 13.5 6.75 13.5Z" fill="#E95F5F"/>
<path d="M23.5455 2.30962L18.2955 0.059625C18.105 -0.019875 17.8935 -0.019875 17.703 0.059625L12.453 2.30962C12.1785 2.42812 12 2.69962 12 2.99962V5.99962C12 10.1261 13.5255 12.5381 17.6265 14.9006C17.742 14.9666 17.871 14.9996 18 14.9996C18.129 14.9996 18.258 14.9666 18.3735 14.9006C22.4745 12.5441 24 10.1321 24 5.99962V2.99962C24 2.69962 23.8215 2.42812 23.5455 2.30962ZM22.5 5.99962C22.5 9.46312 21.354 11.3696 18 13.3796C14.646 11.3651 13.5 9.45862 13.5 5.99962V3.49462L18 1.56562L22.5 3.49462V5.99962Z" fill="#E95F5F"/>
<path d="M20.7195 4.66353C20.397 4.40853 19.926 4.45803 19.665 4.78053L17.307 7.72953L16.374 6.33453C16.1415 5.98953 15.675 5.89803 15.3345 6.12603C14.991 6.35553 14.8965 6.82203 15.126 7.16553L16.626 9.41553C16.7595 9.61503 16.9785 9.73803 17.2185 9.75003C17.229 9.75003 17.241 9.75003 17.25 9.75003C17.4765 9.75003 17.6925 9.64803 17.8365 9.46803L20.8365 5.71803C21.0945 5.39403 21.0435 4.92303 20.7195 4.66353Z" fill="#E95F5F"/>
</svg>

