<svg width="13" height="17" viewBox="0 0 13 17" fill="none" xmlns="http://www.w3.org/2000/svg">
<path d="M11.5556 1.94444V14.9444H7.22222V12.4167H5.77778V14.9444H1.44444V1.94444H11.5556ZM8.66667 4.83333H10.1111V3.38889H8.66667V4.83333ZM5.77778 4.83333H7.22222V3.38889H5.77778V4.83333ZM2.88889 4.83333H4.33333V3.38889H2.88889V4.83333ZM8.66667 7.72222H10.1111V6.27778H8.66667V7.72222ZM5.77778 7.72222H7.22222V6.27778H5.77778V7.72222ZM2.88889 7.72222H4.33333V6.27778H2.88889V7.72222ZM8.66667 10.6111H10.1111V9.16666H8.66667V10.6111ZM5.77778 10.6111H7.22222V9.16666H5.77778V10.6111ZM2.88889 10.6111H4.33333V9.16666H2.88889V10.6111ZM8.66667 13.5H10.1111V12.0556H8.66667V13.5ZM2.88889 13.5H4.33333V12.0556H2.88889V13.5ZM13 0.5H0V16.3889H13V0.5Z" fill="#005BC2"/>
</svg>
