<svg width="20" height="21" viewBox="0 0 20 21" fill="none" xmlns="http://www.w3.org/2000/svg">
<path d="M13.7296 5.2824L15.4946 7.04657L13.7296 5.2824ZM14.8646 3.72823L10.0921 8.50073C9.84554 8.74698 9.67737 9.06072 9.6088 9.4024L9.16797 11.6091L11.3746 11.1674C11.7163 11.0991 12.0296 10.9316 12.2763 10.6849L17.0488 5.9124C17.1922 5.76899 17.306 5.59873 17.3836 5.41135C17.4612 5.22397 17.5012 5.02314 17.5012 4.82032C17.5012 4.6175 17.4612 4.41667 17.3836 4.22929C17.306 4.04191 17.1922 3.87165 17.0488 3.72823C16.9054 3.58482 16.7351 3.47106 16.5477 3.39344C16.3604 3.31583 16.1595 3.27588 15.9567 3.27588C15.7539 3.27588 15.5531 3.31583 15.3657 3.39344C15.1783 3.47106 15.008 3.58482 14.8646 3.72823V3.72823Z" stroke="#005BC2" stroke-linecap="round" stroke-linejoin="round"/>
<path d="M15.834 13.2757V15.7757C15.834 16.2177 15.6584 16.6417 15.3458 16.9542C15.0333 17.2668 14.6093 17.4424 14.1673 17.4424H5.00065C4.55862 17.4424 4.1347 17.2668 3.82214 16.9542C3.50958 16.6417 3.33398 16.2177 3.33398 15.7757V6.60905C3.33398 6.16702 3.50958 5.7431 3.82214 5.43054C4.1347 5.11798 4.55862 4.94238 5.00065 4.94238H7.50065" stroke="#005BC2" stroke-linecap="round" stroke-linejoin="round"/>
</svg>
