<svg width="14" height="14" viewBox="0 0 14 14" fill="none" xmlns="http://www.w3.org/2000/svg">
<path d="M7.00065 4.66683C5.71148 4.66683 4.66732 5.711 4.66732 7.00016C4.66732 8.28933 5.71148 9.3335 7.00065 9.3335C8.28982 9.3335 9.33398 8.28933 9.33398 7.00016C9.33398 5.711 8.28982 4.66683 7.00065 4.66683ZM12.2157 6.41683C12.0835 5.2339 11.5531 4.13106 10.7114 3.2894C9.86975 2.44774 8.76691 1.91729 7.58398 1.78516V0.583496H6.41732V1.78516C5.23439 1.91729 4.13155 2.44774 3.28989 3.2894C2.44823 4.13106 1.91778 5.2339 1.78565 6.41683H0.583984V7.5835H1.78565C1.91778 8.76643 2.44823 9.86927 3.28989 10.7109C4.13155 11.5526 5.23439 12.083 6.41732 12.2152V13.4168H7.58398V12.2152C8.76691 12.083 9.86975 11.5526 10.7114 10.7109C11.5531 9.86927 12.0835 8.76643 12.2157 7.5835H13.4173V6.41683H12.2157ZM7.00065 11.0835C4.74315 11.0835 2.91732 9.25766 2.91732 7.00016C2.91732 4.74266 4.74315 2.91683 7.00065 2.91683C9.25815 2.91683 11.084 4.74266 11.084 7.00016C11.084 9.25766 9.25815 11.0835 7.00065 11.0835Z" fill="black"/>
</svg>
