<svg width="20" height="14" viewBox="0 0 20 14" fill="none" xmlns="http://www.w3.org/2000/svg">
<path d="M16.6666 3.57992H14.1666V0.246582H2.49992C1.58325 0.246582 0.833252 0.996582 0.833252 1.91325V11.0799H2.49992C2.49992 12.4632 3.61659 13.5799 4.99992 13.5799C6.38325 13.5799 7.49992 12.4632 7.49992 11.0799H12.4999C12.4999 12.4632 13.6166 13.5799 14.9999 13.5799C16.3833 13.5799 17.4999 12.4632 17.4999 11.0799H19.1666V6.91325L16.6666 3.57992ZM4.99992 12.3299C4.30825 12.3299 3.74992 11.7716 3.74992 11.0799C3.74992 10.3882 4.30825 9.82991 4.99992 9.82991C5.69158 9.82991 6.24992 10.3882 6.24992 11.0799C6.24992 11.7716 5.69158 12.3299 4.99992 12.3299ZM16.2499 4.82992L17.8832 6.91325H14.1666V4.82992H16.2499ZM14.9999 12.3299C14.3083 12.3299 13.7499 11.7716 13.7499 11.0799C13.7499 10.3882 14.3083 9.82991 14.9999 9.82991C15.6916 9.82991 16.2499 10.3882 16.2499 11.0799C16.2499 11.7716 15.6916 12.3299 14.9999 12.3299Z" fill="#A33A34"/>
</svg>
