<svg width="18" height="17" viewBox="0 0 18 17" fill="none" xmlns="http://www.w3.org/2000/svg">
<path d="M5.83325 13.4134C4.91658 13.4134 4.17492 14.1634 4.17492 15.0801C4.17492 15.9967 4.91658 16.7467 5.83325 16.7467C6.74992 16.7467 7.49992 15.9967 7.49992 15.0801C7.49992 14.1634 6.74992 13.4134 5.83325 13.4134ZM0.833252 0.0800781V1.74674H2.49992L5.49992 8.07175L4.37492 10.1134C4.24159 10.3467 4.16659 10.6217 4.16659 10.9134C4.16659 11.8301 4.91658 12.5801 5.83325 12.5801H15.8333V10.9134H6.18325C6.06659 10.9134 5.97492 10.8217 5.97492 10.7051L5.99992 10.6051L6.74992 9.24675H12.9583C13.5833 9.24675 14.1333 8.90508 14.4166 8.38841L17.3999 2.98008C17.4666 2.86341 17.4999 2.72175 17.4999 2.58008C17.4999 2.12174 17.1249 1.74674 16.6666 1.74674H4.34159L3.55825 0.0800781H0.833252ZM14.1666 13.4134C13.2499 13.4134 12.5083 14.1634 12.5083 15.0801C12.5083 15.9967 13.2499 16.7467 14.1666 16.7467C15.0833 16.7467 15.8333 15.9967 15.8333 15.0801C15.8333 14.1634 15.0833 13.4134 14.1666 13.4134Z" fill="#A33A34"/>
</svg>
