<svg width="20" height="16" viewBox="0 0 20 16" fill="none" xmlns="http://www.w3.org/2000/svg">
<path d="M14.3416 5.91286L10.6916 0.446191C10.5333 0.212858 10.2666 0.0961914 9.99992 0.0961914C9.73325 0.0961914 9.46658 0.212858 9.30825 0.454525L5.65825 5.91286H1.66659C1.20825 5.91286 0.833252 6.28786 0.833252 6.74619C0.833252 6.82119 0.841585 6.89619 0.866585 6.97119L2.98325 14.6962C3.17492 15.3962 3.81659 15.9129 4.58325 15.9129H15.4166C16.1833 15.9129 16.8249 15.3962 17.0249 14.6962L19.1416 6.97119L19.1666 6.74619C19.1666 6.28786 18.7916 5.91286 18.3333 5.91286H14.3416ZM7.49992 5.91286L9.99992 2.24619L12.4999 5.91286H7.49992ZM9.99992 12.5795C9.08325 12.5795 8.33325 11.8295 8.33325 10.9129C8.33325 9.99619 9.08325 9.24619 9.99992 9.24619C10.9166 9.24619 11.6666 9.99619 11.6666 10.9129C11.6666 11.8295 10.9166 12.5795 9.99992 12.5795Z" fill="#A33A34"/>
</svg>
