<svg width="15" height="15" viewBox="0 0 15 15" fill="none" xmlns="http://www.w3.org/2000/svg">
<path d="M3.61152 6.56897C4.71921 8.74589 6.50383 10.5228 8.68075 11.6382L10.3731 9.94589C10.5808 9.7382 10.8884 9.66897 11.1577 9.76128C12.0192 10.0459 12.95 10.1997 13.9038 10.1997C14.3269 10.1997 14.6731 10.5459 14.6731 10.969V13.6536C14.6731 14.0767 14.3269 14.4228 13.9038 14.4228C6.68075 14.4228 0.826904 8.56897 0.826904 1.34589C0.826904 0.922814 1.17306 0.57666 1.59614 0.57666H4.28844C4.71152 0.57666 5.05767 0.922814 5.05767 1.34589C5.05767 2.30743 5.21152 3.23051 5.49613 4.09205C5.58075 4.36128 5.51921 4.66128 5.30383 4.87666L3.61152 6.56897Z" fill="#33A532"/>
</svg>
