<svg width="17" height="16" viewBox="0 0 17 16" fill="none" xmlns="http://www.w3.org/2000/svg">
<path d="M14.2 8.78C14.23 8.53 14.25 8.27 14.25 8C14.25 7.73 14.23 7.47 14.19 7.22L15.88 5.9C16.03 5.78 16.07 5.56 15.98 5.39L14.38 2.62C14.28 2.44 14.07 2.38 13.89 2.44L11.9 3.24C11.48 2.92 11.04 2.66 10.55 2.46L10.25 0.34C10.22 0.14 10.05 0 9.85001 0H6.65001C6.45001 0 6.29001 0.14 6.26001 0.34L5.96001 2.46C5.47001 2.66 5.02001 2.93 4.61001 3.24L2.62001 2.44C2.44001 2.37 2.23001 2.44 2.13001 2.62L0.530007 5.39C0.430007 5.57 0.470008 5.78 0.630008 5.9L2.32001 7.22C2.28001 7.47 2.25001 7.74 2.25001 8C2.25001 8.26 2.27001 8.53 2.31001 8.78L0.620007 10.1C0.470007 10.22 0.430007 10.44 0.520007 10.61L2.12001 13.38C2.22001 13.56 2.43001 13.62 2.61001 13.56L4.60001 12.76C5.02001 13.08 5.46001 13.34 5.95001 13.54L6.25001 15.66C6.29001 15.86 6.45001 16 6.65001 16H9.85001C10.05 16 10.22 15.86 10.24 15.66L10.54 13.54C11.03 13.34 11.48 13.07 11.89 12.76L13.88 13.56C14.06 13.63 14.27 13.56 14.37 13.38L15.97 10.61C16.07 10.43 16.03 10.22 15.87 10.1L14.2 8.78ZM8.25001 11C6.60001 11 5.25001 9.65 5.25001 8C5.25001 6.35 6.60001 5 8.25001 5C9.90001 5 11.25 6.35 11.25 8C11.25 9.65 9.90001 11 8.25001 11Z" fill="#005BC2"/>
</svg>
