<svg width="27" height="27" viewBox="0 0 27 27" fill="none" xmlns="http://www.w3.org/2000/svg">
<path d="M19.25 3.5V21.5H13.25V18H11.25V21.5H5.25V3.5H19.25ZM15.25 7.5H17.25V5.5H15.25V7.5ZM11.25 7.5H13.25V5.5H11.25V7.5ZM7.25 7.5H9.25V5.5H7.25V7.5ZM15.25 11.5H17.25V9.5H15.25V11.5ZM11.25 11.5H13.25V9.5H11.25V11.5ZM7.25 11.5H9.25V9.5H7.25V11.5ZM15.25 15.5H17.25V13.5H15.25V15.5ZM11.25 15.5H13.25V13.5H11.25V15.5ZM7.25 15.5H9.25V13.5H7.25V15.5ZM15.25 19.5H17.25V17.5H15.25V19.5ZM7.25 19.5H9.25V17.5H7.25V19.5ZM21.25 1.5H3.25V23.5H21.25V1.5Z" fill="#005BC2"/>
<path d="M23.25 18.5V13.5H25.25V19.5H23.25V18.5ZM23.25 23.5H25.25V21.5H23.25V23.5Z" fill="#005BC2"/>
</svg>
