<svg width="17" height="17" viewBox="0 0 17 17" fill="none" xmlns="http://www.w3.org/2000/svg">
<path d="M8.5 16.5C12.9183 16.5 16.5 12.9183 16.5 8.5C16.5 4.08172 12.9183 0.5 8.5 0.5C4.08172 0.5 0.5 4.08172 0.5 8.5C0.5 12.9183 4.08172 16.5 8.5 16.5Z" stroke="#005BC2" stroke-linecap="round" stroke-linejoin="round"/>
<path d="M8.5 12.5C10.7091 12.5 12.5 10.7091 12.5 8.5C12.5 6.29086 10.7091 4.5 8.5 4.5C6.29086 4.5 4.5 6.29086 4.5 8.5C4.5 10.7091 6.29086 12.5 8.5 12.5Z" stroke="#005BC2" stroke-linecap="round" stroke-linejoin="round"/>
<path d="M11.5 5.5L14 3" stroke="#005BC2" stroke-linecap="round" stroke-linejoin="round"/>
<path d="M11.5 11.5L14 14" stroke="#005BC2" stroke-linecap="round" stroke-linejoin="round"/>
<path d="M5.5 11.5L3 14" stroke="#005BC2" stroke-linecap="round" stroke-linejoin="round"/>
<path d="M5.5 5.5L3 3" stroke="#005BC2" stroke-linecap="round" stroke-linejoin="round"/>
</svg>
