<svg width="18" height="13" viewBox="0 0 18 13" fill="none" xmlns="http://www.w3.org/2000/svg">
<path d="M12.7503 9.4165C14.1837 9.4165 15.8753 10.0832 16.0837 10.4832V11.0832H9.41699V10.4832C9.62533 10.0832 11.317 9.4165 12.7503 9.4165ZM12.7503 8.1665C11.2253 8.1665 8.16699 8.93317 8.16699 10.4582V12.3332H17.3337V10.4582C17.3337 8.93317 14.2753 8.1665 12.7503 8.1665ZM6.50033 7.33317C4.55866 7.33317 0.666992 8.30817 0.666992 10.2498V12.3332H6.50033V11.0832H1.91699V10.2498C1.91699 9.72484 4.24199 8.44984 7.18366 8.58317C7.5419 8.15476 7.98075 7.80085 8.47533 7.5415C7.8253 7.40819 7.16386 7.33842 6.50033 7.33317ZM6.50033 1.9165C6.74755 1.9165 6.98923 1.98982 7.19479 2.12717C7.40035 2.26452 7.56057 2.45974 7.65518 2.68815C7.74978 2.91656 7.77454 3.16789 7.72631 3.41037C7.67808 3.65284 7.55903 3.87557 7.38421 4.05039C7.20939 4.2252 6.98667 4.34425 6.74419 4.39249C6.50171 4.44072 6.25038 4.41596 6.02197 4.32135C5.79356 4.22674 5.59834 4.06653 5.46099 3.86097C5.32364 3.65541 5.25033 3.41373 5.25033 3.1665C5.25033 2.83498 5.38202 2.51704 5.61644 2.28262C5.85086 2.0482 6.16881 1.9165 6.50033 1.9165ZM6.50033 0.666504C6.00587 0.666504 5.52252 0.813127 5.1114 1.08783C4.70028 1.36253 4.37985 1.75298 4.19063 2.2098C4.00141 2.66661 3.9519 3.16928 4.04836 3.65423C4.14483 4.13918 4.38293 4.58464 4.73256 4.93427C5.08219 5.2839 5.52765 5.52201 6.0126 5.61847C6.49755 5.71493 7.00022 5.66542 7.45703 5.4762C7.91385 5.28698 8.3043 4.96655 8.579 4.55543C8.8537 4.14431 9.00033 3.66096 9.00033 3.1665C9.00033 2.50346 8.73693 1.86758 8.26809 1.39874C7.79925 0.929896 7.16337 0.666504 6.50033 0.666504ZM12.7503 3.58317C12.9151 3.58317 13.0763 3.63205 13.2133 3.72361C13.3503 3.81518 13.4572 3.94533 13.5202 4.0976C13.5833 4.24987 13.5998 4.41743 13.5676 4.57908C13.5355 4.74073 13.4561 4.88922 13.3396 5.00576C13.223 5.1223 13.0746 5.20167 12.9129 5.23383C12.7513 5.26598 12.5837 5.24948 12.4314 5.1864C12.2792 5.12333 12.149 5.01652 12.0574 4.87948C11.9659 4.74244 11.917 4.58132 11.917 4.4165C11.917 4.19549 12.0048 3.98353 12.1611 3.82725C12.3174 3.67097 12.5293 3.58317 12.7503 3.58317ZM12.7503 2.33317C12.3383 2.33317 11.9355 2.45536 11.5929 2.68428C11.2503 2.9132 10.9833 3.23857 10.8256 3.61925C10.6679 3.99993 10.6266 4.41882 10.707 4.82294C10.7874 5.22707 10.9858 5.59828 11.2772 5.88964C11.5685 6.181 11.9398 6.37942 12.3439 6.45981C12.748 6.54019 13.1669 6.49894 13.5476 6.34125C13.9283 6.18357 14.2536 5.91654 14.4826 5.57394C14.7115 5.23134 14.8337 4.82855 14.8337 4.4165C14.8337 3.86397 14.6142 3.33407 14.2235 2.94337C13.8328 2.55266 13.3029 2.33317 12.7503 2.33317Z" fill="#005BC2"/>
</svg>
