<svg width="64" height="20" viewBox="0 0 64 20" fill="none" xmlns="http://www.w3.org/2000/svg">
<g clip-path="url(#clip0)">
<path d="M12.2501 6.66656L11.3101 5.72656L7.08344 9.95323L8.02344 10.8932L12.2501 6.66656ZM15.0768 5.72656L8.02344 12.7799L5.23677 9.9999L4.29677 10.9399L8.02344 14.6666L16.0234 6.66656L15.0768 5.72656ZM0.523438 10.9399L4.2501 14.6666L5.1901 13.7266L1.4701 9.9999L0.523438 10.9399Z" fill="#33A532"/>
</g>
<path d="M21.6236 6.432L24.4796 15H26.1476L29.0756 6.432H27.5516L25.3556 13.212H25.3316L23.1836 6.432H21.6236ZM33.3433 11.352H30.1513C30.1513 11.124 30.1993 10.908 30.2833 10.704C30.3673 10.512 30.4753 10.332 30.6193 10.188C30.7633 10.044 30.9313 9.924 31.1233 9.84C31.3153 9.756 31.5433 9.708 31.7833 9.708C32.0113 9.708 32.2153 9.756 32.4073 9.852C32.5993 9.948 32.7553 10.068 32.8873 10.212C33.0193 10.356 33.1273 10.536 33.1993 10.728C33.2713 10.932 33.3193 11.136 33.3433 11.352ZM30.1513 12.252H34.7113C34.7593 11.796 34.7353 11.34 34.6153 10.908C34.4953 10.476 34.3153 10.08 34.0633 9.744C33.7993 9.408 33.4753 9.144 33.0913 8.94C32.7073 8.736 32.2633 8.628 31.7833 8.628C31.3153 8.628 30.8953 8.724 30.5353 8.892C30.1633 9.072 29.8513 9.312 29.5873 9.612C29.3233 9.912 29.1313 10.26 28.9873 10.656C28.8433 11.052 28.7833 11.472 28.7833 11.904C28.7833 12.384 28.8433 12.828 28.9753 13.224C29.1073 13.632 29.2993 13.968 29.5633 14.256C29.8273 14.544 30.1393 14.772 30.5233 14.928C30.8953 15.096 31.3273 15.168 31.8193 15.168C32.1553 15.168 32.4673 15.132 32.7793 15.036C33.0913 14.94 33.3673 14.808 33.6193 14.628C33.8593 14.448 34.0753 14.22 34.2553 13.956C34.4233 13.692 34.5553 13.392 34.6273 13.056H33.3313C33.2113 13.404 33.0193 13.668 32.7793 13.836C32.5393 14.004 32.2153 14.088 31.8193 14.088C31.5313 14.088 31.2793 14.04 31.0753 13.944C30.8593 13.848 30.6913 13.704 30.5593 13.536C30.4153 13.368 30.3193 13.176 30.2473 12.948C30.1753 12.732 30.1513 12.492 30.1513 12.252ZM35.7513 8.796V15H37.1193V12.048C37.1193 11.712 37.1553 11.4 37.2513 11.136C37.3353 10.872 37.4553 10.656 37.6113 10.476C37.7553 10.296 37.9353 10.164 38.1393 10.068C38.3433 9.972 38.5592 9.924 38.7993 9.924C38.8953 9.924 38.9913 9.936 39.0873 9.948C39.1833 9.96 39.2913 9.972 39.3873 9.984V8.664C39.3153 8.664 39.2553 8.652 39.1953 8.64C39.1353 8.64 39.0273 8.628 38.8713 8.628C38.6553 8.628 38.4513 8.676 38.2593 8.748C38.0553 8.832 37.8753 8.94 37.7073 9.072C37.5393 9.204 37.4073 9.348 37.2873 9.504C37.1673 9.672 37.0953 9.828 37.0593 9.996H37.0353V8.796H35.7513ZM40.006 6.432V7.728H41.374V6.432H40.006ZM40.006 8.796V15H41.374V8.796H40.006ZM46.6805 6.432V7.728H48.0485V6.432H46.6805ZM42.2525 8.796V9.816H43.2725V15H44.6405V9.816H45.8045V8.796H44.6405V8.16C44.6405 7.908 44.7005 7.74 44.8325 7.644C44.9645 7.56 45.1205 7.512 45.3125 7.512C45.4445 7.512 45.5645 7.524 45.6605 7.536C45.7565 7.548 45.8525 7.56 45.9485 7.584V6.516C45.7445 6.468 45.4205 6.432 44.9885 6.432C44.7605 6.432 44.5445 6.456 44.3405 6.504C44.1365 6.552 43.9565 6.636 43.8005 6.768C43.6325 6.9 43.5125 7.092 43.4165 7.332C43.3205 7.572 43.2725 7.896 43.2725 8.28V8.796H42.2525ZM46.6805 8.796V15H48.0485V8.796H46.6805ZM53.7925 11.352H50.6005C50.6005 11.124 50.6485 10.908 50.7325 10.704C50.8165 10.512 50.9245 10.332 51.0685 10.188C51.2125 10.044 51.3805 9.924 51.5725 9.84C51.7645 9.756 51.9925 9.708 52.2325 9.708C52.4605 9.708 52.6645 9.756 52.8565 9.852C53.0485 9.948 53.2045 10.068 53.3365 10.212C53.4685 10.356 53.5765 10.536 53.6485 10.728C53.7205 10.932 53.7685 11.136 53.7925 11.352ZM50.6005 12.252H55.1605C55.2085 11.796 55.1845 11.34 55.0645 10.908C54.9445 10.476 54.7645 10.08 54.5125 9.744C54.2485 9.408 53.9245 9.144 53.5405 8.94C53.1565 8.736 52.7125 8.628 52.2325 8.628C51.7645 8.628 51.3445 8.724 50.9845 8.892C50.6125 9.072 50.3005 9.312 50.0365 9.612C49.7725 9.912 49.5805 10.26 49.4365 10.656C49.2925 11.052 49.2325 11.472 49.2325 11.904C49.2325 12.384 49.2925 12.828 49.4245 13.224C49.5565 13.632 49.7485 13.968 50.0125 14.256C50.2765 14.544 50.5885 14.772 50.9725 14.928C51.3445 15.096 51.7765 15.168 52.2685 15.168C52.6045 15.168 52.9165 15.132 53.2285 15.036C53.5405 14.94 53.8165 14.808 54.0685 14.628C54.3085 14.448 54.5245 14.22 54.7045 13.956C54.8725 13.692 55.0045 13.392 55.0765 13.056H53.7805C53.6605 13.404 53.4685 13.668 53.2285 13.836C52.9885 14.004 52.6645 14.088 52.2685 14.088C51.9805 14.088 51.7285 14.04 51.5245 13.944C51.3085 13.848 51.1405 13.704 51.0085 13.536C50.8645 13.368 50.7685 13.176 50.6965 12.948C50.6245 12.732 50.6005 12.492 50.6005 12.252ZM62.0445 15V6.432H60.6765V9.6H60.6525C60.5445 9.432 60.4125 9.288 60.2565 9.168C60.1005 9.048 59.9325 8.94 59.7525 8.856C59.5605 8.784 59.3685 8.724 59.1765 8.688C58.9725 8.652 58.7805 8.628 58.5885 8.628C58.2525 8.628 57.9165 8.7 57.5925 8.82C57.2685 8.94 56.9805 9.132 56.7285 9.396C56.4765 9.66 56.2725 9.996 56.1285 10.404C55.9725 10.812 55.9005 11.304 55.9005 11.856C55.9005 12.324 55.9605 12.756 56.0805 13.164C56.2005 13.572 56.3805 13.92 56.6205 14.208C56.8605 14.508 57.1605 14.748 57.5205 14.916C57.8805 15.084 58.3125 15.168 58.8045 15.168C59.1885 15.168 59.5605 15.096 59.9205 14.94C60.2685 14.784 60.5325 14.52 60.7245 14.16H60.7485V15H62.0445ZM57.2685 11.964C57.2685 11.688 57.2925 11.412 57.3525 11.148C57.4125 10.884 57.5085 10.644 57.6525 10.428C57.7965 10.212 57.9765 10.044 58.1925 9.912C58.4085 9.78 58.6845 9.708 59.0085 9.708C59.5365 9.708 59.9445 9.9 60.2565 10.284C60.5685 10.668 60.7245 11.208 60.7245 11.892C60.7245 12.168 60.6885 12.432 60.6165 12.696C60.5445 12.96 60.4485 13.188 60.3045 13.392C60.1605 13.608 59.9805 13.776 59.7645 13.896C59.5485 14.028 59.2845 14.088 58.9845 14.088C58.6845 14.088 58.4325 14.028 58.2165 13.908C58.0005 13.788 57.8205 13.632 57.6765 13.428C57.5325 13.236 57.4365 13.008 57.3645 12.744C57.2925 12.492 57.2685 12.228 57.2685 11.964Z" fill="#33A532"/>
<defs>
<clipPath id="clip0">
<rect width="16" height="16" fill="white" transform="translate(0.25 2)"/>
</clipPath>
</defs>
</svg>
