<svg width="54" height="53" viewBox="0 0 54 53" fill="none" xmlns="http://www.w3.org/2000/svg">
<rect x="0.75" y="0.5" width="52" height="52" rx="26" fill="white" stroke="#E1E1E1"/>
<path d="M21.25 18.15V30.3C21.25 31.1167 21.2 31.8167 21.1 32.4C21 32.9833 20.825 33.4667 20.575 33.85C20.325 34.2167 19.9833 34.4917 19.55 34.675C19.1167 34.8417 18.5667 34.925 17.9 34.925C17.0167 34.925 16.3417 34.7583 15.875 34.425C15.425 34.075 15.1 33.6583 14.9 33.175C14.7 32.6917 14.5833 32.1833 14.55 31.65C14.5167 31.1167 14.4917 30.6583 14.475 30.275H12.775C12.775 31.0583 12.8417 31.8167 12.975 32.55C13.1083 33.2833 13.3583 33.9333 13.725 34.5C14.0917 35.05 14.6 35.5 15.25 35.85C15.9 36.1833 16.7333 36.35 17.75 36.35C18.7167 36.35 19.525 36.2417 20.175 36.025C20.8417 35.8083 21.375 35.4833 21.775 35.05C22.1917 34.6167 22.4917 34.0667 22.675 33.4C22.8583 32.7333 22.95 31.9417 22.95 31.025V18.15H21.25ZM26.55 18.15V36H32.725C35.4417 35.9333 37.4833 35.175 38.85 33.725C40.2333 32.2583 40.925 30.0417 40.925 27.075C40.925 24.1083 40.2333 21.9 38.85 20.45C37.4833 18.9833 35.4417 18.2167 32.725 18.15H26.55ZM28.25 34.55V19.6H31.875C33.1583 19.6 34.2583 19.7417 35.175 20.025C36.1083 20.2917 36.875 20.725 37.475 21.325C38.075 21.925 38.5167 22.7 38.8 23.65C39.0833 24.6 39.225 25.7417 39.225 27.075C39.225 28.4083 39.0833 29.55 38.8 30.5C38.5167 31.45 38.075 32.225 37.475 32.825C36.875 33.425 36.1083 33.8667 35.175 34.15C34.2583 34.4167 33.1583 34.55 31.875 34.55H28.25Z" fill="#DADADA"/>
</svg>
