<svg width="21" height="21" viewBox="0 0 21 21" fill="none" xmlns="http://www.w3.org/2000/svg">
<path d="M16.0605 20.4999C15.7807 20.4997 15.5075 20.4159 15.2756 20.2594L10.5538 17.0946C10.5305 17.0786 10.5029 17.07 10.4746 17.07C10.4464 17.07 10.4188 17.0786 10.3955 17.0946L5.67366 20.2594C5.43655 20.4177 5.15689 20.5002 4.87181 20.4958C4.58674 20.4914 4.30974 20.4004 4.0776 20.2349C3.84546 20.0694 3.66916 19.8372 3.57211 19.5691C3.47507 19.301 3.46187 19.0097 3.53427 18.734L5.08501 13.2652C5.09234 13.2377 5.09145 13.2087 5.08245 13.1817C5.07345 13.1547 5.05674 13.1309 5.03438 13.1133L0.565703 9.60043C0.330457 9.42518 0.155957 9.1807 0.0666705 8.90127C-0.0226163 8.62184 -0.0222124 8.32147 0.0678257 8.04228C0.157864 7.7631 0.333021 7.51909 0.568737 7.34447C0.804453 7.16986 1.08891 7.07339 1.38222 7.0686L7.07882 6.85339C7.10683 6.85146 7.13369 6.84147 7.15615 6.82463C7.17861 6.80778 7.19572 6.7848 7.20541 6.75845L9.16758 1.42263C9.26648 1.15213 9.44612 0.918554 9.68217 0.753529C9.91822 0.588504 10.1993 0.5 10.4873 0.5C10.7753 0.5 11.0564 0.588504 11.2924 0.753529C11.5285 0.918554 11.7081 1.15213 11.807 1.42263L13.7692 6.75845C13.7789 6.7848 13.796 6.80778 13.8184 6.82463C13.8409 6.84147 13.8678 6.85146 13.8958 6.85339L19.5924 7.0686C19.8857 7.07339 20.1701 7.16986 20.4058 7.34447C20.6416 7.51909 20.8167 7.7631 20.9068 8.04228C20.9968 8.32147 20.9972 8.62184 20.9079 8.90127C20.8186 9.1807 20.6441 9.42518 20.4089 9.60043L15.9402 13.1133C15.9172 13.1304 15.8999 13.1541 15.8909 13.1813C15.8818 13.2085 15.8814 13.2378 15.8896 13.2652L17.4403 18.734C17.4948 18.9437 17.5002 19.1632 17.4561 19.3754C17.4121 19.5876 17.3197 19.7868 17.1863 19.9576C17.0529 20.1283 16.8819 20.2661 16.6867 20.3601C16.4914 20.4542 16.2772 20.502 16.0605 20.4999ZM10.4778 15.8034C10.7581 15.812 11.0293 15.9046 11.2563 16.0692L15.9782 19.234C16.0021 19.2522 16.0313 19.2622 16.0613 19.2624C16.0914 19.2626 16.1207 19.2531 16.1449 19.2353C16.1692 19.2175 16.187 19.1924 16.1957 19.1636C16.2044 19.1349 16.2036 19.104 16.1934 19.0758L14.6427 13.607C14.5663 13.3388 14.572 13.0538 14.6588 12.7888C14.7457 12.5237 14.9098 12.2907 15.13 12.1196L19.5987 8.60668C19.6231 8.58956 19.6413 8.56507 19.6508 8.53682C19.6602 8.50856 19.6603 8.47802 19.6511 8.44969C19.6419 8.42136 19.6238 8.39673 19.5996 8.37942C19.5754 8.3621 19.5462 8.35302 19.5164 8.3535L13.8198 8.1383C13.5409 8.12742 13.2715 8.03372 13.046 7.86913C12.8206 7.70455 12.6492 7.47653 12.5539 7.21418L10.5917 1.87836C10.5829 1.85003 10.5652 1.82526 10.5413 1.80768C10.5174 1.7901 10.4885 1.78061 10.4588 1.78061C10.4291 1.78061 10.4002 1.7901 10.3763 1.80768C10.3524 1.82526 10.3347 1.85003 10.3259 1.87836L8.38271 7.20785C8.28736 7.47021 8.11603 7.69822 7.89057 7.8628C7.66511 8.02739 7.39573 8.12109 7.1168 8.13197L1.42019 8.34717C1.39041 8.34669 1.36125 8.35577 1.33701 8.37309C1.31277 8.3904 1.29472 8.41503 1.28552 8.44336C1.27631 8.47169 1.27643 8.50223 1.28586 8.53049C1.29529 8.55874 1.31353 8.58323 1.33791 8.60035L5.81291 12.1196C6.03251 12.2912 6.1961 12.5243 6.28289 12.7892C6.36967 13.054 6.37573 13.3387 6.30029 13.607L4.75587 19.0758C4.74666 19.1032 4.74661 19.1328 4.75575 19.1602C4.76489 19.1876 4.78271 19.2113 4.80651 19.2277C4.82944 19.2473 4.85862 19.2581 4.88879 19.2581C4.91897 19.2581 4.94815 19.2473 4.97108 19.2277L9.69293 16.0629C9.9237 15.9098 10.1946 15.8284 10.4715 15.8287L10.4778 15.8034Z" fill="#005BC2"/>
</svg>
