<svg width="20" height="21" viewBox="0 0 20 21" fill="none" xmlns="http://www.w3.org/2000/svg">
<path d="M10.0559 6.61133C7.88921 6.61133 6.16699 8.33355 6.16699 10.5002C6.16699 12.6669 7.88921 14.3891 10.0559 14.3891C12.2225 14.3891 13.9448 12.6669 13.9448 10.5002C13.9448 8.33355 12.2225 6.61133 10.0559 6.61133ZM10.0559 13.278C8.50033 13.278 7.2781 12.0558 7.2781 10.5002C7.2781 8.94466 8.50033 7.72244 10.0559 7.72244C11.6114 7.72244 12.8337 8.94466 12.8337 10.5002C12.8337 12.0558 11.6114 13.278 10.0559 13.278Z" fill="#005BC2"/>
<path d="M18.2224 8.66688L16.6669 8.16688L16.3336 7.33355L17.1113 5.88911C17.278 5.55577 17.2224 5.11133 16.9447 4.83355L15.6113 3.50022C15.3336 3.22244 14.8891 3.16688 14.5558 3.33355L13.1113 4.11133L12.278 3.77799L11.778 2.22244C11.6669 1.88911 11.3336 1.61133 10.9447 1.61133H9.05577C8.66688 1.61133 8.33355 1.88911 8.278 2.27799L7.778 3.83355C7.44466 3.88911 7.16688 4.00022 6.88911 4.16688L5.44466 3.38911C5.11133 3.22244 4.66688 3.27799 4.38911 3.55577L3.05577 4.88911C2.77799 5.16688 2.72244 5.61133 2.88911 5.94466L3.61133 7.33355C3.50022 7.61133 3.38911 7.94466 3.27799 8.22244L1.72244 8.72244C1.38911 8.83355 1.11133 9.16688 1.11133 9.55577V11.4447C1.11133 11.8336 1.38911 12.1669 1.77799 12.278L3.33355 12.778L3.66688 13.6113L2.88911 15.0558C2.72244 15.3891 2.77799 15.8336 3.05577 16.1113L4.38911 17.4447C4.66688 17.7224 5.11133 17.778 5.44466 17.6113L6.88911 16.8336L7.72244 17.1669L8.22244 18.778C8.33355 19.1113 8.66688 19.3891 9.05577 19.3891H10.9447C11.3336 19.3891 11.6669 19.1113 11.778 18.778L12.278 17.1669L13.1113 16.8336L14.5558 17.6113C14.8891 17.778 15.3336 17.7224 15.6113 17.4447L16.9447 16.1113C17.2224 15.8336 17.278 15.3891 17.1113 15.0558L16.3336 13.6113L16.6669 12.778L18.278 12.278C18.6113 12.1669 18.8891 11.8336 18.8891 11.4447V9.55577C18.8891 9.16688 18.6113 8.778 18.2224 8.66688ZM17.778 11.278L15.778 11.8891L15.7224 12.1669L15.2224 13.3336L15.0558 13.6113L16.0558 15.4447L14.9447 16.5558L13.1113 15.5558L12.8336 15.7224C12.4447 15.9447 12.0558 16.1113 11.6669 16.2224L11.3891 16.278L10.778 18.278H9.22244L8.61133 16.278L8.33355 16.2224L7.16688 15.7224L6.88911 15.5558L5.05577 16.5558L3.94466 15.4447L4.94466 13.6113L4.778 13.3336C4.55577 12.9447 4.38911 12.5558 4.27799 12.1669L4.22244 11.8891L2.22244 11.278V9.72244L4.11133 9.16688L4.22244 8.88911C4.33355 8.44466 4.50022 8.05577 4.72244 7.66688L4.88911 7.38911L3.94466 5.55577L5.05577 4.44466L6.83355 5.44466L7.11133 5.278C7.50022 5.05577 7.88911 4.88911 8.33355 4.77799L8.61133 4.66688L9.22244 2.72244H10.778L11.3891 4.66688L11.6669 4.77799C12.0558 4.88911 12.4447 5.05577 12.8336 5.278L13.1113 5.44466L14.9447 4.44466L16.0558 5.55577L15.0558 7.38911L15.2224 7.66688C15.4447 8.05577 15.6113 8.44466 15.7224 8.83355L15.778 9.11133L17.778 9.72244V11.278Z" fill="#005BC2"/>
</svg>
