<svg width="12" height="13" viewBox="0 0 12 13" fill="none" xmlns="http://www.w3.org/2000/svg">
<path d="M6.00033 7.229C7.9472 7.229 11.8337 8.20609 11.8337 10.1457V12.3332H0.166992V10.1457C0.166992 8.20609 4.05345 7.229 6.00033 7.229ZM6.00033 0.666504C6.77387 0.666504 7.51574 0.973795 8.06272 1.52078C8.6097 2.06776 8.91699 2.80962 8.91699 3.58317C8.91699 4.35672 8.6097 5.09858 8.06272 5.64557C7.51574 6.19255 6.77387 6.49984 6.00033 6.49984C5.22678 6.49984 4.48491 6.19255 3.93793 5.64557C3.39095 5.09858 3.08366 4.35672 3.08366 3.58317C3.08366 2.80962 3.39095 2.06776 3.93793 1.52078C4.48491 0.973795 5.22678 0.666504 6.00033 0.666504ZM6.00033 8.61442C3.8347 8.61442 1.55241 9.679 1.55241 10.1457V10.9478H10.4482V10.1457C10.4482 9.679 8.16595 8.61442 6.00033 8.61442ZM6.00033 2.05192C5.59421 2.05192 5.20473 2.21325 4.91757 2.50041C4.6304 2.78758 4.46908 3.17706 4.46908 3.58317C4.46908 3.98928 4.6304 4.37876 4.91757 4.66593C5.20473 4.95309 5.59421 5.11442 6.00033 5.11442C6.40644 5.11442 6.79592 4.95309 7.08308 4.66593C7.37025 4.37876 7.53158 3.98928 7.53158 3.58317C7.53158 3.17706 7.37025 2.78758 7.08308 2.50041C6.79592 2.21325 6.40644 2.05192 6.00033 2.05192Z" fill="#005BC2"/>
</svg>
