<svg width="20" height="21" viewBox="0 0 20 21" fill="none" xmlns="http://www.w3.org/2000/svg">
<path d="M10.0408 0.775938C4.58078 0.775938 0.130781 5.22594 0.130781 10.6859C0.130781 12.4359 0.590781 14.1359 1.45078 15.6359L0.0507812 20.7759L5.30078 19.3959C6.75078 20.1859 8.38078 20.6059 10.0408 20.6059C15.5008 20.6059 19.9508 16.1559 19.9508 10.6959C19.9508 8.04594 18.9208 5.55594 17.0508 3.68594C16.134 2.75986 15.042 2.02561 13.8384 1.52599C12.6349 1.02637 11.3439 0.771399 10.0408 0.775938ZM10.0508 2.44594C12.2508 2.44594 14.3108 3.30594 15.8708 4.86594C16.6364 5.63129 17.2434 6.54026 17.6569 7.5407C18.0705 8.54114 18.2825 9.61339 18.2808 10.6959C18.2808 15.2359 14.5808 18.9259 10.0408 18.9259C8.56078 18.9259 7.11078 18.5359 5.85078 17.7759L5.55078 17.6059L2.43078 18.4259L3.26078 15.3859L3.06078 15.0659C2.23472 13.7546 1.79779 12.2358 1.80078 10.6859C1.81078 6.14594 5.50078 2.44594 10.0508 2.44594ZM6.53078 6.10594C6.37078 6.10594 6.10078 6.16594 5.87078 6.41594C5.65078 6.66594 5.00078 7.27594 5.00078 8.48594C5.00078 9.70594 5.89078 10.8759 6.00078 11.0459C6.14078 11.2159 7.76078 13.7159 10.2508 14.7759C10.8408 15.0459 11.3008 15.1959 11.6608 15.3059C12.2508 15.4959 12.7908 15.4659 13.2208 15.4059C13.7008 15.3359 14.6808 14.8059 14.8908 14.2259C15.1008 13.6459 15.1008 13.1559 15.0408 13.0459C14.9708 12.9459 14.8108 12.8859 14.5608 12.7759C14.3108 12.6359 13.0908 12.0359 12.8708 11.9559C12.6408 11.8759 12.5008 11.8359 12.3108 12.0759C12.1508 12.3259 11.6708 12.8859 11.5308 13.0459C11.3808 13.2159 11.2408 13.2359 11.0008 13.1159C10.7408 12.9859 9.94078 12.7259 9.00078 11.8859C8.26078 11.2259 7.77078 10.4159 7.62078 10.1659C7.50078 9.92594 7.61078 9.77594 7.73078 9.66594C7.84078 9.55594 8.00078 9.37594 8.10078 9.22594C8.23078 9.08594 8.27078 8.97594 8.35078 8.81594C8.43078 8.64594 8.39078 8.50594 8.33078 8.38594C8.27078 8.27594 7.77078 7.03594 7.56078 6.54594C7.36078 6.06594 7.16078 6.12594 7.00078 6.11594C6.86078 6.11594 6.70078 6.10594 6.53078 6.10594Z" fill="#33A532"/>
</svg>
