<svg width="20" height="13" viewBox="0 0 20 13" fill="none" xmlns="http://www.w3.org/2000/svg">
<path d="M13.3333 5.6665C14.7166 5.6665 15.8249 4.54984 15.8249 3.1665C15.8249 1.78317 14.7166 0.666504 13.3333 0.666504C11.9499 0.666504 10.8333 1.78317 10.8333 3.1665C10.8333 4.54984 11.9499 5.6665 13.3333 5.6665ZM6.66658 5.6665C8.04992 5.6665 9.15825 4.54984 9.15825 3.1665C9.15825 1.78317 8.04992 0.666504 6.66658 0.666504C5.28325 0.666504 4.16658 1.78317 4.16658 3.1665C4.16658 4.54984 5.28325 5.6665 6.66658 5.6665ZM6.66658 7.33317C4.72492 7.33317 0.833252 8.30817 0.833252 10.2498V12.3332H12.4999V10.2498C12.4999 8.30817 8.60825 7.33317 6.66658 7.33317ZM13.3333 7.33317C13.0916 7.33317 12.8166 7.34984 12.5249 7.37484C13.4916 8.07484 14.1666 9.01651 14.1666 10.2498V12.3332H19.1666V10.2498C19.1666 8.30817 15.2749 7.33317 13.3333 7.33317Z" fill="#005BC2"/>
</svg>
