<svg width="20" height="17" viewBox="0 0 20 17" fill="none" xmlns="http://www.w3.org/2000/svg">
<path d="M18.35 9L19.75 10.41L13.22 17L9.75 13.5L11.15 12.09L13.22 14.17L18.35 9ZM8.25 0.5C9.31087 0.5 10.3283 0.921427 11.0784 1.67157C11.8286 2.42172 12.25 3.43913 12.25 4.5C12.25 5.56087 11.8286 6.57828 11.0784 7.32843C10.3283 8.07857 9.31087 8.5 8.25 8.5C7.18913 8.5 6.17172 8.07857 5.42157 7.32843C4.67143 6.57828 4.25 5.56087 4.25 4.5C4.25 3.43913 4.67143 2.42172 5.42157 1.67157C6.17172 0.921427 7.18913 0.5 8.25 0.5ZM8.25 2.5C7.71957 2.5 7.21086 2.71071 6.83579 3.08579C6.46071 3.46086 6.25 3.96957 6.25 4.5C6.25 5.03043 6.46071 5.53914 6.83579 5.91421C7.21086 6.28929 7.71957 6.5 8.25 6.5C8.78043 6.5 9.28914 6.28929 9.66421 5.91421C10.0393 5.53914 10.25 5.03043 10.25 4.5C10.25 3.96957 10.0393 3.46086 9.66421 3.08579C9.28914 2.71071 8.78043 2.5 8.25 2.5ZM8.25 9.5C8.93 9.5 9.75 9.59 10.66 9.76L8.99 11.43L8.25 11.4C5.28 11.4 2.15 12.86 2.15 13.5V14.6H8.35L10.25 16.5H0.25V13.5C0.25 10.84 5.58 9.5 8.25 9.5Z" fill="#33A532"/>
</svg>
