<svg width="23" height="23" viewBox="0 0 23 23" fill="none" xmlns="http://www.w3.org/2000/svg">
<path d="M11.4987 1.08203C5.74557 1.08203 1.08203 5.74557 1.08203 11.4987C1.08203 17.2518 5.74557 21.9154 11.4987 21.9154C17.2518 21.9154 21.9154 17.2518 21.9154 11.4987C21.9154 5.74557 17.2518 1.08203 11.4987 1.08203Z" stroke="#BEBEBE" stroke-width="1.5" stroke-linecap="round" stroke-linejoin="round"/>
<path d="M3.44922 18.1091C3.44922 18.1091 5.77109 15.1445 11.5003 15.1445C17.2294 15.1445 19.5523 18.1091 19.5523 18.1091" stroke="#BEBEBE" stroke-width="1.5" stroke-linecap="round" stroke-linejoin="round"/>
<path d="M11.5 11.5C12.3288 11.5 13.1237 11.1708 13.7097 10.5847C14.2958 9.99866 14.625 9.2038 14.625 8.375C14.625 7.5462 14.2958 6.75134 13.7097 6.16529C13.1237 5.57924 12.3288 5.25 11.5 5.25C10.6712 5.25 9.87634 5.57924 9.29029 6.16529C8.70424 6.75134 8.375 7.5462 8.375 8.375C8.375 9.2038 8.70424 9.99866 9.29029 10.5847C9.87634 11.1708 10.6712 11.5 11.5 11.5V11.5Z" stroke="#BEBEBE" stroke-width="1.5" stroke-linecap="round" stroke-linejoin="round"/>
</svg>
