<svg width="22" height="22" viewBox="0 0 22 22" fill="none" xmlns="http://www.w3.org/2000/svg">
<path d="M20.8438 19.8203L16.1172 15.0938C16 15.0156 15.8828 14.9375 15.7656 14.9375H15.2578C16.4688 13.5312 17.25 11.6562 17.25 9.625C17.25 5.17188 13.5781 1.5 9.125 1.5C4.63281 1.5 1 5.17188 1 9.625C1 14.1172 4.63281 17.75 9.125 17.75C11.1562 17.75 12.9922 17.0078 14.4375 15.7969V16.3047C14.4375 16.4219 14.4766 16.5391 14.5547 16.6562L19.2812 21.3828C19.4766 21.5781 19.7891 21.5781 19.9453 21.3828L20.8438 20.4844C21.0391 20.3281 21.0391 20.0156 20.8438 19.8203ZM9.125 15.875C5.64844 15.875 2.875 13.1016 2.875 9.625C2.875 6.1875 5.64844 3.375 9.125 3.375C12.5625 3.375 15.375 6.1875 15.375 9.625C15.375 13.1016 12.5625 15.875 9.125 15.875Z" fill="#BEBEBE"/>
</svg>
