<svg width="314" height="67" viewBox="0 0 314 67" fill="none" xmlns="http://www.w3.org/2000/svg">
<path d="M149.532 43.7017C147.907 44.7899 146.132 45.6408 144.208 46.2544C142.284 46.868 140.576 47.1731 139.083 47.1697C136.021 47.1626 133.101 46.6099 130.322 45.5115C126.517 43.9781 123.461 41.7151 121.152 38.7224C118.21 34.9041 116.744 30.0694 116.756 24.2183C116.764 19.9948 117.751 16.1547 119.717 12.698C121.684 9.22076 124.395 6.47659 127.852 4.46553C131.328 2.45452 135.054 1.45361 139.029 1.4628C143.024 1.47203 146.596 2.45891 149.747 4.42343C152.898 6.38796 155.422 9.08243 157.319 12.5068C159.217 15.9312 160.161 19.6419 160.154 23.6388C160.146 27.615 159.197 31.4037 157.304 35.0048C155.412 38.5852 152.822 41.4842 149.532 43.7017ZM122.637 23.243C122.631 26.663 123.305 30.064 124.662 33.4459C126.036 36.8073 128 39.552 130.554 41.68C133.107 43.8079 136.063 44.8758 139.423 44.8836C144.201 44.8946 147.929 42.8842 150.606 38.8523C153.02 35.2112 154.233 30.5578 154.244 24.8922C154.255 19.2265 152.789 14.3403 149.848 10.2336C148.415 8.23182 146.654 6.63106 144.565 5.43128C142.496 4.21095 140.397 3.59832 138.269 3.5934C136.16 3.58853 134.424 3.84204 133.06 4.35395C131.715 4.86591 130.491 5.57387 129.388 6.47783C128.285 7.36119 127.313 8.41997 126.471 9.65418C125.628 10.8884 124.926 12.2259 124.363 13.6668C123.219 16.6309 122.644 19.823 122.637 23.243Z" fill="#778D6F"/>
<path d="M182.215 24.2769C181.991 24.2352 181.665 24.1005 181.236 23.8729C179.688 23.0864 178.476 22.6922 177.599 22.6902C176.721 22.6881 175.796 23.2938 174.823 24.5071C173.869 25.6998 173.391 26.7803 173.389 27.7487L173.363 41.7171C173.36 43.2623 174.17 44.2943 175.793 44.8131C176.502 45.0208 177.164 45.1768 177.78 45.2813C178.395 45.3651 178.787 45.4484 178.955 45.5312C179.142 45.6141 179.235 45.7791 179.234 46.0263C179.234 46.2529 179.14 46.3866 178.953 46.4274L164.926 46.395C164.74 46.3534 164.647 46.2089 164.647 45.9617C164.648 45.5909 165.087 45.3446 165.965 45.223C167.981 44.8981 168.991 43.7261 168.995 41.707L169.026 25.359C169.028 24.4937 168.599 23.8952 167.742 23.5636C167.368 23.4185 166.967 23.3043 166.538 23.2209C166.109 23.1169 165.764 23.0233 165.503 22.9403C165.26 22.8574 165.102 22.7849 165.027 22.7229C164.971 22.6404 164.944 22.4858 164.944 22.2592C164.945 22.0119 165.085 21.8062 165.365 21.6421L172.512 17.9501C172.736 17.827 172.876 17.7655 172.932 17.7657C173.249 17.7664 173.408 18.014 173.407 18.5085L173.397 23.5149C173.397 23.7621 173.453 23.8858 173.565 23.8861C173.714 23.8864 174.097 23.4032 174.715 22.4363C176.494 19.7002 177.961 18.3336 179.119 18.3362C179.772 18.3378 180.77 18.6285 182.113 19.2085C183.474 19.7885 184.155 20.2742 184.154 20.6657C184.153 21.1395 183.937 21.8601 183.506 22.8274C183.075 23.7948 182.645 24.2779 182.215 24.2769Z" fill="#778D6F"/>
<path d="M207.112 20.8115C207.112 20.8115 209.614 20.6936 214.616 20.458C215.046 20.4589 215.326 20.5111 215.456 20.6144C215.586 20.7177 215.726 21.0786 215.874 21.697C216.022 22.2948 216.096 22.8616 216.095 23.3972C216.094 23.9329 216.046 24.2418 215.953 24.324C215.859 24.4062 215.673 24.447 215.393 24.4463L209.177 24.432C209.289 24.6589 209.41 24.8961 209.54 25.1436C209.67 25.3911 209.837 25.8036 210.041 26.3809C210.246 26.9583 210.347 27.8547 210.344 29.0702C210.342 30.2652 210.069 31.5213 209.525 32.8386C209 34.1354 208.223 35.2873 207.195 36.2945C204.913 38.5555 201.962 39.6818 198.341 39.6734C197.389 39.6712 196.344 39.4731 195.206 39.079C194.926 39.408 194.552 39.7161 194.085 40.0035C193.617 40.2703 193.16 40.5473 192.711 40.8347C191.59 41.5326 191.029 42.2318 191.027 42.9323C191.024 44.6835 193.654 45.5858 198.918 45.6392C204.181 45.6925 207.634 45.8963 209.276 46.2503C210.936 46.5838 212.223 47.2563 213.136 48.268C214.57 49.8577 215.285 51.6723 215.281 53.712C215.278 55.4632 214.593 57.2643 213.227 59.1154C210.85 62.3857 207.225 64.5612 202.351 65.6419C200.615 66.0293 198.776 66.2208 196.835 66.2163C193.307 66.2081 190.63 65.4912 188.803 64.0654C186.977 62.6602 186.065 60.9584 186.069 58.9599C186.071 57.868 186.306 56.962 186.774 56.242C187.242 55.5426 187.831 54.8744 188.542 54.2373C189.271 53.621 190.066 52.9635 190.926 52.265C191.785 51.5871 192.608 50.7134 193.394 49.6439C191.603 49.4749 190.064 48.843 188.778 47.7481C187.511 46.6532 186.878 45.5804 186.88 44.5297C186.882 43.479 187.136 42.707 187.641 42.2137C188.146 41.6998 188.763 41.2686 189.491 40.92C190.22 40.5508 190.986 40.2127 191.789 39.9055C192.592 39.5983 193.293 39.1982 193.891 38.7051C191.802 37.7938 190.19 36.5436 189.055 34.9546C187.919 33.3449 187.353 31.5924 187.357 29.697C187.363 26.174 188.526 23.3026 190.845 21.0829C193.182 18.8632 195.993 17.7572 199.278 17.7648C202.564 17.7724 205.175 18.7879 207.112 20.8115ZM191.82 53.0088C191.39 53.4816 191.034 53.9856 190.753 54.5206C190.472 55.0556 190.331 55.7249 190.329 56.5284C190.328 57.3525 190.588 58.2081 191.109 59.0952C191.648 60.0029 192.375 60.8184 193.288 61.5416C195.301 63.1945 197.725 64.0242 200.563 64.0307C203.4 64.0373 205.968 63.1264 208.267 61.2981C210.585 59.4904 211.746 57.4947 211.75 55.3108C211.755 53.1476 210.805 51.6929 208.903 50.9468C208.008 50.6151 205.703 50.4037 201.989 50.3127C198.274 50.2217 195.867 50.1029 194.766 49.9561C194.279 50.5731 193.774 51.1179 193.251 51.5905C192.746 52.0632 192.269 52.5359 191.82 53.0088ZM205.753 29.0287C205.758 26.1238 205.1 23.7633 203.778 21.9472C202.475 20.1105 200.741 19.1897 198.576 19.1847C195.776 19.1782 193.795 20.6261 192.632 23.5284C192.182 24.6399 191.955 25.9167 191.953 27.3589C191.947 30.3051 192.493 32.758 193.591 34.7178C194.93 37.0696 196.692 38.248 198.876 38.2531C201.059 38.2581 202.75 37.4482 203.948 35.8234C205.146 34.1986 205.747 31.9337 205.753 29.0287Z" fill="#778D6F"/>
<path d="M235.547 41.4591C235.546 41.9948 235.769 42.428 236.217 42.7586C236.683 43.0687 237.214 43.2245 237.812 43.2259C238.409 43.2273 238.904 43.0636 239.297 42.7348C239.708 42.3856 239.988 42.2111 240.137 42.2114C240.287 42.2118 240.361 42.4386 240.36 42.8918C240.359 43.3245 240.172 43.6949 239.798 44.0031C236.994 46.2629 235.097 47.3916 234.108 47.3893C232.913 47.3866 231.945 46.0143 231.204 43.2724C231.148 43.0663 231.102 42.9734 231.065 42.994C228.746 44.9046 227.288 46.055 226.69 46.4451C225.158 47.4098 223.618 47.5608 222.07 46.8979C220.54 46.2351 219.432 45.1406 218.744 43.6145C218.41 42.8308 218.243 41.996 218.245 41.1101C218.248 39.3589 218.839 37.9696 220.017 36.9422C221.195 35.9148 223.436 34.931 226.742 33.991C227.862 33.6639 228.862 33.2439 229.74 32.7308C230.618 32.2178 231.076 31.8892 231.114 31.7451C231.17 31.601 231.198 31.4671 231.199 31.3435L231.21 25.41C231.214 23.0819 230.396 21.4422 228.755 20.4906C228.215 20.1804 227.562 20.0243 226.796 20.0226C226.05 20.0208 225.284 20.3487 224.499 21.0062C223.732 21.6637 223.348 22.6002 223.345 23.8157L223.483 25.0213C223.371 25.2683 222.698 25.6788 221.465 26.2528C220.232 26.8268 219.522 27.1342 219.335 27.175C219.037 27.1743 218.888 26.7825 218.89 25.9996C218.891 25.1961 219.107 24.3107 219.539 23.3434C219.97 22.3761 220.578 21.4916 221.363 20.6899C223.196 18.8193 225.289 17.8867 227.64 17.8921C229.992 17.8976 231.904 18.6231 233.376 20.0687C234.848 21.4936 235.582 23.1951 235.578 25.1729L235.547 41.4591ZM222.642 40.5331C222.64 41.522 222.984 42.3881 223.673 43.1314C224.362 43.8541 225.145 44.2164 226.023 44.2184C226.918 44.2205 228.002 43.811 229.273 42.9898C230.544 42.148 231.18 41.2842 231.181 40.3983L231.193 34.1249C231.194 33.8982 231.147 33.7848 231.054 33.7846C230.961 33.7844 230.895 33.7945 230.858 33.815L224.356 37.1376C223.683 37.6717 223.225 38.1239 222.982 38.4942C222.757 38.8645 222.644 39.5442 222.642 40.5331Z" fill="#778D6F"/>
<path d="M263.61 36.8884L263.566 30.3676C263.571 27.7099 263.37 25.8449 262.961 24.7726C262.552 23.7004 262.031 22.8957 261.398 22.3585C260.764 21.8008 259.906 21.5207 258.824 21.5182C257.76 21.5157 255.49 22.4376 252.015 24.2838C251.547 24.5917 251.304 24.8796 251.285 25.1474L251.254 41.7736C251.25 43.8544 252.255 45.0517 254.271 45.3654C255.148 45.5116 255.586 45.7496 255.585 46.0792C255.585 46.3882 255.491 46.5632 255.304 46.6039L242.817 46.5751C242.63 46.5334 242.537 46.389 242.538 46.1418C242.539 45.7503 242.978 45.4835 243.855 45.3413C245.872 45.0369 246.882 43.8443 246.886 41.7635L246.92 24.0248C246.921 23.1595 246.493 22.561 245.635 22.2294C245.262 22.0843 244.861 21.9701 244.432 21.8866C244.003 21.7826 243.658 21.6891 243.396 21.6061C243.154 21.5231 242.995 21.4507 242.921 21.3887C242.865 21.3062 242.837 21.1516 242.838 20.9249C242.838 20.6777 242.979 20.472 243.259 20.3078L250.405 16.6159C250.63 16.4928 250.77 16.4313 250.826 16.4315C251.143 16.4322 251.301 16.6798 251.3 17.1742L251.291 21.9952C251.347 22.2014 251.421 22.3046 251.514 22.3048C251.626 22.305 252.028 22.1205 252.719 21.7513C254.326 20.8691 255.943 20.0178 257.568 19.1975C259.193 18.3771 260.538 17.9682 261.602 17.9707C265.914 17.9806 268.061 22.3224 268.045 30.9961L267.776 40.0193L267.772 41.8118C267.769 43.4187 268.495 44.4712 269.95 44.969C270.566 45.197 271.153 45.3632 271.713 45.4675C272.292 45.5513 272.665 45.6345 272.833 45.7173C273.019 45.8002 273.112 45.9652 273.112 46.2124C273.111 46.4597 273.018 46.6037 272.831 46.6444L259.336 46.6132C259.149 46.5716 259.056 46.4272 259.057 46.1799C259.057 45.7885 259.497 45.5217 260.374 45.3795C262.372 45.0751 263.373 43.8 263.377 41.5544C263.528 40.5246 263.606 38.9693 263.61 36.8884Z" fill="#778D6F"/>
<path d="M275.631 46.6509C275.444 46.6093 275.351 46.4648 275.352 46.2176C275.352 45.8468 275.791 45.6006 276.669 45.479C278.685 45.154 279.696 43.982 279.699 41.9629L279.73 25.6149C279.732 24.7496 279.304 24.1511 278.446 23.8195C278.073 23.6744 277.672 23.5602 277.243 23.4768C276.814 23.3728 276.468 23.2793 276.207 23.1963C275.965 23.1133 275.806 23.0408 275.732 22.9788C275.676 22.8963 275.648 22.7417 275.649 22.5151C275.649 22.2679 275.789 22.0622 276.07 21.898L283.216 18.206C283.44 18.0829 283.581 18.0215 283.637 18.0216C283.954 18.0223 284.112 18.2699 284.111 18.7644L284.067 41.973C284.063 43.9921 285.069 45.1687 287.084 45.503C287.961 45.6287 288.399 45.846 288.399 46.1551C288.398 46.4641 288.305 46.639 288.118 46.6798L275.631 46.6509ZM281.525 9.33274C280.76 9.33097 280.079 9.06156 279.483 8.52452C278.905 7.98752 278.617 7.24516 278.619 6.29745C278.621 5.32913 278.902 4.56749 279.463 4.01252C280.024 3.45755 280.688 3.18095 281.453 3.18272C282.237 3.18453 282.889 3.51568 283.411 4.17616C283.951 4.83669 284.22 5.5481 284.219 6.31039C284.217 7.07268 283.964 7.77259 283.459 8.4101C282.954 9.02701 282.309 9.33455 281.525 9.33274Z" fill="#778D6F"/>
<path d="M313.783 21.7997C313.781 23.2419 313.023 23.9613 311.511 23.9578C310.746 23.956 310.093 23.7175 309.553 23.2424C309.031 22.7468 308.621 22.3338 308.323 22.0034C308.044 21.6526 307.746 21.3325 307.429 21.0434C306.088 19.8247 304.445 19.687 302.502 20.6302C300.578 21.5735 299.09 23.5891 298.039 26.677C297.457 28.3857 297.165 30.0847 297.162 31.7741C297.155 35.4002 297.896 38.3687 299.385 40.6796C300.873 42.9699 303.158 44.1186 306.238 44.1257C308.533 44.1311 310.598 43.0027 312.432 40.7407C312.993 40.0621 313.329 39.7229 313.441 39.7232C313.553 39.7234 313.675 39.7855 313.805 39.9094C313.935 40.0333 314 40.2189 314 40.4661C314 40.6928 313.943 40.8678 313.831 40.9911C310.967 45.3728 307.37 47.5587 303.039 47.5487C299.903 47.5414 297.33 46.2478 295.319 43.6679C293.327 41.0879 292.334 38.1395 292.34 34.8225C292.37 28.683 293.723 24.2669 296.397 21.5741C298.753 19.2103 302.106 18.0334 306.455 18.0434C309.143 18.0497 310.925 18.3525 311.801 18.952C312.677 19.5515 313.292 20.3049 313.645 21.2122C313.737 21.4185 313.784 21.6143 313.783 21.7997Z" fill="#778D6F"/>
<path fill-rule="evenodd" clip-rule="evenodd" d="M151.558 37.2788C151.729 37.3604 150.176 39.715 150.005 39.9159C149.351 40.6669 148.56 41.2555 147.684 41.6426C145.64 42.4478 143.42 42.5334 141.33 41.8875C138.748 41.1591 139.544 38.2646 139.055 36.0733C138.953 35.6903 138.76 35.3445 138.496 35.0718C138.232 34.799 137.906 34.6093 137.553 34.5224C136.592 34.2901 135.027 35.3952 135.983 37.5425C133.964 36.3998 133.002 38.1704 133.139 39.2378C133.258 40.2236 133.901 40.7322 134.697 41.1654C139.339 43.7084 146.348 45.8934 150.716 41.4982C151.684 40.4989 152.449 39.2858 152.963 37.9381L151.558 37.2788Z" fill="#778D6F"/>
<path fill-rule="evenodd" clip-rule="evenodd" d="M142.417 42.1261C142.417 42.1261 149.203 42.9612 152.992 34.5287L155.085 36.4751C155.085 36.4751 152.724 41.021 152.099 40.8703C151.473 40.7196 147.127 44.0098 147.127 44.0098L143.714 43.3819L142.417 42.1261Z" fill="#778D6F"/>
<path d="M0.223516 43.5733C0.0741934 43.573 -0.000311761 43.4904 9.80456e-07 43.3256L0.00140832 42.5839C0.00172106 42.4191 0.076539 42.3368 0.225862 42.3372L0.897816 42.3387C2.50304 42.3425 3.90365 41.9748 5.09964 41.2359C5.58552 40.928 5.98773 40.4551 6.30625 39.8171C6.62481 39.1586 6.78486 38.4276 6.78638 37.6241L6.84842 4.92799C6.85085 3.65064 6.10609 2.6703 4.61415 1.98696C3.56982 1.49009 2.4597 1.24029 1.28378 1.23757L0.667827 1.23615C0.518504 1.2358 0.443999 1.15322 0.444311 0.988401L0.445719 0.246713C0.446032 0.0818931 0.520849 -0.000344116 0.670172 1.08221e-06L19.6249 0.0438196C19.7742 0.0441648 19.8487 0.126747 19.8484 0.291567L19.847 1.03325C19.8467 1.19807 19.7718 1.28031 19.6225 1.27997L18.4186 1.27718C16.4961 1.27274 14.797 1.56755 13.3213 2.16161C12.8916 2.32544 12.6111 2.60292 12.4797 2.99407C12.367 3.36465 12.3098 4.0135 12.308 4.94061L12.243 39.2128C12.2797 39.5631 12.447 39.8931 12.7451 40.2029C13.0432 40.5126 13.3788 40.6679 13.7522 40.6688L24.8114 40.6943C26.4726 40.6982 28.1079 39.6203 29.7172 37.4608C30.1476 36.8849 30.681 36.1238 31.3174 35.1776C31.9539 34.2107 32.3469 33.6657 32.4965 33.5424C33.0947 33.0493 33.3933 33.0603 33.3923 33.5754C33.3921 33.699 33.3639 33.8225 33.3076 33.946L29.0626 43.0837C28.8939 43.4542 28.6976 43.6392 28.4736 43.6386L0.223516 43.5733Z" fill="#778D6F"/>
<path d="M35.5571 43.655C35.3705 43.6134 35.2775 43.4689 35.2779 43.2217C35.2786 42.8509 35.7177 42.6047 36.5952 42.4831C38.6117 42.1581 39.6219 40.9861 39.6257 38.967L39.6567 22.619C39.6584 21.7537 39.2302 21.1552 38.3722 20.8236C37.9992 20.6785 37.5981 20.5643 37.1689 20.4809C36.7398 20.3769 36.3947 20.2834 36.1335 20.2004C35.8911 20.1174 35.7325 20.0449 35.658 19.9829C35.6021 19.9004 35.5744 19.7458 35.5749 19.5192C35.5753 19.272 35.7157 19.0663 35.996 18.9021L43.1426 15.2101C43.3668 15.0871 43.5069 15.0256 43.5629 15.0257C43.8802 15.0264 44.0384 15.274 44.0374 15.7685L43.9934 38.9771C43.9896 40.9962 44.9953 42.1729 47.0105 42.5072C47.8876 42.6328 48.3258 42.8501 48.3252 43.1592C48.3246 43.4682 48.2309 43.6431 48.0442 43.6839L35.5571 43.655ZM41.4515 6.33685C40.6862 6.33508 40.0055 6.06567 39.4092 5.52863C38.8316 4.99162 38.5437 4.24927 38.5455 3.30156C38.5473 2.33324 38.8287 1.5716 39.3897 1.01663C39.9508 0.461654 40.6139 0.185053 41.3792 0.186822C42.1631 0.188634 42.8158 0.519783 43.3372 1.18027C43.8772 1.8408 44.1465 2.55221 44.1451 3.3145C44.1436 4.07679 43.8903 4.77669 43.3851 5.4142C42.88 6.03111 42.2355 6.33866 41.4515 6.33685Z" fill="#778D6F"/>
<path d="M78.1949 15.9402C78.4001 16.0024 78.5025 16.1469 78.5021 16.3735C78.5016 16.6002 78.4733 16.7649 78.4171 16.8678C78.3609 16.9707 77.9501 17.083 77.1846 17.2049C76.4191 17.3267 75.868 17.5727 75.5313 17.9428C75.2133 18.2923 74.9232 18.6933 74.6611 19.146C74.4175 19.5987 74.202 20.072 74.0144 20.5661C73.8269 21.0395 73.6487 21.4717 73.48 21.8628L65.7951 43.6631C65.57 44.2601 65.3641 44.5583 65.1775 44.5579L62.9656 44.5528C62.7789 44.5524 62.5742 44.2325 62.3515 43.5933L54.974 21.4183C54.2873 19.3358 53.1046 17.9939 51.4259 17.3926C51.2953 17.3511 51.1367 17.3198 50.9501 17.2988C50.1663 17.2145 49.7748 16.9561 49.7756 16.5234C49.7765 16.0908 50.0009 15.875 50.4488 15.876L62.908 15.9048C63.0573 15.9052 63.1316 16.0702 63.131 16.3998C63.1304 16.7088 63.0274 16.9146 62.8219 17.0172C62.4856 17.1606 61.8882 17.221 61.0296 17.1984C59.6298 17.154 58.9287 17.7705 58.9263 19.0478L59.0928 19.7899L64.7439 36.9546C65.1152 38.0061 65.4886 37.9761 65.864 36.8644C65.9015 36.7615 66.1455 36.0925 66.5958 34.8574C69.1291 27.7554 70.5461 23.6484 70.8469 22.5366C71.1663 21.4248 71.3265 20.5908 71.3276 20.0345C71.3286 19.4782 71.0591 18.9007 70.5189 18.302C69.9788 17.6827 69.2514 17.372 68.3368 17.3699C67.4222 17.3677 66.9655 17.0576 66.9667 16.4396C66.9674 16.0893 67.173 15.9147 67.5836 15.9156L78.1949 15.9402Z" fill="#778D6F"/>
<path d="M85.2285 27.4835C84.9112 27.4828 84.7512 28.2344 84.7483 29.7384C84.7422 32.9318 85.5958 35.6121 87.3089 37.7793C89.022 39.9465 91.1478 41.0331 93.6863 41.039C96.2434 41.0449 98.7002 39.835 101.057 37.4094C101.094 37.3682 101.141 37.3477 101.197 37.3479L101.337 37.3482C101.449 37.3484 101.551 37.4517 101.644 37.6579C101.756 37.8436 101.858 37.9675 101.951 38.0295C99.7808 40.9294 97.2291 42.9323 94.2966 44.038C93.2879 44.4272 92.1489 44.6203 90.8797 44.6173C89.6104 44.6144 88.3232 44.2303 87.0181 43.4649C85.713 42.679 84.595 41.6566 83.6641 40.3977C81.6906 37.7766 80.7075 34.5192 80.7149 30.6253C80.7223 26.7108 81.8023 23.1491 83.9549 19.9401C86.1262 16.7311 89.0971 15.131 92.8675 15.1397C95.574 15.1459 97.7833 16.4902 99.4954 19.1725C101.208 21.8342 102.062 24.1745 102.058 26.1936C102.056 27.0795 101.859 27.522 101.467 27.5211L85.2285 27.4835ZM85.5422 24.5175C85.5414 24.9089 85.709 25.1051 86.045 25.1058L96.6003 25.1302C97.0856 25.1314 97.3288 24.8126 97.33 24.1739C97.3329 22.6905 96.7291 21.1748 95.5188 19.6269C94.3272 18.0583 93.0128 17.2724 91.5755 17.2691C90.1756 17.2658 88.8957 17.9633 87.7358 19.3616C86.5946 20.76 85.8636 22.355 85.5429 24.1467L85.5422 24.5175Z" fill="#778D6F"/>
</svg>
