<svg width="15" height="18" viewBox="0 0 15 18" fill="none" xmlns="http://www.w3.org/2000/svg">
<path d="M7.00011 10.6654C6.11364 10.6654 5.24709 10.3808 4.51002 9.84751C3.77295 9.31426 3.19848 8.55633 2.85924 7.66957C2.52001 6.78281 2.43125 5.80704 2.60419 4.86566C2.77713 3.92428 3.204 3.05957 3.83083 2.38087C4.45765 1.70217 5.25628 1.23998 6.12571 1.05272C6.99514 0.865471 7.89632 0.961575 8.71531 1.32888C9.5343 1.69619 10.2343 2.31821 10.7268 3.11627C11.2193 3.91433 11.4821 4.8526 11.4821 5.81243C11.4806 7.09899 11.0079 8.33237 10.1677 9.2421C9.32745 10.1518 8.18834 10.6637 7.00011 10.6654ZM7.00011 2.52194C6.39905 2.52194 5.81149 2.71492 5.31173 3.07648C4.81197 3.43805 4.42245 3.95195 4.19244 4.55321C3.96243 5.15447 3.90224 5.81608 4.0195 6.45437C4.13676 7.09266 4.4262 7.67897 4.85121 8.13915C5.27622 8.59934 5.81772 8.91273 6.40723 9.03969C6.99674 9.16666 7.60778 9.10149 8.16308 8.85244C8.71839 8.60339 9.19301 8.18164 9.52694 7.64052C9.86087 7.09941 10.0391 6.46322 10.0391 5.81243C10.0379 4.94013 9.71737 4.10392 9.1477 3.48711C8.57804 2.8703 7.80574 2.52321 7.00011 2.52194Z" fill="#282C3F"/>
<path d="M0.721608 17.8975C0.602054 17.8978 0.484318 17.8658 0.379023 17.8045C0.273728 17.7432 0.184188 17.6545 0.118485 17.5463C0.0527819 17.4382 0.0129827 17.314 0.00267922 17.1851C-0.00762427 17.0561 0.0118922 16.9264 0.0594674 16.8076C0.643989 15.3397 1.61277 14.0893 2.8462 13.2107C4.07963 12.3322 5.52368 11.864 7.00006 11.864C8.47645 11.864 9.9205 12.3322 11.1539 13.2107C12.3874 14.0893 13.3561 15.3397 13.9407 16.8076C13.9861 16.9028 14.0129 17.007 14.0196 17.1139C14.0262 17.2208 14.0125 17.328 13.9792 17.4289C13.946 17.5297 13.8939 17.6222 13.8263 17.7003C13.7587 17.7785 13.6769 17.8408 13.5862 17.8833C13.4954 17.9259 13.3974 17.9477 13.2985 17.9475C13.1996 17.9474 13.1018 17.9252 13.0111 17.8823C12.9204 17.8395 12.8389 17.7769 12.7715 17.6985C12.7041 17.6201 12.6523 17.5275 12.6193 17.4265C12.1462 16.2392 11.3624 15.2279 10.3646 14.5174C9.36685 13.8069 8.19875 13.4283 7.00452 13.4283C5.81029 13.4283 4.64219 13.8069 3.6444 14.5174C2.6466 15.2279 1.86279 16.2392 1.38969 17.4265C1.33339 17.5674 1.24 17.6872 1.12118 17.771C1.00236 17.8547 0.863386 17.8987 0.721608 17.8975Z" fill="#282C3F"/>
</svg>
