<svg width="18" height="19" viewBox="0 0 18 19" fill="none" xmlns="http://www.w3.org/2000/svg">
<path d="M6.99541 15.7515C6.07617 15.7537 5.16556 15.5636 4.31588 15.1919C3.4662 14.8203 2.69419 14.2745 2.04419 13.5859C1.39418 12.8972 0.878989 12.0793 0.528196 11.1792C0.177402 10.279 -0.00208019 9.31428 5.56063e-05 8.34041C-0.00362039 7.3667 0.174996 6.40189 0.525571 5.50179C0.876146 4.60169 1.39172 3.78418 2.04246 3.09656C2.68751 2.39872 3.45796 1.84484 4.30836 1.46761C5.15876 1.09038 6.07187 0.897442 6.99379 0.900177C7.9166 0.897364 8.83059 1.09042 9.68182 1.46794C10.5331 1.84547 11.3043 2.39982 11.95 3.09827C12.6055 3.78504 13.1258 4.60285 13.4807 5.50429C13.8357 6.40573 14.0181 7.37285 14.0175 8.34956C14.0169 9.32628 13.8333 10.2931 13.4772 11.1941C13.1212 12.095 12.5999 12.9121 11.9435 13.598C11.2939 14.2854 10.5222 14.8297 9.67286 15.1993C8.82357 15.5689 7.91356 15.7566 6.99541 15.7515ZM6.99541 2.56805C6.28174 2.56636 5.57498 2.71611 4.91681 3.00846C4.25865 3.30081 3.66241 3.72984 3.16327 4.27024C2.16811 5.3538 1.61565 6.80888 1.62542 8.32068C1.63518 9.83247 2.20639 11.2794 3.21545 12.3484C4.22451 13.4175 5.59028 14.0226 7.01728 14.033C8.44427 14.0433 9.81774 13.458 10.8405 12.4037C11.3499 11.8733 11.7544 11.2408 12.0306 10.543C12.3067 9.84524 12.449 9.09618 12.449 8.33955C12.449 7.58292 12.3067 6.83386 12.0306 6.13608C11.7544 5.4383 11.3499 4.80577 10.8405 4.27539C10.3401 3.73219 9.74165 3.30113 9.08083 3.00782C8.42 2.71452 7.71026 2.56497 6.99379 2.56805H6.99541Z" fill="#282C3F"/>
<path d="M16.2994 18.9914C16.196 18.9915 16.0937 18.9698 15.9984 18.9277C15.903 18.8856 15.8165 18.8239 15.7438 18.746L10.8362 13.5983C10.7628 13.5211 10.7045 13.4294 10.6646 13.3283C10.6246 13.2273 10.6039 13.1189 10.6035 13.0093C10.6031 12.8998 10.6231 12.7912 10.6624 12.6899C10.7016 12.5885 10.7593 12.4963 10.8321 12.4186C10.905 12.3409 10.9916 12.2791 11.0869 12.2368C11.1823 12.1945 11.2846 12.1725 11.388 12.1721C11.4914 12.1717 11.5939 12.1929 11.6896 12.2345C11.7853 12.276 11.8723 12.3371 11.9456 12.4143L16.8549 17.5741C16.9657 17.6905 17.0413 17.8392 17.0721 18.0013C17.103 18.1633 17.0876 18.3314 17.0281 18.4842C16.9686 18.637 16.8675 18.7677 16.7377 18.8595C16.608 18.9513 16.4554 19.0002 16.2994 19V18.9914Z" fill="#282C3F"/>
</svg>
