<svg width="1em" height="1em" viewBox="0 0 18 20" fill="none" xmlns="http://www.w3.org/2000/svg">
<path d="M1.78751 7.22799C1.80543 7.00246 1.90685 6.79201 2.07155 6.63857C2.23625 6.48513 2.45216 6.39995 2.67627 6.39999H15.0708C15.2949 6.39995 15.5108 6.48513 15.6755 6.63857C15.8402 6.79201 15.9417 7.00246 15.9596 7.22799L16.7414 17.056C16.7611 17.3037 16.7298 17.5528 16.6494 17.7876C16.5691 18.0225 16.4414 18.238 16.2745 18.4206C16.1076 18.6032 15.9051 18.749 15.6797 18.8487C15.4543 18.9484 15.2109 18.9999 14.9647 19H2.78235C2.53624 18.9999 2.29282 18.9484 2.0674 18.8487C1.84198 18.749 1.63945 18.6032 1.47256 18.4206C1.30567 18.238 1.17803 18.0225 1.09769 17.7876C1.01734 17.5528 0.986026 17.3037 1.00571 17.056L1.78661 7.22799H1.78751Z" stroke="#1D2136" stroke-width="1.7" stroke-linecap="round" stroke-linejoin="round"/>
<path d="M12.4391 9.1V4.6C12.4391 3.64522 12.0634 2.72955 11.3947 2.05442C10.726 1.37928 9.81907 1 8.87337 1C7.92767 1 7.02071 1.37928 6.352 2.05442C5.68329 2.72955 5.30762 3.64522 5.30762 4.6V9.1" stroke="#1D2136" stroke-width="1.7" stroke-linecap="round" stroke-linejoin="round"/>
</svg>
