<svg width="24" height="9" viewBox="0 0 24 9" fill="none" xmlns="http://www.w3.org/2000/svg">
<path fill-rule="evenodd" clip-rule="evenodd" d="M-1.74326e-07 4.50016L4.21626 0.512044L4.53804 0.816378C6.50563 2.67728 9.1767 3.72478 11.9644 3.72478C14.752 3.72478 17.4231 2.67728 19.3907 0.816377L19.7125 0.512042L23.9287 4.50016L19.7125 8.48828L19.3907 8.18395C17.4231 6.32305 14.752 5.27555 11.9644 5.27555C9.1767 5.27555 6.50563 6.32305 4.53804 8.18395L4.21626 8.48828L-1.74326e-07 4.50016ZM4.2227 7.24309C5.90748 5.77171 8.01291 4.82139 10.2586 4.50016C8.01291 4.17893 5.90748 3.22861 4.2227 1.75724L1.32287 4.50016L4.2227 7.24309ZM13.6702 4.50016C15.9158 4.82139 18.0212 5.77171 19.706 7.24309L22.6058 4.50016L19.706 1.75724C18.0212 3.22861 15.9158 4.17893 13.6702 4.50016Z" fill="#9DEC9B"/>
</svg>
