<svg width="59" height="59" viewBox="0 0 59 59" fill="none" xmlns="http://www.w3.org/2000/svg">
<circle cx="29.5" cy="29.5" r="29.5" fill="url(#paint0_radial_344_45611)"/>
<path d="M43.8492 15.1508C39.8828 11.1844 34.6093 9 29 9C23.3907 9 18.1172 11.1844 14.1508 15.1508C10.1844 19.1172 8 24.3907 8 30C8 35.6093 10.1843 40.8828 14.1507 44.8492C18.1172 48.8156 23.3907 51 29 51C34.6093 51 39.8828 48.8156 43.8493 44.8492C47.8156 40.8828 50 35.6093 50 30C50 24.3907 47.8156 19.1172 43.8492 15.1508ZM42.1091 43.1091C38.6075 46.6107 33.952 48.5391 29 48.5391C24.048 48.5391 19.3925 46.6107 15.8909 43.1091C12.3893 39.6075 10.4609 34.952 10.4609 30C10.4609 25.048 12.3893 20.3925 15.8909 16.8909C19.3925 13.3893 24.048 11.4609 29 11.4609C33.952 11.4609 38.6075 13.3893 42.1091 16.8909C45.6107 20.3925 47.5391 25.048 47.5391 30C47.5391 34.952 45.6107 39.6075 42.1091 43.1091Z" fill="#02262A"/>
<path d="M28.3278 24.9183C27.3862 27.7491 28.6152 30.7884 31.1059 32.2225L28.4049 40.3553L21.0253 18.9939L18.6992 19.7975L27.0435 43.9509H29.8039L33.4397 33.0029C34.8804 33.1433 36.0857 32.8296 36.9574 32.393C38.4331 31.6539 39.5328 30.3845 40.0536 28.8185C41.8031 23.5589 37.4262 17.8524 37.2605 17.6396C37.0003 17.7108 30.0774 19.6585 28.3278 24.9183V24.9183ZM37.7184 28.0419C37.4051 28.9842 36.7434 29.748 35.8555 30.1926C35.3455 30.448 34.796 30.5798 34.242 30.5871L35.4639 26.9079L33.1284 26.1323L31.9092 29.8033C30.7015 28.8628 30.1528 27.2283 30.6628 25.695C31.6661 22.6787 34.8018 21.1108 36.3035 20.5165C37.1501 21.8918 38.7217 25.0256 37.7184 28.0419V28.0419Z" fill="#02262A"/>
<defs>
<radialGradient id="paint0_radial_344_45611" cx="0" cy="0" r="1" gradientUnits="userSpaceOnUse" gradientTransform="translate(23.205 15.4707) rotate(48.475) scale(35.8096 71.2094)">
<stop stop-color="#69EA72"/>
<stop offset="1" stop-color="#A9EF82"/>
</radialGradient>
</defs>
</svg>
