<svg width="31" height="31" viewBox="0 0 31 31" fill="none" xmlns="http://www.w3.org/2000/svg">
<circle cx="15.5" cy="15.5" r="15.5" fill="white"/>
<path d="M20.6133 11.7031H10.9258C10.502 11.7031 10.1992 12.0361 10.1992 12.4297C10.1992 12.8535 10.502 13.1563 10.9258 13.1563H20.6133C21.0068 13.1563 21.3398 13.4893 21.3398 13.8828V20.1797C21.3398 20.6035 21.0068 20.9063 20.6133 20.9063H9.95703C9.26074 20.9063 8.74609 20.3916 8.74609 19.6953V11.4609C8.74609 10.7949 9.26074 10.25 9.95703 10.25H21.0977C21.4912 10.25 21.8242 9.94727 21.8242 9.52344C21.8242 9.12988 21.4912 8.79688 21.0977 8.79688H9.95703C8.47363 8.79688 7.29297 10.0078 7.29297 11.4609V19.6953C7.29297 21.1787 8.47363 22.3594 9.95703 22.3594H20.6133C21.7939 22.3594 22.793 21.3906 22.793 20.1797V13.8828C22.793 12.7021 21.7939 11.7031 20.6133 11.7031ZM19.8867 17.0313C19.8867 16.5166 19.4326 16.0625 18.918 16.0625C18.373 16.0625 17.9492 16.5166 17.9492 17.0313C17.9492 17.5762 18.373 18 18.918 18C19.4326 18 19.8867 17.5762 19.8867 17.0313Z" fill="#69DE7A"/>
</svg>
