<svg width="25" height="9" viewBox="0 0 25 9" fill="none" xmlns="http://www.w3.org/2000/svg">
<path fill-rule="evenodd" clip-rule="evenodd" d="M0.667969 4.50016L4.88423 0.512044L5.20601 0.816378C7.1736 2.67728 9.84467 3.72478 12.6323 3.72478C15.42 3.72478 18.0911 2.67728 20.0586 0.816377L20.3804 0.512042L24.5967 4.50016L20.3804 8.48828L20.0586 8.18395C18.0911 6.32305 15.42 5.27555 12.6323 5.27555C9.84467 5.27555 7.1736 6.32305 5.20601 8.18395L4.88423 8.48828L0.667969 4.50016ZM4.89067 7.24309C6.57545 5.77171 8.68088 4.82139 10.9265 4.50016C8.68088 4.17893 6.57545 3.22861 4.89067 1.75724L1.99084 4.50016L4.89067 7.24309ZM14.3381 4.50016C16.5838 4.82139 18.6892 5.77171 20.374 7.24309L23.2738 4.50016L20.374 1.75724C18.6892 3.22861 16.5838 4.17893 14.3381 4.50016Z" fill="#69DE7A"/>
</svg>
