<svg width="1em" height="1em" viewBox="0 0 17 18" fill="none" xmlns="http://www.w3.org/2000/svg">
<path d="M16.2278 14.6894C15.8041 13.679 15.1892 12.7612 14.4175 11.9872C13.648 11.2109 12.7366 10.592 11.7334 10.1646C11.7244 10.1601 11.7155 10.1578 11.7065 10.1533C13.1058 9.13568 14.0154 7.47814 14.0154 5.60804C14.0154 2.51005 11.5223 0 8.44521 0C5.36812 0 2.875 2.51005 2.875 5.60804C2.875 7.47814 3.78465 9.13568 5.18394 10.1555C5.17496 10.16 5.16597 10.1623 5.15699 10.1668C4.15076 10.5942 3.24785 11.207 2.47296 11.9894C1.70191 12.7641 1.08715 13.6817 0.662641 14.6917C0.245599 15.6805 0.0206792 16.7406 5.61647e-05 17.8146C-0.000543317 17.8387 0.00366135 17.8627 0.0124225 17.8852C0.0211837 17.9077 0.0343241 17.9281 0.0510694 17.9454C0.0678146 17.9627 0.087826 17.9764 0.109924 17.9858C0.132023 17.9952 0.155761 18 0.17974 18H1.52737C1.6262 18 1.70481 17.9209 1.70705 17.8236C1.75198 16.0779 2.44825 14.443 3.67909 13.2038C4.9526 11.9216 6.64387 11.2161 8.44521 11.2161C10.2465 11.2161 11.9378 11.9216 13.2113 13.2038C14.4422 14.443 15.1384 16.0779 15.1834 17.8236C15.1856 17.9231 15.2642 18 15.363 18H16.7107C16.7346 18 16.7584 17.9952 16.7805 17.9858C16.8026 17.9764 16.8226 17.9627 16.8393 17.9454C16.8561 17.9281 16.8692 17.9077 16.878 17.8852C16.8867 17.8627 16.891 17.8387 16.8904 17.8146C16.8679 16.7337 16.6455 15.6822 16.2278 14.6894ZM8.44521 9.49749C7.41427 9.49749 6.44397 9.09271 5.71401 8.35779C4.98404 7.62286 4.582 6.64598 4.582 5.60804C4.582 4.5701 4.98404 3.59322 5.71401 2.85829C6.44397 2.12337 7.41427 1.71859 8.44521 1.71859C9.47614 1.71859 10.4464 2.12337 11.1764 2.85829C11.9064 3.59322 12.3084 4.5701 12.3084 5.60804C12.3084 6.64598 11.9064 7.62286 11.1764 8.35779C10.4464 9.09271 9.47614 9.49749 8.44521 9.49749Z" fill="#1D2136"/>
</svg>
