<svg width="49" height="38" viewBox="0 0 49 38" fill="none" xmlns="http://www.w3.org/2000/svg">
<path opacity="0.22" d="M0 3.62326C0 1.20775 1.21097 0 3.63291 0H15.4177C16.7764 0 17.7215 0.294574 18.2532 0.883721C18.7848 1.41395 19.0506 2.32713 19.0506 3.62326V14.493C19.0506 16.6729 18.4599 18.7938 17.2785 20.8558L7.26582 38H0L8.41772 19H3.63291C2.33333 19 1.38819 18.7349 0.797468 18.2047C0.265823 17.6744 0 16.7318 0 15.3767V3.62326ZM29.9494 3.62326C29.9494 1.20775 31.1603 0 33.5823 0H45.3671C46.7257 0 47.6709 0.294574 48.2025 0.883721C48.7342 1.41395 49 2.32713 49 3.62326V14.493C49 16.6729 48.4093 18.7938 47.2278 20.8558L37.2152 38H29.9494L38.2785 19H33.5823C32.2827 19 31.3376 18.7349 30.7468 18.2047C30.2152 17.6744 29.9494 16.7318 29.9494 15.3767V3.62326Z" fill="black" fill-opacity="0.15"/>
</svg>
