<svg width="130" height="101" viewBox="0 0 130 101" fill="none" xmlns="http://www.w3.org/2000/svg">
<path opacity="0.22" d="M0 91.3698V62.4791C0 56.8419 1.64557 51.2829 4.93671 45.8023L31.2658 0H50.5425L28.4448 50.5H40.9042C44.5087 50.5 47.0163 51.2829 48.4268 52.8488C49.8373 54.2581 50.5425 56.6853 50.5425 60.1302V91.3698C50.5425 94.9713 49.8373 97.4767 48.4268 98.886C47.0163 100.295 44.5087 101 40.9042 101H9.63834C6.19048 101 3.68294 100.295 2.11573 98.886C0.705244 97.4767 0 94.9713 0 91.3698ZM79.4575 91.3698V62.4791C79.4575 56.8419 81.1031 51.2829 84.3942 45.8023L110.723 0H130L107.902 50.5H120.362C123.966 50.5 126.474 51.2829 127.884 52.8488C129.295 54.2581 130 56.6853 130 60.1302V91.3698C130 94.9713 129.295 97.4767 127.884 98.886C126.474 100.295 123.966 101 120.362 101H89.0958C85.648 101 83.1404 100.295 81.5732 98.886C80.1627 97.4767 79.4575 94.9713 79.4575 91.3698Z" fill="#E7E7E7"/>
</svg>
