<svg width="112" height="65" viewBox="0 0 112 65" fill="none" xmlns="http://www.w3.org/2000/svg">
<path d="M107.567 24.8374C107.567 27.2747 106.212 29.6611 103.619 31.8942C101.028 34.126 97.2493 36.1585 92.5363 37.8754C83.1144 41.3076 70.0651 43.4403 55.6271 43.4403C41.189 43.4403 28.1397 41.3076 18.7178 37.8754C14.0049 36.1585 10.226 34.126 7.63476 31.8942C5.04193 29.6611 3.6875 27.2747 3.6875 24.8374C3.6875 22.4 5.04193 20.0136 7.63476 17.7805C10.226 15.5487 14.0049 13.5162 18.7178 11.7993C28.1397 8.36707 41.189 6.23438 55.6271 6.23438C70.0651 6.23438 83.1144 8.36707 92.5363 11.7993C97.2493 13.5162 101.028 15.5487 103.619 17.7805C106.212 20.0136 107.567 22.4 107.567 24.8374Z" stroke="#9DEC9B"/>
<path d="M105.708 18.5514C106.354 20.9015 105.681 23.5616 103.773 26.4024C101.867 29.2415 98.7623 32.2035 94.6734 35.1088C86.4993 40.9169 74.4829 46.4341 60.5619 50.2633C46.6408 54.0925 33.4932 55.4971 23.4985 54.6866C18.4989 54.2812 14.3164 53.3236 11.226 51.859C8.13376 50.3935 6.19493 48.4518 5.5485 46.1017C4.90207 43.7516 5.57508 41.0915 7.4828 38.2507C9.38938 35.4116 12.4938 32.4496 16.5827 29.5443C24.7568 23.7361 36.7732 18.2189 50.6943 14.3898C64.6153 10.5606 77.7629 9.15599 87.7576 9.96651C92.7572 10.3719 96.9398 11.3295 100.03 12.7941C103.122 14.2596 105.061 16.2013 105.708 18.5514Z" stroke="#9DEC9B"/>
</svg>
