<svg width="12" height="12" viewBox="0 0 12 12" fill="none" xmlns="http://www.w3.org/2000/svg">
<path d="M10.9248 9.34277C11.3818 9.76465 11.3818 10.5029 10.9248 10.9248C10.7139 11.1357 10.4326 11.2412 10.1514 11.2412C9.83496 11.2412 9.55371 11.1357 9.34277 10.9248L5.65137 7.2334L1.9248 10.9248C1.71387 11.1357 1.43262 11.2412 1.15137 11.2412C0.834961 11.2412 0.553711 11.1357 0.342773 10.9248C-0.114258 10.5029 -0.114258 9.76465 0.342773 9.34277L4.03418 5.61621L0.342773 1.9248C-0.114258 1.50293 -0.114258 0.764648 0.342773 0.342773C0.764648 -0.114258 1.50293 -0.114258 1.9248 0.342773L5.65137 4.03418L9.34277 0.342773C9.76465 -0.114258 10.5029 -0.114258 10.9248 0.342773C11.3818 0.764648 11.3818 1.50293 10.9248 1.9248L7.2334 5.65137L10.9248 9.34277Z" fill="black"/>
</svg>
