<svg width="13" height="14" viewBox="0 0 13 14" fill="black" xmlns="http://www.w3.org/2000/svg">
<path d="M11.8125 2.1875H9.54297L8.61328 0.65625C8.39453 0.300781 7.90234 0 7.49219 0H4.73047C4.32031 0 3.82812 0.300781 3.60938 0.65625L2.67969 2.1875H0.4375C0.191406 2.1875 0 2.40625 0 2.625V3.0625C0 3.30859 0.191406 3.5 0.4375 3.5H0.875L1.44922 12.7695C1.47656 13.4531 2.07812 14 2.76172 14H9.46094C10.1445 14 10.7461 13.4531 10.7734 12.7695L11.375 3.5H11.8125C12.0312 3.5 12.25 3.30859 12.25 3.0625V2.625C12.25 2.40625 12.0312 2.1875 11.8125 2.1875ZM4.73047 1.3125H7.49219L8.01172 2.1875H4.21094L4.73047 1.3125ZM9.46094 12.6875H2.76172L2.1875 3.5H10.0352L9.46094 12.6875Z" fill="black"/>
</svg>
