<svg width="14" height="14" viewBox="0 0 14 14" fill="none" xmlns="http://www.w3.org/2000/svg">
<circle cx="7" cy="7" r="7" fill="#E5913E"/>
<g clip-path="url(#clip0_2154_92)">
<path d="M9.15768 4.50006C9.25433 4.50006 9.33268 4.41611 9.33268 4.31256V3.68756C9.33268 3.58401 9.25433 3.50006 9.15768 3.50006H4.84102C4.74437 3.50006 4.66602 3.58401 4.66602 3.68756V4.38675C4.66602 4.4903 4.74437 4.57425 4.84102 4.57425H6.08468C6.48292 4.57425 6.78849 4.72984 6.97383 5.00006H4.84102C4.74437 5.00006 4.66602 5.08401 4.66602 5.18756V5.81256C4.66602 5.91611 4.74437 6.00006 4.84102 6.00006H7.15622C7.06556 6.5639 6.67554 6.91619 6.06602 6.91619H4.84102C4.74437 6.91619 4.66602 7.00014 4.66602 7.10369V7.932C4.66602 7.98433 4.68643 8.03428 4.72232 8.06978L7.12933 10.4503C7.16166 10.4823 7.20403 10.5001 7.24802 10.5001H8.45205C8.61136 10.5001 8.68781 10.2906 8.57075 10.1748L6.37038 7.99859C7.486 7.96203 8.2829 7.1643 8.38752 6.00006H9.15768C9.25433 6.00006 9.33268 5.91611 9.33268 5.81256V5.18756C9.33268 5.08401 9.25433 5.00006 9.15768 5.00006H8.30179C8.25095 4.81973 8.18104 4.65247 8.09395 4.50006H9.15768Z" fill="white"/>
</g>
<defs>
<clipPath id="clip0_2154_92">
<rect width="5.83333" height="10.5" fill="white" transform="translate(4.66602 2.33337)"/>
</clipPath>
</defs>
</svg>
