<svg width="17" height="19" viewBox="0 0 17 19" fill="#000" xmlns="http://www.w3.org/2000/svg">
<path d="M16.2827 15.1512C15.859 14.1476 15.2441 13.2359 14.4723 12.4671C13.7029 11.696 12.7914 11.0813 11.7882 10.6567C11.7792 10.6522 11.7703 10.65 11.7613 10.6455C13.1606 9.63477 14.0703 7.98838 14.0703 6.13086C14.0703 3.05371 11.5771 0.560547 8.49995 0.560547C5.4228 0.560547 2.92964 3.05371 2.92964 6.13086C2.92964 7.98838 3.8393 9.63476 5.23862 10.6478C5.22964 10.6522 5.22065 10.6545 5.21167 10.659C4.20542 11.0835 3.30249 11.6922 2.52759 12.4693C1.75652 13.2388 1.14176 14.1502 0.717234 15.1534C0.300185 16.1355 0.0752603 17.1885 0.0546369 18.2553C0.0540374 18.2792 0.0582421 18.3031 0.0670035 18.3254C0.0757648 18.3477 0.0889054 18.3681 0.105651 18.3852C0.122397 18.4024 0.142408 18.416 0.164507 18.4254C0.186606 18.4347 0.210345 18.4395 0.234324 18.4395H1.58198C1.68081 18.4395 1.75942 18.3608 1.76167 18.2643C1.80659 16.5303 2.50288 14.9063 3.73374 13.6755C5.00727 12.402 6.69858 11.7012 8.49995 11.7012C10.3013 11.7012 11.9926 12.402 13.2662 13.6755C14.497 14.9063 15.1933 16.5303 15.2382 18.2643C15.2405 18.3631 15.3191 18.4395 15.4179 18.4395H16.7656C16.7896 18.4395 16.8133 18.4347 16.8354 18.4254C16.8575 18.416 16.8775 18.4024 16.8942 18.3852C16.911 18.3681 16.9241 18.3477 16.9329 18.3254C16.9417 18.3031 16.9459 18.2792 16.9453 18.2553C16.9228 17.1816 16.7004 16.1372 16.2827 15.1512ZM8.49995 9.99414C7.46899 9.99414 6.49868 9.59209 5.7687 8.86211C5.03872 8.13213 4.63667 7.16182 4.63667 6.13086C4.63667 5.0999 5.03872 4.12959 5.7687 3.39961C6.49868 2.66963 7.46899 2.26758 8.49995 2.26758C9.53091 2.26758 10.5012 2.66963 11.2312 3.39961C11.9612 4.12959 12.3632 5.0999 12.3632 6.13086C12.3632 7.16182 11.9612 8.13213 11.2312 8.86211C10.5012 9.59209 9.53091 9.99414 8.49995 9.99414Z" fill="#374559"/>
</svg>
