<svg width="20" height="21" viewBox="0 0 20 21" fill="none" xmlns="http://www.w3.org/2000/svg">
<path d="M5.83331 15.0697C4.91665 15.0697 4.17498 15.8197 4.17498 16.7363C4.17498 17.653 4.91665 18.403 5.83331 18.403C6.74998 18.403 7.49998 17.653 7.49998 16.7363C7.49998 15.8197 6.74998 15.0697 5.83331 15.0697ZM0.833313 1.73633V3.40299H2.49998L5.49998 9.728L4.37498 11.7697C4.24165 12.003 4.16665 12.278 4.16665 12.5697C4.16665 13.4863 4.91665 14.2363 5.83331 14.2363H15.8333V12.5697H6.18331C6.06665 12.5697 5.97498 12.478 5.97498 12.3613L5.99998 12.2613L6.74998 10.903H12.9583C13.5833 10.903 14.1333 10.5613 14.4166 10.0447L17.4 4.63633C17.4666 4.51966 17.5 4.378 17.5 4.23633C17.5 3.77799 17.125 3.40299 16.6666 3.40299H4.34165L3.55831 1.73633H0.833313ZM14.1666 15.0697C13.25 15.0697 12.5083 15.8197 12.5083 16.7363C12.5083 17.653 13.25 18.403 14.1666 18.403C15.0833 18.403 15.8333 17.653 15.8333 16.7363C15.8333 15.8197 15.0833 15.0697 14.1666 15.0697Z" fill="#616161"/>
</svg>
