<svg width="20" height="14" viewBox="0 0 20 14" fill="none" xmlns="http://www.w3.org/2000/svg">
<path d="M16.6666 3.89779H14.1666V0.564453H2.49998C1.58331 0.564453 0.833313 1.31445 0.833313 2.23112V11.3978H2.49998C2.49998 12.7811 3.61665 13.8978 4.99998 13.8978C6.38331 13.8978 7.49998 12.7811 7.49998 11.3978H12.5C12.5 12.7811 13.6166 13.8978 15 13.8978C16.3833 13.8978 17.5 12.7811 17.5 11.3978H19.1666V7.23112L16.6666 3.89779ZM4.99998 12.6478C4.30831 12.6478 3.74998 12.0895 3.74998 11.3978C3.74998 10.7061 4.30831 10.1478 4.99998 10.1478C5.69165 10.1478 6.24998 10.7061 6.24998 11.3978C6.24998 12.0895 5.69165 12.6478 4.99998 12.6478ZM16.25 5.14779L17.8833 7.23112H14.1666V5.14779H16.25ZM15 12.6478C14.3083 12.6478 13.75 12.0895 13.75 11.3978C13.75 10.7061 14.3083 10.1478 15 10.1478C15.6916 10.1478 16.25 10.7061 16.25 11.3978C16.25 12.0895 15.6916 12.6478 15 12.6478Z" fill="#616161"/>
</svg>
