<svg width="56" height="20" viewBox="0 0 56 20" fill="none" xmlns="http://www.w3.org/2000/svg">
<rect x="0.823975" y="0.741211" width="54.352" height="18.7653" rx="7.76533" fill="#A33A34"/>
<path d="M9.22123 12.7358C10.3241 12.7358 11.3264 12.1769 11.3264 11.0628C11.3264 9.99717 10.4098 9.7289 9.88819 9.58731L8.92687 9.31904C8.56545 9.22216 8.15186 9.07685 8.15186 8.67816C8.15186 8.26085 8.62134 7.98139 9.15789 7.99257C9.70934 8.00748 10.2049 8.32419 10.3204 8.89054L11.2854 8.72287C11.047 7.72802 10.272 7.16539 9.16907 7.15422C8.07734 7.14676 7.20918 7.68704 7.20918 8.72287C7.20918 9.66928 7.9283 9.95619 8.40523 10.0941L9.79131 10.5039C10.1974 10.6269 10.3875 10.8244 10.3875 11.1224C10.3875 11.618 9.85093 11.8937 9.27712 11.8937C8.62879 11.8937 8.08852 11.5323 7.93202 10.8951L7.00052 11.0367C7.16819 12.0912 8.04753 12.7358 9.22123 12.7358ZM15.2255 12.7358C16.5036 12.7358 17.3866 11.9049 17.3866 10.6306V7.25854H16.4775V10.6082C16.4775 11.4056 15.8925 11.89 15.2255 11.89C14.5735 11.89 13.9736 11.4168 13.9736 10.6082V7.25854L13.0645 7.266V10.6306C13.0645 11.9086 13.9475 12.7358 15.2255 12.7358ZM20.2574 12.624V10.7498H21.5764C21.6733 10.7498 21.867 10.7424 22.0049 10.72C22.9289 10.5784 23.3723 9.88912 23.3723 9.00605C23.3723 8.11926 22.9364 7.43367 22.0049 7.28835C21.867 7.266 21.6807 7.25854 21.5764 7.25854H19.3594V12.624H20.2574ZM20.2574 8.10063H21.5391C21.6397 8.10063 21.7739 8.10808 21.8782 8.13416C22.3253 8.24967 22.4669 8.66326 22.4669 9.00605C22.4669 9.34885 22.3253 9.76243 21.8782 9.87422C21.7739 9.90402 21.6397 9.91148 21.5391 9.91148H20.2574V8.10063ZM25.9483 12.624V10.7498H27.2673C27.3642 10.7498 27.5579 10.7424 27.6958 10.72C28.6199 10.5784 29.0633 9.88912 29.0633 9.00605C29.0633 8.11926 28.6273 7.43367 27.6958 7.28835C27.5579 7.266 27.3716 7.25854 27.2673 7.25854H25.0503V12.624H25.9483ZM25.9483 8.10063H27.2301C27.3307 8.10063 27.4648 8.10808 27.5691 8.13416C28.0162 8.24967 28.1578 8.66326 28.1578 9.00605C28.1578 9.34885 28.0162 9.76243 27.5691 9.87422C27.4648 9.90402 27.3307 9.91148 27.2301 9.91148H25.9483V8.10063ZM34.0835 12.624V11.7819H31.7137V7.25854H30.8158V12.624H34.0835ZM36.6187 12.624V7.25854H35.7207V12.624H36.6187ZM39.5643 11.7819V10.2654H41.6844V9.42337H39.5643V8.10063H42.1315V7.25854H38.6663V12.624H42.1315V11.7819H39.5643ZM47.0645 10.5896C47.6756 10.3176 47.9699 9.7289 47.9699 9.00605C47.9699 8.11926 47.534 7.43367 46.6025 7.28835C46.4646 7.266 46.2783 7.25854 46.174 7.25854H43.957V12.624H44.855V10.7498H46.1293L47.0384 12.624H48.0556L47.0645 10.5896ZM46.1367 8.10063C46.2373 8.10063 46.3715 8.10808 46.4758 8.13416C46.9229 8.24967 47.0645 8.66326 47.0645 9.00605C47.0645 9.34885 46.9229 9.76243 46.4758 9.87422C46.3715 9.90402 46.2373 9.91148 46.1367 9.91148H44.855V8.10063H46.1367Z" fill="white"/>
</svg>
