<svg width="22" height="19" viewBox="0 0 22 19" fill="none" xmlns="http://www.w3.org/2000/svg">
<path d="M14.267 6.37109C13.7306 6.37109 13.2954 6.80626 13.2954 7.34271C13.2954 7.87917 13.7306 8.31434 14.267 8.31434C14.8038 8.31434 15.2378 7.87917 15.2378 7.34271C15.2378 6.80626 14.8038 6.37109 14.267 6.37109Z" fill="#616161"/>
<path d="M11.0304 6.37109C10.4941 6.37109 10.0588 6.80626 10.0588 7.34271C10.0588 7.87917 10.4941 8.31434 11.0304 8.31434C11.5672 8.31434 12.0016 7.87917 12.0016 7.34271C12.0016 6.80626 11.5672 6.37109 11.0304 6.37109Z" fill="#616161"/>
<path d="M7.79219 6.37109C7.25584 6.37109 6.82056 6.80626 6.82056 7.34271C6.82056 7.87917 7.25584 8.31434 7.79219 8.31434C8.32897 8.31434 8.76336 7.87917 8.76336 7.34271C8.76335 6.80626 8.32897 6.37109 7.79219 6.37109Z" fill="#616161"/>
<path d="M18.6251 0H3.30519C1.69235 0 0.538574 1.35374 0.538574 2.96658V11.9035C0.538574 13.4892 1.7193 14.9129 3.30519 14.9129H8.10634V18.2869C8.10634 18.409 8.16699 18.5208 8.27632 18.5753C8.32197 18.5984 8.36718 18.6094 8.41641 18.6094C8.48499 18.6094 8.55085 18.6542 8.60801 18.612L13.6255 14.9129H18.6251C20.1838 14.9129 21.4612 13.4622 21.4612 11.9035V2.96658C21.4612 1.38047 20.2106 0 18.6251 0ZM20.7935 11.9035C20.7935 13.1125 19.8341 14.2452 18.6251 14.2452H13.518C13.4482 14.2452 13.3999 14.2124 13.3443 14.2541L8.77408 17.6417V14.4565C8.77408 14.2785 8.59041 14.2452 8.41216 14.2452H3.30519C2.07501 14.2452 1.20632 13.1334 1.20632 11.9035V2.96658C1.20632 1.71543 2.05426 0.667744 3.30519 0.667744H18.6251C19.855 0.667744 20.7935 1.73631 20.7935 2.96658V11.9035Z" fill="#616161"/>
<path d="M4.24183 1.58462C3.63312 1.50571 3.04613 1.7157 2.58879 2.1776C2.05613 2.71535 1.7891 3.50503 1.8918 4.23886C1.91441 4.39994 2.05255 4.51644 2.21078 4.51644C2.22578 4.51644 2.24078 4.51535 2.2559 4.51339C2.43229 4.48884 2.55531 4.32559 2.53065 4.14931C2.45631 3.61894 2.6591 3.02314 3.047 2.63144C3.35946 2.31607 3.75396 2.17172 4.15848 2.22432C4.33476 2.24715 4.49691 2.12304 4.52006 1.94631C4.54312 1.76961 4.41856 1.60766 4.24183 1.58462Z" fill="#616161"/>
</svg>
