<svg width="20" height="21" viewBox="0 0 20 21" fill="none" xmlns="http://www.w3.org/2000/svg">
<path d="M10.0559 6.57324C7.88921 6.57324 6.16699 8.29546 6.16699 10.4621C6.16699 12.6288 7.88921 14.351 10.0559 14.351C12.2225 14.351 13.9448 12.6288 13.9448 10.4621C13.9448 8.29546 12.2225 6.57324 10.0559 6.57324ZM10.0559 13.2399C8.50033 13.2399 7.2781 12.0177 7.2781 10.4621C7.2781 8.90658 8.50033 7.68435 10.0559 7.68435C11.6114 7.68435 12.8337 8.90658 12.8337 10.4621C12.8337 12.0177 11.6114 13.2399 10.0559 13.2399Z" fill="#005BC2"/>
<path d="M18.2224 8.6288L16.6669 8.1288L16.3336 7.29546L17.1113 5.85102C17.278 5.51769 17.2224 5.07324 16.9447 4.79546L15.6113 3.46213C15.3336 3.18435 14.8891 3.1288 14.5558 3.29546L13.1113 4.07324L12.278 3.73991L11.778 2.18435C11.6669 1.85102 11.3336 1.57324 10.9447 1.57324H9.05577C8.66688 1.57324 8.33355 1.85102 8.278 2.23991L7.778 3.79546C7.44466 3.85102 7.16688 3.96213 6.88911 4.1288L5.44466 3.35102C5.11133 3.18435 4.66688 3.23991 4.38911 3.51769L3.05577 4.85102C2.77799 5.1288 2.72244 5.57324 2.88911 5.90658L3.61133 7.29546C3.50022 7.57324 3.38911 7.90658 3.27799 8.18435L1.72244 8.68435C1.38911 8.79546 1.11133 9.1288 1.11133 9.51769V11.4066C1.11133 11.7955 1.38911 12.1288 1.77799 12.2399L3.33355 12.7399L3.66688 13.5732L2.88911 15.0177C2.72244 15.351 2.77799 15.7955 3.05577 16.0732L4.38911 17.4066C4.66688 17.6844 5.11133 17.7399 5.44466 17.5732L6.88911 16.7955L7.72244 17.1288L8.22244 18.7399C8.33355 19.0732 8.66688 19.351 9.05577 19.351H10.9447C11.3336 19.351 11.6669 19.0732 11.778 18.7399L12.278 17.1288L13.1113 16.7955L14.5558 17.5732C14.8891 17.7399 15.3336 17.6844 15.6113 17.4066L16.9447 16.0732C17.2224 15.7955 17.278 15.351 17.1113 15.0177L16.3336 13.5732L16.6669 12.7399L18.278 12.2399C18.6113 12.1288 18.8891 11.7955 18.8891 11.4066V9.51769C18.8891 9.1288 18.6113 8.73991 18.2224 8.6288ZM17.778 11.2399L15.778 11.851L15.7224 12.1288L15.2224 13.2955L15.0558 13.5732L16.0558 15.4066L14.9447 16.5177L13.1113 15.5177L12.8336 15.6844C12.4447 15.9066 12.0558 16.0732 11.6669 16.1844L11.3891 16.2399L10.778 18.2399H9.22244L8.61133 16.2399L8.33355 16.1844L7.16688 15.6844L6.88911 15.5177L5.05577 16.5177L3.94466 15.4066L4.94466 13.5732L4.778 13.2955C4.55577 12.9066 4.38911 12.5177 4.27799 12.1288L4.22244 11.851L2.22244 11.2399V9.68435L4.11133 9.1288L4.22244 8.85102C4.33355 8.40658 4.50022 8.01769 4.72244 7.6288L4.88911 7.35102L3.94466 5.51769L5.05577 4.40658L6.83355 5.40658L7.11133 5.23991C7.50022 5.01769 7.88911 4.85102 8.33355 4.73991L8.61133 4.6288L9.22244 2.68435H10.778L11.3891 4.6288L11.6669 4.73991C12.0558 4.85102 12.4447 5.01769 12.8336 5.23991L13.1113 5.40658L14.9447 4.40658L16.0558 5.51769L15.0558 7.35102L15.2224 7.6288C15.4447 8.01769 15.6113 8.40658 15.7224 8.79546L15.778 9.07324L17.778 9.68435V11.2399Z" fill="#005BC2"/>
</svg>
