<svg width="26" height="20" viewBox="0 0 26 20" fill="none" xmlns="http://www.w3.org/2000/svg">
<path d="M25.466 18.5032C22.7619 15.7993 19.0409 14.2411 15.1616 13.819C17.8594 12.9095 19.8087 10.3563 19.8087 7.35493C19.8087 3.5939 16.7489 0.53418 12.9884 0.53418C9.22767 0.53418 6.16792 3.5939 6.16792 7.35493C6.16792 10.3584 8.11974 12.9129 10.8207 13.8211C6.94772 14.2455 3.23355 15.8033 0.53361 18.5032C0.382351 18.6545 0.382351 18.8996 0.53361 19.0509C0.609226 19.1265 0.708154 19.1642 0.807324 19.1642C0.906225 19.1642 1.00539 19.1265 1.08104 19.0509C7.20728 12.9243 18.7918 12.9243 24.9186 19.0509C25.0698 19.2021 25.3148 19.2021 25.466 19.0509C25.6175 18.8996 25.6175 18.6545 25.466 18.5032ZM6.94249 7.35493C6.94249 4.02096 9.65471 1.30848 12.9884 1.30848C16.3219 1.30848 19.0344 4.02096 19.0344 7.35493C19.0344 10.6891 16.3219 13.4019 12.9884 13.4019C9.65471 13.4019 6.94249 10.6891 6.94249 7.35493Z" fill="#616161"/>
</svg>
