<svg width="20" height="21" viewBox="0 0 20 21" fill="none" xmlns="http://www.w3.org/2000/svg">
<path d="M14.3416 8.32057L10.6916 2.85391C10.5333 2.62057 10.2666 2.50391 9.99998 2.50391C9.73331 2.50391 9.46665 2.62057 9.30831 2.86224L5.65831 8.32057H1.66665C1.20831 8.32057 0.833313 8.69557 0.833313 9.15391C0.833313 9.22891 0.841646 9.30391 0.866646 9.37891L2.98331 17.1039C3.17498 17.8039 3.81665 18.3206 4.58331 18.3206H15.4166C16.1833 18.3206 16.825 17.8039 17.025 17.1039L19.1416 9.37891L19.1666 9.15391C19.1666 8.69557 18.7916 8.32057 18.3333 8.32057H14.3416ZM7.49998 8.32057L9.99998 4.65391L12.5 8.32057H7.49998ZM9.99998 14.9872C9.08331 14.9872 8.33331 14.2372 8.33331 13.3206C8.33331 12.4039 9.08331 11.6539 9.99998 11.6539C10.9166 11.6539 11.6666 12.4039 11.6666 13.3206C11.6666 14.2372 10.9166 14.9872 9.99998 14.9872Z" fill="#616161"/>
</svg>
