<svg width="15" height="15" viewBox="0 0 15 15" fill="none" xmlns="http://www.w3.org/2000/svg">
<path d="M3.09223 6.29992C4.19992 8.47685 5.98454 10.2538 8.16146 11.3692L9.85377 9.67685C10.0615 9.46916 10.3692 9.39992 10.6384 9.49223C11.4999 9.77685 12.4307 9.93069 13.3845 9.93069C13.8076 9.93069 14.1538 10.2768 14.1538 10.6999V13.3845C14.1538 13.8076 13.8076 14.1538 13.3845 14.1538C6.16146 14.1538 0.307617 8.29993 0.307617 1.07685C0.307617 0.653771 0.653771 0.307617 1.07685 0.307617H3.76916C4.19223 0.307617 4.53839 0.653771 4.53839 1.07685C4.53839 2.03839 4.69223 2.96146 4.97685 3.823C5.06146 4.09223 4.99992 4.39223 4.78454 4.60762L3.09223 6.29992Z" fill="#33A532"/>
</svg>
