<svg width="14" height="19" viewBox="0 0 14 19" fill="none" xmlns="http://www.w3.org/2000/svg">
<path d="M2.87951 18.6178C2.93232 18.6626 2.99711 18.6848 3.06188 18.6848C3.13127 18.6848 3.20048 18.6593 3.25457 18.6087L5.18721 16.798L7.08159 18.6068C7.191 18.7114 7.36383 18.7107 7.47256 18.6051L9.30004 16.8289L10.9853 18.5974C11.038 18.6526 11.1109 18.6843 11.1873 18.6848C11.2629 18.6843 11.3371 18.655 11.3904 18.6004L13.368 16.5522C13.4197 16.4995 13.4159 16.4286 13.4159 16.3548V0.41269C13.4159 0.257013 13.3554 0.0546875 13.1997 0.0546875H0.800333C0.644675 0.0546875 0.584229 0.257013 0.584229 0.41269V16.4839C0.584229 16.5666 0.587802 16.6453 0.650835 16.6988L2.87951 18.6178ZM1.17646 0.646916H12.8236V16.2396L11.1452 17.9977L9.48809 16.2341C9.43614 16.1796 9.37658 16.1482 9.30138 16.1467C9.22591 16.1424 9.15941 16.1739 9.10541 16.2265L7.27138 18.0116L5.38211 16.2063C5.27395 16.103 5.10469 16.1023 4.99558 16.2045L3.09946 18.0255L1.17646 16.3535V0.646916Z" fill="#616161"/>
<path d="M3.33777 4.39789H10.4768C10.6325 4.39789 10.7587 4.25755 10.7587 4.10178C10.7587 3.9462 10.6325 3.80566 10.4768 3.80566H3.33777C3.18209 3.80566 3.05591 3.9462 3.05591 4.10178C3.05591 4.25755 3.18209 4.39789 3.33777 4.39789Z" fill="#616161"/>
<path d="M3.33777 7.16156H7.84666C8.00234 7.16156 8.12843 7.02103 8.12843 6.86545C8.12843 6.70967 8.00234 6.56934 7.84666 6.56934H3.33777C3.18209 6.56934 3.05591 6.70967 3.05591 6.86545C3.05591 7.02103 3.18209 7.16156 3.33777 7.16156Z" fill="#616161"/>
<path d="M3.33777 8.74067H7.84666C8.00234 8.74067 8.12843 8.60033 8.12843 8.44455C8.12843 8.28897 8.00234 8.14844 7.84666 8.14844H3.33777C3.18209 8.14844 3.05591 8.28897 3.05591 8.44455C3.05591 8.60033 3.18209 8.74067 3.33777 8.74067Z" fill="#616161"/>
<path d="M3.33777 10.517H7.84666C8.00234 10.517 8.12843 10.3765 8.12843 10.2209C8.12843 10.0651 8.00234 9.9248 7.84666 9.9248H3.33777C3.18209 9.9248 3.05591 10.0651 3.05591 10.2209C3.05591 10.3765 3.18209 10.517 3.33777 10.517Z" fill="#616161"/>
<path d="M3.33777 12.0971H7.84666C8.00234 12.0971 8.12843 11.9568 8.12843 11.801C8.12843 11.6454 8.00234 11.5049 7.84666 11.5049H3.33777C3.18209 11.5049 3.05591 11.6454 3.05591 11.801C3.05591 11.9568 3.18209 12.0971 3.33777 12.0971Z" fill="#616161"/>
<path d="M10.4765 6.56934H9.91287C9.75719 6.56934 9.6311 6.70967 9.6311 6.86545C9.6311 7.02103 9.75719 7.16156 9.91287 7.16156H10.4765C10.6321 7.16156 10.7583 7.02103 10.7583 6.86545C10.7583 6.70967 10.6321 6.56934 10.4765 6.56934Z" fill="#616161"/>
<path d="M10.4765 8.14844H9.91287C9.75719 8.14844 9.6311 8.28897 9.6311 8.44455C9.6311 8.60033 9.75719 8.74067 9.91287 8.74067H10.4765C10.6321 8.74067 10.7583 8.60033 10.7583 8.44455C10.7583 8.28897 10.6321 8.14844 10.4765 8.14844Z" fill="#616161"/>
<path d="M10.4765 9.9248H9.91287C9.75719 9.9248 9.6311 10.0651 9.6311 10.2209C9.6311 10.3765 9.75719 10.517 9.91287 10.517H10.4765C10.6321 10.517 10.7583 10.3765 10.7583 10.2209C10.7583 10.0651 10.6321 9.9248 10.4765 9.9248Z" fill="#616161"/>
<path d="M10.4765 11.5049H9.91287C9.75719 11.5049 9.6311 11.6454 9.6311 11.801C9.6311 11.9568 9.75719 12.0971 9.91287 12.0971H10.4765C10.6321 12.0971 10.7583 11.9568 10.7583 11.801C10.7583 11.6454 10.6321 11.5049 10.4765 11.5049Z" fill="#616161"/>
</svg>
