<svg width="46" height="46" viewBox="0 0 46 46" fill="none" xmlns="http://www.w3.org/2000/svg">
<circle cx="23" cy="23" r="23" fill="#E2EDF9"/>
<path d="M22.5015 7C19.9681 6.99895 17.4787 7.65026 15.2815 8.88898C13.0843 10.1277 11.2561 11.9105 9.97921 14.0597L8.85289 13.4995L9.57532 17.3944L13.0827 15.6032L11.7677 14.9491C12.876 13.1239 14.4479 11.6127 16.3295 10.5636C18.2111 9.51442 20.3379 8.96333 22.5015 8.96426C29.4043 8.96426 35.0002 14.4607 35.0002 21.2408C35.0001 21.8076 34.9605 22.3736 34.8815 22.935L36.8622 23.2061C36.9539 22.5549 36.9999 21.8983 37 21.2408C37 13.3758 30.5088 7 22.5015 7Z" fill="#56774D"/>
<path d="M34.9859 25.3379L31.7427 27.493L33.0159 27.9648C31.9257 29.8135 30.3671 31.3466 28.4949 32.4117C26.6227 33.4767 24.5023 34.0367 22.3445 34.0358C15.515 34.0358 9.97855 28.5394 9.97855 21.7594C9.97871 21.1926 10.0181 20.6266 10.0963 20.0652L8.13664 19.7939C8.04581 20.4451 8.00016 21.1019 8 21.7594C8 29.6242 14.4223 36 22.3445 36C24.9059 36.0008 27.4208 35.3206 29.6277 34.0299C31.8346 32.7392 33.653 30.8853 34.8939 28.6608L36.1471 29.1252L34.9859 25.3379Z" fill="#56774D"/>
<path d="M22.4964 28.0914C22.453 28.0914 22.409 28.0809 22.3695 28.06L16.0574 24.7645C15.9668 24.7172 15.9097 24.6233 15.9097 24.5212V18.3419C15.9097 18.2469 15.9591 18.1585 16.0399 18.1085C16.1206 18.0585 16.2222 18.0541 16.3068 18.0964L22.6188 21.2547C22.7117 21.3014 22.7704 21.3964 22.7704 21.5002V27.8167C22.7704 27.9128 22.7204 28.0018 22.6381 28.0518C22.5952 28.0782 22.5458 28.0914 22.4964 28.0914ZM16.4589 24.3547L22.2217 27.3636V21.6699L16.4589 18.7863V24.3547Z" fill="#56774D"/>
<path d="M22.5052 28.0909C22.4558 28.0909 22.4064 28.0777 22.363 28.0514C22.2811 28.0014 22.2306 27.9124 22.2306 27.8163V21.4998C22.2306 21.396 22.2894 21.3009 22.3822 21.2543L28.6942 18.096C28.7783 18.0532 28.8804 18.0575 28.9612 18.1081C29.0425 18.1581 29.0919 18.2465 29.0919 18.3415V24.5207C29.0919 24.6229 29.0348 24.7168 28.9441 24.764L22.6321 28.0596C22.5926 28.0805 22.5486 28.0909 22.5052 28.0909ZM22.7799 21.6695V27.3631L28.5426 24.3543V18.7859L22.7799 21.6695Z" fill="#56774D"/>
<path d="M16.1843 18.6163C16.0832 18.6163 15.9866 18.5608 15.9382 18.4647C15.8701 18.329 15.9256 18.1643 16.0612 18.0961L22.3821 14.9379C22.4595 14.8994 22.5507 14.8994 22.6276 14.9379L28.9396 18.0961C29.0753 18.1643 29.1302 18.329 29.0627 18.4647C28.9945 18.6004 28.8303 18.6547 28.6941 18.5877L22.5051 15.4904L16.3073 18.5872C16.2678 18.607 16.226 18.6163 16.1843 18.6163Z" fill="#56774D"/>
<path d="M25.7963 23.1473C25.6447 23.1473 25.5216 23.0243 25.5216 22.8727V20.0215L19.3612 16.939C19.2255 16.8714 19.1706 16.7061 19.2387 16.5704C19.3068 16.4348 19.4716 16.3804 19.6073 16.4474L25.9193 19.6057C26.0121 19.6529 26.0709 19.7479 26.0709 19.8517V22.8727C26.0709 23.0243 25.9479 23.1473 25.7963 23.1473Z" fill="#56774D"/>
<path d="M28.8173 24.5207H28.8228M22.5015 7C19.9681 6.99895 17.4787 7.65026 15.2815 8.88898C13.0843 10.1277 11.2561 11.9105 9.97921 14.0597L8.85289 13.4995L9.57532 17.3944L13.0827 15.6032L11.7677 14.9491C12.876 13.1239 14.4479 11.6127 16.3295 10.5636C18.2111 9.51442 20.3379 8.96333 22.5015 8.96426C29.4043 8.96426 35.0002 14.4607 35.0002 21.2408C35.0001 21.8076 34.9605 22.3736 34.8815 22.935L36.8622 23.2061C36.9539 22.5549 36.9999 21.8983 37 21.2408C37 13.3758 30.5088 7 22.5015 7ZM34.9859 25.3379L31.7427 27.493L33.0159 27.9648C31.9257 29.8135 30.3671 31.3466 28.4949 32.4117C26.6227 33.4767 24.5023 34.0367 22.3445 34.0358C15.515 34.0358 9.97855 28.5394 9.97855 21.7594C9.97871 21.1926 10.0181 20.6266 10.0963 20.0652L8.13664 19.7939C8.04581 20.4451 8.00016 21.1019 8 21.7594C8 29.6242 14.4223 36 22.3445 36C24.9059 36.0008 27.4208 35.3206 29.6277 34.0299C31.8346 32.7392 33.653 30.8853 34.8939 28.6608L36.1471 29.1252L34.9859 25.3379ZM22.4964 28.0914C22.453 28.0914 22.409 28.0809 22.3695 28.06L16.0574 24.7645C15.9668 24.7172 15.9097 24.6233 15.9097 24.5212V18.3419C15.9097 18.2469 15.9591 18.1585 16.0399 18.1085C16.1206 18.0585 16.2222 18.0541 16.3068 18.0964L22.6188 21.2547C22.7117 21.3014 22.7704 21.3964 22.7704 21.5002V27.8167C22.7704 27.9128 22.7204 28.0018 22.6381 28.0518C22.5952 28.0782 22.5458 28.0914 22.4964 28.0914ZM16.4589 24.3547L22.2217 27.3636V21.6699L16.4589 18.7863V24.3547ZM22.5052 28.0909C22.4558 28.0909 22.4064 28.0777 22.363 28.0514C22.2811 28.0014 22.2306 27.9124 22.2306 27.8163V21.4998C22.2306 21.396 22.2894 21.3009 22.3822 21.2543L28.6942 18.096C28.7783 18.0532 28.8804 18.0575 28.9612 18.1081C29.0425 18.1581 29.0919 18.2465 29.0919 18.3415V24.5207C29.0919 24.6229 29.0348 24.7168 28.9441 24.764L22.6321 28.0596C22.5926 28.0805 22.5486 28.0909 22.5052 28.0909ZM22.7799 21.6695V27.3631L28.5426 24.3543V18.7859L22.7799 21.6695ZM16.1843 18.6163C16.0832 18.6163 15.9866 18.5608 15.9382 18.4647C15.8701 18.329 15.9256 18.1643 16.0613 18.0961L22.3821 14.9379C22.4595 14.8994 22.5507 14.8994 22.6276 14.9379L28.9396 18.0961C29.0753 18.1643 29.1302 18.329 29.0627 18.4647C28.9945 18.6004 28.8303 18.6547 28.6941 18.5877L22.5051 15.4904L16.3073 18.5872C16.2678 18.607 16.226 18.6163 16.1843 18.6163ZM25.7963 23.1473C25.6447 23.1473 25.5216 23.0243 25.5216 22.8727V20.0215L19.3612 16.939C19.2255 16.8714 19.1706 16.7061 19.2387 16.5704C19.3068 16.4348 19.4716 16.3804 19.6073 16.4474L25.9193 19.6057C26.0121 19.6529 26.0709 19.7479 26.0709 19.8517V22.8727C26.0709 23.0243 25.9479 23.1473 25.7963 23.1473Z" stroke="#56774D" stroke-width="0.6"/>
</svg>
