<svg width="46" height="46" viewBox="0 0 46 46" fill="none" xmlns="http://www.w3.org/2000/svg">
<circle cx="23" cy="23" r="23" fill="#EFE2C9"/>
<path d="M44.875 23.9286C44.254 23.9286 43.75 24.4246 43.75 25.0357V32.7857H12.25V19.5H24.625C25.246 19.5 25.75 19.004 25.75 18.3929C25.75 17.7817 25.246 17.2857 24.625 17.2857H12.25V12.8571H24.625C25.246 12.8571 25.75 12.3611 25.75 11.75C25.75 11.1389 25.246 10.6429 24.625 10.6429H12.25C11.008 10.6429 10 11.6349 10 12.8571V32.7857C10 34.008 11.008 35 12.25 35H43.75C44.992 35 46 34.008 46 32.7857V25.0357C46 24.4246 45.496 23.9286 44.875 23.9286Z" fill="#56774D"/>
<path d="M20.125 23.9286H15.625C15.004 23.9286 14.5 24.4246 14.5 25.0357C14.5 25.6469 15.004 26.1429 15.625 26.1429H20.125C20.746 26.1429 21.25 25.6469 21.25 25.0357C21.25 24.4246 20.746 23.9286 20.125 23.9286Z" fill="#56774D"/>
<path d="M45.3182 7.40945L37.4432 4.08802C37.1575 3.97066 36.8402 3.97066 36.5545 4.08802L28.6795 7.40945C28.2677 7.58437 28 7.98516 28 8.42802V12.8566C28 18.9481 30.2883 22.5087 36.4398 25.9962C36.613 26.0936 36.8065 26.1423 37 26.1423C37.1935 26.1423 37.387 26.0936 37.5602 25.9962C43.7117 22.5175 46 18.9569 46 12.8566V8.42802C46 7.98516 45.7323 7.58437 45.3182 7.40945ZM43.75 12.8566C43.75 17.9694 42.031 20.7837 37 23.7509C31.969 20.7771 30.25 17.9627 30.25 12.8566V9.15873L37 6.31116L43.75 9.15873V12.8566Z" fill="#56774D"/>
<path d="M41.0792 10.8843C40.5955 10.5078 39.889 10.5809 39.4974 11.057L35.9604 15.4103L34.5609 13.351C34.2122 12.8417 33.5124 12.7066 33.0017 13.0432C32.4864 13.382 32.3447 14.0706 32.6889 14.5777L34.9389 17.8991C35.1392 18.1936 35.4677 18.3752 35.8277 18.3929C35.8434 18.3929 35.8614 18.3929 35.8749 18.3929C36.2147 18.3929 36.5387 18.2423 36.7547 17.9766L41.2547 12.4409C41.6417 11.9626 41.5652 11.2673 41.0792 10.8843Z" fill="#56774D"/>
</svg>
