<svg width="14" height="15" viewBox="0 0 14 15" fill="none" xmlns="http://www.w3.org/2000/svg">
<path d="M13.8438 7.125C13.8438 7.72266 13.3457 8.2207 12.7812 8.2207H8V13.002C8 13.5664 7.50195 14.0312 6.9375 14.0312C6.33984 14.0312 5.875 13.5664 5.875 13.002V8.2207H1.09375C0.496094 8.2207 0.03125 7.72266 0.03125 7.125C0.03125 6.56055 0.496094 6.0957 1.09375 6.0957H5.875V1.31445C5.875 0.716797 6.33984 0.21875 6.9375 0.21875C7.50195 0.21875 8 0.716797 8 1.31445V6.0957H12.7812C13.3457 6.0625 13.8438 6.56055 13.8438 7.125Z" fill="#FEFFED"/>
</svg>
