<svg width="43" height="44" viewBox="0 0 43 44" fill="none" xmlns="http://www.w3.org/2000/svg">
<path d="M7.22198 6.36013C17.8071 -5.98022 36.9899 1.3549 41.4777 13.7451C46.5615 27.7742 38.4016 38.7813 24.5912 43.1882C17.4343 45.4734 7.41859 40.5032 3.5499 34.3321C-2.38339 24.8516 -0.691 12.5066 7.22198 6.36013Z" fill="#FFE655"/>
<path fill-rule="evenodd" clip-rule="evenodd" d="M32.2076 9.11023C32.03 9.19423 31.8281 9.43979 31.7015 9.72575C31.6228 9.90334 31.6044 10.0414 31.6044 10.4557C31.6043 10.7368 31.6203 11.0275 31.6399 11.1018C31.674 11.231 31.6699 11.2353 31.5459 11.1997C31.4747 11.1793 31.1958 11.1627 30.9262 11.1627C30.5256 11.1628 30.3966 11.1817 30.2202 11.2661C29.5111 11.6056 29.2228 12.3586 29.4122 13.3769L29.4351 13.4998L28.8152 13.4986C28.23 13.4974 28.1803 13.505 27.93 13.6331C27.6424 13.7803 27.4387 13.9916 27.2735 14.3139C27.1788 14.4986 27.1682 14.587 27.1682 15.1916V15.8639L27.0081 15.8326C26.7603 15.7841 26.1521 15.7956 25.949 15.8526C25.4994 15.9788 25.1071 16.379 24.9736 16.8477C24.8978 17.1137 24.8853 17.6568 24.9472 17.9906C24.9841 18.1899 24.9809 18.1998 24.8868 18.1757C24.5684 18.0941 24.0696 18.089 23.7827 18.1645C23.2541 18.3037 22.9444 18.6022 22.9106 19.0051C22.8854 19.3049 23.003 19.5406 23.2516 19.6893C23.491 19.8324 23.6595 19.8274 23.9608 19.6685C24.2037 19.5403 24.2168 19.5388 24.545 19.5991C25.4668 19.7687 25.6614 19.7685 25.9894 19.5971C26.0856 19.5468 26.2217 19.4154 26.2917 19.3052C26.4538 19.0498 26.4833 18.626 26.3789 18.0544C26.2838 17.5341 26.2825 17.2747 26.3748 17.2378C26.4134 17.2223 26.7093 17.2586 27.0322 17.3184C27.6752 17.4374 27.9203 17.4275 28.2148 17.2709C28.5071 17.1154 28.6854 16.7749 28.6854 16.3718C28.6854 16.2611 28.642 15.9226 28.5889 15.6197C28.5358 15.3168 28.5036 15.0383 28.5174 15.001C28.5513 14.9089 28.8635 14.9132 29.3209 15.0118C30.0542 15.1698 30.5755 15.0243 30.7796 14.6044C30.924 14.3074 30.94 14.0638 30.8494 13.5398C30.8037 13.2756 30.7655 12.9608 30.7646 12.8404C30.7628 12.6279 30.7674 12.6209 30.9161 12.606C31.0005 12.5975 31.2286 12.6249 31.423 12.6668C32.5173 12.9027 33.073 12.6164 33.1127 11.7962C33.1221 11.6035 33.0964 11.2643 33.0549 11.0337C32.9559 10.4828 32.9606 10.3335 33.0826 10.1615C33.2193 9.96874 33.2237 9.58487 33.0914 9.40008C32.8704 9.09154 32.5025 8.97085 32.2076 9.11023ZM22.7062 9.69042C22.6088 9.75885 22.5138 9.88898 22.4572 10.0314C22.3766 10.2339 22.3724 10.2894 22.4221 10.4925C22.5336 10.9486 22.5712 11.5336 22.5219 12.0449C22.3897 13.4153 21.868 14.5371 20.7767 15.7976C20.4451 16.1806 20.3973 16.2931 20.4366 16.5985C20.4709 16.8652 20.598 17.0308 20.8533 17.1416C21.2177 17.2998 21.3576 17.2398 21.8463 16.7159C23.3111 15.1454 24.0967 13.0063 23.9217 11.0649C23.8679 10.4674 23.7828 10.0737 23.6682 9.89127C23.4716 9.57854 23.0044 9.48097 22.7062 9.69042ZM26.4107 11.1397C25.8105 11.2723 25.6708 12.117 26.1933 12.4544C26.4731 12.635 26.9261 12.5449 27.1184 12.2703C27.2554 12.0747 27.2729 11.6691 27.1531 11.4685C26.9933 11.2013 26.7068 11.0743 26.4107 11.1397ZM19.2506 12.2695C18.6783 12.668 18.9417 13.5816 19.6288 13.5816C20.003 13.5816 20.2751 13.323 20.3134 12.9311C20.3547 12.5089 20.0444 12.159 19.6288 12.159C19.4782 12.159 19.3594 12.1937 19.2506 12.2695ZM16.8734 16.4686C16.7042 16.88 16.457 17.6542 16.3392 18.1411C15.4906 21.652 16.2426 25.3145 18.4087 28.2187C18.7422 28.6659 19.5804 29.5663 20.0159 29.9453L20.2862 30.1805L21.323 29.7768C21.8932 29.5547 22.523 29.3083 22.7225 29.2293L23.0852 29.0855L22.819 28.7859C21.5409 27.3478 20.4742 25.3027 19.981 23.3447C19.6628 22.0815 19.4991 20.6217 19.5533 19.5317L19.5824 18.9475L18.2774 17.5877L16.9724 16.228L16.8734 16.4686ZM31.3697 16.2963C31.038 16.3703 30.825 16.6453 30.825 16.9992C30.825 17.419 31.1062 17.7072 31.5152 17.7066C31.9204 17.7061 32.186 17.4267 32.186 17.0013C32.186 16.5288 31.8043 16.1992 31.3697 16.2963ZM30.4594 19.246C29.4384 19.4433 28.9605 19.6036 28.2141 19.9993C27.5999 20.3249 27.0283 20.7366 26.4318 21.283C25.9724 21.7038 25.8766 21.8562 25.8766 22.166C25.8766 22.5771 26.1614 22.8736 26.5564 22.8736C26.8226 22.8736 26.8897 22.8332 27.3385 22.4024C28.0192 21.7489 28.9088 21.1933 29.706 20.9237C30.4577 20.6695 31.3925 20.6049 32.1451 20.7552C32.6092 20.8479 32.7301 20.828 32.9554 20.6217C33.2706 20.3333 33.2726 19.8517 32.9598 19.5654C32.7166 19.3428 32.2716 19.2521 31.3463 19.2364C30.9227 19.2293 30.5235 19.2336 30.4594 19.246ZM13.4957 22.8003L12.3814 25.8985L12.4388 26.1704C12.6851 27.3369 13.5834 29.1816 14.4671 30.3357C14.7871 30.7536 15.8435 31.8686 15.9194 31.8686C15.9802 31.8686 18.6986 30.8106 18.7348 30.7728C18.7473 30.7599 18.5058 30.481 18.1981 30.1532C17.5673 29.4808 17.1905 29.0013 16.736 28.2922C15.6814 26.6469 15.0165 24.8546 14.7203 22.8585C14.6347 22.2812 14.6161 21.9464 14.6135 20.931C14.6118 20.2552 14.6103 19.7022 14.6102 19.7022C14.6102 19.7022 14.1087 21.0964 13.4957 22.8003ZM20.963 20.7364C21.1603 23.0804 21.8898 25.1342 23.1512 26.8974C23.5254 27.4206 24.3459 28.3851 24.4807 28.4602C24.5485 28.4981 24.7979 28.4189 25.6062 28.1028C26.1808 27.8781 26.7139 27.6391 26.7998 27.5677C26.8998 27.4844 26.9736 27.3661 27.0076 27.2344C27.1208 26.7961 27.2263 26.9249 23.9788 23.5346C22.3443 21.8283 20.9913 20.4322 20.9722 20.4322C20.953 20.4322 20.9489 20.5691 20.963 20.7364ZM30.2469 23.5666C30.0674 23.6481 29.8695 23.8905 29.8302 24.0769C29.7287 24.5591 30.219 25.056 30.6779 24.9359C31.2953 24.7744 31.3972 23.8794 30.8319 23.5834C30.6401 23.4829 30.4436 23.4773 30.2469 23.5666ZM10.6896 30.5919C10.0159 32.4687 9.80422 33.1112 9.80716 33.2706C9.81337 33.6056 10.0763 33.8984 10.4129 33.9451C10.5671 33.9664 10.8906 33.8551 12.4863 33.2316C13.5261 32.8253 14.3845 32.485 14.3938 32.4755C14.403 32.4659 14.2163 32.2324 13.9788 31.9565C13.0797 30.9124 12.466 29.9763 11.9189 28.8149C11.7392 28.4335 11.5885 28.1217 11.5841 28.1222C11.5796 28.1226 11.1771 29.234 10.6896 30.5919Z" fill="#095933"/>
</svg>
