<svg viewBox="0 0 70 140" fill="none" xmlns="http://www.w3.org/2000/svg"><path d="M24.4908 44.2906C24.8859 44.4252 25.2796 44.4175 25.6537 44.2287C28.5736 45.5042 30.9789 43.0819 33.8251 43.3026C44.4753 44.1024 54.8743 46.296 65.2676 48.5243C68.8231 49.2856 69.9616 51.2583 69.2007 54.8813C67.3031 63.8327 65.0276 72.7708 59.5534 80.1871C55.2592 86.0034 50.0315 90.923 42.2424 93.5699C37.0245 95.3384 32.0158 94.0115 27.1688 95.4604C26.1843 95.2546 24.7823 94.2233 24.4085 95.6921C24.2247 96.4448 25.9336 96.4944 26.8928 96.5538L26.8664 96.4903C27.1409 99.6279 28.6268 101.728 32.0814 102.129L32.0511 102.089C31.4116 103.23 31.7022 104.083 32.9247 104.635L32.8441 104.527C37.2441 115.629 36.9813 126.443 31.1671 137.005C30.3342 138.507 29.8243 139.681 27.7459 139.264C18.173 137.345 8.2152 137.415 -0.65823 132.101C-7.70941 127.874 -11.8494 122.337 -13.1446 114.164C-19.1691 116.443 -23.9671 120.531 -29.9485 122.319C-38.9326 124.999 -47.8429 127.904 -57.5325 125.646C-63.2514 124.312 -64.434 123.138 -63.0996 117.498C-60.5831 106.927 -57.6412 96.5319 -49.7096 88.1833C-47.1202 85.4589 -44.0515 83.7834 -40.6335 82.2233C-42.0564 80.2641 -43.7258 81.0268 -45.2083 80.9425C-58.6919 80.2203 -70.1615 76.0886 -77.0638 63.7074C-80.1962 58.0836 -79.8816 52.0777 -79.7374 46.1392C-79.6634 43.2711 -76.523 42.2115 -74.0138 41.7142C-61.6621 39.2913 -49.8231 41.0764 -38.2497 46.0782C-34.1595 47.8499 -30.9821 51.3121 -26.4621 52.4774C-25.6252 49.5185 -27.7754 48.035 -28.4504 46.0775C-33.7549 30.4331 -28.0832 17.6558 -17.6983 6.28823C-11.1477 -0.883877 -8.009 -0.651795 1.89016 6.27341C4.64325 8.19761 7.1827 10.4549 10.5314 11.4319C11.521 13.6414 12.4001 15.928 15.0971 16.7646C20.4261 26.2262 22.7622 36.1428 19.5953 47.545C21.7793 46.1065 23.1391 45.2111 24.5008 44.3041L24.4908 44.2906ZM17.4816 69.0606C16.434 64.9453 15.8075 60.5778 10.8601 58.7986C9.45513 58.0867 8.00432 57.5808 6.73304 56.4994C0.692001 51.4153 -4.16191 51.9267 -10.199 56.8465C-15.7703 61.3908 -18.7969 67.4821 -21.7331 73.4694C-26.3216 82.8297 -24.0602 89.5105 -15.0555 92.7362C-7.65132 95.3964 0.415822 97.298 8.06106 93.1228C15.9458 88.8319 21.8759 79.3674 17.4935 69.0625L17.4816 69.0606Z" fill="#FBE558"/></svg>