<svg viewBox="0 0 100 60" fill="none" xmlns="http://www.w3.org/2000/svg"><path d="M46.9549 25.2516L47.8566 24.8193L46.9549 25.2516ZM17.5568 34.3623L16.5633 34.4764L17.5568 34.3623ZM92.9634 59.7476L87.7233 49.4581L99.2543 50.0647L92.9634 59.7476ZM47.8566 24.8193C50.9925 31.3601 50.9009 36.8966 48.7513 41.1113C46.6151 45.2996 42.5377 48.0011 38.0512 49.079C33.5657 50.1566 28.5693 49.6391 24.4917 47.2712C20.3826 44.8851 17.2723 40.6553 16.5633 34.4764L18.5503 34.2483C19.1887 39.8122 21.944 43.4791 25.496 45.5417C29.0795 47.6226 33.5399 48.1059 37.584 47.1343C41.6272 46.163 45.1525 43.7653 46.9696 40.2026C48.7733 36.6663 48.9855 31.8 46.0532 25.684L47.8566 24.8193ZM16.5633 34.4764C15.4294 24.5954 19.7303 17.3731 26.8132 13.0103C33.8361 8.68438 43.5437 7.18652 53.3525 8.47635C72.9615 11.0549 93.5542 24.8955 94.4354 50.7305L92.4366 50.7986C91.5994 26.2545 72.0793 12.9561 53.0917 10.4593C43.6022 9.21143 34.3906 10.6918 27.8621 14.7131C21.3936 18.6975 17.5109 25.1913 18.5503 34.2483L16.5633 34.4764ZM0.63888 0.70756C20.1345 -0.858009 39.0634 6.47872 47.8566 24.8193L46.0532 25.684C37.7202 8.3035 19.7342 1.18058 0.798972 2.70114L0.63888 0.70756Z" fill="#1EAF6D"/></svg>