<svg width="108" height="46" viewBox="0 0 108 46" fill="none" xmlns="http://www.w3.org/2000/svg">
<path d="M50.9871 18.078L51.7647 17.4493L50.9871 18.078ZM24.6887 33.5622L23.7482 33.9017L24.6887 33.5622ZM103.239 40.8046L95.7661 32.0015L107.126 29.9316L103.239 40.8046ZM51.7647 17.4493C56.2813 23.0358 57.4544 28.3933 56.3378 32.9476C55.2284 37.4728 51.906 41.0069 47.8203 43.0695C43.7354 45.1317 38.794 45.7738 34.3179 44.4231C29.8068 43.0617 25.8398 39.6952 23.7482 33.9017L25.6293 33.2226C27.5102 38.4321 31.0009 41.333 34.8957 42.5083C38.8255 43.6942 43.2383 43.1422 46.9189 41.2841C50.5988 39.4264 53.4533 36.3141 54.3953 32.4714C55.3302 28.658 54.4293 23.9262 50.2095 18.7067L51.7647 17.4493ZM23.7482 33.9017C20.4057 24.644 22.9096 16.7059 28.7466 10.8863C34.5339 5.11638 43.5532 1.45597 53.3059 0.453826C72.8017 -1.54949 95.8227 7.05379 102.59 31.6902L100.662 32.2199C94.2368 8.83083 72.3864 0.503715 53.5103 2.44335C44.0771 3.41268 35.5354 6.94208 30.1587 12.3026C24.8319 17.6135 22.569 24.7464 25.6293 33.2226L23.7482 33.9017ZM0.700317 4.99721C19.16 -0.960126 39.1015 1.78604 51.7647 17.4493L50.2095 18.7067C38.2161 3.8721 19.2414 1.11516 1.31456 6.90055L0.700317 4.99721Z" fill="#095933"/>
</svg>
