<svg width="44" height="48" viewBox="0 0 44 48" fill="none" xmlns="http://www.w3.org/2000/svg">
<path fill-rule="evenodd" clip-rule="evenodd" d="M20.7314 47.0814L10.5153 43.4951L14.9287 29.1418L0.621569 28.7057L0.429955 17.4558L15.015 18.0266L10.568 3.55632L20.7693 0.421235L25.1877 14.7982L36.7417 6.31586L43.2553 15.5905L31.5392 24.0381L43.1968 33.3207L36.9193 42.1224L25.22 33.0476L20.7314 47.0814ZM24.5027 30.7342L36.6113 40.1266L41.2857 33.5727L29.2099 23.9569L41.322 15.2237L36.4568 8.2963L24.4672 17.0984L19.8868 2.19407L12.2938 4.52755L16.9042 19.5293L1.8254 18.9392L1.96811 27.3179L16.8018 27.7701L12.2401 42.6055L19.8512 45.2773L24.5027 30.7342Z" fill="black"/>
</svg>
