<svg width="50" height="44" viewBox="0 0 50 44" fill="none" xmlns="http://www.w3.org/2000/svg">
<path fill-rule="evenodd" clip-rule="evenodd" d="M21.2123 18.3075L13.7734 5.57684L15.2701 4.75174C19.5783 2.37673 25.6822 0.494451 32.2693 0.083571C38.9147 -0.330942 46.5844 0.725102 53.5844 4.86415C57.8208 7.36902 61.0297 7.26443 63.5902 6.47149C66.5132 5.56627 69.2174 3.53728 71.5262 1.29477L72.6623 0.191348L83.2926 10.5171L82.055 11.7193C79.0554 14.6327 74.3289 18.532 68.0967 20.462C61.5017 22.5043 53.8297 22.142 45.8581 17.4285C42.0858 15.198 37.6359 14.4501 33.2194 14.7256C28.7436 15.0048 24.841 16.307 22.6029 17.5409L21.2123 18.3075ZM79.7119 11.6503C76.8151 14.2747 72.7362 17.2844 67.6169 18.8697C61.45 20.7795 54.2529 20.4649 46.6854 15.9903C42.5642 13.5536 37.7705 12.7738 33.1185 13.0639C28.4192 13.3571 24.2809 14.7207 21.8184 16.0783L16.0546 6.21433C16.5214 5.95701 17.0114 5.70531 17.5229 5.46072C21.4862 3.56541 26.7339 2.09684 32.3702 1.74527C38.7812 1.34537 46.1067 2.36999 52.7571 6.30227C57.3974 9.04595 61.081 8.98931 64.0699 8.0637C67.3495 7.04808 70.2748 4.81584 72.6622 2.49695L80.9189 10.5171C80.5427 10.8825 80.1402 11.2622 79.7119 11.6503Z" fill="black"/>
<path fill-rule="evenodd" clip-rule="evenodd" d="M7.4389 40.6082L0 27.8776L1.4967 27.0525C5.80483 24.6775 11.9088 22.7952 18.4959 22.3844C25.1412 21.9698 32.8109 23.0259 39.811 27.1649C44.0473 29.6698 47.2562 29.5652 49.8167 28.7723C52.7398 27.867 55.444 25.8381 57.7528 23.5956L58.8888 22.4921L69.5192 32.8179L68.2815 34.0201C65.2819 36.9335 60.5554 40.8327 54.3232 42.7627C47.7282 44.8051 40.0563 44.4428 32.0846 39.7292C28.3124 37.4988 23.8624 36.7509 19.4459 37.0264C14.9702 37.3056 11.0676 38.6078 8.82944 39.8417L7.4389 40.6082ZM65.9384 33.951C63.0417 36.5755 58.9628 39.5852 53.8435 41.1705C47.6766 43.0803 40.4795 42.7657 32.9119 38.2911C28.7907 35.8543 23.997 35.0745 19.3451 35.3647C14.6458 35.6578 10.5075 37.0215 8.04498 38.3791L2.28116 28.5151C2.74792 28.2578 3.238 28.0061 3.74947 27.7615C7.71279 25.8662 12.9605 24.3976 18.5967 24.046C25.0077 23.6462 32.3333 24.6708 38.9837 28.603C43.6239 31.3467 47.3076 31.2901 50.2965 30.3645C53.576 29.3489 56.5013 27.1166 58.8888 24.7977L67.1455 32.8179C66.7693 33.1833 66.3668 33.5629 65.9384 33.951Z" fill="black"/>
</svg>
