 <svg viewBox="0 0 101 94" fill="none" xmlns="http://www.w3.org/2000/svg"><path d="M100.322 0.0168345C93.7047 22.7381 89.2425 45.8126 78.6342 67.0875C69.9792 84.427 71.4778 103.936 69.7434 125.026C79.493 111.353 75.5527 96.6201 80.7558 84.1747C85.9084 71.8302 89.5456 58.7962 99.0594 46.7544C99.0594 64.178 99.9013 80.2056 98.7731 96.1156C97.948 107.855 90.4885 117.29 81.9177 124.875C69.3561 135.991 59.9771 148.655 57.064 165.49C56.8956 166.432 55.9358 167.223 54.4372 169.375C54.0836 166.298 53.7468 164.582 53.7131 162.883C53.3595 146.906 49.7055 133.401 36.0663 122.066C22.5281 110.798 17.1397 93.2901 11.3978 76.6906C9.07404 69.9802 4.84757 63.9257 1.4125 57.602C0.469543 55.853 -0.877534 53.9357 0.789484 52.2707C2.69224 50.3871 4.15718 52.5734 5.77369 53.4984C22.4102 63.0679 35.8137 75.9674 46.5062 91.8774C49.6213 96.5024 48.3921 102.876 54.1846 108.09C48.7457 84.612 60.2633 63.7743 56.6262 41.793C57.7375 41.6417 58.8488 41.4903 59.977 41.339L69.6592 84.9652C67.9417 52.2035 70.8043 21.2076 100.322 0V0.0168345ZM56.5542 112.753C56.1164 111.239 56.4578 109.705 53.9825 108.931C54.5871 110.783 54.5871 112.325 54.9087 114.094C56.7946 124.471 53.5279 135.487 58.7647 146.536C62.1324 140.381 62.3345 134.696 62.3176 128.945C62.2788 121.89 57.5378 118.661 56.5542 112.753Z" fill="#1EAF6D"/></svg>