 <svg viewBox="0 0 144 148" fill="none" xmlns="http://www.w3.org/2000/svg"><path d="M49.3321 42.5262C63.2234 40.3584 76.1304 49.891 78.1787 63.7655C79.3361 71.7301 80.8959 79.6669 82.2397 77.6056C84.7832 73.6852 79.7517 53.2208 84.9318 48.3201C90.0999 43.4276 106.549 42.5501 113.585 50.8507C120.63 59.1632 136.85 77.1229 118.546 102.529C103.455 123.475 94.454 127.346 77.5641 130.581C61.6516 133.628 45.1553 123.537 33.6242 102.545C26.901 90.2967 26.539 46.3504 48.5959 42.6575C48.8453 42.6111 49.1028 42.5766 49.3402 42.5382" fill="#BA59B0"/><path d="M32.3702 71.2844C22.2771 76.5421 13.3409 67.7381 13.7644 58.0397C14.2424 47.0577 21.8618 39.9592 31.9096 41.0142C37.117 41.56 41.8501 46.1108 42.6886 51.4188C43.9701 59.5705 39.0937 69.4378 32.3702 71.2844Z" fill="#C0F2FF"/></svg>