<svg viewBox="0 0 67 64" fill="none" xmlns="http://www.w3.org/2000/svg"><path d="M27.7445 30.9655C28.4078 30.4222 28.6077 29.6201 28.9182 28.8792C30.2354 26.9857 31.5526 25.0923 32.8698 23.1988C33.9776 22.5261 34.6668 21.4206 35.5653 20.5339C38.6489 17.4926 42.2264 15.197 46.1733 13.5246C48.6618 12.4709 51.2679 11.6665 54.0034 11.3842C55.1983 11.2619 56.339 10.8127 57.5127 10.5375C60.6081 9.80831 63.6729 8.91216 66.7706 8.2277C69.7249 7.57616 72.618 6.67531 75.6028 6.15549C76.1673 6.0567 76.6236 6.15549 77.0117 6.3907C78.4794 7.27745 80.02 7.77609 81.7535 7.67025C82.2686 7.63967 82.7626 7.59029 83.2354 7.39977C84.5643 6.86819 85.9262 6.92934 87.2692 7.24687C88.6334 7.57146 88.9674 8.74047 88.0831 9.84125C87.8384 10.1447 87.6573 10.4998 87.3986 10.7915C86.9164 11.3348 86.8717 11.8523 87.0716 12.5862C87.5538 14.362 87.5303 16.2131 87.528 18.0454C87.5233 20.5716 86.9187 22.9801 85.8579 25.2499C85.2252 26.6023 84.3338 27.8113 83.4094 29.0038C81.7347 31.1701 81.2078 33.7551 81.1867 36.4365C81.1702 38.4711 81.2055 40.515 80.7657 42.5026C80.3446 44.4101 79.3967 46.1272 78.0231 47.5031C75.718 49.8129 73.4059 52.1086 71.1785 54.4936C68.5747 57.2808 65.8651 60.0022 62.4028 61.7193C58.4301 63.6903 54.2104 64.3371 49.819 63.394C48.2901 63.0647 46.7519 62.9 45.1877 62.8765C43.5483 62.853 41.9089 62.6977 40.2695 62.6671C39.4251 62.653 38.7241 62.4414 38.035 61.9286C33.773 58.7627 30.0637 55.1475 27.601 50.3327C26.9472 49.0532 26.7825 47.5784 25.8605 46.4423C25.4559 43.8691 25.1196 41.2912 25.3618 38.678C25.4959 38.3746 25.5359 38.0665 25.3924 37.7537C26.0816 37.1868 25.7476 36.3048 26.0487 35.5968C26.6884 34.0844 27.1847 32.5132 27.7422 30.9655H27.7445ZM49.2851 61.2888C52.3546 60.8537 55.5534 60.5173 58.6394 59.4165C62.2146 58.1417 65.484 56.3282 68.5512 54.1431C71.0326 52.3743 73.286 50.3327 75.2006 47.9359C76.7929 45.9437 77.9737 43.7304 78.8369 41.35C79.7284 38.885 79.9824 36.2836 80.3587 33.708C80.6904 31.4359 80.9632 29.145 81.6759 26.9505C82.4074 24.6924 83.5788 22.6155 84.4373 20.4116C85.1476 18.5911 85.5686 16.7188 85.3287 14.7078C85.1076 12.8519 83.7905 11.7465 82.852 10.3399C81.6524 8.54524 80.1047 8.2771 78.1901 8.55935C75.8874 8.8957 73.627 9.3967 71.3737 9.97297C68.5865 10.6833 65.7663 11.2643 62.9532 11.8711C59.3168 12.6567 55.624 13.1083 51.9618 13.7457C50.0824 14.0727 48.2267 14.4749 46.3967 15.0276C45.0984 15.4181 43.8611 15.9308 42.6075 16.4413C40.3424 17.3609 38.4301 18.6828 36.7743 20.4492C35.1678 22.1663 33.7683 24.0456 32.5075 26.012C30.7529 28.7475 28.6266 31.2666 27.4834 34.369C25.9946 38.4123 26.2886 42.3873 28.0009 46.2894C28.7983 48.1076 30.0261 49.6624 31.0916 51.3182C32.7357 53.8703 34.6221 56.0695 37.1859 57.7513C40.8387 60.1457 44.9172 60.8843 49.2827 61.2888H49.2851Z" fill="%231EAF6D"/><path d="M27.7447 30.9655C27.1896 32.5131 26.6933 34.0867 26.0512 35.5967C25.7501 36.3047 26.0841 37.1844 25.3949 37.7536C22.0761 35.8649 20.0603 32.8119 18.1646 29.6553C16.6757 27.1786 14.7446 25.0923 12.5948 23.1894C11.9762 22.6414 11.3528 22.0792 11.2423 21.1713C11.5881 20.9667 11.8727 21.0654 12.202 21.2583C15.7466 23.3376 19.136 25.645 22.4807 28.0253C23.3321 28.6298 24.2777 29.1049 25.2702 29.5283C24.5082 28.1806 23.4991 27.0304 22.3489 26.0872C19.2159 23.514 16.3652 20.6726 14.3259 17.1751C13.0181 14.9312 12.0679 12.4779 11.4704 9.8953C11.1364 8.45346 10.8848 7.01163 10.7884 5.54862C10.666 3.69281 10.8142 1.85346 11.748 0C13.291 4.45018 15.8077 8.22061 17.9458 12.191C19.724 15.491 21.4951 18.8709 22.3772 22.5026C23.2333 26.0354 25.6066 28.3687 27.74 30.9655H27.7447Z" fill="%23095933"/><path d="M25.3646 38.678C25.1223 41.2936 25.4587 43.8691 25.8633 46.4423C22.2457 46.6681 18.8681 45.5603 15.5422 44.4054C13.2348 43.6033 11.0544 42.4343 8.81286 41.4441C7.11935 40.6961 5.3976 40.0822 3.54179 39.8C2.45982 39.6353 1.3802 39.2567 0.446412 38.6075C0.182976 38.424 -0.0804424 38.1982 0.0230502 37.8454C0.114782 37.5302 0.418192 37.342 0.716909 37.2762C2.61506 36.8693 4.5038 36.2953 6.42312 36.1448C8.94457 35.9496 11.4707 35.7379 14.0181 35.8038C18.0355 35.9073 21.8129 36.8128 25.3646 38.678Z" fill="%23095933"/><path d="M32.8701 23.199C31.553 25.0924 30.2358 26.9859 28.9186 28.8793C27.9283 28.2231 27.5497 27.1082 27.0863 26.1367C25.6774 23.1919 24.3249 20.2 23.4452 17.0482C23.083 15.7545 22.4644 14.5291 22.3374 13.0708C23.6757 13.8823 24.6283 15.0536 25.6727 16.058C27.5802 17.8973 29.6101 19.6214 31.3859 21.6066C31.8681 22.1452 32.188 22.8461 32.8725 23.1966L32.8701 23.199Z" fill="%23095933"/><path d="M49.2856 61.2887C44.9201 60.8841 40.8416 60.1432 37.1887 57.7511C34.6249 56.0717 32.7386 53.8725 31.0944 51.3181C30.0266 49.6599 28.8011 48.1075 28.0038 46.2893C26.2914 42.3872 25.9974 38.4121 27.4863 34.3688C28.6294 31.2664 30.7557 28.7473 32.5104 26.0118C33.7711 24.0455 35.1706 22.1638 36.7771 20.4491C38.433 18.6803 40.3476 17.3584 42.6103 16.4411C43.864 15.9331 45.1012 15.4203 46.3996 15.0275C48.2295 14.4771 50.0853 14.0725 51.9646 13.7456C55.6269 13.1082 59.3197 12.6566 62.956 11.871C65.7691 11.2641 68.5893 10.6832 71.3766 9.97282C73.6322 9.39655 75.8903 8.89791 78.193 8.5592C80.1076 8.2793 81.6553 8.54509 82.8548 10.3397C83.7933 11.744 85.1105 12.8518 85.3316 14.7076C85.5715 16.7187 85.1481 18.5909 84.4402 20.4115C83.5816 22.6154 82.4103 24.6946 81.6788 26.9503C80.9661 29.1448 80.6956 31.4358 80.3616 33.7079C79.9853 36.2834 79.7336 38.8849 78.8398 41.3499C77.9789 43.7302 76.7958 45.9435 75.2034 47.9358C73.2888 50.3326 71.0355 52.3742 68.554 54.143C65.4893 56.3281 62.2175 58.1415 58.6423 59.4164C55.5563 60.5172 52.3551 60.8512 49.288 61.2887H49.2856ZM63.8569 32.3554C63.8569 31.7298 63.9298 31.0947 63.8428 30.4808C63.6287 28.9778 63.4053 27.4466 61.9658 26.5199C61.0979 25.9601 60.1288 25.8189 59.1056 25.6731C55.3305 25.1415 51.72 25.9389 48.2107 27.0703C45.614 27.9076 43.1278 29.1354 40.8369 30.6854C39.0469 31.8944 37.4828 33.3551 36.2503 35.1121C34.7543 37.2478 34.505 39.7481 34.5849 42.2672C34.6437 44.1771 34.8978 46.0659 36.1938 47.6371C37.0853 48.7167 38.2142 49.3706 39.4703 49.9751C41.7095 51.057 43.9134 52.1696 46.3925 52.5906C48.6247 52.9693 50.8921 52.9575 52.9714 52.1366C56.3678 50.7959 58.8516 48.2674 60.5733 45.0991C62.7232 41.1476 63.9298 36.8997 63.8593 32.3531L63.8569 32.3554Z" fill="%23FFE655"/><path d="M63.8567 32.3578C63.9273 36.9044 62.7206 41.1523 60.5708 45.1038C58.8467 48.2697 56.3652 50.8006 52.9688 52.1413C50.8872 52.9622 48.6198 52.974 46.39 52.5953C43.9109 52.1742 41.7069 51.0593 39.4677 49.9797C38.2117 49.3729 37.0827 48.7213 36.1913 47.6417C34.8953 46.0705 34.6436 44.1818 34.5824 42.2719C34.5048 39.7551 34.7541 37.2525 36.2477 35.1168C37.4779 33.3598 39.0444 31.8991 40.8343 30.6901C43.1276 29.1424 45.6114 27.9146 48.2082 27.0749C51.7175 25.9412 55.328 25.1462 59.1031 25.6778C60.1286 25.8213 61.0953 25.9647 61.9633 26.5246C63.4027 27.4513 63.6262 28.9801 63.8402 30.4855C63.9273 31.0994 63.8544 31.7345 63.8544 32.3601L63.8567 32.3578Z" fill="%23FF6131"/></svg>