<svg width="1440" height="148" viewBox="0 0 1440 148" fill="none" xmlns="http://www.w3.org/2000/svg">
<mask id="mask0_5665_129755" style="mask-type:alpha" maskUnits="userSpaceOnUse" x="0" y="0" width="1440" height="148">
<rect width="1440" height="148" fill="#FEFFED"/>
</mask>
<g mask="url(#mask0_5665_129755)">
<path d="M1340.27 105.805C1343.78 102.779 1347.92 101.09 1352.44 100.425C1359.75 99.3517 1366.46 100.473 1370.88 107.605C1372.88 110.852 1374.26 114.287 1374.88 118.051C1375.06 119.11 1375.41 119.951 1376.56 120.641C1378.29 121.674 1379.33 123.563 1379.86 125.507C1380.95 129.514 1380.97 133.569 1380.32 137.698C1379.52 142.823 1377.91 147.774 1377.17 152.895C1376.8 155.43 1376.75 158.035 1376.82 160.603C1376.87 162.795 1375.62 163.927 1374 164.902C1372.81 165.621 1371.65 166.525 1370.35 166.927C1368.24 167.576 1367.58 169.277 1366.78 170.96C1365.56 173.495 1363.93 175.627 1361.2 176.694C1359.7 177.28 1358.14 177.214 1356.69 176.723C1354.7 176.055 1352.56 175.675 1350.89 174.218C1350.52 173.897 1350.02 173.428 1349.43 173.934C1347.11 175.926 1344.94 174.709 1342.85 173.55C1340.46 172.225 1338.44 170.358 1336.34 168.635C1332.75 165.687 1329.11 162.787 1325.66 159.673C1319.74 154.334 1314.28 148.553 1311.09 141.115C1308.77 135.72 1308.24 130.075 1309.57 124.235C1310.44 120.449 1311.81 117.066 1314.71 114.405C1316.18 113.066 1317.89 112.048 1319.73 111.487C1321.16 111.048 1321.57 110.033 1322.03 108.985C1323.31 106.03 1324.28 105.325 1327.51 105.288C1328.07 105.281 1328.62 105.296 1329.17 105.299C1329.12 109.21 1329.13 113.125 1328.98 117.032C1328.95 117.84 1329.12 118.077 1329.79 118.327C1332.51 119.342 1335.2 120.419 1337.91 121.449C1339 121.862 1339.57 121.168 1340.02 120.335C1341.12 118.302 1342.19 116.25 1343.3 114.221C1344.7 111.649 1344.65 111.697 1342.82 109.387C1341.91 108.244 1340.56 107.391 1340.28 105.801L1340.27 105.805Z" fill="#F5B720"/>
<path d="M1340.27 105.805C1340.56 107.395 1341.91 108.247 1342.81 109.391C1344.65 111.705 1344.69 111.657 1343.29 114.225C1342.18 116.254 1341.11 118.305 1340.01 120.338C1339.56 121.172 1338.99 121.866 1337.9 121.453C1335.19 120.423 1332.5 119.346 1329.78 118.331C1329.11 118.08 1328.94 117.844 1328.98 117.036C1329.13 113.129 1329.12 109.214 1329.16 105.303C1329.36 103.2 1328.07 101.47 1327.67 99.5068C1327.46 98.4737 1327.38 97.3484 1326.84 96.378C1326.43 95.6216 1327.13 95.3596 1327.51 95.1235C1329.71 93.7952 1331.96 92.5555 1334.16 91.231C1334.79 90.8472 1335.02 90.9284 1335.41 91.5741C1337.07 94.3376 1338.83 97.0311 1339.79 100.171C1340.36 102.042 1340.19 103.92 1340.27 105.801V105.805Z" fill="#265441"/>
<path d="M979.955 39.9473C979.095 41.8894 977.631 43.3653 976.167 44.8413C973.648 47.381 970.807 49.4814 967.613 51.0858C964.586 52.6066 961.335 53.5 957.998 53.7539C953.743 54.0766 949.477 53.8764 945.294 52.8426C942.524 52.1584 939.838 51.2203 937.176 50.1925C933.997 48.9645 931.036 47.3033 928.06 45.6779C926.22 44.674 924.511 43.4341 922.745 42.2987C922.022 41.8326 921.938 41.1484 922.031 40.3566C922.703 34.5991 923.522 28.8446 923.964 23.0812C924.511 15.9672 927.681 10.0932 931.365 4.31178C932.751 2.13666 934.352 0.191607 936.354 -1.42778C937.854 -2.64083 939.497 -3.579 941.368 -4.09888C944.123 -1.39492 946.934 1.25227 949.988 3.61562C952.617 5.65031 955.425 7.43404 958.318 9.0833C960.989 10.6041 963.833 11.6887 966.683 12.83C969.647 14.0162 972.755 14.1775 975.754 14.9663C976.259 15.1007 976.994 14.7542 977.293 15.2232C977.726 15.9015 976.716 16.0897 976.552 16.6185C976.498 16.7948 976.322 16.9293 976.223 17.0966C974.703 19.6631 973.006 22.14 971.948 24.9485C970.893 27.7511 969.922 30.5805 969.417 33.5564C968.793 37.2374 969.364 40.8257 970.107 44.4081C970.263 45.1521 970.717 45.8422 971.515 45.4658C972.097 45.1909 972.814 45.0206 973.26 44.6113C974.667 43.3056 976.361 42.4302 977.9 41.3247C978.566 40.8466 978.957 39.9323 979.955 39.9503V39.9473ZM966.725 16.8486C966.394 15.8089 965.99 16.1823 965.578 16.7918L965.24 16.8277C964.909 16.6036 964.601 16.6992 964.275 16.8635C962.943 17.5418 962.106 18.4889 961.882 20.0844C961.625 21.9159 961.73 22.1938 963.546 22.143C965.058 22.6479 966.002 21.3841 967.215 20.9598C968.521 20.5863 968.766 20.174 968.521 18.4262C968.384 17.4312 967.947 16.6574 966.722 16.8396V16.8486H966.725ZM958.82 45.0684C959.136 44.8144 959.534 44.9041 959.889 44.8234C960.185 44.8174 960.481 44.8144 960.774 44.8084C962.046 44.5933 962.381 43.6552 962.333 42.5766C962.285 41.489 961.404 40.745 960.293 40.6853C959.758 40.6554 959.22 40.6524 958.682 40.6375C958.171 39.5649 957.63 40.5717 957.179 40.6793C955.288 41.1364 954.867 41.6922 955.142 43.449C955.255 44.178 955.62 44.8981 955.999 45.5434C956.42 46.2575 957.218 46.0992 957.881 46.0155C958.359 45.9558 959.056 45.9169 958.817 45.0654L958.82 45.0684ZM935.3 19.0267C935.64 17.5716 934.287 17.7509 933.638 17.5238C932.769 17.2161 932.076 17.7718 931.87 18.7429C931.371 19.681 931.266 20.7118 931.236 21.7426C931.197 23.1798 931.867 23.9506 933.16 24.0343C934.349 24.1119 935.291 23.2843 935.374 21.9787C935.437 20.9987 935.488 20.0067 935.3 19.0267ZM950.714 28.1365C951.111 28.758 951.476 29.0239 951.977 28.1873C952.467 27.3716 952.781 26.5739 952.757 25.5819C952.727 24.4137 952.073 23.6698 951.141 23.4606C950.197 23.2485 948.951 22.9258 948.413 24.339C948.037 24.5691 947.741 24.9396 947.502 25.2503C946.874 26.063 945.966 26.8458 946.307 28.0648C946.582 29.0538 947.322 29.7111 948.3 29.7947C949.453 29.8933 950.218 29.1434 950.711 28.1365H950.714ZM947.944 9.08629C947.935 7.5177 946.295 6.38831 945.019 7.13227C944.311 7.54757 943.647 8.08538 943.068 8.67098C942.139 9.60915 942.467 11.4765 943.585 11.9874C945.279 12.7583 947.953 10.9776 947.941 9.08629H947.944ZM931.905 42.472C932.404 42.472 932.805 42.4391 933.199 42.478C934.254 42.5825 935.222 42.3166 935.667 41.3456C936.178 40.2311 935.634 38.1068 934.878 37.4794C934.765 37.3867 934.669 37.2583 934.541 37.1955C933.289 36.6069 931.371 36.598 930.098 37.1657C928.517 37.8678 928.081 39.8188 928.84 41.3486C929.614 42.9082 930.872 42.3555 931.908 42.472H931.905Z" fill="#E32641"/>
<path d="M979.955 39.9475C978.957 39.9295 978.563 40.8438 977.9 41.3218C976.364 42.4273 974.67 43.3027 973.26 44.6084C972.814 45.0207 972.097 45.188 971.515 45.4629C970.717 45.8394 970.263 45.1492 970.108 44.4053C969.364 40.8229 968.793 37.2345 969.417 33.5536C969.922 30.5807 970.89 27.7483 971.948 24.9457C973.006 22.1372 974.703 19.6603 976.224 17.0937C976.322 16.9264 976.498 16.792 976.552 16.6157C976.717 16.0869 977.726 15.8986 977.293 15.2204C976.994 14.7543 976.259 15.0979 975.754 14.9635C972.755 14.1747 969.647 14.0133 966.683 12.8272C963.833 11.6858 960.989 10.6013 958.318 9.08047C955.425 7.4312 952.617 5.64749 949.988 3.6128C946.934 1.24945 944.123 -1.39775 941.368 -4.10171C939.976 -5.95713 939.987 -5.9422 941.774 -7.58848C945.539 -11.0543 950.113 -11.5055 954.912 -11.1679C958.637 -10.9049 962.151 -9.79945 965.611 -8.48183C966.205 -8.25476 966.63 -7.66914 967.329 -7.68408C967.416 -7.68408 967.499 -7.76774 967.583 -7.81554C964.867 -13.6537 965.118 -19.8026 965.662 -25.9874C965.799 -27.553 965.877 -29.1245 965.993 -30.9053C968.602 -29.1245 970.574 -26.9853 972.342 -24.6787C974.207 -22.2436 975.76 -19.5845 977.165 -16.8596C978.148 -14.9534 978.981 -12.9665 979.833 -10.9946C981.001 -8.29061 981.948 -5.49701 982.782 -2.67951C983.854 0.956642 985.091 4.55694 985.572 8.35144C985.671 9.12827 985.97 9.87821 986.218 10.7985C992.023 4.41352 997.748 -1.88177 1003.6 -8.32048C1004.17 -6.56963 1004.67 -5.01 1004.64 -3.32189C1004.63 -2.79902 1004.47 -2.42555 1004.08 -2.03117C1000.35 1.73944 996.866 5.75206 993.23 9.61529C991.554 11.396 989.63 13.0124 988.339 15.1875C992.232 16.3468 995.967 17.8885 999.567 19.738C1002.79 21.3962 1005.79 23.395 1008.36 25.9974C1012.46 30.1415 1013.68 34.5515 1012.02 40.0879C1011.36 42.3138 1010.98 42.3287 1009.08 40.9693C1004.72 37.859 1000.32 34.8054 995.946 31.716C993.054 29.6724 990.177 27.6078 987.033 25.367C987.147 31.6234 983.478 35.7436 979.952 39.9385L979.955 39.9475Z" fill="#2DA06A"/>
<path d="M950.714 28.1364C950.218 29.1433 949.456 29.8933 948.303 29.7947C947.326 29.711 946.585 29.0537 946.31 28.0647C945.969 26.8457 946.878 26.0629 947.505 25.2502C947.744 24.9425 948.04 24.569 948.416 24.3389C948.649 24.2702 948.909 24.2463 949.106 24.1268C949.994 23.586 950.738 23.825 951.518 24.4047C952.312 24.9963 952.097 25.791 952.079 26.5439C952.058 27.4194 951.117 27.5598 950.714 28.1364Z" fill="#F3CF59"/>
<path d="M967.218 20.9571C966.005 21.3814 965.061 22.6452 963.549 22.1403C961.974 21.214 962.01 19.0419 963.492 18.1575C964.119 17.7841 964.66 17.2702 965.24 16.822L965.578 16.7861C965.96 16.8041 966.342 16.825 966.725 16.8429V16.8339C968.35 18.5937 968.365 18.7282 967.218 20.9541V20.9571Z" fill="#F3CF59"/>
<path d="M947.944 9.08679C947.956 10.9781 945.282 12.7588 943.588 11.9879C942.47 11.48 942.142 9.61264 943.071 8.67149C943.65 8.08588 944.311 7.54807 945.022 7.13277C946.295 6.38881 947.935 7.5182 947.947 9.08679H947.944Z" fill="#F3CF59"/>
<path d="M935.299 19.027C935.487 20.007 935.437 20.996 935.374 21.979C935.29 23.2846 934.349 24.1123 933.16 24.0346C931.866 23.9479 931.197 23.1801 931.236 21.7429C931.266 20.7121 931.367 19.6813 931.869 18.7432C933.073 18.0978 934.224 18.1426 935.299 19.03V19.027Z" fill="#F3CF59"/>
<path d="M960.774 44.8086C960.478 44.8145 960.182 44.8175 959.889 44.8235C959.068 43.9959 957.894 44.0287 956.848 44.9042C956.761 44.9221 956.68 44.9042 956.609 44.8534C956.552 44.3156 956.196 43.8345 956.316 43.2639C956.391 42.9053 956.654 42.4004 956.928 42.6484C957.792 43.4222 958.897 42.744 959.74 43.2579C960.078 43.464 960.275 43.6851 960.547 43.219C960.753 42.8695 960.708 42.5677 960.493 42.254C960.242 41.8835 960.021 42.0478 959.782 42.2689C959.498 42.5348 959.133 42.4542 958.793 42.4661C958.228 42.487 957.926 42.1106 957.932 41.6504C957.938 41.1664 958.437 41.2949 958.757 41.2859C959.301 41.268 959.851 41.3218 960.391 41.277C961.046 41.2202 961.368 41.5489 961.649 42.0837C961.945 42.6424 961.957 43.1354 961.497 43.5567C961.114 43.9062 960.84 44.2887 960.774 44.8056V44.8086Z" fill="#FBE558"/>
<path d="M960.774 44.8087C960.839 44.2918 961.114 43.9093 961.497 43.5598C961.957 43.1355 961.945 42.6455 961.649 42.0868C961.368 41.552 961.045 41.2233 960.391 41.2801C959.85 41.3249 959.301 41.2711 958.757 41.2891C958.437 41.301 957.938 41.1695 957.932 41.6536C957.926 42.1137 958.228 42.4902 958.793 42.4692C959.133 42.4573 959.498 42.5379 959.782 42.272C960.021 42.0479 960.242 41.8836 960.493 42.2571C960.705 42.5708 960.75 42.8726 960.546 43.2222C960.275 43.6882 960.074 43.4672 959.74 43.261C958.897 42.7471 957.795 43.4253 956.928 42.6515C956.653 42.4035 956.39 42.9084 956.316 43.267C956.196 43.8376 956.549 44.3187 956.609 44.8565C955.392 43.99 955.327 42.287 956.516 41.5161C957.173 41.0889 957.884 40.7423 958.685 40.6437C959.223 40.6586 959.758 40.6616 960.295 40.6915C961.407 40.7512 962.288 41.4952 962.336 42.5828C962.384 43.6614 962.049 44.5995 960.777 44.8147L960.774 44.8087Z" fill="#F3CF59"/>
<path d="M931.908 42.4693C930.872 42.3527 929.614 42.9055 928.84 41.3459C928.081 39.8161 928.517 37.8681 930.098 37.1629C931.37 36.5952 933.292 36.6042 934.541 37.1928C934.669 37.2526 934.765 37.381 934.878 37.4766C935.634 38.1011 936.178 40.2284 935.667 41.3429C935.222 42.3139 934.254 42.5828 933.199 42.4752C932.805 42.4364 932.407 42.4693 931.905 42.4693H931.908ZM930.961 37.7485C929.584 38.131 928.78 39.0124 928.891 40.0223C929.004 41.0501 930.101 41.8657 931.412 41.8777C932.004 41.8836 932.584 41.8896 933.181 41.9942C934.421 42.2123 935.365 41.3309 935.395 40.0701C935.44 38.0473 933.537 36.9628 931.257 37.7067C931.158 37.7187 931.06 37.7336 930.961 37.7456V37.7485Z" fill="#D2412E"/>
<path d="M958.682 40.6375C957.881 40.7391 957.17 41.0827 956.513 41.51C955.327 42.2808 955.39 43.9839 956.606 44.8503C956.677 44.9011 956.758 44.919 956.845 44.9011C957.445 45.651 958.147 45.1431 958.817 45.0655C959.056 45.917 958.356 45.9528 957.881 46.0156C957.218 46.0992 956.42 46.2576 955.999 45.5435C955.617 44.8981 955.255 44.1781 955.142 43.449C954.867 41.6922 955.288 41.1365 957.179 40.6793C957.633 40.5688 958.171 39.5649 958.682 40.6375Z" fill="#D2412E"/>
<path d="M950.713 28.1369C951.117 27.5602 952.055 27.4198 952.079 26.5444C952.097 25.7915 952.315 24.9967 951.517 24.4051C950.737 23.8255 949.993 23.5865 949.106 24.1273C948.906 24.2498 948.646 24.2707 948.416 24.3394C948.951 22.9232 950.199 23.2489 951.144 23.461C952.076 23.6701 952.727 24.4141 952.76 25.5823C952.787 26.5743 952.47 27.375 951.98 28.1877C951.475 29.0243 951.114 28.7584 950.716 28.1369H950.713Z" fill="#D2412E"/>
<path d="M965.24 16.8251C964.661 17.2733 964.117 17.7872 963.492 18.1606C962.01 19.042 961.975 21.2172 963.549 22.1434C961.733 22.1942 961.628 21.9163 961.885 20.0848C962.109 18.4893 962.943 17.5422 964.278 16.8639C964.604 16.6996 964.912 16.601 965.243 16.8281L965.24 16.8251Z" fill="#D2412E"/>
<path d="M967.218 20.9567C968.369 18.7308 968.351 18.5964 966.725 16.8365C967.95 16.6543 968.384 17.4281 968.524 18.4231C968.769 20.1709 968.524 20.5862 967.218 20.9567Z" fill="#D2412E"/>
<path d="M935.299 19.0265C934.221 18.1421 933.074 18.0973 931.869 18.7397C932.076 17.7686 932.769 17.2159 933.638 17.5207C934.287 17.7507 935.643 17.5684 935.299 19.0235V19.0265Z" fill="#D2412E"/>
<path d="M958.82 45.0682C958.15 45.1459 957.445 45.6539 956.848 44.9039C957.893 44.0285 959.068 43.9956 959.889 44.8233C959.534 44.9069 959.136 44.8143 958.82 45.0682Z" fill="#F3CF59"/>
<path d="M966.725 16.848C966.342 16.83 965.96 16.8091 965.577 16.7912C965.993 16.1847 966.393 15.8082 966.725 16.848Z" fill="#D2412E"/>
<path d="M930.958 37.7481C931.057 37.7361 931.156 37.7212 931.254 37.7092C931.932 38.0976 932.608 38.3755 933.447 38.3337C934.669 38.2739 934.78 39.1673 934.836 40.1503C934.899 41.2797 934.266 41.3245 933.444 41.2886C932.703 41.2558 931.962 41.2707 931.218 41.2826C930.134 41.2976 929.85 40.3176 929.569 39.6603C929.357 39.1673 929.913 38.4562 930.633 38.3247C931.057 38.2471 931.117 38.0947 930.958 37.7511V37.7481Z" fill="#FBE558"/>
<path d="M930.958 37.7484C931.117 38.0919 931.057 38.2443 930.633 38.322C929.913 38.4535 929.36 39.1646 929.569 39.6576C929.85 40.3149 930.131 41.2949 931.218 41.2799C931.959 41.268 932.703 41.256 933.444 41.2859C934.266 41.3218 934.902 41.277 934.837 40.1476C934.78 39.1646 934.669 38.2712 933.447 38.331C932.608 38.3728 931.932 38.095 931.254 37.7065C933.534 36.9596 935.437 38.0471 935.392 40.0699C935.365 41.3307 934.418 42.2121 933.178 41.994C932.581 41.8895 932.001 41.8835 931.409 41.8775C930.098 41.8655 929.001 41.0499 928.888 40.0221C928.777 39.0122 929.581 38.1308 930.958 37.7484Z" fill="#F3CF59"/>
<path d="M846.678 98.0537C847.514 98.1562 848.244 98.5415 848.973 98.9268C850.228 99.5897 851.353 100.426 852.331 101.453C853.257 102.426 853.971 103.557 854.453 104.794C855.067 106.372 855.483 108.015 855.574 109.722C855.634 110.852 855.588 111.98 855.505 113.109C855.406 114.457 855.117 115.773 854.844 117.09C854.675 117.904 854.402 118.696 854.175 119.498C854.081 119.826 853.831 119.937 853.52 119.993C851.257 120.402 848.978 120.756 846.739 121.253C843.976 121.867 841.381 121.342 838.761 120.611C837.775 120.336 836.852 119.952 836.006 119.379C835.373 118.95 834.827 118.435 834.414 117.785C835.122 116.427 835.802 115.054 836.347 113.622C836.816 112.39 837.168 111.118 837.461 109.83C837.73 108.64 837.813 107.435 837.917 106.222C838.025 104.96 837.728 103.762 837.681 102.532C837.674 102.325 837.457 102.086 837.601 101.918C837.808 101.675 837.996 102.037 838.216 102.038C838.289 102.038 838.36 102.09 838.435 102.108C839.585 102.389 840.721 102.747 841.909 102.824C843.095 102.901 844.281 102.943 845.469 102.791C846.938 102.603 848.234 101.973 849.508 101.277C849.772 101.132 849.982 100.88 849.747 100.62C849.575 100.431 849.428 100.179 849.221 100.057C848.563 99.6734 848.035 99.1314 847.438 98.675C847.18 98.4773 846.787 98.4342 846.679 98.0534L846.678 98.0537ZM839.438 105.742C839.081 105.988 839.27 106.098 839.548 106.184L839.601 106.308C839.554 106.46 839.626 106.565 839.726 106.67C840.137 107.098 840.593 107.306 841.225 107.207C841.95 107.093 842.043 107.021 841.814 106.337C841.831 105.705 841.243 105.493 840.941 105.081C840.649 104.629 840.464 104.583 839.829 104.878C839.467 105.045 839.224 105.3 839.435 105.744L839.438 105.743L839.438 105.742ZM851.062 105.485C850.929 105.394 850.917 105.233 850.845 105.107C850.809 104.996 850.773 104.884 850.737 104.773C850.509 104.315 850.114 104.296 849.71 104.439C849.303 104.583 849.122 105.003 849.228 105.432C849.278 105.638 849.339 105.843 849.396 106.049C849.047 106.366 849.492 106.455 849.585 106.614C849.977 107.279 850.236 107.375 850.871 107.068C851.135 106.941 851.366 106.719 851.567 106.501C851.79 106.258 851.638 105.974 851.529 105.732C851.451 105.557 851.356 105.297 851.061 105.487L851.062 105.485ZM843.892 117.419C843.3 117.457 843.525 117.95 843.513 118.223C843.497 118.588 843.788 118.787 844.18 118.753C844.594 118.834 844.997 118.755 845.392 118.647C845.942 118.496 846.157 118.153 846.04 117.653C845.932 117.192 845.509 116.931 845.004 117.05C844.625 117.139 844.242 117.234 843.892 117.419ZM845.57 110.516C845.76 110.294 845.819 110.125 845.444 110.031C845.078 109.939 844.739 109.912 844.365 110.035C843.925 110.182 843.718 110.516 843.746 110.894C843.775 111.277 843.796 111.787 844.395 111.828C844.525 111.944 844.7 112.014 844.846 112.069C845.227 112.213 845.629 112.467 846.052 112.197C846.396 111.979 846.56 111.622 846.479 111.241C846.383 110.792 846.01 110.588 845.571 110.517L845.57 110.516ZM838.659 113.767C838.065 113.951 837.826 114.704 838.255 115.103C838.495 115.323 838.775 115.513 839.064 115.665C839.528 115.91 840.199 115.57 840.264 115.086C840.361 114.354 839.376 113.545 838.66 113.768L838.659 113.767ZM853.183 116.001C853.125 115.811 853.067 115.663 853.036 115.509C852.954 115.096 852.741 114.76 852.321 114.703C851.839 114.637 851.096 115.089 850.945 115.448C850.923 115.502 850.885 115.553 850.876 115.609C850.797 116.152 851.015 116.882 851.377 117.299C851.826 117.818 852.617 117.758 853.11 117.294C853.613 116.82 853.258 116.406 853.182 115.999L853.183 116.001Z" fill="#E32641"/>
<path d="M846.678 98.0539C846.786 98.4347 847.179 98.4789 847.437 98.6755C848.034 99.1308 848.562 99.6727 849.22 100.057C849.428 100.179 849.574 100.432 849.746 100.621C849.981 100.88 849.771 101.132 849.507 101.277C848.233 101.973 846.937 102.604 845.467 102.792C844.281 102.943 843.094 102.903 841.908 102.825C840.72 102.748 839.584 102.389 838.434 102.108C838.359 102.09 838.288 102.039 838.215 102.039C837.995 102.038 837.807 101.676 837.6 101.919C837.457 102.086 837.672 102.325 837.68 102.532C837.727 103.762 838.024 104.96 837.916 106.222C837.812 107.436 837.728 108.641 837.46 109.83C837.167 111.118 836.815 112.39 836.346 113.623C835.801 115.055 835.121 116.428 834.413 117.785C833.869 118.528 833.873 118.522 833.042 118.034C831.292 117.005 830.593 115.321 830.167 113.46C829.837 112.016 829.851 110.554 829.952 109.089C829.969 108.837 830.142 108.608 830.056 108.345C830.046 108.312 830.005 108.29 829.977 108.264C828.074 109.968 825.711 110.583 823.301 111.09C822.691 111.219 822.085 111.371 821.396 111.532C821.771 110.337 822.355 109.341 823.027 108.404C823.736 107.415 824.566 106.518 825.438 105.671C826.048 105.077 826.706 104.532 827.356 103.981C828.248 103.225 829.199 102.543 830.172 101.902C831.428 101.075 832.652 100.19 834.037 99.5691C834.32 99.442 834.57 99.242 834.891 99.0417C831.797 97.5752 828.747 96.129 825.627 94.6495C826.227 94.2341 826.76 93.8613 827.404 93.6778C827.604 93.6208 827.764 93.639 827.959 93.742C829.821 94.7243 831.746 95.5823 833.632 96.5166C834.502 96.9472 835.337 97.491 836.312 97.7298C836.303 96.1183 836.457 94.5227 836.743 92.9427C837 91.5265 837.413 90.1594 838.104 88.8825C839.204 86.8493 840.737 85.8753 843.029 85.8656C843.951 85.8616 844 86.0016 843.704 86.8821C843.027 88.8957 842.375 90.9176 841.708 92.9345C841.266 94.2682 840.814 95.5986 840.327 97.0503C842.688 96.285 844.676 97.2021 846.675 98.056L846.678 98.0539Z" fill="#2DA06A"/>
<path d="M845.57 110.517C846.01 110.589 846.382 110.791 846.478 111.24C846.559 111.621 846.395 111.978 846.051 112.196C845.628 112.466 845.226 112.212 844.845 112.068C844.701 112.012 844.525 111.943 844.394 111.827C844.341 111.746 844.302 111.651 844.234 111.59C843.926 111.315 843.931 111.005 844.061 110.642C844.194 110.272 844.52 110.262 844.808 110.182C845.143 110.089 845.305 110.43 845.57 110.517Z" fill="#F3CF59"/>
<path d="M840.94 105.081C841.241 105.492 841.83 105.705 841.813 106.337C841.643 107.041 840.814 107.278 840.308 106.818C840.093 106.623 839.836 106.477 839.599 106.309L839.546 106.185C839.509 106.038 839.473 105.89 839.435 105.743L839.432 105.744C839.912 104.924 839.962 104.902 840.939 105.081L840.94 105.081Z" fill="#F3CF59"/>
<path d="M838.659 113.767C839.376 113.544 840.361 114.353 840.263 115.085C840.2 115.568 839.529 115.909 839.064 115.664C838.775 115.512 838.495 115.323 838.255 115.102C837.826 114.704 838.065 113.951 838.659 113.766L838.659 113.767Z" fill="#F3CF59"/>
<path d="M843.892 117.419C844.242 117.235 844.624 117.14 845.004 117.05C845.509 116.931 845.932 117.193 846.04 117.653C846.156 118.154 845.942 118.497 845.392 118.648C844.997 118.756 844.594 118.836 844.18 118.754C843.796 118.371 843.68 117.929 843.893 117.419L843.892 117.419Z" fill="#F3CF59"/>
<path d="M850.737 104.773C850.774 104.885 850.809 104.997 850.845 105.107C850.626 105.515 850.774 105.957 851.227 106.253C851.244 106.283 851.246 106.316 851.235 106.349C851.038 106.433 850.896 106.623 850.666 106.644C850.521 106.657 850.299 106.615 850.361 106.482C850.555 106.065 850.17 105.724 850.268 105.345C850.307 105.193 850.369 105.093 850.16 105.043C850.004 105.005 849.894 105.057 849.8 105.175C849.689 105.313 849.776 105.378 849.888 105.443C850.022 105.52 850.033 105.668 850.077 105.796C850.15 106.008 850.042 106.166 849.867 106.217C849.682 106.27 849.673 106.066 849.633 105.946C849.564 105.741 849.521 105.526 849.441 105.326C849.344 105.084 849.431 104.924 849.602 104.756C849.78 104.579 849.966 104.518 850.179 104.644C850.356 104.748 850.532 104.809 850.736 104.774L850.737 104.773Z" fill="#FBE558"/>
<path d="M850.737 104.773C850.534 104.808 850.357 104.748 850.18 104.643C849.966 104.517 849.781 104.578 849.603 104.755C849.433 104.923 849.345 105.084 849.442 105.326C849.522 105.526 849.565 105.741 849.634 105.945C849.676 106.065 849.683 106.269 849.868 106.216C850.043 106.165 850.151 106.007 850.078 105.795C850.034 105.667 850.023 105.519 849.889 105.442C849.776 105.378 849.689 105.313 849.801 105.174C849.896 105.057 850.005 105.006 850.161 105.042C850.37 105.092 850.309 105.193 850.269 105.344C850.171 105.723 850.556 106.063 850.362 106.482C850.3 106.615 850.522 106.656 850.667 106.643C850.897 106.623 851.039 106.433 851.236 106.348C851.048 106.91 850.409 107.132 849.979 106.769C849.741 106.569 849.527 106.339 849.398 106.047C849.341 105.841 849.281 105.637 849.23 105.43C849.124 105.001 849.305 104.581 849.712 104.437C850.116 104.294 850.511 104.313 850.739 104.771L850.737 104.773Z" fill="#F3CF59"/>
<path d="M853.181 116C853.257 116.407 853.612 116.82 853.109 117.294C852.616 117.759 851.826 117.818 851.376 117.3C851.014 116.882 850.795 116.152 850.875 115.61C850.883 115.554 850.92 115.503 850.944 115.449C851.093 115.09 851.838 114.638 852.32 114.703C852.74 114.76 852.954 115.097 853.035 115.509C853.065 115.663 853.124 115.81 853.182 116.001L853.181 116ZM851.499 116.904C851.803 117.383 852.23 117.586 852.601 117.428C852.978 117.266 853.161 116.756 853.014 116.256C852.948 116.031 852.883 115.81 852.854 115.572C852.794 115.076 852.35 114.819 851.868 114.953C851.095 115.17 850.903 116.017 851.449 116.797C851.465 116.833 851.482 116.869 851.498 116.905L851.499 116.904Z" fill="#D2412E"/>
<path d="M849.395 106.049C849.526 106.341 849.739 106.571 849.977 106.771C850.407 107.133 851.046 106.912 851.234 106.351C851.245 106.318 851.243 106.285 851.226 106.254C851.441 105.94 851.167 105.732 851.061 105.487C851.356 105.298 851.451 105.559 851.529 105.732C851.638 105.974 851.79 106.259 851.567 106.501C851.367 106.721 851.135 106.941 850.871 107.068C850.236 107.375 849.977 107.28 849.585 106.614C849.49 106.455 849.047 106.367 849.395 106.049Z" fill="#D2412E"/>
<path d="M845.571 110.517C845.305 110.43 845.144 110.09 844.808 110.182C844.521 110.262 844.194 110.271 844.061 110.642C843.931 111.005 843.926 111.315 844.234 111.59C844.304 111.651 844.342 111.748 844.394 111.827C843.795 111.788 843.775 111.276 843.746 110.893C843.718 110.515 843.925 110.182 844.365 110.035C844.738 109.91 845.079 109.938 845.444 110.03C845.819 110.125 845.76 110.293 845.57 110.515L845.571 110.517Z" fill="#D2412E"/>
<path d="M839.6 106.308C839.837 106.477 840.095 106.624 840.309 106.818C840.814 107.278 841.644 107.041 841.814 106.336C842.043 107.02 841.95 107.092 841.225 107.206C840.593 107.305 840.137 107.098 839.726 106.669C839.626 106.565 839.553 106.459 839.601 106.307L839.6 106.308Z" fill="#D2412E"/>
<path d="M840.94 105.081C839.962 104.901 839.913 104.923 839.433 105.743C839.222 105.299 839.466 105.046 839.828 104.878C840.463 104.583 840.649 104.628 840.94 105.081Z" fill="#D2412E"/>
<path d="M843.892 117.419C843.681 117.93 843.796 118.371 844.179 118.754C843.787 118.787 843.497 118.588 843.512 118.223C843.525 117.95 843.299 117.457 843.891 117.419L843.892 117.419Z" fill="#D2412E"/>
<path d="M851.061 105.485C851.168 105.73 851.442 105.939 851.227 106.252C850.774 105.957 850.626 105.515 850.845 105.107C850.918 105.233 850.929 105.394 851.061 105.485Z" fill="#F3CF59"/>
<path d="M839.438 105.742C839.475 105.889 839.511 106.037 839.548 106.184C839.27 106.097 839.081 105.988 839.438 105.742Z" fill="#D2412E"/>
<path d="M851.499 116.905C851.483 116.869 851.466 116.834 851.45 116.798C851.519 116.495 851.547 116.207 851.434 115.893C851.27 115.436 851.597 115.291 851.963 115.156C852.385 115.002 852.475 115.237 852.556 115.553C852.629 115.838 852.72 116.118 852.811 116.399C852.942 116.809 852.602 117.03 852.385 117.212C852.223 117.349 851.889 117.221 851.756 116.962C851.677 116.81 851.612 116.805 851.5 116.905L851.499 116.905Z" fill="#FBE558"/>
<path d="M851.499 116.905C851.611 116.806 851.676 116.811 851.754 116.963C851.887 117.221 852.221 117.349 852.384 117.212C852.601 117.03 852.941 116.81 852.81 116.399C852.72 116.119 852.629 115.838 852.555 115.553C852.474 115.237 852.383 115.001 851.962 115.156C851.596 115.291 851.269 115.436 851.433 115.893C851.546 116.207 851.518 116.496 851.449 116.798C850.902 116.019 851.096 115.171 851.868 114.954C852.35 114.819 852.794 115.077 852.854 115.573C852.884 115.811 852.948 116.032 853.014 116.257C853.161 116.757 852.978 117.267 852.601 117.429C852.231 117.587 851.803 117.384 851.499 116.905Z" fill="#F3CF59"/>
</g>
</svg>
