<svg width="375" height="135" viewBox="0 0 375 135" fill="none" xmlns="http://www.w3.org/2000/svg">
<mask id="mask0_5669_131170" style="mask-type:alpha" maskUnits="userSpaceOnUse" x="0" y="0" width="375" height="135">
<rect width="375" height="135" fill="#FEFFED"/>
</mask>
<g mask="url(#mask0_5669_131170)">
<path d="M356.522 109.729C358.593 107.945 361.034 106.949 363.697 106.557C368.006 105.924 371.965 106.586 374.567 110.791C375.751 112.705 376.564 114.73 376.93 116.949C377.032 117.573 377.241 118.069 377.919 118.476C378.94 119.085 379.553 120.199 379.866 121.346C380.508 123.708 380.519 126.099 380.138 128.533C379.664 131.555 378.716 134.474 378.278 137.493C378.063 138.988 378.033 140.524 378.07 142.038C378.1 143.33 377.365 143.998 376.412 144.572C375.707 144.996 375.026 145.529 374.258 145.766C373.016 146.149 372.627 147.152 372.15 148.144C371.432 149.639 370.471 150.896 368.863 151.525C367.978 151.871 367.06 151.831 366.201 151.542C365.028 151.148 363.771 150.924 362.785 150.065C362.568 149.876 362.272 149.599 361.924 149.897C360.558 151.072 359.276 150.354 358.043 149.671C356.633 148.89 355.446 147.79 354.206 146.774C352.087 145.036 349.94 143.326 347.908 141.49C344.421 138.342 341.199 134.933 339.317 130.547C337.951 127.367 337.638 124.039 338.423 120.595C338.932 118.363 339.741 116.368 341.453 114.8C342.317 114.01 343.329 113.41 344.41 113.079C345.256 112.82 345.5 112.222 345.767 111.604C346.522 109.862 347.092 109.446 349.002 109.424C349.328 109.42 349.653 109.429 349.979 109.431C349.951 111.737 349.957 114.045 349.868 116.349C349.848 116.825 349.951 116.964 350.344 117.112C351.945 117.71 353.533 118.346 355.13 118.953C355.772 119.196 356.109 118.787 356.374 118.296C357.023 117.097 357.654 115.887 358.306 114.691C359.133 113.175 359.107 113.203 358.026 111.841C357.49 111.167 356.694 110.664 356.527 109.727L356.522 109.729Z" fill="#F5B720"/>
<path d="M356.522 109.729C356.692 110.667 357.488 111.169 358.021 111.843C359.102 113.207 359.128 113.179 358.302 114.693C357.649 115.89 357.018 117.099 356.37 118.298C356.105 118.789 355.767 119.198 355.126 118.955C353.527 118.348 351.941 117.713 350.34 117.114C349.944 116.966 349.844 116.827 349.863 116.351C349.953 114.047 349.946 111.739 349.974 109.433C350.092 108.193 349.33 107.173 349.093 106.016C348.969 105.406 348.921 104.743 348.606 104.171C348.36 103.725 348.774 103.57 349.002 103.431C350.296 102.648 351.623 101.917 352.92 101.136C353.294 100.91 353.427 100.958 353.657 101.338C354.638 102.968 355.674 104.556 356.239 106.407C356.577 107.51 356.477 108.617 356.522 109.727V109.729Z" fill="#265441"/>
<path d="M302.554 23.178C302.1 24.2019 301.329 24.98 300.557 25.7582C299.229 27.0971 297.731 28.2044 296.047 29.0503C294.451 29.852 292.738 30.323 290.978 30.4569C288.735 30.627 286.486 30.5215 284.281 29.9765C282.82 29.6158 281.404 29.1212 280.001 28.5793C278.325 27.9319 276.764 27.0561 275.195 26.1992C274.225 25.67 273.324 25.0163 272.393 24.4177C272.011 24.172 271.967 23.8112 272.016 23.3938C272.371 20.3585 272.802 17.3247 273.035 14.2862C273.324 10.5357 274.995 7.43887 276.937 4.39091C277.668 3.24418 278.512 2.21874 279.568 1.36499C280.358 0.725473 281.225 0.230868 282.211 -0.0432129C283.663 1.38232 285.145 2.77792 286.755 4.02389C288.141 5.09658 289.622 6.03696 291.147 6.90646C292.555 7.70823 294.054 8.28001 295.557 8.88173C297.12 9.50708 298.758 9.59213 300.339 10.008C300.606 10.0789 300.993 9.89615 301.151 10.1434C301.379 10.501 300.847 10.6002 300.76 10.8791C300.732 10.972 300.639 11.0429 300.587 11.1311C299.785 12.4842 298.89 13.79 298.333 15.2706C297.777 16.7482 297.265 18.2398 296.998 19.8087C296.669 21.7493 296.97 23.6411 297.362 25.5298C297.444 25.922 297.684 26.2858 298.104 26.0874C298.411 25.9425 298.789 25.8527 299.024 25.6369C299.766 24.9485 300.659 24.487 301.47 23.9042C301.822 23.6522 302.028 23.1701 302.554 23.1796V23.178ZM295.579 11.0003C295.404 10.4522 295.192 10.6491 294.974 10.9704L294.796 10.9893C294.622 10.8712 294.459 10.9216 294.288 11.0082C293.585 11.3658 293.144 11.8651 293.026 12.7063C292.89 13.6718 292.946 13.8183 293.903 13.7916C294.7 14.0578 295.198 13.3915 295.838 13.1678C296.526 12.9709 296.655 12.7535 296.526 11.832C296.453 11.3075 296.224 10.8995 295.578 10.9956V11.0003H295.579ZM291.411 25.8779C291.578 25.744 291.788 25.7912 291.975 25.7487C292.131 25.7456 292.287 25.744 292.442 25.7408C293.113 25.6274 293.289 25.1328 293.264 24.5642C293.239 23.9908 292.774 23.5986 292.188 23.5671C291.906 23.5513 291.622 23.5498 291.339 23.5419C291.07 22.9764 290.784 23.5072 290.547 23.5639C289.549 23.8049 289.327 24.0979 289.472 25.0241C289.532 25.4085 289.724 25.7881 289.924 26.1283C290.146 26.5048 290.567 26.4213 290.917 26.3772C291.169 26.3457 291.536 26.3252 291.41 25.8763L291.411 25.8779ZM279.012 12.1486C279.191 11.3815 278.478 11.476 278.136 11.3563C277.677 11.1941 277.312 11.4871 277.203 11.999C276.94 12.4936 276.885 13.037 276.869 13.5805C276.849 14.3381 277.202 14.7445 277.884 14.7886C278.511 14.8296 279.007 14.3933 279.051 13.7049C279.084 13.1883 279.111 12.6653 279.012 12.1486ZM287.138 16.9514C287.347 17.279 287.54 17.4192 287.804 16.9781C288.063 16.5481 288.228 16.1275 288.215 15.6046C288.2 14.9887 287.855 14.5965 287.363 14.4862C286.865 14.3744 286.209 14.2042 285.925 14.9493C285.727 15.0706 285.571 15.2659 285.445 15.4297C285.114 15.8582 284.635 16.2709 284.815 16.9136C284.959 17.4349 285.35 17.7815 285.865 17.8256C286.473 17.8776 286.876 17.4822 287.136 16.9514H287.138ZM285.678 6.90804C285.673 6.08107 284.808 5.48565 284.136 5.87787C283.762 6.09682 283.413 6.38035 283.107 6.68909C282.617 7.18369 282.79 8.16818 283.38 8.43753C284.273 8.84393 285.682 7.90512 285.676 6.90804H285.678ZM277.222 24.509C277.485 24.509 277.696 24.4917 277.904 24.5122C278.46 24.5673 278.971 24.4271 279.205 23.9152C279.475 23.3277 279.188 22.2077 278.789 21.8769C278.73 21.8281 278.679 21.7604 278.611 21.7273C277.951 21.417 276.94 21.4123 276.269 21.7115C275.436 22.0817 275.206 23.1103 275.606 23.9168C276.014 24.739 276.677 24.4476 277.224 24.509H277.222Z" fill="#E32641"/>
<path d="M302.554 23.178C302.028 23.1686 301.82 23.6506 301.47 23.9026C300.661 24.4854 299.768 24.947 299.024 25.6353C298.79 25.8527 298.411 25.9409 298.104 26.0858C297.684 26.2843 297.444 25.9204 297.362 25.5282C296.97 23.6396 296.669 21.7478 296.999 19.8072C297.265 18.2399 297.775 16.7466 298.333 15.2691C298.89 13.7884 299.785 12.4826 300.587 11.1295C300.639 11.0413 300.732 10.9704 300.76 10.8775C300.847 10.5987 301.379 10.4995 301.151 10.1419C300.993 9.89617 300.606 10.0773 300.339 10.0064C298.758 9.59059 297.12 9.50552 295.557 8.88018C294.055 8.27846 292.555 7.70667 291.147 6.90491C289.622 6.03541 288.141 5.09503 286.755 4.02234C285.145 2.77638 283.663 1.38077 282.211 -0.0447636C281.477 -1.02295 281.483 -1.01507 282.425 -1.883C284.41 -3.7102 286.821 -3.94805 289.351 -3.77005C291.315 -3.63144 293.168 -3.04862 294.992 -2.35397C295.305 -2.23426 295.529 -1.92552 295.897 -1.9334C295.943 -1.9334 295.987 -1.9775 296.031 -2.00271C294.6 -5.0806 294.732 -8.32231 295.019 -11.5829C295.091 -12.4083 295.132 -13.2369 295.193 -14.1757C296.569 -13.2369 297.608 -12.109 298.541 -10.893C299.524 -9.60923 300.343 -8.20732 301.083 -6.77076C301.601 -5.7658 302.041 -4.71831 302.49 -3.67869C303.105 -2.25316 303.605 -0.780369 304.044 0.705021C304.61 2.62201 305.262 4.52009 305.516 6.52057C305.567 6.93011 305.725 7.32548 305.856 7.81063C308.916 4.44448 311.934 1.12559 315.022 -2.26891C315.318 -1.34586 315.586 -0.523614 315.57 0.36636C315.565 0.642015 315.48 0.838908 315.274 1.04683C313.305 3.0347 311.47 5.15017 309.553 7.18687C308.669 8.12567 307.655 8.97784 306.974 10.1246C309.027 10.7357 310.996 11.5485 312.894 12.5236C314.595 13.3978 316.173 14.4516 317.529 15.8236C319.689 18.0083 320.335 20.3333 319.461 23.2521C319.109 24.4256 318.912 24.4335 317.907 23.7168C315.609 22.077 313.291 20.4672 310.985 18.8384C309.46 17.761 307.943 16.6726 306.286 15.4912C306.346 18.7896 304.411 20.9618 302.553 23.1733L302.554 23.178Z" fill="#2DA06A"/>
<path d="M287.138 16.9512C286.877 17.482 286.475 17.8774 285.867 17.8254C285.352 17.7813 284.961 17.4348 284.816 16.9134C284.637 16.2707 285.116 15.858 285.446 15.4296C285.572 15.2674 285.728 15.0704 285.927 14.9492C286.05 14.9129 286.187 14.9003 286.291 14.8373C286.758 14.5522 287.151 14.6782 287.562 14.9838C287.981 15.2957 287.867 15.7147 287.858 16.1116C287.847 16.5732 287.351 16.6472 287.138 16.9512Z" fill="#F3CF59"/>
<path d="M295.839 13.1664C295.199 13.39 294.702 14.0563 293.905 13.7901C293.074 13.3018 293.093 12.1567 293.875 11.6904C294.205 11.4935 294.491 11.2226 294.796 10.9863L294.974 10.9674C295.176 10.9769 295.377 10.9879 295.579 10.9973V10.9926C296.436 11.9204 296.444 11.9913 295.839 13.1648V13.1664Z" fill="#F3CF59"/>
<path d="M285.678 6.90822C285.684 7.90531 284.274 8.84411 283.381 8.43772C282.792 8.16994 282.619 7.18545 283.109 6.68927C283.414 6.38054 283.762 6.09701 284.137 5.87806C284.808 5.48584 285.673 6.08126 285.679 6.90822H285.678Z" fill="#F3CF59"/>
<path d="M279.011 12.1487C279.111 12.6653 279.084 13.1867 279.051 13.705C279.007 14.3933 278.51 14.8296 277.884 14.7887C277.201 14.743 276.849 14.3382 276.869 13.5805C276.885 13.0371 276.938 12.4936 277.203 11.999C277.838 11.6588 278.444 11.6824 279.011 12.1503V12.1487Z" fill="#F3CF59"/>
<path d="M292.442 25.7408C292.286 25.744 292.13 25.7455 291.975 25.7487C291.542 25.3124 290.923 25.3297 290.372 25.7912C290.326 25.8007 290.284 25.7912 290.246 25.7644C290.216 25.4809 290.028 25.2273 290.091 24.9265C290.131 24.7374 290.269 24.4712 290.414 24.602C290.87 25.0099 291.452 24.6524 291.897 24.9233C292.075 25.032 292.179 25.1485 292.322 24.9028C292.431 24.7185 292.407 24.5594 292.294 24.394C292.161 24.1987 292.045 24.2854 291.919 24.4019C291.769 24.5421 291.577 24.4996 291.397 24.5059C291.1 24.5169 290.94 24.3184 290.944 24.0759C290.947 23.8207 291.21 23.8884 291.378 23.8837C291.665 23.8742 291.955 23.9026 292.24 23.879C292.585 23.849 292.755 24.0223 292.903 24.3043C293.059 24.5988 293.065 24.8587 292.823 25.0808C292.621 25.2651 292.476 25.4667 292.442 25.7392V25.7408Z" fill="#FBE558"/>
<path d="M292.441 25.7408C292.476 25.4683 292.621 25.2667 292.823 25.0824C293.065 24.8587 293.059 24.6004 292.903 24.3059C292.755 24.0239 292.585 23.8506 292.24 23.8806C291.955 23.9042 291.665 23.8758 291.378 23.8853C291.21 23.8916 290.947 23.8223 290.943 24.0775C290.94 24.32 291.099 24.5185 291.397 24.5075C291.577 24.5012 291.769 24.5437 291.919 24.4035C292.045 24.2854 292.161 24.1987 292.293 24.3956C292.405 24.561 292.429 24.7201 292.322 24.9044C292.178 25.1501 292.073 25.0336 291.896 24.9249C291.452 24.654 290.871 25.0115 290.414 24.6036C290.269 24.4728 290.131 24.739 290.091 24.9281C290.028 25.2289 290.214 25.4825 290.246 25.766C289.605 25.3092 289.57 24.4114 290.197 24.005C290.543 23.7798 290.918 23.597 291.34 23.545C291.624 23.5529 291.906 23.5545 292.189 23.5703C292.775 23.6018 293.24 23.994 293.265 24.5673C293.291 25.136 293.114 25.6306 292.443 25.744L292.441 25.7408Z" fill="#F3CF59"/>
<path d="M277.224 24.5076C276.677 24.4461 276.014 24.7375 275.606 23.9153C275.206 23.1088 275.436 22.0818 276.269 21.71C276.94 21.4108 277.953 21.4155 278.611 21.7258C278.679 21.7573 278.73 21.825 278.789 21.8754C279.188 22.2046 279.475 23.3262 279.205 23.9137C278.971 24.4256 278.46 24.5674 277.904 24.5107C277.696 24.4902 277.487 24.5076 277.222 24.5076H277.224ZM276.724 22.0188C275.998 22.2204 275.574 22.6851 275.633 23.2175C275.693 23.7594 276.271 24.1894 276.962 24.1957C277.274 24.1988 277.58 24.202 277.895 24.2571C278.548 24.3721 279.046 23.9074 279.062 23.2427C279.086 22.1763 278.082 21.6045 276.88 21.9967C276.828 22.003 276.776 22.0109 276.724 22.0172V22.0188Z" fill="#D2412E"/>
<path d="M291.339 23.5418C290.917 23.5953 290.542 23.7765 290.195 24.0017C289.57 24.4081 289.603 25.306 290.244 25.7628C290.282 25.7895 290.324 25.799 290.37 25.7895C290.687 26.1849 291.057 25.9171 291.41 25.8762C291.536 26.3251 291.167 26.344 290.917 26.3771C290.567 26.4212 290.146 26.5047 289.924 26.1282C289.723 25.788 289.532 25.4083 289.472 25.024C289.327 24.0978 289.549 23.8048 290.547 23.5638C290.786 23.5055 291.07 22.9763 291.339 23.5418Z" fill="#D2412E"/>
<path d="M287.138 16.9515C287.35 16.6475 287.845 16.5734 287.858 16.1119C287.867 15.715 287.982 15.296 287.561 14.9841C287.15 14.6785 286.758 14.5525 286.29 14.8376C286.185 14.9022 286.048 14.9132 285.926 14.9494C286.208 14.2028 286.867 14.3745 287.365 14.4863C287.856 14.5966 288.199 14.9888 288.217 15.6047C288.231 16.1277 288.064 16.5498 287.806 16.9783C287.539 17.4193 287.349 17.2791 287.139 16.9515H287.138Z" fill="#D2412E"/>
<path d="M294.796 10.988C294.491 11.2243 294.204 11.4952 293.875 11.6921C293.094 12.1568 293.075 13.3035 293.905 13.7918C292.947 13.8186 292.892 13.6721 293.027 12.7065C293.146 11.8654 293.585 11.366 294.289 11.0085C294.461 10.9218 294.623 10.8699 294.798 10.9896L294.796 10.988Z" fill="#D2412E"/>
<path d="M295.839 13.1661C296.446 11.9926 296.436 11.9217 295.579 10.994C296.225 10.8979 296.454 11.3058 296.528 11.8304C296.657 12.7518 296.528 12.9708 295.839 13.1661Z" fill="#D2412E"/>
<path d="M279.011 12.1484C278.443 11.6822 277.838 11.6585 277.203 11.9972C277.312 11.4853 277.677 11.1939 278.136 11.3545C278.477 11.4758 279.193 11.3797 279.011 12.1468V12.1484Z" fill="#D2412E"/>
<path d="M291.411 25.8778C291.059 25.9188 290.687 26.1866 290.372 25.7912C290.923 25.3297 291.542 25.3123 291.975 25.7487C291.788 25.7928 291.578 25.7439 291.411 25.8778Z" fill="#F3CF59"/>
<path d="M295.579 10.9999C295.377 10.9905 295.176 10.9795 294.974 10.97C295.193 10.6502 295.404 10.4518 295.579 10.9999Z" fill="#D2412E"/>
<path d="M276.723 22.0185C276.775 22.0122 276.827 22.0043 276.879 21.998C277.236 22.2028 277.592 22.3493 278.035 22.3273C278.679 22.2958 278.737 22.7667 278.767 23.285C278.8 23.8804 278.467 23.904 278.033 23.8851C277.643 23.8678 277.252 23.8757 276.86 23.882C276.288 23.8898 276.138 23.3732 275.99 23.0266C275.879 22.7667 276.172 22.3918 276.551 22.3225C276.775 22.2816 276.806 22.2012 276.723 22.0201V22.0185Z" fill="#FBE558"/>
<path d="M276.723 22.0187C276.806 22.1998 276.775 22.2802 276.551 22.3211C276.172 22.3905 275.88 22.7653 275.99 23.0252C276.138 23.3718 276.287 23.8884 276.86 23.8806C277.251 23.8743 277.643 23.868 278.033 23.8837C278.467 23.9026 278.802 23.879 278.767 23.2836C278.737 22.7653 278.679 22.2944 278.035 22.3259C277.592 22.3479 277.236 22.2014 276.879 21.9967C278.081 21.6029 279.084 22.1762 279.06 23.2426C279.046 23.9073 278.547 24.372 277.893 24.257C277.578 24.2019 277.273 24.1987 276.961 24.1956C276.269 24.1893 275.691 23.7593 275.631 23.2174C275.573 22.685 275.997 22.2203 276.723 22.0187Z" fill="#F3CF59"/>
<path d="M66.7658 120.271C67.3521 120.343 67.8632 120.613 68.3743 120.883C69.2537 121.347 70.0423 121.933 70.7275 122.653C71.377 123.335 71.8776 124.128 72.2152 124.995C72.6453 126.101 72.9372 127.252 73.0006 128.448C73.0427 129.241 73.0104 130.031 72.9524 130.822C72.8829 131.767 72.6805 132.69 72.4889 133.613C72.3707 134.184 72.1791 134.739 72.0199 135.3C71.9544 135.53 71.7792 135.608 71.5611 135.647C69.975 135.934 68.3779 136.182 66.8089 136.531C64.8722 136.961 63.053 136.593 61.217 136.08C60.5262 135.888 59.8792 135.619 59.2864 135.217C58.8424 134.916 58.4598 134.555 58.1702 134.1C58.6667 133.148 59.1434 132.186 59.5251 131.182C59.8537 130.318 60.101 129.427 60.3057 128.524C60.4942 127.69 60.5526 126.846 60.6256 125.995C60.7014 125.111 60.4929 124.271 60.46 123.409C60.4549 123.264 60.3033 123.097 60.4039 122.979C60.5493 122.809 60.6811 123.063 60.835 123.064C60.8863 123.064 60.9363 123.1 60.9888 123.112C61.7946 123.309 62.5908 123.56 63.4236 123.614C64.2544 123.668 65.0857 123.698 65.9182 123.591C66.948 123.46 67.8564 123.017 68.7492 122.53C68.9346 122.428 69.0814 122.252 68.9168 122.07C68.7965 121.937 68.6932 121.76 68.5483 121.675C68.0871 121.406 67.7171 121.026 67.2985 120.706C67.1175 120.568 66.8426 120.538 66.7666 120.271L66.7658 120.271ZM61.6913 125.659C61.4415 125.832 61.5735 125.909 61.769 125.969L61.8059 126.056C61.7731 126.162 61.8234 126.236 61.8935 126.31C62.1817 126.609 62.5014 126.755 62.9439 126.686C63.452 126.606 63.5174 126.556 63.3569 126.077C63.3689 125.633 62.9563 125.485 62.7453 125.196C62.5403 124.879 62.4108 124.847 61.9657 125.054C61.7121 125.171 61.5415 125.35 61.6891 125.661L61.6915 125.66L61.6913 125.659ZM69.8381 125.479C69.745 125.415 69.7367 125.303 69.6864 125.214C69.6609 125.136 69.6362 125.058 69.6109 124.98C69.4507 124.659 69.174 124.646 68.891 124.746C68.6055 124.847 68.4789 125.141 68.5529 125.442C68.5883 125.587 68.631 125.73 68.6705 125.874C68.4265 126.097 68.7381 126.159 68.8032 126.271C69.0779 126.737 69.2598 126.804 69.7049 126.589C69.8897 126.499 70.0517 126.344 70.1927 126.191C70.3486 126.021 70.2419 125.822 70.166 125.652C70.1114 125.53 70.0448 125.348 69.8376 125.48L69.8381 125.479ZM64.8132 133.843C64.3986 133.87 64.5558 134.216 64.5478 134.407C64.5363 134.663 64.7402 134.802 65.0152 134.778C65.3051 134.835 65.5878 134.78 65.8645 134.704C66.2499 134.598 66.4008 134.358 66.3184 134.007C66.2429 133.684 65.9466 133.501 65.5925 133.584C65.3267 133.647 65.0587 133.714 64.8132 133.843ZM65.9896 129.005C66.1228 128.849 66.164 128.731 65.9009 128.665C65.6442 128.601 65.4066 128.582 65.1447 128.668C64.8363 128.771 64.6913 129.005 64.7111 129.27C64.7311 129.538 64.746 129.896 65.1655 129.925C65.2571 130.006 65.3796 130.055 65.4816 130.093C65.7486 130.195 66.0303 130.373 66.3271 130.184C66.5679 130.031 66.6828 129.78 66.626 129.514C66.559 129.199 66.2976 129.056 65.9898 129.006L65.9896 129.005ZM61.1458 131.284C60.7292 131.413 60.5615 131.941 60.8626 132.22C61.0304 132.375 61.2271 132.507 61.4298 132.614C61.7546 132.786 62.2247 132.547 62.2703 132.208C62.3383 131.695 61.6482 131.128 61.146 131.284L61.1458 131.284ZM71.3249 132.849C71.2845 132.716 71.2434 132.613 71.2218 132.505C71.1643 132.215 71.0153 131.979 70.7209 131.94C70.3831 131.894 69.862 132.21 69.7562 132.462C69.7408 132.5 69.7143 132.536 69.708 132.575C69.6527 132.956 69.8055 133.467 70.0595 133.759C70.3742 134.123 70.9285 134.081 71.2741 133.756C71.6264 133.424 71.3775 133.134 71.3247 132.848L71.3249 132.849Z" fill="#E32641"/>
<path d="M66.7658 120.271C66.8418 120.538 67.1169 120.569 67.2978 120.707C67.7161 121.026 68.086 121.406 68.5475 121.675C68.6932 121.76 68.7957 121.937 68.916 122.07C69.0807 122.252 68.9338 122.429 68.7485 122.53C67.8556 123.018 66.9472 123.46 65.9174 123.592C65.0857 123.698 64.2539 123.669 63.4228 123.615C62.59 123.561 61.7938 123.31 60.988 123.113C60.9355 123.1 60.8855 123.064 60.8343 123.064C60.6803 123.063 60.5485 122.81 60.4031 122.98C60.3033 123.097 60.4542 123.265 60.4593 123.41C60.4921 124.272 60.7006 125.111 60.6248 125.996C60.5518 126.846 60.4934 127.691 60.3049 128.524C60.1002 129.427 59.8529 130.319 59.5243 131.183C59.1426 132.186 58.6659 133.148 58.1694 134.1C57.7885 134.621 57.7915 134.616 57.209 134.274C55.9824 133.553 55.4923 132.373 55.1939 131.069C54.9624 130.056 54.9722 129.032 55.0428 128.005C55.0551 127.829 55.1766 127.668 55.116 127.484C55.109 127.461 55.08 127.445 55.0605 127.427C53.7271 128.621 52.0711 129.052 50.3817 129.408C49.9541 129.498 49.5298 129.604 49.0466 129.718C49.3093 128.88 49.7189 128.182 50.1894 127.525C50.6863 126.832 51.268 126.203 51.8793 125.609C52.3069 125.194 52.768 124.811 53.2237 124.425C53.8485 123.895 54.5151 123.417 55.1972 122.968C56.0777 122.388 56.9354 121.768 57.906 121.333C58.1046 121.244 58.28 121.104 58.5047 120.963C56.3365 119.935 54.1986 118.922 52.0119 117.885C52.4323 117.594 52.8061 117.333 53.2576 117.204C53.3974 117.164 53.5098 117.177 53.6464 117.249C54.9516 117.937 56.3007 118.539 57.6226 119.194C58.232 119.495 58.8176 119.876 59.5007 120.044C59.4941 118.914 59.6021 117.796 59.8028 116.689C59.9829 115.696 60.2724 114.738 60.7566 113.843C61.5277 112.418 62.6017 111.735 64.2087 111.729C64.8548 111.726 64.889 111.824 64.6815 112.441C64.2068 113.852 63.7503 115.269 63.2823 116.683C62.9726 117.618 62.6562 118.55 62.3144 119.568C63.9696 119.031 65.3625 119.674 66.7637 120.272L66.7658 120.271Z" fill="#2DA06A"/>
<path d="M65.9896 129.006C66.2975 129.056 66.5587 129.198 66.6258 129.513C66.6825 129.78 66.5676 130.03 66.3268 130.183C66.03 130.372 65.7483 130.194 65.4814 130.093C65.3801 130.054 65.2569 130.006 65.1652 129.924C65.1281 129.868 65.1007 129.8 65.0529 129.758C64.8373 129.565 64.8407 129.348 64.9318 129.094C65.0249 128.834 65.2537 128.827 65.4554 128.771C65.69 128.706 65.8035 128.945 65.9896 129.006Z" fill="#F3CF59"/>
<path d="M62.7443 125.196C62.9553 125.484 63.3679 125.633 63.3559 126.076C63.2369 126.57 62.6562 126.736 62.301 126.413C62.1509 126.277 61.9704 126.174 61.8043 126.057L61.7674 125.97C61.7413 125.866 61.7159 125.763 61.6897 125.66L61.6873 125.661C62.024 125.086 62.0586 125.071 62.7435 125.196L62.7443 125.196Z" fill="#F3CF59"/>
<path d="M61.1459 131.284C61.6481 131.128 62.3381 131.695 62.2701 132.208C62.2254 132.546 61.7552 132.785 61.4297 132.614C61.227 132.507 61.0305 132.375 60.8625 132.219C60.5616 131.941 60.7293 131.413 61.1457 131.283L61.1459 131.284Z" fill="#F3CF59"/>
<path d="M64.8133 133.843C65.0587 133.714 65.3259 133.647 65.5925 133.585C65.9466 133.501 66.2429 133.685 66.3185 134.007C66.4001 134.358 66.25 134.599 65.8645 134.705C65.5879 134.78 65.3054 134.836 65.0152 134.779C64.7461 134.511 64.665 134.201 64.8141 133.843L64.8133 133.843Z" fill="#F3CF59"/>
<path d="M69.611 124.981C69.6365 125.059 69.6612 125.137 69.6865 125.215C69.5328 125.5 69.6366 125.81 69.954 126.017C69.9658 126.039 69.9676 126.062 69.9599 126.085C69.8214 126.144 69.7222 126.277 69.5607 126.291C69.4593 126.301 69.3037 126.272 69.3474 126.178C69.4834 125.886 69.2136 125.647 69.2821 125.381C69.3096 125.275 69.3525 125.204 69.2065 125.17C69.0968 125.143 69.0202 125.179 68.9541 125.262C68.8759 125.359 68.9375 125.404 69.0156 125.45C69.1093 125.504 69.1174 125.607 69.1481 125.697C69.1993 125.846 69.1236 125.956 69.0007 125.992C68.8715 126.03 68.8653 125.886 68.837 125.802C68.7883 125.659 68.7581 125.508 68.7024 125.368C68.6344 125.199 68.6957 125.086 68.8153 124.968C68.94 124.844 69.0701 124.801 69.2194 124.89C69.3434 124.963 69.4674 125.005 69.6102 124.981L69.611 124.981Z" fill="#FBE558"/>
<path d="M69.611 124.98C69.4681 125.005 69.3442 124.962 69.2202 124.889C69.0701 124.801 68.9408 124.844 68.8161 124.968C68.6965 125.086 68.6352 125.198 68.7032 125.367C68.7589 125.508 68.7891 125.658 68.8378 125.802C68.8669 125.886 68.8723 126.029 69.0015 125.991C69.1244 125.956 69.2001 125.845 69.1489 125.696C69.1181 125.607 69.1101 125.503 69.0164 125.449C68.9375 125.404 68.8759 125.358 68.9549 125.261C69.0212 125.18 69.0979 125.143 69.2073 125.169C69.3533 125.204 69.3107 125.275 69.2829 125.38C69.2143 125.646 69.484 125.885 69.3482 126.178C69.3045 126.271 69.4601 126.3 69.5615 126.291C69.723 126.276 69.8224 126.144 69.9607 126.084C69.8285 126.478 69.3808 126.633 69.0795 126.379C68.9127 126.239 68.7629 126.078 68.6719 125.873C68.6324 125.729 68.5899 125.586 68.5544 125.441C68.4803 125.14 68.6069 124.845 68.8924 124.745C69.1755 124.645 69.4521 124.658 69.6123 124.979L69.611 124.98Z" fill="#F3CF59"/>
<path d="M71.3239 132.849C71.3768 133.134 71.6256 133.424 71.2733 133.756C70.9277 134.082 70.3742 134.123 70.0588 133.76C69.8048 133.467 69.6517 132.955 69.7073 132.575C69.7128 132.536 69.7392 132.501 69.7555 132.463C69.8604 132.211 70.3823 131.894 70.7202 131.94C71.0145 131.98 71.1644 132.216 71.2211 132.505C71.2426 132.613 71.2835 132.716 71.3241 132.85L71.3239 132.849ZM70.1447 133.483C70.3579 133.818 70.6574 133.961 70.9171 133.85C71.1813 133.736 71.3096 133.378 71.2067 133.029C71.1604 132.871 71.1151 132.716 71.0946 132.549C71.0523 132.201 70.7414 132.021 70.4036 132.115C69.8618 132.267 69.7273 132.861 70.1096 133.407C70.1208 133.433 70.1327 133.458 70.1439 133.483L70.1447 133.483Z" fill="#D2412E"/>
<path d="M68.6705 125.874C68.7623 126.079 68.9112 126.241 69.078 126.381C69.3791 126.634 69.8271 126.48 69.9592 126.086C69.9669 126.063 69.9651 126.04 69.9533 126.018C70.1043 125.798 69.9123 125.652 69.8375 125.48C70.0447 125.348 70.1108 125.531 70.1659 125.652C70.2419 125.822 70.3485 126.021 70.1926 126.191C70.0519 126.345 69.8896 126.5 69.7048 126.589C69.2597 126.804 69.0778 126.737 68.8032 126.271C68.737 126.159 68.4264 126.097 68.6705 125.874Z" fill="#D2412E"/>
<path d="M65.9897 129.006C65.8037 128.945 65.6904 128.707 65.4556 128.771C65.2538 128.827 65.0248 128.834 64.9319 129.094C64.8408 129.348 64.8374 129.565 65.0531 129.758C65.1019 129.801 65.1285 129.869 65.1654 129.924C64.7453 129.896 64.7309 129.538 64.711 129.27C64.6912 129.005 64.8364 128.771 65.1445 128.668C65.4063 128.58 65.6449 128.6 65.9007 128.665C66.1641 128.731 66.1227 128.849 65.9895 129.005L65.9897 129.006Z" fill="#D2412E"/>
<path d="M61.8052 126.056C61.9713 126.174 62.152 126.277 62.3019 126.413C62.6562 126.736 63.2378 126.57 63.3568 126.076C63.5173 126.555 63.4518 126.605 62.9438 126.685C62.5012 126.755 62.1818 126.61 61.8933 126.309C61.8233 126.236 61.7722 126.162 61.8057 126.055L61.8052 126.056Z" fill="#D2412E"/>
<path d="M62.7443 125.196C62.059 125.07 62.0247 125.085 61.6881 125.66C61.5405 125.349 61.7113 125.171 61.9646 125.053C62.4098 124.847 62.5401 124.878 62.7443 125.196Z" fill="#D2412E"/>
<path d="M64.8132 133.843C64.6652 134.202 64.7461 134.511 65.0144 134.779C64.7394 134.803 64.5363 134.663 64.547 134.407C64.5557 134.216 64.3975 133.87 64.8124 133.843L64.8132 133.843Z" fill="#D2412E"/>
<path d="M69.8381 125.479C69.9129 125.651 70.1051 125.797 69.9539 126.017C69.6364 125.81 69.5327 125.5 69.6864 125.214C69.7374 125.302 69.7449 125.415 69.8381 125.479Z" fill="#F3CF59"/>
<path d="M61.6913 125.66C61.7174 125.763 61.7428 125.866 61.769 125.969C61.574 125.908 61.4415 125.832 61.6913 125.66Z" fill="#D2412E"/>
<path d="M70.1448 133.484C70.1336 133.458 70.1217 133.433 70.1105 133.408C70.159 133.196 70.1783 132.994 70.0992 132.774C69.9845 132.454 70.2132 132.352 70.4701 132.257C70.7655 132.149 70.8286 132.314 70.8856 132.536C70.9368 132.736 71.0007 132.931 71.0641 133.128C71.1558 133.416 70.918 133.571 70.7659 133.698C70.6519 133.795 70.4178 133.704 70.3246 133.523C70.2696 133.417 70.2242 133.413 70.1456 133.483L70.1448 133.484Z" fill="#FBE558"/>
<path d="M70.1449 133.483C70.2235 133.413 70.2688 133.417 70.3238 133.524C70.4171 133.704 70.6509 133.794 70.7652 133.698C70.9173 133.571 71.1553 133.417 71.0633 133.128C71.0002 132.932 70.9368 132.735 70.8848 132.536C70.8279 132.314 70.7645 132.149 70.4694 132.258C70.2125 132.352 69.9837 132.454 70.0985 132.774C70.1776 132.994 70.1583 133.196 70.1098 133.408C69.7267 132.862 69.862 132.268 70.4037 132.116C70.7413 132.021 71.0524 132.202 71.0947 132.549C71.1153 132.717 71.1606 132.871 71.2068 133.029C71.3098 133.379 71.1815 133.737 70.9173 133.85C70.6576 133.961 70.358 133.819 70.1449 133.483Z" fill="#F3CF59"/>
</g>
</svg>
