 <svg viewBox="0 0 83 168" fill="none" xmlns="http://www.w3.org/2000/svg"><path d="M61.5685 28.8641C68.4166 22.9655 76.4876 19.671 85.2923 18.3761C99.5424 16.2829 112.634 18.4697 121.238 32.3745C125.151 38.7047 127.841 45.4017 129.05 52.739C129.388 54.8035 130.078 56.4436 132.323 57.7887C135.696 59.8029 137.725 63.4859 138.761 67.2768C140.883 75.0888 140.919 82.9944 139.66 91.0438C138.092 101.035 134.956 110.689 133.51 120.673C132.798 125.615 132.697 130.694 132.819 135.7C132.92 139.973 130.488 142.182 127.338 144.081C125.007 145.483 122.756 147.246 120.216 148.03C116.109 149.296 114.821 152.612 113.246 155.892C110.872 160.834 107.693 164.992 102.377 167.071C99.4489 168.214 96.4133 168.085 93.5719 167.128C89.6947 165.826 85.5369 165.085 82.2783 162.244C81.559 161.618 80.5806 160.705 79.4297 161.69C74.9122 165.575 70.6754 163.201 66.5967 160.942C61.9354 158.36 58.0078 154.72 53.9076 151.36C46.9012 145.613 39.8013 139.959 33.0827 133.888C21.5517 123.479 10.8983 112.207 4.67602 97.7049C0.158567 87.1881 -0.877271 76.1823 1.71954 64.7951C3.4028 57.4147 6.07869 50.8183 11.7399 45.6319C14.5957 43.0207 17.9406 41.0353 21.5157 39.9419C24.3139 39.0859 25.1196 37.1077 26.0044 35.0648C28.5005 29.3029 30.3851 27.929 36.7009 27.857C37.7799 27.8426 38.8518 27.8714 39.9308 27.8786C39.8373 35.5036 39.8589 43.1358 39.564 50.7536C39.4992 52.3289 39.8373 52.7893 41.1393 53.2785C46.4336 55.2567 51.6848 57.3571 56.9647 59.3641C59.0868 60.1697 60.2018 58.8174 61.0793 57.1917C63.223 53.2281 65.3091 49.2286 67.4671 45.2722C70.2006 40.2584 70.1143 40.3519 66.5392 35.8489C64.7696 33.6189 62.1368 31.9573 61.5829 28.8569L61.5685 28.8641Z" fill="#F5B720"/><path d="M61.5682 28.8642C62.1292 31.9646 64.762 33.6262 66.5244 35.8562C70.0995 40.3664 70.1858 40.2729 67.4523 45.2795C65.2943 49.2359 63.2083 53.2354 61.0647 57.199C60.1871 58.8247 59.072 60.177 56.95 59.3714C51.6628 57.3644 46.4188 55.264 41.1245 53.2858C39.8153 52.7966 39.4845 52.3362 39.5492 50.7609C39.8441 43.1431 39.8225 35.5109 39.9161 27.8859C40.3045 23.7857 37.7868 20.412 37.0027 16.5851C36.5927 14.5709 36.4344 12.377 35.3914 10.4851C34.5785 9.01045 35.9452 8.4997 36.7005 8.03932C40.9806 5.4497 45.3686 3.03273 49.6559 0.4503C50.8931 -0.297813 51.3319 -0.139563 52.0944 1.11928C55.3386 6.50713 58.7627 11.7583 60.633 17.8799C61.748 21.527 61.4171 25.1884 61.5682 28.857V28.8642Z" fill="#265441"/></svg>