 <svg viewBox="0 0 207 247" fill="none" xmlns="http://www.w3.org/2000/svg"><path d="M169.02 81.9345C168.025 84.1803 166.332 85.8872 164.639 87.594C161.726 90.5308 158.44 92.9598 154.747 94.8152C151.247 96.5738 147.488 97.6069 143.628 97.9006C138.708 98.2737 133.774 98.0422 128.937 96.8468C125.734 96.0556 122.628 94.9707 119.55 93.7821C115.873 92.362 112.449 90.441 109.008 88.5614C106.88 87.4005 104.903 85.9666 102.861 84.6537C102.025 84.1147 101.928 83.3235 102.036 82.4078C102.813 75.7498 103.76 69.0953 104.271 62.4304C104.903 54.2037 108.569 47.411 112.829 40.7253C114.433 38.21 116.284 35.9607 118.599 34.088C120.334 32.6852 122.234 31.6003 124.397 30.9991C127.583 34.126 130.834 37.1873 134.365 39.9203C137.406 42.2732 140.653 44.3359 143.998 46.2431C147.087 48.0018 150.376 49.256 153.672 50.5758C157.1 51.9475 160.693 52.1341 164.162 53.0462C164.746 53.2017 165.596 52.8009 165.941 53.3434C166.442 54.1277 165.275 54.3454 165.085 54.9569C165.022 55.1608 164.818 55.3163 164.704 55.5097C162.946 58.4777 160.983 61.342 159.76 64.5898C158.541 67.8307 157.418 71.1027 156.834 74.544C156.112 78.8007 156.772 82.9503 157.632 87.093C157.812 87.9533 158.337 88.7514 159.259 88.3161C159.933 87.9982 160.762 87.8013 161.277 87.3279C162.904 85.818 164.863 84.8057 166.643 83.5273C167.413 82.9745 167.866 81.9172 169.02 81.9379V81.9345ZM153.721 55.223C153.337 54.0206 152.871 54.4525 152.394 55.1573L152.003 55.1988C151.62 54.9397 151.264 55.0502 150.887 55.2403C149.346 56.0246 148.379 57.1198 148.12 58.9649C147.823 61.0828 147.944 61.4042 150.044 61.3454C151.793 61.9294 152.885 60.4678 154.287 59.9772C155.797 59.5453 156.081 59.0685 155.797 57.0473C155.638 55.8967 155.134 55.0018 153.717 55.2126V55.223H153.721ZM144.578 87.8566C144.945 87.5629 145.404 87.6665 145.815 87.5733C146.157 87.5663 146.499 87.5629 146.838 87.556C148.31 87.3072 148.697 86.2223 148.642 84.975C148.586 83.7173 147.567 82.857 146.282 82.7879C145.663 82.7534 145.041 82.7499 144.419 82.7326C143.829 81.4922 143.203 82.6566 142.682 82.781C140.494 83.3096 140.007 83.9523 140.325 85.9839C140.456 86.8269 140.878 87.6596 141.317 88.4059C141.804 89.2317 142.726 89.0486 143.494 88.9518C144.046 88.8827 144.851 88.8378 144.575 87.8531L144.578 87.8566ZM117.38 57.7418C117.774 56.0591 116.208 56.2664 115.459 56.0038C114.453 55.6479 113.652 56.2906 113.413 57.4135C112.836 58.4984 112.715 59.6905 112.681 60.8825C112.636 62.5444 113.41 63.4358 114.906 63.5325C116.281 63.6224 117.369 62.6653 117.466 61.1554C117.539 60.0221 117.597 58.875 117.38 57.7418ZM135.205 68.2764C135.664 68.9951 136.086 69.3026 136.666 68.3351C137.233 67.3919 137.596 66.4694 137.568 65.3223C137.533 63.9713 136.777 63.111 135.699 62.8692C134.607 62.6238 133.166 62.2507 132.544 63.8849C132.109 64.151 131.767 64.5794 131.49 64.9388C130.765 65.8786 129.714 66.7838 130.108 68.1935C130.426 69.3371 131.283 70.0973 132.413 70.194C133.747 70.308 134.631 69.4408 135.201 68.2764H135.205ZM132.002 46.2466C131.991 44.4326 130.095 43.1266 128.619 43.9869C127.8 44.4672 127.033 45.0891 126.363 45.7663C125.289 46.8512 125.669 49.0107 126.961 49.6015C128.92 50.4929 132.012 48.4337 131.998 46.2466H132.002ZM113.455 84.8541C114.032 84.8541 114.495 84.8161 114.951 84.861C116.17 84.9819 117.29 84.6744 117.805 83.5515C118.396 82.2627 117.767 79.8061 116.893 79.0806C116.761 78.9735 116.651 78.8249 116.502 78.7523C115.054 78.0717 112.836 78.0613 111.364 78.7178C109.537 79.5297 109.032 81.7859 109.91 83.5549C110.805 85.3585 112.259 84.7193 113.458 84.8541H113.455Z" fill="#E32641"/><path d="M169.02 81.9347C167.866 81.9139 167.41 82.9712 166.643 83.524C164.867 84.8024 162.908 85.8148 161.277 87.3246C160.762 87.8014 159.933 87.9949 159.259 88.3128C158.337 88.7481 157.812 87.95 157.632 87.0897C156.772 82.947 156.112 78.7974 156.834 74.5407C157.418 71.1029 158.537 67.8274 159.76 64.5865C160.983 61.3387 162.946 58.4744 164.705 55.5065C164.819 55.313 165.022 55.1575 165.085 54.9536C165.275 54.3421 166.443 54.1244 165.942 53.3401C165.596 52.8011 164.746 53.1985 164.162 53.043C160.693 52.1308 157.1 51.9442 153.672 50.5726C150.376 49.2527 147.087 47.9985 143.998 46.2398C140.654 44.3326 137.406 42.2699 134.365 39.917C130.834 37.184 127.583 34.1227 124.397 30.9959C122.787 28.8502 122.801 28.8675 124.867 26.9637C129.221 22.9558 134.51 22.4341 140.059 22.8245C144.368 23.1286 148.431 24.4069 152.432 25.9307C153.12 26.1932 153.61 26.8705 154.419 26.8532C154.519 26.8532 154.616 26.7564 154.712 26.7011C151.572 19.9498 151.862 12.8392 152.491 5.68712C152.65 3.87664 152.74 2.05925 152.874 0C155.891 2.05925 158.171 4.53311 160.216 7.20046C162.372 10.0164 164.169 13.0914 165.793 16.2425C166.93 18.4469 167.894 20.7445 168.878 23.0249C170.229 26.1518 171.325 29.3823 172.289 32.6405C173.529 36.8454 174.959 41.0088 175.516 45.3968C175.63 46.2951 175.975 47.1624 176.262 48.2265C182.975 40.8429 189.595 33.563 196.367 26.1172C197.017 28.1419 197.604 29.9455 197.57 31.8976C197.559 32.5023 197.373 32.9342 196.92 33.3903C192.601 37.7506 188.576 42.3908 184.371 46.8583C182.433 48.9176 180.208 50.7868 178.715 53.3021C183.217 54.6427 187.536 56.4255 191.699 58.5642C195.431 60.4818 198.893 62.7933 201.868 65.8027C206.605 70.595 208.021 75.6947 206.104 82.097C205.333 84.6711 204.901 84.6884 202.697 83.1163C197.656 79.5195 192.57 75.9884 187.512 72.4158C184.167 70.0525 180.84 67.665 177.205 65.0737C177.336 72.3087 173.094 77.0733 169.017 81.9243L169.02 81.9347Z" fill="#2DA06A"/><path d="M135.205 68.2763C134.631 69.4407 133.75 70.3079 132.417 70.1939C131.287 70.0971 130.43 69.337 130.112 68.1934C129.718 66.7837 130.769 65.8784 131.494 64.9386C131.771 64.5828 132.113 64.1509 132.548 63.8848C132.817 63.8054 133.118 63.7777 133.346 63.6395C134.372 63.0141 135.233 63.2906 136.134 63.9608C137.053 64.645 136.805 65.564 136.784 66.4347C136.76 67.447 135.671 67.6094 135.205 68.2763V68.2763Z" fill="#F3CF59"/><path d="M154.29 59.9742C152.887 60.4649 151.796 61.9264 150.047 61.3424C148.226 60.2714 148.268 57.7595 149.982 56.7368C150.707 56.3049 151.333 55.7106 152.003 55.1923L152.393 55.1509C152.836 55.1716 153.278 55.1958 153.72 55.2165V55.2062C155.6 57.2412 155.617 57.3967 154.29 59.9708V59.9742Z" fill="#F3CF59"/><path d="M132.001 46.2472C132.015 48.4343 128.923 50.4935 126.964 49.6021C125.672 49.0147 125.292 46.8553 126.366 45.7669C127.036 45.0897 127.8 44.4678 128.622 43.9875C130.094 43.1272 131.991 44.4332 132.005 46.2472H132.001Z" fill="#F3CF59"/><path d="M117.38 57.742C117.597 58.8753 117.538 60.0189 117.466 61.1556C117.369 62.6655 116.281 63.6226 114.906 63.5328C113.41 63.4326 112.636 62.5446 112.681 60.8827C112.715 59.6907 112.833 58.4986 113.413 57.4137C114.805 56.6674 116.136 56.7193 117.38 57.7454V57.742Z" fill="#F3CF59"/><path d="M146.838 87.556C146.496 87.5629 146.154 87.5664 145.815 87.5733C144.865 86.6162 143.507 86.6542 142.298 87.6666C142.198 87.6873 142.105 87.6666 142.022 87.6078C141.956 86.9859 141.545 86.4296 141.683 85.7697C141.769 85.3551 142.073 84.7712 142.391 85.058C143.39 85.9528 144.668 85.1685 145.643 85.7628C146.033 86.0012 146.261 86.2569 146.575 85.7179C146.814 85.3136 146.762 84.9647 146.513 84.6019C146.223 84.1735 145.967 84.3635 145.691 84.6192C145.363 84.9267 144.941 84.8334 144.547 84.8472C143.894 84.8714 143.545 84.436 143.552 83.9039C143.559 83.3442 144.136 83.4928 144.506 83.4824C145.135 83.4617 145.77 83.5239 146.396 83.4721C147.152 83.4064 147.526 83.7865 147.85 84.4049C148.192 85.0511 148.206 85.6211 147.674 86.1083C147.232 86.5126 146.914 86.9548 146.838 87.5526V87.556Z" fill="#FBE558"/><path d="M146.838 87.5562C146.914 86.9584 147.232 86.5162 147.674 86.1119C148.206 85.6213 148.192 85.0547 147.85 84.4086C147.526 83.7901 147.152 83.41 146.396 83.4757C145.77 83.5275 145.135 83.4653 144.506 83.4861C144.136 83.4999 143.559 83.3478 143.552 83.9076C143.545 84.4397 143.894 84.875 144.547 84.8508C144.941 84.837 145.363 84.9303 145.691 84.6228C145.967 84.3637 146.223 84.1736 146.513 84.6055C146.758 84.9683 146.81 85.3173 146.575 85.7215C146.261 86.2605 146.029 86.0048 145.642 85.7664C144.668 85.1722 143.393 85.9565 142.391 85.0616C142.073 84.7748 141.769 85.3587 141.683 85.7734C141.545 86.4333 141.952 86.9896 142.022 87.6115C140.615 86.6095 140.539 84.6401 141.914 83.7487C142.675 83.2546 143.497 82.8538 144.423 82.7397C145.045 82.757 145.663 82.7605 146.285 82.795C147.57 82.8641 148.59 83.7245 148.645 84.9821C148.7 86.2294 148.313 87.3143 146.841 87.5631L146.838 87.5562Z" fill="#F3CF59"/><path d="M113.458 84.8509C112.259 84.7162 110.804 85.3554 109.91 83.5518C109.032 81.7828 109.536 79.53 111.364 78.7146C112.836 78.0582 115.058 78.0685 116.502 78.7492C116.651 78.8183 116.761 78.9669 116.892 79.0774C117.767 79.7995 118.395 82.2596 117.805 83.5483C117.29 84.6713 116.17 84.9822 114.951 84.8578C114.495 84.8129 114.035 84.8509 113.455 84.8509H113.458ZM112.363 79.3918C110.77 79.8341 109.841 80.8534 109.968 82.0212C110.1 83.2098 111.368 84.153 112.884 84.1668C113.569 84.1737 114.239 84.1806 114.93 84.3016C116.364 84.5538 117.456 83.5345 117.49 82.0765C117.542 79.7373 115.341 78.4832 112.705 79.3435C112.591 79.3573 112.477 79.3746 112.363 79.3884V79.3918Z" fill="#D2412E"/><path d="M144.419 82.7327C143.493 82.8502 142.671 83.2475 141.911 83.7416C140.539 84.633 140.612 86.6024 142.018 87.6044C142.101 87.6632 142.194 87.6839 142.294 87.6631C142.989 88.5304 143.801 87.943 144.575 87.8532C144.851 88.8379 144.043 88.8794 143.493 88.9519C142.726 89.0487 141.804 89.2318 141.317 88.406C140.874 87.6597 140.456 86.827 140.325 85.984C140.007 83.9524 140.494 83.3097 142.681 82.7811C143.207 82.6532 143.829 81.4923 144.419 82.7327V82.7327Z" fill="#D2412E"/><path d="M135.204 68.2767C135.671 67.6098 136.756 67.4474 136.783 66.4351C136.804 65.5644 137.056 64.6453 136.134 63.9612C135.232 63.2909 134.372 63.0145 133.345 63.6399C133.114 63.7816 132.813 63.8057 132.547 63.8852C133.166 62.2475 134.61 62.6241 135.702 62.8694C136.78 63.1113 137.533 63.9716 137.571 65.3226C137.602 66.4697 137.236 67.3956 136.669 68.3354C136.085 69.3028 135.667 68.9953 135.208 68.2767H135.204Z" fill="#D2412E"/><path d="M152.003 55.1957C151.333 55.7139 150.704 56.3082 149.982 56.7401C148.268 57.7594 148.227 60.2747 150.048 61.3458C147.947 61.4045 147.826 61.0832 148.123 58.9652C148.382 57.1202 149.346 56.0249 150.891 55.2406C151.267 55.0506 151.623 54.9365 152.007 55.1991L152.003 55.1957Z" fill="#D2412E"/><path d="M154.291 59.9736C155.621 57.3996 155.6 57.2441 153.721 55.209C155.137 54.9983 155.638 55.8931 155.801 57.0437C156.084 59.0649 155.801 59.5452 154.291 59.9736Z" fill="#D2412E"/><path d="M117.38 57.7416C116.132 56.7189 114.805 56.667 113.413 57.4099C113.651 56.287 114.453 55.6478 115.459 56.0002C116.208 56.2662 117.777 56.0555 117.38 57.7381V57.7416Z" fill="#D2412E"/><path d="M144.579 87.8563C143.805 87.9461 142.989 88.5335 142.298 87.6662C143.508 86.6539 144.865 86.6159 145.816 87.573C145.404 87.6697 144.945 87.5626 144.579 87.8563V87.8563Z" fill="#F3CF59"/><path d="M153.72 55.2223C153.278 55.2016 152.836 55.1774 152.394 55.1567C152.874 54.4553 153.337 54.0199 153.72 55.2223Z" fill="#D2412E"/><path d="M112.36 79.3914C112.474 79.3775 112.588 79.3603 112.702 79.3464C113.486 79.7956 114.267 80.1169 115.238 80.0686C116.651 79.9995 116.779 81.0325 116.844 82.1693C116.917 83.4753 116.184 83.5271 115.234 83.4857C114.377 83.4477 113.521 83.4649 112.66 83.4788C111.406 83.496 111.078 82.3628 110.753 81.6026C110.508 81.0325 111.15 80.2102 111.983 80.0582C112.474 79.9684 112.543 79.7922 112.36 79.3948V79.3914Z" fill="#FBE558"/><path d="M112.36 79.3916C112.543 79.7889 112.474 79.9652 111.983 80.055C111.15 80.207 110.511 81.0293 110.753 81.5994C111.078 82.3595 111.403 83.4928 112.66 83.4755C113.517 83.4617 114.377 83.4479 115.234 83.4825C116.185 83.5239 116.92 83.4721 116.844 82.1661C116.779 81.0293 116.651 79.9962 115.238 80.0653C114.267 80.1137 113.486 79.7924 112.702 79.3432C115.338 78.4795 117.539 79.7371 117.487 82.0762C117.456 83.5343 116.361 84.5535 114.927 84.3013C114.236 84.1804 113.566 84.1735 112.881 84.1666C111.365 84.1527 110.097 83.2095 109.965 82.0209C109.837 80.8531 110.767 79.8338 112.36 79.3916V79.3916Z" fill="#F3CF59"/><path d="M40.4172 207.234C41.5192 207.368 42.48 207.876 43.4407 208.384C45.0937 209.257 46.5762 210.359 47.8643 211.712C49.0851 212.994 50.0262 214.484 50.6607 216.114C51.4691 218.192 52.0179 220.356 52.1371 222.605C52.2161 224.095 52.1555 225.58 52.0464 227.068C51.9158 228.844 51.5354 230.578 51.1751 232.313C50.953 233.386 50.5929 234.429 50.2937 235.485C50.1705 235.917 49.8411 236.063 49.4311 236.137C46.4497 236.677 43.4476 237.143 40.4982 237.798C36.8576 238.606 33.4381 237.915 29.9868 236.952C28.6882 236.589 27.472 236.084 26.3578 235.329C25.5231 234.764 24.804 234.085 24.2596 233.228C25.1928 231.44 26.089 229.631 26.8065 227.745C27.4241 226.12 27.8889 224.445 28.2738 222.748C28.6281 221.181 28.7379 219.593 28.8752 217.994C29.0176 216.332 28.6257 214.753 28.5639 213.133C28.5544 212.86 28.2693 212.546 28.4584 212.325C28.7317 212.005 28.9794 212.481 29.2688 212.483C29.3652 212.483 29.4592 212.551 29.5579 212.575C31.0726 212.945 32.5693 213.417 34.1346 213.519C35.6965 213.62 37.259 213.675 38.824 213.475C40.7596 213.228 42.4673 212.397 44.1456 211.48C44.494 211.289 44.77 210.957 44.4604 210.615C44.2344 210.366 44.0402 210.033 43.7678 209.873C42.9008 209.367 42.2054 208.653 41.4186 208.052C41.0782 207.792 40.5615 207.735 40.4187 207.233L40.4172 207.234ZM30.8784 217.362C30.4088 217.686 30.657 217.831 31.0245 217.945L31.0937 218.108C31.0321 218.308 31.1267 218.447 31.2584 218.585C31.8002 219.148 32.4011 219.423 33.233 219.292C34.188 219.142 34.311 219.048 34.0094 218.147C34.0319 217.314 33.2564 217.034 32.8597 216.492C32.4744 215.896 32.2309 215.836 31.3942 216.224C30.9175 216.444 30.5969 216.78 30.8743 217.365L30.8788 217.364L30.8784 217.362ZM46.1924 217.024C46.0173 216.904 46.0017 216.692 45.9072 216.526C45.8593 216.379 45.8128 216.232 45.7653 216.086C45.4641 215.483 44.9441 215.458 44.412 215.646C43.8754 215.835 43.6374 216.389 43.7766 216.954C43.843 217.226 43.9233 217.495 43.9976 217.767C43.5389 218.185 44.1246 218.302 44.247 218.512C44.7633 219.388 45.1052 219.514 45.942 219.109C46.2893 218.942 46.5939 218.65 46.8589 218.362C47.1519 218.043 46.9514 217.668 46.8087 217.349C46.7061 217.119 46.5809 216.777 46.1914 217.026L46.1924 217.024ZM36.7468 232.746C35.9674 232.797 36.2628 233.446 36.2479 233.805C36.2262 234.287 36.6096 234.549 37.1265 234.504C37.6715 234.611 38.2029 234.507 38.7229 234.365C39.4475 234.166 39.7312 233.714 39.5762 233.054C39.4342 232.448 38.8772 232.103 38.2116 232.26C37.712 232.377 37.2082 232.503 36.7468 232.746ZM38.9581 223.652C39.2085 223.359 39.286 223.137 38.7913 223.013C38.3089 222.892 37.8623 222.856 37.3699 223.019C36.7902 223.212 36.5177 223.652 36.5549 224.15C36.5924 224.654 36.6205 225.326 37.409 225.38C37.5813 225.534 37.8115 225.625 38.0033 225.698C38.5051 225.888 39.0347 226.223 39.5925 225.867C40.0452 225.579 40.2612 225.109 40.1545 224.608C40.0284 224.016 39.5371 223.747 38.9586 223.654L38.9581 223.652ZM29.853 227.935C29.0699 228.178 28.7546 229.17 29.3207 229.695C29.636 229.986 30.0058 230.235 30.3868 230.436C30.9973 230.758 31.8811 230.31 31.9667 229.673C32.0945 228.709 30.7974 227.643 29.8534 227.936L29.853 227.935ZM48.9872 230.878C48.9113 230.628 48.834 230.433 48.7934 230.23C48.6853 229.687 48.4051 229.243 47.8518 229.168C47.2168 229.082 46.2372 229.677 46.0384 230.15C46.0094 230.221 45.9597 230.289 45.9478 230.362C45.8439 231.078 46.1311 232.038 46.6086 232.589C47.2 233.272 48.242 233.194 48.8916 232.581C49.5538 231.957 49.0861 231.412 48.9867 230.876L48.9872 230.878Z" fill="#E32641"/><path d="M40.4173 207.234C40.5601 207.736 41.0773 207.794 41.4172 208.053C42.2036 208.653 42.899 209.367 43.7664 209.873C44.0403 210.033 44.233 210.366 44.4591 210.616C44.7686 210.957 44.4926 211.29 44.1442 211.48C42.4659 212.397 40.7583 213.228 38.8226 213.476C37.2591 213.675 35.6955 213.622 34.1332 213.519C32.5679 213.418 31.0712 212.946 29.5565 212.575C29.4578 212.552 29.3638 212.484 29.2674 212.484C28.978 212.482 28.7303 212.006 28.457 212.325C28.2694 212.546 28.553 212.861 28.5625 213.134C28.6243 214.754 29.0162 216.332 28.8738 217.995C28.7365 219.594 28.6267 221.181 28.2724 222.748C27.8876 224.445 27.4227 226.121 26.8051 227.745C26.0876 229.632 25.1914 231.44 24.2582 233.229C23.5421 234.207 23.5478 234.199 22.4528 233.556C20.1471 232.201 19.2259 229.982 18.6649 227.531C18.2298 225.628 18.2483 223.703 18.381 221.772C18.4041 221.44 18.6324 221.139 18.5186 220.792C18.5055 220.748 18.4509 220.719 18.4143 220.685C15.9078 222.931 12.7948 223.74 9.61934 224.409C8.81553 224.578 8.01782 224.778 7.10962 224.991C7.60342 223.416 8.3733 222.104 9.25774 220.869C10.1919 219.566 11.2854 218.385 12.4344 217.268C13.2382 216.487 14.105 215.768 14.9616 215.042C16.1361 214.047 17.389 213.148 18.6712 212.303C20.3264 211.214 21.9386 210.048 23.763 209.23C24.1364 209.063 24.466 208.799 24.8885 208.535C20.8127 206.603 16.7941 204.698 12.6837 202.749C13.4738 202.201 14.1765 201.71 15.0252 201.468C15.288 201.393 15.4993 201.417 15.7561 201.553C18.2096 202.847 20.7455 203.978 23.2304 205.208C24.3758 205.776 25.4767 206.492 26.7607 206.807C26.7484 204.684 26.9513 202.582 27.3286 200.5C27.6671 198.634 28.2114 196.833 29.1215 195.151C30.5709 192.472 32.5899 191.189 35.6106 191.176C36.825 191.171 36.8893 191.355 36.4994 192.515C35.607 195.168 34.7489 197.832 33.8692 200.489C33.2871 202.246 32.6922 203.999 32.0497 205.912C35.161 204.903 37.7794 206.112 40.4133 207.237L40.4173 207.234Z" fill="#2DA06A"/><path d="M38.958 223.653C39.5369 223.748 40.0278 224.015 40.1539 224.606C40.2606 225.108 40.0446 225.578 39.5919 225.866C39.0341 226.222 38.5045 225.887 38.0027 225.696C37.8124 225.624 37.5807 225.533 37.4084 225.379C37.3386 225.273 37.2871 225.147 37.1973 225.066C36.792 224.705 36.7983 224.297 36.9696 223.818C37.1446 223.331 37.5747 223.318 37.9539 223.212C38.3949 223.09 38.6083 223.539 38.958 223.653V223.653Z" fill="#F3CF59"/><path d="M32.8579 216.491C33.2546 217.033 34.0302 217.313 34.0076 218.146C33.7839 219.074 32.6922 219.387 32.0246 218.78C31.7424 218.523 31.4032 218.331 31.0909 218.109L31.0216 217.946C30.9724 217.752 30.9247 217.557 30.8755 217.363L30.871 217.365C31.5039 216.284 31.5688 216.257 32.8564 216.492L32.8579 216.491Z" fill="#F3CF59"/><path d="M29.8529 227.935C30.7969 227.641 32.094 228.708 31.9662 229.672C31.8821 230.308 30.9983 230.757 30.3864 230.435C30.0054 230.234 29.636 229.986 29.3202 229.693C28.7546 229.17 29.0699 228.178 29.8525 227.933L29.8529 227.935Z" fill="#F3CF59"/><path d="M36.7467 232.747C37.2082 232.504 37.7104 232.379 38.2115 232.26C38.8772 232.104 39.4342 232.448 39.5762 233.055C39.7296 233.715 39.4474 234.167 38.7228 234.366C38.2028 234.507 37.6719 234.613 37.1264 234.505C36.6206 234.001 36.4681 233.419 36.7482 232.746L36.7467 232.747Z" fill="#F3CF59"/><path d="M45.7653 216.087C45.8132 216.234 45.8597 216.381 45.9073 216.527C45.6183 217.063 45.8133 217.645 46.4102 218.035C46.4323 218.076 46.4356 218.119 46.4211 218.162C46.1608 218.273 45.9743 218.524 45.6708 218.551C45.4801 218.568 45.1876 218.513 45.2698 218.338C45.5255 217.788 45.0182 217.339 45.1471 216.839C45.1988 216.639 45.2794 216.507 45.0049 216.442C44.7988 216.392 44.6547 216.46 44.5305 216.615C44.3834 216.797 44.4992 216.883 44.6461 216.969C44.8223 217.07 44.8374 217.265 44.8952 217.433C44.9915 217.713 44.8491 217.921 44.6181 217.988C44.3752 218.058 44.3636 217.789 44.3104 217.631C44.2188 217.362 44.1621 217.078 44.0574 216.815C43.9295 216.496 44.0448 216.285 44.2695 216.063C44.5039 215.83 44.7486 215.749 45.0293 215.915C45.2623 216.053 45.4953 216.133 45.7638 216.087L45.7653 216.087Z" fill="#FBE558"/><path d="M45.765 216.086C45.4965 216.132 45.2634 216.053 45.0305 215.914C44.7483 215.749 44.5051 215.829 44.2707 216.062C44.046 216.284 43.9307 216.495 44.0586 216.814C44.1632 217.078 44.22 217.361 44.3116 217.63C44.3662 217.788 44.3764 218.057 44.6193 217.987C44.8503 217.92 44.9927 217.712 44.8963 217.432C44.8386 217.264 44.8235 217.069 44.6473 216.968C44.4989 216.882 44.3831 216.797 44.5317 216.615C44.6563 216.461 44.8004 216.393 45.0061 216.441C45.2806 216.506 45.2004 216.64 45.1482 216.838C45.0194 217.338 45.5262 217.786 45.271 218.337C45.1888 218.512 45.4813 218.567 45.672 218.55C45.9755 218.523 46.1624 218.273 46.4223 218.162C46.1739 218.901 45.3323 219.193 44.766 218.716C44.4523 218.452 44.1709 218.149 43.9998 217.764C43.9255 217.493 43.8456 217.225 43.7788 216.951C43.6397 216.386 43.8776 215.833 44.4142 215.643C44.9463 215.455 45.4664 215.48 45.7675 216.084L45.765 216.086Z" fill="#F3CF59"/><path d="M48.9851 230.877C49.0845 231.413 49.5522 231.958 48.89 232.582C48.2404 233.194 47.1999 233.272 46.607 232.589C46.1295 232.039 45.8418 231.077 45.9462 230.363C45.9566 230.29 46.0063 230.222 46.0368 230.151C46.2341 229.678 47.2152 229.083 47.8502 229.169C48.4035 229.243 48.6852 229.687 48.7918 230.23C48.8324 230.434 48.9092 230.627 48.9856 230.878L48.9851 230.877ZM46.7685 232.068C47.1692 232.699 47.7322 232.967 48.2204 232.758C48.7171 232.545 48.9582 231.873 48.7647 231.215C48.6777 230.918 48.5926 230.627 48.554 230.313C48.4745 229.659 47.8901 229.321 47.2551 229.498C46.2368 229.783 45.9839 230.9 46.7026 231.927C46.7235 231.974 46.746 232.021 46.767 232.069L46.7685 232.068Z" fill="#D2412E"/><path d="M43.9976 217.767C44.1701 218.152 44.4501 218.455 44.7637 218.719C45.3296 219.195 46.1717 218.904 46.42 218.164C46.4345 218.121 46.4312 218.078 46.4091 218.037C46.6928 217.623 46.332 217.349 46.1914 217.026C46.5808 216.777 46.7051 217.121 46.8087 217.349C46.9514 217.668 47.1519 218.043 46.8589 218.362C46.5944 218.652 46.2893 218.942 45.942 219.11C45.1052 219.514 44.7633 219.388 44.247 218.512C44.1227 218.302 43.5389 218.185 43.9976 217.767V217.767Z" fill="#D2412E"/><path d="M38.9581 223.653C38.6083 223.539 38.3954 223.091 37.954 223.212C37.5748 223.318 37.1442 223.33 36.9697 223.818C36.7984 224.297 36.792 224.705 37.1974 225.066C37.2891 225.148 37.3391 225.275 37.4085 225.379C36.6189 225.327 36.5919 224.653 36.5544 224.149C36.5172 223.651 36.7901 223.212 37.3693 223.018C37.8613 222.854 38.3099 222.89 38.7908 223.012C39.2859 223.137 39.2079 223.358 38.9576 223.651L38.9581 223.653Z" fill="#D2412E"/><path d="M31.0922 218.109C31.4044 218.33 31.7441 218.524 32.0258 218.78C32.692 219.387 33.7851 219.074 34.0088 218.146C34.3105 219.046 34.1875 219.141 33.2325 219.291C32.4006 219.422 31.8002 219.149 31.2579 218.584C31.1262 218.446 31.0301 218.307 31.0932 218.107L31.0922 218.109Z" fill="#D2412E"/><path d="M32.8576 216.491C31.5696 216.255 31.5051 216.284 30.8723 217.364C30.5948 216.779 30.9159 216.445 31.3921 216.224C32.2289 215.835 32.4738 215.895 32.8576 216.491Z" fill="#D2412E"/><path d="M36.7465 232.746C36.4683 233.42 36.6203 234 37.1247 234.505C36.6077 234.549 36.2259 234.287 36.2461 233.806C36.2625 233.447 35.9651 232.796 36.745 232.746L36.7465 232.746Z" fill="#D2412E"/><path d="M46.192 217.024C46.3326 217.347 46.6939 217.622 46.4097 218.035C45.8129 217.645 45.6179 217.063 45.9068 216.526C46.0027 216.692 46.0168 216.904 46.192 217.024V217.024Z" fill="#F3CF59"/><path d="M30.8783 217.363C30.9275 217.557 30.9752 217.751 31.0244 217.945C30.658 217.83 30.4088 217.687 30.8783 217.363Z" fill="#D2412E"/><path d="M46.769 232.07C46.748 232.022 46.7255 231.975 46.7046 231.928C46.7956 231.53 46.8319 231.15 46.6833 230.736C46.4676 230.134 46.8975 229.943 47.3804 229.765C47.9357 229.562 48.0544 229.872 48.1614 230.288C48.2577 230.664 48.3778 231.032 48.4969 231.402C48.6694 231.943 48.2225 232.233 47.9365 232.474C47.7222 232.655 47.2821 232.485 47.1069 232.145C47.0035 231.945 46.9182 231.938 46.7705 232.069L46.769 232.07Z" fill="#FBE558"/><path d="M46.7689 232.07C46.9167 231.938 47.002 231.945 47.1054 232.145C47.2806 232.486 47.7203 232.654 47.935 232.474C48.221 232.234 48.6683 231.944 48.4954 231.403C48.3768 231.034 48.2577 230.664 48.1599 230.289C48.0529 229.872 47.9337 229.561 47.3789 229.766C46.896 229.943 46.4661 230.135 46.6818 230.737C46.8304 231.15 46.7941 231.53 46.7031 231.928C45.9828 230.902 46.2372 229.785 47.2556 229.5C47.8902 229.321 48.475 229.661 48.5545 230.314C48.593 230.629 48.6782 230.92 48.7652 231.216C48.9587 231.874 48.7176 232.546 48.2209 232.759C47.7327 232.968 47.1697 232.7 46.7689 232.07V232.07Z" fill="#F3CF59"/></svg>