<svg width="16" height="18" viewBox="0 0 16 18" fill="none" xmlns="http://www.w3.org/2000/svg">
<path d="M14.0586 17.9999H1.93988C1.68461 18.002 1.43149 17.95 1.19528 17.8469C0.959057 17.7438 0.744447 17.5918 0.563933 17.3996C0.383419 17.2074 0.240606 16.9789 0.143801 16.7274C0.0469957 16.4759 -0.00186731 16.2064 5.4567e-05 15.9347V4.88563C5.4567e-05 4.66545 0.08221 4.45428 0.228448 4.29858C0.374685 4.14289 0.573026 4.05542 0.779837 4.05542H15.2203C15.4271 4.05542 15.6254 4.14289 15.7716 4.29858C15.9179 4.45428 16 4.66545 16 4.88563V15.9347C16.002 16.2066 15.953 16.4762 15.8561 16.7278C15.7592 16.9794 15.6163 17.208 15.4356 17.4002C15.2549 17.5924 15.0401 17.7444 14.8037 17.8474C14.5673 17.9504 14.314 18.0022 14.0586 17.9999ZM1.55962 5.71585V15.9347C1.55806 15.9883 1.56683 16.0417 1.58539 16.0915C1.60395 16.1414 1.6319 16.1867 1.66753 16.2246C1.70316 16.2626 1.7457 16.2923 1.79254 16.3121C1.83938 16.3318 1.88953 16.3412 1.93988 16.3395H14.0586C14.1092 16.3419 14.1597 16.3331 14.207 16.3136C14.2542 16.2942 14.2972 16.2645 14.3331 16.2264C14.369 16.1883 14.3971 16.1428 14.4155 16.0925C14.434 16.0423 14.4425 15.9886 14.4405 15.9347V5.71585H1.55962Z" fill="#282C3F"/>
<path d="M11.7376 5.29409C11.5309 5.29364 11.3328 5.44969 11.1867 5.29409C11.0405 5.13849 10.9582 5.51414 10.9578 5.29409V2.41548C10.961 2.31892 10.9461 2.22264 10.914 2.13227C10.8819 2.0419 10.8332 1.95924 10.7708 1.88912C10.7084 1.81899 10.6335 1.7628 10.5504 1.72383C10.4674 1.68486 10.3779 1.66389 10.2871 1.66214H5.71437C5.62363 1.66389 5.53413 1.68486 5.45109 1.72383C5.36805 1.7628 5.29313 1.81899 5.2307 1.88912C5.16827 1.95924 5.11958 2.0419 5.08748 2.13227C5.05537 2.22264 5.04049 2.31892 5.0437 2.41548V5.29409C5.03459 5.50799 5.14617 4.61675 5.00078 4.76468C4.85539 4.91262 4.70189 4.76468 4.50079 4.76468C4.29968 4.76468 4.14618 5.44202 4.00079 5.29409C3.8554 5.14616 3.5099 5.50799 3.50079 5.29409L3.48253 2.41548C3.47957 2.1007 3.53501 1.78839 3.64566 1.49647C3.75632 1.20455 3.92002 0.938759 4.12737 0.714346C4.33472 0.489933 4.58165 0.311312 4.85398 0.188728C5.12632 0.0661433 5.4187 0.00200789 5.71437 0L10.2871 0C10.5824 0.00245638 10.8743 0.0668655 11.1462 0.189543C11.418 0.31222 11.6645 0.490759 11.8715 0.714945C12.0785 0.939132 12.2419 1.20457 12.3525 1.49607C12.463 1.78757 12.5185 2.09942 12.5158 2.41377V5.29409C12.516 5.40312 12.496 5.19328 12.457 5.29409C12.418 5.3949 12.3608 5.21684 12.2885 5.29409C12.2163 5.37134 12.2249 5.21023 12.1304 5.25216C12.0359 5.29409 11.84 5.29387 11.7376 5.29409Z" fill="#282C3F"/>
</svg>
