<svg width="17" height="17" viewBox="0 0 17 17" fill="none" xmlns="http://www.w3.org/2000/svg">
<path d="M8.49968 16.842C8.35276 16.8425 8.20874 16.7983 8.08438 16.7147C7.36645 16.2344 1.05164 11.9031 0.237134 8.05393C0.0728589 7.54412 -0.0072102 7.00763 0.000509417 6.46846C-0.00279727 5.48244 0.243374 4.51382 0.712938 3.66525C1.1825 2.81668 1.85797 2.11976 2.66777 1.64834C3.42415 1.18787 4.28122 0.950254 5.15152 0.959746C6.37985 0.961084 7.5673 1.43181 8.49968 2.287C10.1142 0.809978 12.6269 0.582744 14.3461 1.64834C15.1532 2.12186 15.8259 2.81963 16.2931 3.668C16.7603 4.51638 17.0047 5.4839 17.0005 6.46846C17.0072 7.04327 16.9195 7.61488 16.7413 8.15722C15.9574 11.9031 9.64256 16.2344 8.92463 16.7147C8.79746 16.8001 8.64986 16.8444 8.49968 16.842ZM5.15152 2.63302C4.55119 2.62408 3.95947 2.78629 3.4372 3.10298C2.86942 3.43005 2.39536 3.9159 2.06564 4.50864C1.73592 5.10138 1.56293 5.77876 1.56513 6.46846C1.56096 6.84822 1.61926 7.2258 1.73737 7.58397C2.2911 10.1799 6.47308 13.5781 8.49807 15.0104C10.5247 13.5799 14.7066 10.1903 15.233 7.68554C15.3673 7.29583 15.436 6.88377 15.4358 6.46846C15.4393 5.78345 15.2693 5.11021 14.944 4.52013C14.6186 3.93005 14.1501 3.44511 13.5879 3.11675L13.5638 3.10298C13.0408 2.78654 12.4486 2.62435 11.8478 2.63302C11.3234 2.63439 10.8056 2.75837 10.3307 2.99626C9.85574 3.23415 9.4352 3.58021 9.09848 4.01019C9.02471 4.10303 8.93295 4.1776 8.82955 4.22873C8.72615 4.27985 8.61359 4.30632 8.49968 4.30629C8.38623 4.30628 8.27415 4.27978 8.17128 4.22864C8.06841 4.1775 7.97722 4.10295 7.90409 4.01019C7.56659 3.58031 7.14544 3.23436 6.67003 2.9965C6.19461 2.75864 5.67639 2.63459 5.15152 2.63302Z" fill="#282C3F"/>
</svg>
