<svg width="18" height="27" viewBox="0 0 18 27" fill="none" xmlns="http://www.w3.org/2000/svg">
<path fill-rule="evenodd" clip-rule="evenodd" d="M17.7132 17.7302L13.4869 21.9565L0.786804 9.25564V0.810059L17.7132 17.7302Z" fill="#EE5C4E"/>
<path fill-rule="evenodd" clip-rule="evenodd" d="M6.46668 6.48838L6.21927 6.24072C6.10411 6.30387 6.00888 6.36416 5.89165 6.4242C4.32908 7.2249 2.67645 7.74118 0.942566 8.01006C0.899607 8.01679 0.83051 8.01938 0.787292 8.02585V8.3646C1.31755 8.28696 1.87136 8.19535 2.39644 8.07088C3.81982 7.73408 5.18961 7.20151 6.46668 6.48838Z" fill="#A43A35"/>
<path fill-rule="evenodd" clip-rule="evenodd" d="M4.07571 4.0978L3.83426 3.85635C3.72013 3.91923 3.62309 3.9728 3.50948 4.03465C3.49809 4.02094 3.48593 4.00877 3.47376 3.99376C3.50844 3.8535 3.53717 3.73498 3.57236 3.59471L3.2864 3.31004C3.21316 3.60377 3.13811 3.87472 3.0377 4.1612C3.02037 4.21063 3.01027 4.26187 2.94713 4.27947C2.72172 4.34805 2.51832 4.48106 2.24969 4.52713C2.45672 3.91199 2.56024 3.30875 2.65211 2.67627L2.33716 2.36003C2.24917 3.11052 2.12159 3.83332 1.87134 4.5512C1.83563 4.65471 1.78206 4.71941 1.67389 4.74736C1.49041 4.79368 1.30899 4.85087 1.07867 4.91661C1.4314 3.83176 1.55976 2.77564 1.63636 1.65975L1.30718 1.33057C1.30718 1.34894 1.30718 1.38698 1.30718 1.40587C1.25077 2.33933 1.16459 3.2249 0.944878 4.13636C0.907871 4.28827 0.834893 4.45053 0.786499 4.59959V5.33947C1.22515 5.23129 1.68579 5.10656 2.11745 4.95594C2.80143 4.71941 3.43753 4.42931 4.07571 4.0978Z" fill="#A43A35"/>
<path fill-rule="evenodd" clip-rule="evenodd" d="M0.984827 1.00751L0.788147 0.810059V0.887695C0.845081 0.924961 0.928152 0.969473 0.984827 1.00751Z" fill="#A43A35"/>
<path fill-rule="evenodd" clip-rule="evenodd" d="M0.787292 6.00761V6.33524C1.46377 6.19653 2.15887 6.02469 2.81853 5.79178C3.52401 5.54469 4.20905 5.24271 4.86736 4.88861L4.61427 4.63525C4.15434 4.88399 3.6801 5.1053 3.19403 5.29801C2.41285 5.60086 1.60782 5.83822 0.787292 6.00761Z" fill="#A43A35"/>
<path fill-rule="evenodd" clip-rule="evenodd" d="M0.787292 6.99777V7.33419C0.849143 7.32333 0.937131 7.31944 0.998723 7.30832C2.279 7.08097 3.52521 6.69191 4.70743 6.15049C5.03376 6.0004 5.33396 5.84176 5.64606 5.66682L5.39037 5.41113C4.7722 5.75541 4.12779 6.05031 3.46317 6.29309C2.59371 6.60635 1.69827 6.84216 0.787292 6.99777Z" fill="#A43A35"/>
<path fill-rule="evenodd" clip-rule="evenodd" d="M9.30948 10.4395C8.1897 10.3911 6.51171 10.2718 5.39658 10.1636C5.27754 10.1512 5.19939 10.1295 5.1968 9.98819C5.19395 9.82825 5.04437 9.63132 5.1541 9.52728C5.23174 9.45508 5.45378 9.53168 5.6106 9.54928C7.00082 9.69679 7.86647 9.77158 9.26186 9.79746V9.44732C8.57296 9.42817 8.05435 9.40229 7.36545 9.35493C6.64912 9.30472 5.93564 9.22554 5.22009 9.16524C5.07413 9.15359 4.98873 9.09821 4.95871 8.95329C4.93672 8.84382 4.9186 8.7297 4.87383 8.62903C4.79179 8.43804 4.89091 8.4339 5.03117 8.45072C6.25551 8.59953 7.48372 8.68518 8.714 8.73539L8.34005 8.36092C7.45059 8.31512 6.56165 8.24964 5.67245 8.14846C6.06064 7.96006 6.45089 7.76855 6.84192 7.58326C6.95579 7.52917 7.07768 7.57498 7.19155 7.58792C7.32638 7.60189 7.46198 7.60681 7.59681 7.61846L7.0474 7.06982C5.98243 7.66695 4.8532 8.14141 3.68133 8.48411C2.735 8.76128 1.76684 8.95763 0.787292 9.07104V9.25607L0.942566 9.41135C0.96094 9.40669 0.966116 9.39556 0.989148 9.39349C1.16036 9.38061 1.33051 9.35622 1.49844 9.32051C1.61205 9.29851 1.62784 9.34639 1.63716 9.44473C1.66303 9.68644 1.68115 9.92841 1.70237 10.1693L2.07994 10.5474C2.05018 10.1574 2.01939 9.76847 1.97332 9.37951C1.96116 9.27781 1.99558 9.23356 2.09055 9.21622C2.25877 9.18516 2.42698 9.15333 2.59416 9.1127C2.70958 9.0845 2.74296 9.12952 2.75331 9.24003C2.8193 9.94937 2.87339 10.661 2.906 11.3727L3.27762 11.7443C3.27607 11.699 3.27762 11.653 3.27607 11.6079C3.24657 10.8106 3.18032 10.0167 3.09 9.22398C3.07395 9.08372 3.0856 8.9934 3.26597 8.94656C3.68185 8.84123 3.68262 8.82493 3.74473 9.23123C3.90983 10.3195 4.0105 11.4166 4.04622 12.5168L4.38989 12.8607C4.37152 11.8015 4.30631 10.747 4.15698 9.69783C4.12101 9.44292 4.09048 9.18749 4.0426 8.93517C4.01543 8.79155 4.04855 8.70951 4.19529 8.6813C4.24078 8.67275 4.28514 8.65903 4.32753 8.64041C4.45692 8.57882 4.5123 8.60444 4.55319 8.75687C4.78491 9.62943 4.94759 10.5189 5.03971 11.417C5.11706 12.1468 5.15162 12.8805 5.14323 13.6143L5.87664 14.347C7.09864 14.5814 8.04167 14.7261 9.28334 14.7895L9.30948 10.4395ZM6.01224 13.8824C5.99801 13.9898 5.96049 14.0377 5.84714 14.0051C5.78308 13.9891 5.71808 13.9771 5.65253 13.9691C5.5353 13.9539 5.49053 13.8962 5.49337 13.7706C5.51674 12.7292 5.45338 11.6876 5.30394 10.6566C5.28582 10.5316 5.31558 10.4887 5.43954 10.5055C5.5635 10.5223 5.68824 10.5337 5.81194 10.5495C5.84389 10.5562 5.87535 10.565 5.90614 10.5759C5.91416 10.6147 5.92219 10.646 5.92866 10.6781C6.15354 11.7404 6.15587 12.8098 6.01224 13.8824ZM7.0562 13.9883C7.02825 14.1834 6.95424 14.2018 6.78991 14.1694C6.33625 14.0853 6.33392 14.09 6.38775 13.6444C6.50688 12.6622 6.47432 11.6677 6.29122 10.6955C6.28656 10.6696 6.28475 10.6437 6.28009 10.6C6.48453 10.616 6.66827 10.6323 6.85124 10.6398C6.94984 10.6445 6.98607 10.6916 7.00289 10.784C7.1986 11.8417 7.21661 12.9246 7.0562 13.9883ZM8.07428 14.2108C8.06858 14.2419 8.06418 14.2737 8.05823 14.311C8.02386 14.3148 7.9893 14.3168 7.95471 14.3169C7.88924 14.311 7.82325 14.3048 7.75803 14.295C7.36985 14.238 7.36209 14.2357 7.41773 13.8617C7.56417 12.8616 7.54484 11.8441 7.36054 10.8502C7.33466 10.7099 7.36261 10.6838 7.50132 10.6931C8.03856 10.734 8.04477 10.7291 8.12241 11.2601C8.26859 12.2397 8.25232 13.2366 8.07428 14.2108ZM9.15394 14.1405C9.14126 14.2227 9.09908 14.3017 9.08045 14.354C9.06742 14.3748 9.04841 14.3913 9.0259 14.4013C9.00338 14.4113 8.97839 14.4143 8.95416 14.4099C8.8949 14.407 8.83615 14.3982 8.77766 14.3907C8.40423 14.347 8.40423 14.3452 8.46091 13.9834C8.61723 12.978 8.60455 11.9536 8.42338 10.9524C8.38974 10.7633 8.44486 10.7247 8.6079 10.7596C8.76602 10.7953 8.97564 10.6988 9.07579 10.83C9.16119 10.9416 9.14489 11.1315 9.17051 11.2863C9.32733 12.2391 9.29369 13.1897 9.15394 14.1405Z" fill="#A43A35"/>
<path fill-rule="evenodd" clip-rule="evenodd" d="M13.2481 15.3044C13.1871 15.3804 12.9666 15.3784 12.8819 15.3848C10.8491 15.5557 8.80317 15.4867 6.78642 15.1794C6.75382 15.1744 6.72173 15.1685 6.68964 15.1636L7.08895 15.5629C8.79696 15.7973 10.5119 15.8859 12.2414 15.7748C12.3667 15.766 12.4914 15.7622 12.6162 15.758C12.6278 15.758 12.6389 15.7689 12.7117 15.8051C12.5129 16.0033 12.3302 16.1822 12.1527 16.3677C12.0981 16.4226 12.037 16.4195 11.9715 16.4218C10.5904 16.4946 9.20562 16.455 7.8309 16.3035L8.20821 16.6811C8.61606 16.7181 9.02391 16.7587 9.43358 16.78C10.1038 16.8126 10.7767 16.8095 11.4495 16.7945C11.5197 16.7924 11.5929 16.7735 11.6845 16.8325C11.4951 17.0225 11.317 17.1982 11.1426 17.376C11.0859 17.4339 11.0238 17.4425 10.9465 17.4432C10.2684 17.4552 9.59247 17.4313 8.91833 17.3915L9.27856 17.7512C9.29771 17.7512 9.31609 17.7553 9.33498 17.7556C9.76224 17.7748 10.2633 17.7864 10.7368 17.8017H10.6633" fill="#A43A35"/>
<path d="M17.7127 17.7303L13.4864 21.9566L9.2666 17.7362L13.4968 13.5068L17.7127 17.7303Z" fill="#F9D63C"/>
<path d="M9.27327 26.1898L13.497 21.9666L9.26111 17.73L9.27327 26.1898Z" fill="#F99F23"/>
<path d="M9.27327 17.7303L13.497 13.5069L9.26111 9.27051L9.27327 17.7303Z" fill="#F99F23"/>
<path d="M9.26096 9.28064L13.4683 5.04711L9.24854 0.820312L9.26096 9.28064Z" fill="#F99F23"/>
<path d="M9.26111 9.28048L13.4703 5.0542L17.7129 9.29187L13.4975 13.5068L9.26111 9.28048Z" fill="#F9D63C"/>
</svg>
