<svg width="23" height="19" viewBox="0 0 23 19" fill="none" xmlns="http://www.w3.org/2000/svg">
<path d="M20.6358 4.73514C20.6504 4.94294 20.6504 5.15079 20.6504 5.35859C20.6504 11.6968 15.9074 19 7.2386 19C4.5679 19 2.08694 18.2132 0 16.8477C0.379457 16.8922 0.744269 16.907 1.13832 16.907C3.34198 16.907 5.37057 16.15 6.9905 14.8586C4.91816 14.8141 3.18147 13.4336 2.58311 11.5336C2.87501 11.5781 3.16687 11.6078 3.47337 11.6078C3.89658 11.6078 4.31984 11.5484 4.71385 11.4445C2.55395 10.9992 0.933974 9.06952 0.933974 6.73905V6.6797C1.56149 7.03595 2.29125 7.25861 3.06467 7.28826C1.795 6.4273 0.963174 4.95779 0.963174 3.29528C0.963174 2.40467 1.19663 1.58826 1.60529 0.875759C3.92574 3.78513 7.41371 5.6851 11.3248 5.89295C11.2519 5.5367 11.2081 5.16564 11.2081 4.79454C11.2081 2.15232 13.3096 0 15.9219 0C17.2792 0 18.5051 0.578905 19.3661 1.51406C20.4314 1.30626 21.453 0.905458 22.3579 0.356253C22.0076 1.46956 21.2633 2.40472 20.2855 2.99842C21.2342 2.89457 22.1536 2.62732 23 2.25627C22.358 3.20623 21.5553 4.05229 20.6358 4.73514Z" fill="#282C3F"/>
</svg>
