<svg width="21" height="21" viewBox="0 0 21 21" fill="none" xmlns="http://www.w3.org/2000/svg">
<path d="M10.418 0.113159C4.91797 0.113159 0.417969 4.61316 0.417969 10.1132C0.417969 15.6132 4.91797 20.1132 10.418 20.1132C15.918 20.1132 20.418 15.6132 20.418 10.1132C20.418 4.61316 15.918 0.113159 10.418 0.113159ZM14.9805 8.42566L9.16797 14.2382C8.98047 14.4257 8.73047 14.4882 8.48047 14.4882C8.23047 14.4882 7.98047 14.4257 7.79297 14.2382L5.41797 11.8632C5.04297 11.4882 5.04297 10.9257 5.41797 10.5507C5.79297 10.1757 6.35547 10.1757 6.73047 10.5507L8.48047 12.3007L13.668 7.11316C14.043 6.73816 14.6055 6.73816 14.9805 7.11316C15.3555 7.48816 15.3555 8.05066 14.9805 8.42566Z" fill="#A33A34"/>
</svg>
