<svg width="17" height="16" viewBox="0 0 17 16" fill="none" xmlns="http://www.w3.org/2000/svg">
<path d="M13.6668 3.11133H5.22233C5.04552 3.11133 4.87595 3.18157 4.75093 3.30659C4.6259 3.43161 4.55566 3.60118 4.55566 3.77799V14.4447C4.55566 14.6215 4.6259 14.791 4.75093 14.9161C4.87595 15.0411 5.04552 15.1113 5.22233 15.1113H13.6668C13.8436 15.1113 14.0132 15.0411 14.1382 14.9161C14.2632 14.791 14.3334 14.6215 14.3334 14.4447V3.77799C14.3334 3.60118 14.2632 3.43161 14.1382 3.30659C14.0132 3.18157 13.8436 3.11133 13.6668 3.11133V3.11133ZM13.4446 14.2224H5.44455V4.00022H13.4446V14.2224Z" fill="#005BC2"/>
<path d="M12.1113 1.55534C12.1113 1.37853 12.041 1.20896 11.916 1.08393C11.791 0.95891 11.6214 0.888672 11.4446 0.888672H3.00016C2.82335 0.888672 2.65378 0.95891 2.52876 1.08393C2.40373 1.20896 2.3335 1.37853 2.3335 1.55534V12.222C2.3335 12.3988 2.40373 12.5684 2.52876 12.6934C2.65378 12.8184 2.82335 12.8887 3.00016 12.8887H3.22238V1.77756H12.1113V1.55534Z" fill="#005BC2"/>
</svg>
