<svg width="125" height="127" viewBox="0 0 125 127" fill="none" xmlns="http://www.w3.org/2000/svg">
<path d="M62.5 0C28.0108 0 0 28.3171 0 63.1799C0 98.0446 28.0108 126.362 62.5 126.362C96.9873 126.362 125 98.0446 125 63.1799C125 28.3151 96.9873 0 62.5 0ZM62.5 3.18983C95.3271 3.18983 121.901 29.995 121.901 63.1799C121.901 96.3667 95.3291 123.227 62.5 123.227C29.6709 123.227 3.15425 96.3647 3.15425 63.1799C3.15425 29.995 29.6729 3.18983 62.5 3.18983ZM62.0553 14.7732C61.1719 14.9412 60.5612 16.0045 60.8932 16.8444C60.8932 16.9571 60.8932 17.2357 60.9466 17.461C60.9466 18.0203 60.9466 18.803 61.0039 19.7556C61.0039 21.6588 61.0573 24.4 61.0573 27.5345C61.1106 33.9141 61.0573 42.197 61.0039 50.4779C60.9466 67.099 60.8379 83.4967 60.8379 83.4967C60.8379 84.3347 61.5553 85.064 62.3854 85.064C63.2154 85.064 63.9921 84.3347 63.9368 83.4967C63.9368 83.4967 64.1028 67.1523 64.1562 50.5332C64.1562 42.2523 64.2115 33.8568 64.2115 27.4772C64.1562 24.3446 64.1562 21.6568 64.1008 19.6983C64.1008 18.7476 64.1008 17.9077 64.0455 17.3484C64.0455 17.0124 64.0455 16.7891 63.9902 16.6211C63.9902 16.3978 64.0455 16.2851 63.8795 15.8384C63.6581 15.1665 62.9368 14.6625 62.2174 14.7752C62.168 14.7732 62.1126 14.7732 62.0553 14.7732ZM62.5 97.932C60.7826 97.932 59.3438 99.3866 59.3438 101.066C59.3438 102.8 60.7826 104.254 62.5 104.254C64.2155 104.254 65.5989 102.8 65.5989 101.066C65.5989 99.3866 64.2155 97.932 62.5 97.932Z" fill="#A33A34"/>
</svg>
