<svg width="102" height="97" viewBox="0 0 102 97" fill="none" xmlns="http://www.w3.org/2000/svg">
<path fill-rule="evenodd" clip-rule="evenodd" d="M83.5753 63.699L67.3081 78.9293L18.4248 33.1591V2.72363L83.5753 63.699Z" fill="#EE5C4E"/>
<path fill-rule="evenodd" clip-rule="evenodd" d="M40.288 23.1869L39.3357 22.2944C38.8925 22.522 38.5259 22.7393 38.0747 22.9556C32.0603 25.8411 25.6992 27.7016 19.0254 28.6706C18.86 28.6949 18.5941 28.7042 18.4277 28.7275V29.9483C20.4687 29.6685 22.6004 29.3384 24.6214 28.8898C30.1001 27.6761 35.3725 25.7568 40.288 23.1869Z" fill="#A43A35"/>
<path fill-rule="evenodd" clip-rule="evenodd" d="M31.0852 14.5724L30.1558 13.7023C29.7165 13.9289 29.343 14.122 28.9057 14.3449C28.8619 14.2954 28.8151 14.2516 28.7682 14.1975C28.9017 13.692 29.0123 13.2649 29.1478 12.7594L28.0471 11.7336C27.7652 12.7921 27.4763 13.7685 27.0898 14.8009C27.0231 14.979 26.9842 15.1637 26.7412 15.2271C25.8736 15.4742 25.0907 15.9536 24.0567 16.1196C24.8536 13.9028 25.252 11.7289 25.6056 9.44963L24.3934 8.30999C24.0547 11.0145 23.5637 13.6193 22.6004 16.2063C22.463 16.5794 22.2568 16.8125 21.8404 16.9132C21.1342 17.0802 20.4359 17.2863 19.5494 17.5232C20.9071 13.6137 21.4011 9.80775 21.696 5.78637L20.4289 4.6001C20.4289 4.66631 20.4289 4.8034 20.4289 4.87148C20.2118 8.23538 19.8801 11.4267 19.0344 14.7114C18.892 15.2588 18.6111 15.8435 18.4248 16.3807V19.047C20.1132 18.6572 21.8862 18.2077 23.5477 17.6649C26.1804 16.8125 28.6288 15.7671 31.0852 14.5724Z" fill="#A43A35"/>
<path fill-rule="evenodd" clip-rule="evenodd" d="M19.1848 3.43521L18.4277 2.72363V3.00341C18.6469 3.13771 18.9666 3.29812 19.1848 3.43521Z" fill="#A43A35"/>
<path fill-rule="evenodd" clip-rule="evenodd" d="M18.4277 21.4539V22.6346C21.0315 22.1347 23.707 21.5154 26.2461 20.6761C28.9615 19.7857 31.5983 18.6974 34.1321 17.4213L33.158 16.5083C31.3877 17.4047 29.5623 18.2022 27.6914 18.8967C24.6846 19.9881 21.586 20.8434 18.4277 21.4539Z" fill="#A43A35"/>
<path fill-rule="evenodd" clip-rule="evenodd" d="M18.4277 25.022V26.2344C18.6658 26.1952 19.0045 26.1812 19.2415 26.1411C24.1694 25.3218 28.9661 23.9198 33.5166 21.9686C34.7726 21.4277 35.9281 20.856 37.1294 20.2256L36.1453 19.3042C33.7659 20.5449 31.2855 21.6076 28.7273 22.4825C25.3807 23.6114 21.9341 24.4612 18.4277 25.022Z" fill="#A43A35"/>
<path fill-rule="evenodd" clip-rule="evenodd" d="M51.2301 37.4246C46.92 37.2503 40.4613 36.8203 36.1692 36.4305C35.711 36.3857 35.4101 36.3074 35.4002 35.7982C35.3892 35.2218 34.8135 34.5121 35.2358 34.1372C35.5346 33.877 36.3893 34.1531 36.9929 34.2165C42.3439 34.7481 45.6759 35.0176 51.0468 35.1109V33.8491C48.3952 33.78 46.399 33.6868 43.7474 33.5161C40.9903 33.3352 38.244 33.0498 35.4898 32.8325C34.928 32.7906 34.5993 32.591 34.4838 32.0687C34.3991 31.6742 34.3294 31.263 34.1571 30.9002C33.8413 30.2119 34.2228 30.197 34.7627 30.2576C39.4752 30.7939 44.2027 31.1025 48.9381 31.2835L47.4987 29.934C44.0752 29.7689 40.6536 29.533 37.231 29.1683C38.7251 28.4894 40.2272 27.7993 41.7323 27.1315C42.1706 26.9366 42.6398 27.1017 43.0781 27.1483C43.597 27.1987 44.119 27.2164 44.638 27.2584L42.5232 25.2812C38.4241 27.4331 34.0776 29.1429 29.567 30.3779C25.9246 31.3768 22.1981 32.0844 18.4277 32.4931V33.1599L19.0254 33.7194C19.0961 33.7026 19.116 33.6625 19.2047 33.6551C19.8637 33.6086 20.5186 33.5208 21.165 33.3921C21.6023 33.3128 21.663 33.4853 21.6989 33.8397C21.7985 34.7108 21.8682 35.5828 21.9499 36.451L23.4032 37.8135C23.2887 36.4081 23.1701 35.0064 22.9928 33.6047C22.946 33.2382 23.0785 33.0787 23.4441 33.0162C24.0915 32.9043 24.739 32.7896 25.3825 32.6432C25.8267 32.5415 25.9552 32.7038 25.9951 33.102C26.2491 35.6583 26.4572 38.223 26.5828 40.7876L28.0131 42.1268C28.0072 41.9636 28.0131 41.7976 28.0072 41.6353C27.8936 38.762 27.6386 35.9008 27.291 33.0442C27.2292 32.5388 27.274 32.2133 27.9683 32.0445C29.569 31.6649 29.572 31.6062 29.8111 33.0703C30.4465 36.9923 30.834 40.9459 30.9715 44.9106L32.2944 46.1501C32.2236 42.3329 31.9726 38.5326 31.3979 34.7518C31.2594 33.8332 31.1419 32.9127 30.9576 32.0034C30.853 31.4858 30.9805 31.1902 31.5453 31.0886C31.7204 31.0577 31.8912 31.0083 32.0543 30.9412C32.5523 30.7192 32.7655 30.8116 32.9229 31.3609C33.8148 34.5053 34.441 37.7106 34.7955 40.9471C35.0932 43.5771 35.2263 46.2212 35.194 48.8658L38.0169 51.506C42.7205 52.3509 46.3502 52.8723 51.1295 53.1007L51.2301 37.4246ZM38.5389 49.832C38.4841 50.219 38.3396 50.3915 37.9034 50.274C37.6568 50.2163 37.4066 50.173 37.1543 50.1444C36.7031 50.0894 36.5307 49.8814 36.5417 49.4291C36.6317 45.676 36.3878 41.9223 35.8126 38.2071C35.7428 37.7567 35.8574 37.6018 36.3345 37.6625C36.8116 37.7231 37.2918 37.7641 37.7679 37.821C37.8909 37.8452 38.012 37.877 38.1305 37.9161C38.1613 38.056 38.1922 38.1689 38.2171 38.2845C39.0827 42.1128 39.0917 45.9663 38.5389 49.832ZM42.5571 50.2134C42.4495 50.9166 42.1647 50.9828 41.5321 50.8662C39.786 50.5631 39.777 50.5799 39.9842 48.974C40.4427 45.4348 40.3174 41.8506 39.6127 38.347C39.5947 38.2537 39.5878 38.1605 39.5698 38.0029C40.3567 38.0607 41.064 38.1194 41.7682 38.1465C42.1477 38.1633 42.2872 38.333 42.3519 38.6659C43.1052 42.4777 43.1746 46.3803 42.5571 50.2134ZM46.4757 51.0154C46.4538 51.1274 46.4369 51.2421 46.414 51.3764C46.2817 51.3902 46.1487 51.3973 46.0155 51.3978C45.7635 51.3764 45.5095 51.354 45.2585 51.3185C43.7644 51.1134 43.7345 51.105 43.9487 49.7574C44.5123 46.153 44.4379 42.4864 43.7285 38.9047C43.6289 38.3992 43.7365 38.305 44.2704 38.3386C46.3383 38.4859 46.3622 38.4682 46.661 40.3819C47.2237 43.9119 47.1611 47.5045 46.4757 51.0154ZM50.6314 50.7618C50.5826 51.0583 50.4203 51.3428 50.3486 51.5312C50.2984 51.6065 50.2253 51.6659 50.1386 51.7018C50.0519 51.7378 49.9557 51.7485 49.8625 51.7326C49.6344 51.7224 49.4082 51.6906 49.1831 51.6636C47.7458 51.506 47.7458 51.4995 47.9639 50.1957C48.5656 46.5727 48.5168 42.881 47.8195 39.2731C47.69 38.5913 47.9022 38.4524 48.5297 38.5783C49.1383 38.707 49.9451 38.3591 50.3306 38.8319C50.6593 39.2339 50.5966 39.9184 50.6952 40.4761C51.2988 43.91 51.1693 47.3354 50.6314 50.7618Z" fill="#A43A35"/>
<path fill-rule="evenodd" clip-rule="evenodd" d="M66.3905 54.9565C66.1554 55.2307 65.3067 55.2233 64.981 55.2466C57.1564 55.8623 49.2816 55.6138 41.519 54.5061C41.3935 54.4884 41.27 54.4669 41.1465 54.4492L42.6835 55.8882C49.2577 56.7332 55.8588 57.0521 62.5157 56.652C62.9978 56.6203 63.4779 56.6063 63.958 56.5914C64.0029 56.5914 64.0457 56.6306 64.3256 56.7611C63.5606 57.4755 62.8573 58.1199 62.174 58.7886C61.9638 58.9863 61.7288 58.9751 61.4768 58.9835C56.1607 59.2458 50.8307 59.1033 45.5393 58.5573L46.9916 59.918C48.5614 60.0514 50.1312 60.1978 51.7081 60.2742C54.2879 60.3918 56.8778 60.3806 59.4676 60.3265C59.7376 60.319 60.0195 60.2509 60.3721 60.4636C59.643 61.1481 58.9576 61.7813 58.2863 62.422C58.0681 62.6309 57.8291 62.6617 57.5312 62.6645C54.9215 62.7074 52.3197 62.6216 49.7248 62.478L51.1114 63.7743C51.1851 63.7743 51.2558 63.7892 51.3286 63.7902C52.9731 63.8592 54.9015 63.9011 56.7244 63.9562H56.4415" fill="#A43A35"/>
<path d="M83.5749 63.6991L67.3077 78.9294L51.0654 63.7205L67.3476 48.479L83.5749 63.6991Z" fill="#F9D63C"/>
<path d="M51.0908 94.186L67.348 78.9668L51.0439 63.6992L51.0908 94.186Z" fill="#F99F23"/>
<path d="M51.0908 63.6992L67.348 48.4791L51.0439 33.2124L51.0908 63.6992Z" fill="#F99F23"/>
<path d="M51.0439 33.2484L67.2384 17.9919L50.9961 2.75977L51.0439 33.2484Z" fill="#F99F23"/>
<path d="M51.0439 33.2484L67.2454 18.0181L83.5754 33.2894L67.35 48.4787L51.0439 33.2484Z" fill="#F9D63C"/>
</svg>
