<svg width="12" height="12" viewBox="0 0 12 12" fill="none" xmlns="http://www.w3.org/2000/svg">
<path d="M8.69444 8.9165V7.1665H4.41667V4.83317H8.69444V3.08317L11.75 5.99984L8.69444 8.9165ZM7.47222 0.166504C7.79638 0.166504 8.10725 0.28942 8.33646 0.508213C8.56567 0.727005 8.69444 1.02375 8.69444 1.33317V2.49984H7.47222V1.33317H1.97222V10.6665H7.47222V9.49984H8.69444V10.6665C8.69444 10.9759 8.56567 11.2727 8.33646 11.4915C8.10725 11.7103 7.79638 11.8332 7.47222 11.8332H1.97222C1.64807 11.8332 1.33719 11.7103 1.10798 11.4915C0.878769 11.2727 0.75 10.9759 0.75 10.6665V1.33317C0.75 1.02375 0.878769 0.727005 1.10798 0.508213C1.33719 0.28942 1.64807 0.166504 1.97222 0.166504H7.47222Z" fill="#E31D38"/>
</svg>
