<svg width="20" height="20" viewBox="0 0 20 20" fill="none" xmlns="http://www.w3.org/2000/svg">
<path d="M17.1401 10.9359C17.1761 10.6359 17.2001 10.3239 17.2001 9.9999C17.2001 9.6759 17.1761 9.3639 17.1281 9.0639L19.1561 7.4799C19.3361 7.3359 19.3841 7.0719 19.2761 6.8679L17.3561 3.5439C17.2361 3.3279 16.9841 3.2559 16.7681 3.3279L14.3801 4.2879C13.8761 3.9039 13.3481 3.5919 12.7601 3.3519L12.4001 0.807902C12.3641 0.567902 12.1601 0.399902 11.9201 0.399902H8.08011C7.84011 0.399902 7.64811 0.567902 7.61211 0.807902L7.25211 3.3519C6.66411 3.5919 6.12411 3.9159 5.63211 4.2879L3.24411 3.3279C3.02811 3.2439 2.77611 3.3279 2.65611 3.5439L0.736107 6.8679C0.616107 7.0839 0.664107 7.3359 0.856107 7.4799L2.88411 9.0639C2.83611 9.3639 2.80011 9.6879 2.80011 9.9999C2.80011 10.3119 2.82411 10.6359 2.87211 10.9359L0.844107 12.5199C0.664106 12.6639 0.616107 12.9279 0.724107 13.1319L2.64411 16.4559C2.76411 16.6719 3.01611 16.7439 3.23211 16.6719L5.62011 15.7119C6.12411 16.0959 6.65211 16.4079 7.24011 16.6479L7.60011 19.1919C7.64811 19.4319 7.84011 19.5999 8.08011 19.5999H11.9201C12.1601 19.5999 12.3641 19.4319 12.3881 19.1919L12.7481 16.6479C13.3361 16.4079 13.8761 16.0839 14.3681 15.7119L16.7561 16.6719C16.9721 16.7559 17.2241 16.6719 17.3441 16.4559L19.2641 13.1319C19.3841 12.9159 19.3361 12.6639 19.1441 12.5199L17.1401 10.9359ZM10.0001 13.5999C8.02011 13.5999 6.40011 11.9799 6.40011 9.9999C6.40011 8.0199 8.02011 6.3999 10.0001 6.3999C11.9801 6.3999 13.6001 8.0199 13.6001 9.9999C13.6001 11.9799 11.9801 13.5999 10.0001 13.5999Z" fill="#005BC2"/>
</svg>
