<svg width="15" height="12" viewBox="0 0 15 12" fill="none" xmlns="http://www.w3.org/2000/svg">
<path d="M13.3139 2.87764C13.8627 2.46603 14.3566 1.9721 14.7408 1.39585C14.2469 1.61538 13.6706 1.78002 13.0944 1.8349C13.6981 1.47818 14.1371 0.929367 14.3566 0.243357C13.8078 0.572642 13.1767 0.819606 12.5456 0.956808C11.9968 0.380559 11.2559 0.0512741 10.4327 0.0512741C8.84111 0.0512741 7.55141 1.34097 7.55141 2.93252C7.55141 3.15204 7.57885 3.37156 7.63373 3.59109C5.24642 3.45389 3.10607 2.30139 1.67916 0.572642C1.4322 0.984248 1.295 1.47818 1.295 2.02698C1.295 3.01484 1.78893 3.89293 2.5847 4.4143C2.11821 4.38686 1.65172 4.2771 1.26756 4.05757V4.08502C1.26756 5.48448 2.25541 6.63697 3.57255 6.91138C3.35303 6.96626 3.07863 7.02114 2.83166 7.02114C2.63958 7.02114 2.47494 6.9937 2.28285 6.96626C2.63958 8.11876 3.70976 8.94197 4.97201 8.96941C3.98416 9.73774 2.74934 10.2042 1.40476 10.2042C1.1578 10.2042 0.938273 10.1768 0.71875 10.1493C1.98101 10.9726 3.49023 11.439 5.13666 11.439C10.4327 11.439 13.3139 7.07602 13.3139 3.2618C13.3139 3.1246 13.3139 3.01484 13.3139 2.87764Z" fill="white"/>
</svg>
